<svg id="Layer_1" data-name="Layer 1" xmlns="http://www.w3.org/2000/svg" viewBox="0 0 16 16"><defs><style>.cls-1{fill:none;}</style></defs><rect class="cls-1" x="1" y="1" width="14" height="14"/><path id="Path_8" data-name="Path 8" d="M10.46,4H3.9L5.49,2.71l-.63-.78L1.1,5h9.36a3.55,3.55,0,0,1,2.14,6.37l.6.8A4.5,4.5,0,0,0,15,8.54,4.55,4.55,0,0,0,10.46,4Z"/><path id="Path_9" data-name="Path 9" d="M4.27,7.49h-1a.16.16,0,0,0-.15.09A3.12,3.12,0,0,1,1.61,8.75a.14.14,0,0,0-.09.13V9.7c0,.05.05.1.1.08A3.69,3.69,0,0,0,3.08,9v5.7a.11.11,0,0,0,.1.11h1.1a.11.11,0,0,0,.11-.11V7.63a.12.12,0,0,0-.1-.14Z"/><path id="Path_10" data-name="Path 10" d="M8.89,9.59a2,2,0,0,0-1.52.6l.17-1.7h3.08a.12.12,0,0,0,.1-.11V7.59a.11.11,0,0,0-.1-.1H6.53a.14.14,0,0,0-.11.1l-.25,3.82a.09.09,0,0,0,.08.1h.92a.12.12,0,0,0,.12-.1,1.17,1.17,0,0,1,1.23-.89c.88,0,1.31.61,1.31,1.7S9.32,14,8.48,14a1.11,1.11,0,0,1-1.21-1V12.9a.11.11,0,0,0-.11-.11H6.09A.1.1,0,0,0,6,12.9H6a2.24,2.24,0,0,0,2.43,2h.06a2.58,2.58,0,0,0,2.7-2.44c0-.11,0-.23,0-.34A2.33,2.33,0,0,0,9.06,9.6Z"/></svg>