<svg viewBox="0 0 16 16" fill="none" xmlns="http://www.w3.org/2000/svg"><path fill-rule="evenodd" clip-rule="evenodd" d="M3.753 3.5 5.13 2.13 4.5 1.5 2.63 3.38 2 4l.63.63L4.5 6.5l.63-.62L3.75 4.5h8.75A1.5 1.5 0 0 1 14 6v1h1V6a2.5 2.5 0 0 0-2.5-2.5H3.753ZM5.84 7.16H5.1a3.94 3.94 0 0 1-1.58 1.6v1.09l.15-.08a4 4 0 0 0 1.24-1v4.39H3.4V14h3.87v-.84H5.84v-6ZM8.8 10a2.31 2.31 0 0 1 1.52-.61 2.18 2.18 0 0 1 2.26 2.33 2.351 2.351 0 0 1-2.46 2.4 2.45 2.45 0 0 1-2.51-1.61v-.09l.83-.3v.09a1.59 1.59 0 0 0 1.64 1.08 1.44 1.44 0 0 0 1.51-1.56 1.37 1.37 0 0 0-1.41-1.49 1.65 1.65 0 0 0-1.48.88v.06L7.9 11l.28-3.7h4l-.09.9H8.92L8.8 10Z" fill="#111111"/></svg>