<svg viewBox="0 0 16 16" fill="none" xmlns="http://www.w3.org/2000/svg"><path fill-rule="evenodd" clip-rule="evenodd" d="m13.25 3.5-1.37-1.37.62-.63 1.88 1.88L15 4l-.62.63L12.5 6.5l-.62-.62 1.373-1.38H4.5A1.5 1.5 0 0 0 3 6v1H2V6a2.5 2.5 0 0 1 2.5-2.5h8.75ZM5.1 7.16h.74v6h1.43V14H3.4v-.84h1.51V8.77a4 4 0 0 1-1.24 1l-.15.08V8.76a3.94 3.94 0 0 0 1.58-1.6ZM8.8 10a2.31 2.31 0 0 1 1.52-.61 2.18 2.18 0 0 1 2.26 2.33 2.351 2.351 0 0 1-2.46 2.4 2.45 2.45 0 0 1-2.51-1.61v-.09l.83-.3v.09a1.59 1.59 0 0 0 1.64 1.08 1.44 1.44 0 0 0 1.51-1.56 1.37 1.37 0 0 0-1.41-1.49 1.65 1.65 0 0 0-1.48.88v.06L7.9 11l.28-3.7h4l-.09.9H8.92L8.8 10Z" fill="#111111"/></svg>