<svg xmlns="http://www.w3.org/2000/svg" viewbox="0 0 16 16" fill="#000000">
    <title>Fast forward 15 seconds</title>
    <path d="M5.84,7.16H5.1l0,0A3.94,3.94,0,0,1,3.52,8.76l0,0V9.85l.15-.08a4,4,0,0,0,1.24-1v4.39H3.4V14H7.27v-.84H5.84Z" />
    <path d="M10.32,9.39A2.31,2.31,0,0,0,8.8,10l.12-1.8h3.17l.09-.9h-4L7.9,11l.8.18,0-.06a1.65,1.65,0,0,1,1.48-.88,1.37,1.37,0,0,1,1.41,1.49,1.44,1.44,0,0,1-1.51,1.56,1.59,1.59,0,0,1-1.64-1.08l0-.09-.83.3,0,.09a2.45,2.45,0,0,0,2.51,1.61,2.35,2.35,0,0,0,2.46-2.4A2.18,2.18,0,0,0,10.32,9.39Z" />
    <path d="M14,3.5H4.5A2.5,2.5,0,0,0,2,6V7H3V6A1.5,1.5,0,0,1,4.5,4.5H14Z" />
    <polygon points="11.88 2.13 13.75 4 11.88 5.88 12.5 6.5 14.38 4.63 15 4 14.38 3.38 12.5 1.5 11.88 2.13" />
</svg>