<svg id="Layer_1" data-name="Layer 1" xmlns="http://www.w3.org/2000/svg" viewBox="0 0 16 16"><path id="Path_5" data-name="Path 5" d="M7.32,7.07h-1a.15.15,0,0,0-.15.09A3.12,3.12,0,0,1,4.66,8.33a.14.14,0,0,0-.09.13v.82c0,.05,0,.1.1.08a3.82,3.82,0,0,0,1.46-.78v5.7a.12.12,0,0,0,.1.11h1.1a.12.12,0,0,0,.11-.11V7.21a.12.12,0,0,0-.1-.14Z"/><path id="Path_6" data-name="Path 6" d="M11.94,9.17a2,2,0,0,0-1.52.6l.17-1.7h3.08a.13.13,0,0,0,.1-.11V7.17a.1.1,0,0,0-.1-.1H9.58a.12.12,0,0,0-.11.1L9.22,11a.09.09,0,0,0,.08.1h.92a.12.12,0,0,0,.12-.1,1.17,1.17,0,0,1,1.23-.89c.88,0,1.31.61,1.31,1.7s-.51,1.78-1.35,1.78a1.12,1.12,0,0,1-1.21-1v-.09a.11.11,0,0,0-.11-.11H9.14a.1.1,0,0,0-.09.11h0a2.23,2.23,0,0,0,2.43,2h.06A2.58,2.58,0,0,0,14.24,12c0-.12,0-.23,0-.34a2.32,2.32,0,0,0-2.12-2.52Z"/><path id="Path_7" data-name="Path 7" d="M2.05,8.12A3.55,3.55,0,0,1,5.59,4.58H15L11.19,1.51l-.63.78,1.59,1.29H5.59a4.55,4.55,0,0,0-2.74,8.17l.6-.8A3.53,3.53,0,0,1,2.05,8.12Z"/></svg>