<svg xmlns="http://www.w3.org/2000/svg" fill="currentColor" viewBox="0 0 16 16"><path d="M12.666 10.793c.3 0 .542.243.542.542v.788H14a.542.542 0 0 1 0 1.084h-.792v.795a.542.542 0 0 1-1.083 0v-.795h-.791a.542.542 0 0 1 0-1.084h.791v-.788c0-.3.242-.542.541-.542M8 1.5a.5.5 0 0 1 .475.344L9.75 5.719a.83.83 0 0 0 .531.531l3.875 1.275a.5.5 0 0 1 0 .95L10.281 9.75a.83.83 0 0 0-.531.531l-1.275 3.875a.5.5 0 0 1-.95 0L6.25 10.281a.83.83 0 0 0-.531-.531L1.844 8.475a.5.5 0 0 1 0-.95L5.719 6.25a.83.83 0 0 0 .531-.531l1.275-3.875A.5.5 0 0 1 8 1.5M3.334 1.458c.299 0 .541.243.541.542v.793h.792a.542.542 0 0 1 0 1.084h-.792v.79a.541.541 0 0 1-1.083 0v-.79H2a.542.542 0 0 1 0-1.084h.792V2c0-.3.243-.542.542-.542"/></svg>