<svg xmlns="http://www.w3.org/2000/svg" fill="currentColor" viewBox="0 0 16 16">
  <path fill-rule="evenodd" d="M8.475 1.844a.5.5 0 0 0-.95 0L6.25 5.719a.833.833 0 0 1-.53.531L1.843 7.525a.5.5 0 0 0 0 .95L5.719 9.75a.833.833 0 0 1 .531.53l1.275 3.876a.5.5 0 0 0 .95 0l1.275-3.875a.833.833 0 0 1 .53-.531l3.876-1.275a.5.5 0 0 0 0-.95L10.281 6.25a.833.833 0 0 1-.531-.53L8.475 1.843ZM6.938 6.229 8 3l1.062 3.23a1.11 1.11 0 0 0 .709.708L13 8 9.77 9.062a1.11 1.11 0 0 0-.708.709L8 13 6.938 9.77a1.11 1.11 0 0 0-.709-.708L3 8l3.23-1.062a1.11 1.11 0 0 0 .708-.709ZM3.334 1.458c.299 0 .541.243.541.542v2.667a.542.542 0 0 1-1.083 0V2c0-.3.243-.542.542-.542Zm9.332 9.335c.3 0 .542.243.542.542V14a.542.542 0 1 1-1.083 0v-2.666c0-.3.242-.542.541-.542Z" clip-rule="evenodd"/>
  <path fill-rule="evenodd" d="M1.458 3.335c0-.3.243-.542.542-.542h2.667a.542.542 0 0 1 0 1.083H2a.542.542 0 0 1-.542-.541Zm9.334 9.33c0-.299.243-.541.542-.541H14a.542.542 0 0 1 0 1.083h-2.666a.542.542 0 0 1-.542-.542Z" clip-rule="evenodd"/>
</svg>
