<svg viewBox="0 0 35 28" fill="none" xmlns="http://www.w3.org/2000/svg"><path d="M0 0h35v28H0V0Z" fill="#4400FF"/><path d="M20.397 13.358c.68-.583.856-1.789.72-1.944-.136-.175-1.323-.33-2.061.194-.117.078-.098.195.038.175.409-.058 1.323-.155 1.478.059.156.213-.175 1.07-.33 1.458-.04.097.058.136.155.058ZM28.7 7.544a.953.953 0 0 0-.836-.427c-.506 0-.778.233-.992.72h-.02v-.545c-.019-.059-.058-.098-.135-.098h-.661c-.078 0-.137.059-.137.117v3.597c0 .078.059.117.137.136h.719a.133.133 0 0 0 .136-.136V8.964c0-.233.02-.467.117-.68a.464.464 0 0 1 .428-.292c.505 0 .447.583.447.972v1.964c0 .058.058.116.136.116h.72c.077 0 .135-.058.135-.116V8.653c-.019-.33-.019-.817-.194-1.109ZM21.525 18.22l-.72-.272a1.885 1.885 0 0 1-.583-.31.498.498 0 0 1-.155-.37c0-.39.291-.603.875-.603.33 0 .66.058.991.155a.544.544 0 0 0 .214.04c.078 0 .117-.059.117-.156v-.253a.39.39 0 0 0-.039-.175c-.039-.039-.078-.078-.156-.097a3.524 3.524 0 0 0-1.166-.214c-.506 0-.914.117-1.225.37a1.206 1.206 0 0 0-.428.971c0 .603.33 1.031 1.011 1.284l.778.292c.253.097.428.174.525.272a.468.468 0 0 1 .136.35.583.583 0 0 1-.233.505c-.156.117-.39.175-.68.175a3.99 3.99 0 0 1-1.265-.194.967.967 0 0 0-.233-.059c-.078 0-.117.059-.117.156v.253l.04.175c.019.039.077.078.155.097a3.5 3.5 0 0 0 1.38.253c.545 0 .972-.136 1.303-.389a1.225 1.225 0 0 0 .486-1.03c0-.312-.078-.545-.233-.74a1.906 1.906 0 0 0-.778-.486Zm-2.372-7.194a2.676 2.676 0 0 1 2.43 0c.078.039.175-.039.175-.117v-.544a.214.214 0 0 0-.116-.195 2.43 2.43 0 0 0-1.323-.272l1.187-1.691c.116-.156.175-.253.175-.331v-.428a.133.133 0 0 0-.137-.136h-2.313a.133.133 0 0 0-.137.136v.506c0 .078.059.136.137.136h1.205l-1.38 1.964c-.078.116-.078.272-.078.35v.525c.02.058.097.155.175.097Zm4.57-3.908c-1.012 0-1.576.855-1.576 1.964 0 1.088.545 1.963 1.575 1.963.972 0 1.595-.855 1.595-1.925 0-1.127-.564-2.002-1.595-2.002Zm0 3.189c-.545 0-.545-.914-.545-1.362 0-.427.039-1.127.544-1.127.214 0 .37.097.447.35.098.291.098.641.098.933.02.467 0 1.206-.545 1.206Zm.116 3.986a.585.585 0 0 0-.428.155.64.64 0 0 0-.155.428.64.64 0 0 0 .155.428c.097.116.253.155.428.155a.583.583 0 0 0 .428-.155.64.64 0 0 0 .155-.428.64.64 0 0 0-.155-.428.606.606 0 0 0-.428-.155Zm.292 1.886h-.584c-.136 0-.194.058-.194.194v4.336c0 .117.058.195.194.195h.584c.136 0 .194-.059.194-.195v-4.355c0-.117-.058-.175-.194-.175ZM8.186 8.614c-.408.039-.933.078-1.303.233a1.167 1.167 0 0 0-.739 1.109c0 .7.448 1.069 1.05 1.069.487 0 .759-.117 1.148-.486.116.175.175.272.408.447.058.02.117.02.156-.02l.525-.447c.058-.039.038-.116 0-.175-.137-.175-.273-.31-.273-.622v-1.07c0-.446.04-.855-.31-1.166-.273-.253-.72-.33-1.05-.33-.662 0-1.4.233-1.556 1.05a.106.106 0 0 0 .097.136l.68.077a.125.125 0 0 0 .117-.116c.058-.272.292-.409.564-.409.136 0 .311.059.389.175.097.137.078.331.078.487v.058h.02Zm-.136 1.42c-.117.194-.292.31-.486.31-.272 0-.428-.194-.428-.486 0-.583.525-.68 1.03-.68v.155c.02.234.02.467-.116.7Zm3.87 5.95c-.603 0-1.226.213-1.828.641-.195-.428-.603-.642-1.167-.642-.564 0-1.147.195-1.73.603l-.059-.292c-.02-.058-.039-.116-.078-.136l-.136-.039h-.408c-.117 0-.195.059-.195.175v4.22c0 .117.059.175.195.175h.544c.117 0 .195-.058.195-.175v-3.422a2.457 2.457 0 0 1 1.36-.39c.254 0 .448.078.565.215.116.136.175.37.175.66v2.917c0 .117.058.175.194.175h.545c.116 0 .194-.058.194-.175v-3.383c.467-.272.914-.408 1.361-.408.253 0 .447.078.564.214.117.136.175.37.175.66v2.917c0 .117.058.175.195.175h.544c.117 0 .194-.058.194-.175v-3.169c0-.428-.116-.758-.35-1.011a1.692 1.692 0 0 0-1.05-.33Zm6.3.194h-.545c-.117 0-.175.058-.175.175v3.383c-.39.27-.849.418-1.322.428-.272 0-.486-.078-.622-.234-.137-.155-.195-.388-.195-.719v-2.858c0-.117-.058-.175-.175-.175h-.544c-.117 0-.175.058-.175.175v3.15c0 .447.116.777.35 1.01a1.36 1.36 0 0 0 .991.37c.603 0 1.186-.214 1.75-.622l.059.311c.02.059.039.117.077.136l.137.04h.388c.117 0 .175-.06.175-.176v-4.22c0-.116-.058-.174-.175-.174Zm10.538 3.791-.136.02c-.31.078-.583.136-.855.136-.506 0-.875-.136-1.128-.389-.233-.272-.35-.68-.35-1.244v-.117c0-.583.117-.992.35-1.264.233-.272.622-.389 1.147-.389.272 0 .525.04.778.117l.155.02c.078 0 .117-.059.117-.195v-.253l-.039-.194c-.02-.04-.078-.078-.155-.098a2.992 2.992 0 0 0-1.011-.175c-.74 0-1.323.214-1.731.642-.408.428-.603 1.03-.603 1.828 0 .797.195 1.4.584 1.808.388.409.952.622 1.71.622.409 0 .778-.058 1.07-.194l.156-.097.039-.175v-.253c.019-.078-.02-.156-.098-.156Zm-18.744-8.925h.7a.133.133 0 0 0 .136-.136V9.003c0-.409-.02-.992.486-.992s.428.583.428.992v1.905c0 .078.058.117.136.136h.7a.133.133 0 0 0 .136-.136V9.003c0-.214 0-.506.058-.68a.485.485 0 0 1 .428-.292c.195 0 .37.077.409.31.038.137.019.526.019.681v1.906c0 .077.058.116.136.136h.7a.133.133 0 0 0 .136-.136V8.653c0-.39.04-.836-.175-1.128-.194-.272-.525-.389-.816-.389a1.011 1.011 0 0 0-.973.661c-.194-.447-.466-.66-.914-.66-.427 0-.758.213-.933.66h-.02v-.466c0-.059-.058-.117-.135-.117h-.662a.133.133 0 0 0-.136.136v3.597c.04.04.078.097.156.097Zm7.311-2.43c-.408.039-.933.078-1.303.233a1.166 1.166 0 0 0-.739 1.109c0 .7.448 1.069 1.05 1.069.486 0 .759-.117 1.148-.486.136.175.175.272.408.447.058.02.117.02.155-.02l.525-.447c.059-.039.04-.116 0-.175-.136-.175-.272-.31-.272-.622v-1.07c0-.446.04-.855-.31-1.166-.273-.253-.72-.33-1.05-.33-.662 0-1.4.233-1.556 1.05a.106.106 0 0 0 .097.136l.68.077a.125.125 0 0 0 .117-.116c.058-.272.292-.409.564-.409.136 0 .311.059.389.175.097.137.078.331.078.487v.058h.019Zm0 .7c0 .272 0 .486-.136.72-.117.194-.292.31-.486.31-.272 0-.428-.194-.428-.486 0-.583.525-.68 1.03-.68v.136h.02Z" fill="white"/><path d="M9.353 11.628c1.555 1.36 3.617 2.158 5.91 2.158 1.634 0 3.52-.486 4.843-1.42.213-.155.038-.388-.195-.291a12.034 12.034 0 0 1-10.422-.603c-.156-.097-.272.059-.136.156Z" fill="white"/></svg>