<svg xmlns="http://www.w3.org/2000/svg" viewBox="0 0 24 24">
<path fill-rule="evenodd" clip-rule="evenodd" fill="white" d="M24 2.5H0V21.7H24V2.5ZM13.9867 11.66C14.4533 11.26 14.5733 10.4333 14.48 10.3267C14.3867 10.2067 13.5733 10.1 13.0667 10.46C12.9867 10.5133 13 10.5933 13.0933 10.58C13.3733 10.54 14 10.4733 14.1067 10.62C14.2133 10.7667 13.9867 11.3533 13.88 11.62C13.8533 11.6867 13.92 11.7133 13.9867 11.66ZM19.68 7.67333C19.6179 7.57908 19.5325 7.50252 19.432 7.45112C19.3315 7.39971 19.2194 7.37521 19.1067 7.38C18.76 7.38 18.5733 7.54 18.4267 7.87333H18.4133V7.5C18.4 7.46 18.3733 7.43333 18.32 7.43333H17.8667C17.8133 7.43333 17.7733 7.47333 17.7733 7.51333V9.98C17.7733 10.0333 17.8133 10.06 17.8667 10.0733H18.36C18.4133 10.0733 18.4533 10.0333 18.4533 9.98V8.64667C18.4533 8.48667 18.4667 8.32667 18.5333 8.18C18.5867 8.06 18.6933 7.98 18.8267 7.98C19.1417 7.98 19.1374 8.3104 19.134 8.57082C19.1337 8.59694 19.1333 8.62236 19.1333 8.64667V9.99333C19.1333 10.0333 19.1733 10.0733 19.2267 10.0733H19.72C19.7733 10.0733 19.8133 10.0333 19.8133 9.99333V8.43333C19.8116 8.40441 19.8101 8.37375 19.8086 8.34185C19.798 8.12377 19.7847 7.84781 19.68 7.67333ZM14.76 14.9933L14.2667 14.8067C14.1218 14.7597 13.9864 14.6874 13.8667 14.5933C13.8 14.5267 13.76 14.4467 13.76 14.34C13.76 14.0733 13.96 13.9267 14.36 13.9267C14.5867 13.9267 14.8133 13.9667 15.04 14.0333C15.1067 14.06 15.16 14.06 15.1867 14.06C15.24 14.06 15.2667 14.02 15.2667 13.9533V13.78C15.2672 13.7385 15.2581 13.6974 15.24 13.66C15.2133 13.6333 15.1867 13.6067 15.1333 13.5933C14.8667 13.5 14.6 13.4467 14.3333 13.4467C13.9867 13.4467 13.7067 13.5267 13.4933 13.7C13.3968 13.7813 13.3201 13.8837 13.2693 13.9993C13.2184 14.1149 13.1947 14.2405 13.2 14.3667C13.2 14.78 13.4267 15.0733 13.8933 15.2467L14.4267 15.4467C14.6 15.5133 14.72 15.5667 14.7867 15.6333C14.8533 15.7 14.88 15.78 14.88 15.8733C14.8843 15.9399 14.872 16.0064 14.844 16.067C14.8161 16.1275 14.7735 16.1801 14.72 16.22C14.6133 16.3 14.4533 16.34 14.2533 16.34C13.96 16.34 13.6667 16.3 13.3867 16.2067C13.3352 16.1868 13.2814 16.1733 13.2267 16.1667C13.1733 16.1667 13.1467 16.2067 13.1467 16.2733V16.4467L13.1733 16.5667C13.1867 16.5933 13.2267 16.62 13.28 16.6333C13.5806 16.7544 13.9026 16.8134 14.2267 16.8067C14.6 16.8067 14.8933 16.7133 15.12 16.54C15.2287 16.458 15.3158 16.3509 15.3738 16.2278C15.4319 16.1047 15.4592 15.9693 15.4533 15.8333C15.4533 15.62 15.4 15.46 15.2933 15.3267C15.1453 15.1738 14.9623 15.0594 14.76 14.9933ZM13.1333 10.06C13.6667 9.78 14.32 9.80667 14.8 10.06C14.8533 10.0867 14.92 10.0333 14.92 9.98V9.60667C14.92 9.55333 14.8933 9.5 14.84 9.47333C14.5615 9.32675 14.2471 9.26203 13.9333 9.28667L14.7467 8.12667C14.8267 8.02 14.8667 7.95333 14.8667 7.9V7.60667C14.8667 7.55333 14.8267 7.51333 14.7733 7.51333H13.1867C13.1333 7.51333 13.0933 7.55333 13.0933 7.60667V7.95333C13.0933 8.00667 13.1333 8.04667 13.1867 8.04667H14.0133L13.0667 9.39333C13.0133 9.47333 13.0133 9.58 13.0133 9.63333V9.99333C13.0267 10.0333 13.08 10.1 13.1333 10.06ZM16.2667 7.38C15.5733 7.38 15.1867 7.96667 15.1867 8.72667C15.1867 9.47333 15.56 10.0733 16.2667 10.0733C16.9333 10.0733 17.36 9.48667 17.36 8.75333C17.36 7.98 16.9733 7.38 16.2667 7.38ZM16.2667 9.56667C15.8933 9.56667 15.8933 8.94 15.8933 8.63333C15.8933 8.34 15.92 7.86 16.2667 7.86C16.4133 7.86 16.52 7.92667 16.5733 8.1C16.64 8.3 16.64 8.54 16.64 8.74C16.6533 9.06 16.64 9.56667 16.2667 9.56667ZM16.3467 12.3C16.2931 12.2972 16.2396 12.3052 16.1892 12.3235C16.1388 12.3419 16.0926 12.3701 16.0533 12.4067C15.9867 12.4867 15.9467 12.58 15.9467 12.7C15.9467 12.82 15.9867 12.9133 16.0533 12.9933C16.12 13.0733 16.2267 13.1 16.3467 13.1C16.4002 13.1028 16.4538 13.0948 16.5042 13.0765C16.5546 13.0581 16.6008 13.0299 16.64 12.9933C16.7067 12.9133 16.7467 12.82 16.7467 12.7C16.7467 12.58 16.7067 12.4867 16.64 12.4067C16.5733 12.34 16.4667 12.3 16.3467 12.3ZM16.1467 13.5933C16.0533 13.5933 16.0133 13.6333 16.0133 13.7267V16.7C16.0133 16.78 16.0533 16.8333 16.1467 16.8333H16.5467C16.64 16.8333 16.68 16.7933 16.68 16.7V13.7133C16.68 13.6333 16.64 13.5933 16.5467 13.5933H16.1467ZM5.61333 8.40667L5.54771 8.41283C5.27884 8.43789 4.95394 8.46817 4.72 8.56667C4.56808 8.6265 4.43811 8.73139 4.34754 8.86725C4.25697 9.0031 4.21014 9.16342 4.21333 9.32667C4.21333 9.80667 4.52 10.06 4.93333 10.06C5.26667 10.06 5.45333 9.98 5.72 9.72667L5.73196 9.74464C5.8044 9.85361 5.84817 9.91946 6 10.0333C6.04 10.0467 6.08 10.0467 6.10667 10.02L6.46667 9.71333C6.50667 9.68667 6.49333 9.63333 6.46667 9.59333C6.45724 9.58121 6.44781 9.56936 6.43848 9.55763C6.35543 9.45325 6.28 9.35845 6.28 9.16667V8.43333C6.28 8.40524 6.28022 8.37737 6.28044 8.34976L6.28045 8.34964C6.28265 8.07585 6.28465 7.8271 6.06667 7.63333C5.88 7.46 5.57333 7.40667 5.34667 7.40667C4.89333 7.40667 4.38667 7.56667 4.28 8.12667C4.26667 8.18 4.30667 8.22 4.34667 8.22L4.81333 8.27333C4.85333 8.27333 4.89333 8.23333 4.89333 8.19333C4.93333 8.00667 5.09333 7.91333 5.28 7.91333C5.37333 7.91333 5.49333 7.95333 5.54667 8.03333C5.60402 8.11363 5.60216 8.22352 5.60053 8.32057V8.32058C5.60026 8.33634 5.6 8.35176 5.6 8.36667V8.40667H5.61333ZM5.52 9.38C5.44 9.51333 5.32 9.59333 5.18667 9.59333C5 9.59333 4.89333 9.46 4.89333 9.26C4.89333 8.86 5.25333 8.79333 5.6 8.79333V8.9C5.61333 9.06 5.61333 9.22 5.52 9.38ZM8.17333 13.46C7.76 13.46 7.33333 13.6067 6.92 13.9C6.78667 13.6067 6.50667 13.46 6.12 13.46C5.73333 13.46 5.33333 13.5933 4.93333 13.8733L4.89333 13.6733C4.88 13.6333 4.86667 13.5933 4.84 13.58L4.74667 13.5533H4.46667C4.38667 13.5533 4.33333 13.5933 4.33333 13.6733V16.5667C4.33333 16.6467 4.37333 16.6867 4.46667 16.6867H4.84C4.92 16.6867 4.97333 16.6467 4.97333 16.5667V14.22C5.26667 14.0333 5.57333 13.9533 5.90667 13.9533C6.08 13.9533 6.21333 14.0067 6.29333 14.1C6.37333 14.1933 6.41333 14.3533 6.41333 14.5533V16.5533C6.41333 16.6333 6.45333 16.6733 6.54667 16.6733H6.92C7 16.6733 7.05333 16.6333 7.05333 16.5533V14.2333C7.37333 14.0467 7.68 13.9533 7.98667 13.9533C8.16 13.9533 8.29333 14.0067 8.37333 14.1C8.45333 14.1933 8.49333 14.3533 8.49333 14.5533V16.5533C8.49333 16.6333 8.53333 16.6733 8.62667 16.6733H9C9.08 16.6733 9.13333 16.6333 9.13333 16.5533V14.38C9.13333 14.0867 9.05333 13.86 8.89333 13.6867C8.68531 13.533 8.43189 13.4532 8.17333 13.46ZM12.4933 13.5933H12.12C12.04 13.5933 12 13.6333 12 13.7133V16.0333C11.7331 16.218 11.4178 16.32 11.0933 16.3267C10.9067 16.3267 10.76 16.2733 10.6667 16.1667C10.5733 16.06 10.5333 15.9 10.5333 15.6733V13.7133C10.5333 13.6333 10.4933 13.5933 10.4133 13.5933H10.04C9.96 13.5933 9.92 13.6333 9.92 13.7133V15.8733C9.92 16.18 10 16.4067 10.16 16.5667C10.2507 16.6522 10.3576 16.7186 10.4744 16.7621C10.5912 16.8056 10.7155 16.8253 10.84 16.82C11.2533 16.82 11.6533 16.6733 12.04 16.3933L12.08 16.6067C12.0933 16.6467 12.1067 16.6867 12.1333 16.7L12.2267 16.7267H12.4933C12.5733 16.7267 12.6133 16.6867 12.6133 16.6067V13.7133C12.6133 13.6333 12.5733 13.5933 12.4933 13.5933ZM19.72 16.1933L19.6267 16.2067C19.4133 16.26 19.2267 16.3 19.04 16.3C18.6933 16.3 18.44 16.2067 18.2667 16.0333C18.1067 15.8467 18.0267 15.5667 18.0267 15.18V15.1C18.0267 14.7 18.1067 14.42 18.2667 14.2333C18.4267 14.0467 18.6933 13.9667 19.0533 13.9667C19.24 13.9667 19.4133 13.9933 19.5867 14.0467L19.6933 14.06C19.7467 14.06 19.7733 14.02 19.7733 13.9267V13.7533L19.7467 13.62C19.7333 13.5933 19.6933 13.5667 19.64 13.5533C19.4133 13.4733 19.1867 13.4333 18.9467 13.4333C18.44 13.4333 18.04 13.58 17.76 13.8733C17.48 14.1667 17.3467 14.58 17.3467 15.1267C17.3467 15.6733 17.48 16.0867 17.7467 16.3667C18.0133 16.6467 18.4 16.7933 18.92 16.7933C19.2 16.7933 19.4533 16.7533 19.6533 16.66L19.76 16.5933L19.7867 16.4733V16.3C19.8 16.2467 19.7733 16.1933 19.72 16.1933ZM6.86667 10.0733H7.34667C7.4 10.0733 7.44 10.0333 7.44 9.98V8.67333L7.43997 8.64329C7.43951 8.36562 7.43889 7.99333 7.77333 7.99333C8.08018 7.99333 8.07364 8.30671 8.06809 8.57288V8.57293C8.06737 8.60746 8.06667 8.64119 8.06667 8.67333V9.98C8.06667 10.0333 8.10667 10.06 8.16 10.0733H8.64C8.69333 10.0733 8.73333 10.0333 8.73333 9.98V8.67333C8.73333 8.52667 8.73333 8.32667 8.77333 8.20667C8.82667 8.08667 8.94667 8.00667 9.06667 8.00667C9.2 8.00667 9.32 8.06 9.34667 8.22C9.36756 8.29314 9.3639 8.47271 9.36133 8.59833V8.59834C9.36062 8.63302 9.36 8.66359 9.36 8.68667V9.99333C9.36 10.0467 9.4 10.0733 9.45333 10.0867H9.93333C9.98667 10.0867 10.0267 10.0467 10.0267 9.99333V8.43333C10.0267 8.3982 10.0271 8.36237 10.0276 8.32618L10.0276 8.32598C10.0307 8.08757 10.034 7.8336 9.90667 7.66C9.77333 7.47333 9.54667 7.39333 9.34667 7.39333C9.20215 7.38997 9.0602 7.43186 8.94067 7.51314C8.82114 7.59443 8.73 7.71104 8.68 7.84667C8.54667 7.54 8.36 7.39333 8.05333 7.39333C7.76 7.39333 7.53333 7.54 7.41333 7.84667H7.4V7.52667C7.4 7.48667 7.36 7.44667 7.30667 7.44667H6.85333C6.8 7.44667 6.76 7.48667 6.76 7.54V10.0067C6.76432 10.011 6.76864 10.0157 6.77307 10.0204L6.7731 10.0205C6.79602 10.0453 6.82199 10.0733 6.86667 10.0733ZM11.88 8.40667L11.8144 8.41283C11.5455 8.43789 11.2206 8.46817 10.9867 8.56667C10.8347 8.6265 10.7048 8.73139 10.6142 8.86725C10.5236 9.0031 10.4768 9.16342 10.48 9.32667C10.48 9.80667 10.7867 10.06 11.2 10.06C11.5333 10.06 11.72 9.98 11.9867 9.72667C12.008 9.75408 12.0258 9.7787 12.0426 9.80181C12.0991 9.8799 12.1432 9.94074 12.2667 10.0333C12.3067 10.0467 12.3467 10.0467 12.3733 10.02L12.7333 9.71333C12.7733 9.68667 12.76 9.63333 12.7333 9.59333C12.7239 9.58123 12.7145 9.5694 12.7052 9.55769L12.7051 9.55763C12.6221 9.45325 12.5467 9.35845 12.5467 9.16667V8.43333C12.5467 8.4052 12.5469 8.37729 12.5471 8.34964C12.5493 8.07585 12.5513 7.8271 12.3333 7.63333C12.1467 7.46 11.84 7.40667 11.6133 7.40667C11.16 7.40667 10.6533 7.56667 10.5467 8.12667C10.5333 8.18 10.5733 8.22 10.6133 8.22L11.08 8.27333C11.12 8.27333 11.16 8.23333 11.16 8.19333C11.2 8.00667 11.36 7.91333 11.5467 7.91333C11.64 7.91333 11.76 7.95333 11.8133 8.03333C11.8707 8.11363 11.8688 8.22352 11.8672 8.32058C11.8669 8.33634 11.8667 8.35176 11.8667 8.36667V8.40667H11.88ZM11.88 8.88667C11.88 9.07333 11.88 9.22 11.7867 9.38C11.7067 9.51333 11.5867 9.59333 11.4533 9.59333C11.2667 9.59333 11.16 9.46 11.16 9.26C11.16 8.86 11.52 8.79333 11.8667 8.79333V8.88667H11.88ZM6.41333 10.4733C7.48 11.4067 8.89333 11.9533 10.4667 11.9533C11.5867 11.9533 12.88 11.62 13.7867 10.98C13.9333 10.8733 13.8133 10.7133 13.6533 10.78C12.5075 11.2521 11.2701 11.4601 10.0329 11.3885C8.79565 11.3169 7.59044 10.9677 6.50667 10.3667C6.4 10.3 6.32 10.4067 6.41333 10.4733Z" />
</svg>
