<svg viewBox="0 0 24 25" fill="none" xmlns="http://www.w3.org/2000/svg" xmlns:xlink="http://www.w3.org/1999/xlink"><defs><path d="M20.858 19.78C10.941 24.5 4.786 20.55.846 18.153c-.244-.15-.657.036-.298.449 1.312 1.592 5.613 5.424 11.228 5.424 5.615 0 8.962-3.063 9.377-3.599.415-.535.122-.823-.299-.647h.004Zm2.785-1.539c-.27-.347-1.619-.406-2.47-.306-.852.1-2.133.622-2.022.936.057.116.174.065.76.012.585-.053 2.233-.271 2.576.181.343.453-.525 2.602-.678 2.95-.153.347.058.435.346.204a4.473 4.473 0 0 0 1.144-1.674c.343-.852.552-2.034.35-2.305l-.006.002Z" fill="#FF9900" id="reuse-0"/><path fill-rule="evenodd" clip-rule="evenodd" d="M14.19 10.15c0 1.237.031 2.27-.594 3.37-.506.894-1.306 1.444-2.2 1.444-1.221 0-1.932-.93-1.932-2.305 0-2.712 2.428-3.201 4.726-3.201v.691Zm3.205 7.748a.663.663 0 0 1-.75.076c-1.056-.876-1.243-1.282-1.825-2.12-1.743 1.781-2.983 2.306-5.239 2.306-2.674 0-4.758-1.65-4.758-4.955 0-2.576 1.4-4.339 3.39-5.194 1.725-.76 4.136-.894 5.977-1.104V6.5c0-.755.058-1.648-.384-2.305-.389-.586-1.132-.827-1.784-.827-1.213 0-2.295.621-2.558 1.91-.054.285-.27.567-.55.581L5.83 5.531c-.26-.058-.543-.271-.474-.667C6.067 1.127 9.441 0 12.464 0c1.547 0 3.567.407 4.789 1.582 1.547 1.444 1.4 3.371 1.4 5.469v4.953c0 1.492.616 2.142 1.197 2.947.206.286.25.63-.009.844-.648.543-1.802 1.547-2.44 2.111l-.01-.01" fill="black" id="reuse-1"/></defs><g clip-path="url(#amazon_svg__clip0_337_598)"><use xlink:href="#reuse-0"/><use fill-rule="evenodd" clip-rule="evenodd" xlink:href="#reuse-1"/><use xlink:href="#reuse-0"/><use fill-rule="evenodd" clip-rule="evenodd" xlink:href="#reuse-1"/></g><defs><clipPath id="amazon_svg__clip0_337_598"><path fill="white" transform="translate(.407)" d="M0 0h23.317v24.029H0z"/></clipPath></defs></svg>