<svg xmlns="http://www.w3.org/2000/svg" viewBox="0 0 24 24">
<path fill-rule="evenodd" clip-rule="evenodd" fill="white" d="M5.33528 0H18.6633C21.6103 0 23.9993 2.38901 23.9993 5.336V18.664C23.9993 21.611 21.6103 24 18.6633 24H5.33528C2.38829 24 -0.000717163 21.611 -0.000717163 18.664V5.336C-0.000717163 2.38901 2.38829 0 5.33528 0ZM10.1033 18.368C10.3993 20.408 10.5433 20.752 11.2633 21.008L11.2713 21.016C11.5483 21.1208 11.8486 21.1486 12.1401 21.0965C12.4317 21.0444 12.7037 20.9143 12.9273 20.72C13.2473 20.448 13.3753 20.024 13.6073 18.368C13.9513 16 14.0233 14.528 13.8233 14.064C13.5593 13.448 12.8473 13.096 11.8553 13.096C10.8633 13.104 10.1513 13.448 9.88728 14.064C9.68728 14.528 9.75928 16 10.1033 18.368ZM5.16979 16.1283C5.97487 17.1725 7.01576 18.0113 8.20728 18.576L8.25528 18.616C8.68728 18.824 9.09528 19 9.15128 19C9.23928 19 9.24728 18.896 9.21528 18.536C9.14328 17.944 9.07128 17.824 8.73528 17.68C7.74621 17.1878 6.87525 16.4876 6.18207 15.6273C5.4889 14.7671 4.9899 13.7671 4.71928 12.696C4.53528 11.944 4.53528 10.112 4.71928 9.36C5.05489 8.00167 5.76281 6.76391 6.76342 5.78592C7.76403 4.80792 9.01764 4.12848 10.3833 3.824C11.1753 3.664 12.5993 3.664 13.3833 3.824C14.7214 4.11439 15.9539 4.76729 16.9459 5.71125C17.9378 6.65522 18.651 7.85386 19.0073 9.176C19.2393 10.024 19.2633 11.856 19.0553 12.68C18.7841 13.7489 18.2847 14.7463 17.5915 15.6039C16.8982 16.4615 16.0276 17.1588 15.0393 17.648C14.7033 17.792 14.6393 17.912 14.5593 18.504C14.5193 18.88 14.5353 18.968 14.6153 18.968C16.0444 18.4697 17.3146 17.599 18.2948 16.4458C19.275 15.2926 19.9297 13.8987 20.1913 12.408C20.3033 11.744 20.3033 10.136 20.1833 9.552C19.8943 7.88901 19.1044 6.35391 17.9193 5.152C16.3113 3.472 14.1993 2.568 11.8633 2.568C10.7133 2.56044 9.57444 2.79273 8.51931 3.25004C7.46418 3.70736 6.51599 4.37965 5.73528 5.224C4.60017 6.41395 3.83817 7.91013 3.54328 9.528C3.41528 10.176 3.43128 11.864 3.57528 12.568C3.8183 13.864 4.3647 15.084 5.16979 16.1283ZM6.36728 12.32C6.67428 13.4882 7.32673 14.5366 8.23928 15.328L8.27128 15.336C8.51928 15.536 8.75128 15.696 8.78328 15.696C8.81528 15.696 8.83928 15.424 8.83928 15.088V14.48L8.43928 13.992C7.90337 13.3762 7.54325 12.6273 7.39679 11.8242C7.25033 11.0211 7.32294 10.1934 7.60698 9.428C7.89103 8.66264 8.37601 7.98794 9.01096 7.47481C9.6459 6.96169 10.4074 6.6291 11.2153 6.512C11.8793 6.4 12.0153 6.4 12.6553 6.512C13.4509 6.64889 14.1958 6.99453 14.8141 7.5136C15.4324 8.03267 15.9018 8.70657 16.1743 9.46645C16.4468 10.2263 16.5128 11.0449 16.3654 11.8386C16.218 12.6323 15.8625 13.3727 15.3353 13.984L14.9193 14.48V15.08C14.9193 15.408 14.9433 15.68 14.9673 15.68C15.6541 15.2311 16.2346 14.6378 16.6685 13.9414C17.1024 13.245 17.3791 12.4623 17.4793 11.648C17.6311 10.2616 17.2696 8.86758 16.4633 7.72958C15.657 6.59157 14.4616 5.78843 13.1033 5.472C12.1331 5.30106 11.1375 5.33924 10.1833 5.584C9.26735 5.88882 8.44069 6.41475 7.77648 7.11524C7.11228 7.81573 6.63101 8.66916 6.37528 9.6C6.18472 10.4964 6.182 11.4225 6.36728 12.32ZM10.1931 11.3407C10.3898 11.6557 10.6761 11.9048 11.0153 12.056H11.0313C12.5513 12.768 14.2153 11.384 13.7513 9.808C13.5823 9.26737 13.2092 8.81392 12.7113 8.544C12.2633 8.304 11.4713 8.304 11.0313 8.544C10.3193 8.92 9.91128 9.552 9.91128 10.288C9.89824 10.6591 9.99636 11.0257 10.1931 11.3407Z" />
</svg>
