<svg viewBox="0 0 24 24" fill="none" xmlns="http://www.w3.org/2000/svg"><path d="M18.664 0H5.336A5.336 5.336 0 0 0 0 5.336v13.328A5.336 5.336 0 0 0 5.336 24h13.328A5.336 5.336 0 0 0 24 18.664V5.336A5.336 5.336 0 0 0 18.664 0Z" fill="url(#apple-podcast_svg__paint0_linear_337_609)"/><path d="M11.264 21.008c-.72-.256-.864-.6-1.16-2.64-.344-2.368-.416-3.84-.216-4.304.264-.616.976-.96 1.968-.968.992 0 1.704.352 1.968.968.2.464.128 1.936-.216 4.304-.232 1.656-.36 2.08-.68 2.352a1.64 1.64 0 0 1-1.656.296l-.008-.008Zm-3.056-2.432a8.352 8.352 0 0 1-4.632-6.008c-.144-.704-.16-2.392-.032-3.04a8.424 8.424 0 0 1 2.192-4.304 8.272 8.272 0 0 1 6.128-2.656c2.336 0 4.448.904 6.056 2.584a8.288 8.288 0 0 1 2.264 4.4c.12.584.12 2.192.008 2.856a8.504 8.504 0 0 1-5.576 6.56c-.08 0-.096-.088-.056-.464.08-.592.144-.712.48-.856a7.641 7.641 0 0 0 4.016-4.968c.208-.824.184-2.656-.048-3.504a7.464 7.464 0 0 0-5.624-5.352c-.784-.16-2.208-.16-3 0A7.52 7.52 0 0 0 4.72 9.36c-.184.752-.184 2.584 0 3.336a7.664 7.664 0 0 0 4.016 4.984c.336.144.408.264.48.856.032.36.024.464-.064.464-.056 0-.464-.176-.896-.384l-.048-.04Zm.032-3.248a6 6 0 0 1-1.872-3.008 6.632 6.632 0 0 1 .008-2.72 5.872 5.872 0 0 1 3.808-4.016 6.92 6.92 0 0 1 2.92-.112 5.704 5.704 0 0 1 4.376 6.176 5.64 5.64 0 0 1-2.512 4.032c-.024 0-.048-.272-.048-.6v-.6l.416-.496a4.56 4.56 0 0 0-2.68-7.472c-.64-.112-.776-.112-1.44 0a4.544 4.544 0 0 0-2.776 7.48l.4.488v.608c0 .336-.024.608-.056.608s-.264-.16-.512-.36l-.032-.008Zm2.776-3.272a1.864 1.864 0 0 1-1.104-1.768c0-.736.408-1.368 1.12-1.744.44-.24 1.232-.24 1.68 0 .498.27.871.723 1.04 1.264.464 1.576-1.2 2.96-2.72 2.248h-.016Z" fill="white"/><path d="M11.992 12.368a1.992 1.992 0 1 0 0-3.984 1.992 1.992 0 0 0 0 3.984Zm.192.776c.136.016.408.048.664.136.256.08.488.2.672.328.176.136.304.264.384.424.08.16.12.36.144.672.016.32.016.752-.056 1.568-.08.808-.216 2-.328 2.768-.043.464-.142.92-.296 1.36a1.28 1.28 0 0 1-.4.536 1.28 1.28 0 0 1-.488.24c-.168.032-.32.032-.464.032-.144 0-.28 0-.464-.04s-.424-.112-.6-.256a1.304 1.304 0 0 1-.4-.624 6.65 6.65 0 0 1-.264-1.256 70.615 70.615 0 0 1-.304-2.376 19.766 19.766 0 0 1-.12-1.6 2.48 2.48 0 0 1 .048-.68 1.36 1.36 0 0 1 .192-.44c.172-.243.415-.428.696-.528.136-.056.304-.104.512-.144l.568-.096c.128-.016.128-.016.264 0l.04-.024Z" fill="white"/><defs><linearGradient id="apple-podcast_svg__paint0_linear_337_609" x1="11.976" y1="24.304" x2="11.776" y2="-3.48071e-07" gradientUnits="userSpaceOnUse"><stop stop-color="#822CBE"/><stop offset="1" stop-color="#D772FB"/></linearGradient></defs></svg>