<svg viewBox="0 0 24 25" fill="none" xmlns="http://www.w3.org/2000/svg"><g clip-path="url(#apple_svg__clip0_337_603)"><path d="M18.55 12.751c.034 3.633 3.187 4.841 3.222 4.857-.027.085-.504 1.722-1.661 3.413-1 1.462-2.039 2.92-3.674 2.95-1.607.029-2.124-.954-3.962-.954-1.836 0-2.41.923-3.932.983-1.579.06-2.78-1.581-3.79-3.038-2.06-2.98-3.636-8.42-1.52-12.093 1.05-1.823 2.928-2.978 4.966-3.008 1.55-.03 3.013 1.043 3.961 1.043.947 0 2.725-1.29 4.595-1.1.782.032 2.979.316 4.39 2.38-.114.07-2.622 1.53-2.594 4.567Zm-3.02-8.919C16.368 2.818 16.933 1.405 16.78 0c-1.209.049-2.67.805-3.536 1.82-.777.897-1.457 2.334-1.273 3.712 1.346.104 2.722-.685 3.56-1.7Z" fill="black"/></g><defs><clipPath id="apple_svg__clip0_337_603"><path fill="white" transform="translate(2.229)" d="M0 0h19.543v24.002H0z"/></clipPath></defs></svg>