<svg xmlns="http://www.w3.org/2000/svg" fill="currentColor" viewBox="0 0 16 16">
  <path fill-rule="evenodd" d="M11.25 6.801 13.998 8.4l-.004-.005H14l-.003 3.705L10.75 14l-.001-.002-.001.002-2.75-1.6L5.25 14l-.001-.002-.001.002-3.243-1.9L2 8.395h.003L2 8.4l2.75-1.6.001-2.9L7.998 2v.002L8 2l3.247 1.89.003 2.911ZM7.5 7.8V6.197L5.75 5.2v1.601L7.5 7.8Zm1 0V6.197l1.75-.997v1.6l-1.75 1Zm0 3.75V9.698l1.75 1.002v1.85l-1.75-1Zm2.75 1 1.75-1V9.698L11.25 10.7v1.85ZM7.5 9.698v1.852l-1.75 1V10.7L7.5 9.698ZM6.116 4.25l1.883 1.08 1.883-1.08-1.883-1.095L6.116 4.25Zm2.75 4.5 1.883 1.1 1.883-1.1-1.883-1.083L8.866 8.75ZM4.75 10.7 3 9.698v1.852l1.75 1V10.7ZM3.366 8.75l1.883 1.1 1.883-1.1-1.883-1.083L3.366 8.75Z" clip-rule="evenodd"/>
</svg>
