<svg viewBox="0 0 16 16" fill="#000000" xmlns="http://www.w3.org/2000/svg"><title>bell</title><path d="M7 3c0-.55228.44772-1 1-1s1 .44772 1 1-.44772 1-1 1-1-.44772-1-1Z" fill="#111"/><path fill-rule="evenodd" clip-rule="evenodd" d="M2.31956 12C2.14231 12.6084 2 13 2 13h12s-.1423-.3916-.3196-1C13.3878 10.9956 13 9.40021 13 8c0-2.76142-1.6863-5-5-5S3 5.23858 3 8c0 1.40021-.38783 2.9956-.68044 4Zm1.03967 0h9.28157c-.0359-.1291-.0725-.2652-.1091-.407C12.2743 10.5952 12 9.24961 12 8c0-1.18227-.3597-2.17253-.9919-2.85701C10.3877 4.47143 9.41892 4 8 4c-1.41892 0-2.38774.47143-3.00807 1.143C4.35968 5.82747 4 6.81774 4 8c0 1.24961-.27429 2.5952-.53171 3.593-.0366.1418-.07318.2779-.10906.407Z" fill="#111"/><path d="M6 13c0 1.1046.89543 2 2 2s2-.8954 2-2H9c0 .5523-.44772 1-1 1s-1-.4477-1-1H6Z" fill="#111"/></svg>