<svg xmlns="http://www.w3.org/2000/svg" viewBox="0 0 202 40">
  <title>By The Way</title>
  <path fill="#000" d="M9.23 24.79H5.45v-5.21h4.01c.89 0 1.98 0 2.76.4a2.48 2.48 0 011.33 2.1c0 .88-.44 1.76-1.23 2.24-.85.53-2.1.47-3.1.47zM5.45 10.26h3.3c.92 0 2.35-.1 3.13.31a2.23 2.23 0 011.16 1.97c0 .73-.34 1.53-.99 1.97-.81.57-1.94.51-2.9.51h-3.7v-4.76zm11 17.75c1.63-1.19 2.85-3 2.85-5.04a5.77 5.77 0 00-4.86-5.82v-.07c2.45-.6 4.22-2.38 4.22-5.03 0-2.22-1-3.92-2.86-5.11-1.6-1.02-3.51-1.02-5.35-1.02H0v23.35h10.45c2.01 0 4.3 0 6-1.26z"/>
  <path fill="#000" transform="translate(0 5.83)" d="M32.01 12.26L26.25.08h-5.72l8.58 18.14s-3.92 10.67-14.99 10.67H0v5.18h13.31c9.77 0 16.04-4.54 19.53-11.7L43.72.09h-5.76L32 12.26z"/>
  <path fill="#000" d="M108.12 22.09h9.96v-5.12h-9.96v-5.88h12.43V5.9H102.6v27.28h17.95V28h-12.43zM75.28 32.55a1.66 1.66 0 01-.77 1.41 1.62 1.62 0 01-1.9-.04 1.66 1.66 0 01-.7-1.36 1.63 1.63 0 011.04-1.57l.13-.06 2.2-1.2v2.82zm16.36-18.1L80.8 20.4V5.9h-5.52v17.53l-4.67 2.56a7.16 7.16 0 00-3.48 9.76 7.19 7.19 0 006.45 4.01 7.28 7.28 0 006.61-4.3c.4-.88.61-1.88.61-2.91V26.7l10.84-5.95v12.42h5.52V5.9h-5.52v8.55zM70.29 5.9H49.78v5.17h7.5v22.1h5.51v-22.1h7.5zM170.17 24.76l2.06-6.6 1.94 6.61h-4zm-1.11-12.3l-6.83 20.71h5.29l1.2-3.86h6.75l1.12 3.86h5.87l-6.6-20.72h-6.8z"/>
  <path fill="#000" transform="translate(126.95 .25)" d="M53.38 10.08l7.26 11.94v10.9h5.39V22.12l8.93-16.46H69.3l-5.94 10.8-5.64-9.28C55.64 4.09 52.92.02 45.33.02 37 .02 33.42 5.4 31.65 9.9l-4.78 14.53-4.05-18.78h-6.05l-.05.18-4.9 18.6L5.63 5.65H.15l8.96 27.28h5.87l4.81-18.34 4 18.34h5.88l6.75-20.85c2.16-5.56 5.61-6.43 8.83-6.43 0 0 5.4-.21 8.13 4.43"/>
</svg>
