<svg viewBox="0 0 16 16" fill="none" xmlns="http://www.w3.org/2000/svg"><path fill-rule="evenodd" clip-rule="evenodd" d="M14 3H1v10h14V3h-1Zm0 9H2V4h12v8Zm-8-1.67a1.77 1.77 0 0 0 1.83-1.57l-1-.17c-.09.6-.32.9-.79.9C5.57 9.49 5.2 9 5.2 8s.29-1.48.8-1.48.65.33.73.9l1.06-.17A1.69 1.69 0 0 0 6 5.67c-1.21 0-2 .87-2 2.41a2 2 0 0 0 1.73 2.23c.089.017.18.023.27.02Zm5.38-.41a1.77 1.77 0 0 1-1.25.41l-.19-.01a1.999 1.999 0 0 1-1.73-2.24c0-1.54.79-2.41 2-2.41A1.69 1.69 0 0 1 12 7.25l-1.11.14c-.08-.57-.23-.9-.73-.9S9.37 7 9.37 8s.36 1.49.84 1.49.71-.3.79-.9l1 .17a1.77 1.77 0 0 1-.62 1.16Z" fill="#111111"/></svg>