<svg id="Layer_1" data-name="Layer 1" xmlns="http://www.w3.org/2000/svg" viewBox="0 0 16 16"><path id="Path_25" data-name="Path 25" d="M14,3H1V13H15V3Zm0,9H2V4H14Z"/><path id="Path_26" data-name="Path 26" d="M6,10.33A1.77,1.77,0,0,0,7.83,8.76l-1-.17c-.09.6-.32.9-.79.9S5.2,9,5.2,8s.29-1.48.8-1.48.65.33.73.9l1.06-.17A1.69,1.69,0,0,0,6,5.67c-1.21,0-2,.87-2,2.41a2,2,0,0,0,1.73,2.23A1.23,1.23,0,0,0,6,10.33Z"/><path id="Path_27" data-name="Path 27" d="M10.13,10.33A1.77,1.77,0,0,0,12,8.76l-1-.17c-.08.6-.31.9-.79.9S9.37,9,9.37,8s.29-1.51.79-1.51.65.33.73.9L12,7.25a1.69,1.69,0,0,0-1.79-1.58c-1.21,0-2,.87-2,2.41a2,2,0,0,0,1.73,2.24Z"/></svg>