<svg viewBox="0 0 16 16" fill="#000000" xmlns="http://www.w3.org/2000/svg"><path d="M4.00573 2.95001V3.95001H2.99699L2.99738 12.9534C2.99738 13.4662 3.38342 13.8889 3.88075 13.9467L3.99738 13.9534H11.9974C12.5497 13.9534 12.9974 13.5057 12.9974 12.9534L12.997 3.95001H12.0057V2.95001H13.9974V12.9534C13.9974 14.058 13.1019 14.9534 11.9974 14.9534H3.99738C2.89281 14.9534 1.99738 14.058 1.99738 12.9534V2.95001H4.00573ZM7.99583 10.45V11.45H4.99999V10.45H7.99583ZM10.9917 8.45001V9.45001H4.99999V8.45001H10.9917ZM10.9917 6.45001V7.45001H4.99999V6.45001H10.9917ZM8.00576 0.950012C8.6734 0.950012 9.22062 1.17432 9.44117 1.62971L9.29582 2.11346L10.0891 2.11364C10.7561 2.11364 11.0058 2.2979 11.0058 2.90196V3.95001H5.00576V2.90196C5.00576 2.3403 5.3716 2.11364 5.92261 2.11364L6.71038 2.11346L6.57035 1.62971C6.77394 1.20935 7.25587 0.985889 7.85392 0.953997L8.00576 0.950012Z"/></svg>