<svg viewBox="0 0 16 16" fill="#000000" xmlns="http://www.w3.org/2000/svg"><path fill-rule="evenodd" clip-rule="evenodd" d="M9.80401 0.999979H9.80871C9.8197 1.00017 9.83069 1.00056 9.84167 1.00116C9.95825 1.00772 10.0743 1.02207 10.1889 1.04412C10.4055 1.08591 10.6987 1.1689 10.9953 1.33665C11.618 1.68686 12.199 2.37844 12.199 3.63271V7.62859H11.196V7.93466H10.3243V7.62859H9.36433V1.43671C9.36425 1.37913 9.37557 1.32212 9.39764 1.26894C9.41971 1.21576 9.45209 1.16748 9.49291 1.12688C9.53373 1.08628 9.58218 1.05417 9.63547 1.03239C9.68876 1.0106 9.74644 0.999591 9.80401 0.999979ZM11.3267 6.7569V3.63271C11.3267 2.70569 10.9264 2.29839 10.5674 2.09651C10.4624 2.03767 10.3515 1.98993 10.2366 1.95407V6.7569H11.3267Z"/><path fill-rule="evenodd" clip-rule="evenodd" d="M3 1.94524C3 1.82942 3.04601 1.71833 3.12791 1.63643C3.20982 1.55453 3.3209 1.50851 3.43673 1.50851C3.55256 1.50851 3.66364 1.55453 3.74554 1.63643C3.82744 1.71833 3.87346 1.82942 3.87346 1.94524V3.69157H4.74632V1.94524C4.74632 1.82942 4.79234 1.71833 4.87424 1.63643C4.95614 1.55453 5.06722 1.50851 5.18305 1.50851C5.29888 1.50851 5.40996 1.55453 5.49187 1.63643C5.57377 1.71833 5.61978 1.82942 5.61978 1.94524V3.69157H6.49266V1.94524C6.49266 1.82942 6.53867 1.71833 6.62057 1.63643C6.70247 1.55453 6.81356 1.50851 6.92939 1.50851C7.04521 1.50851 7.1563 1.55453 7.2382 1.63643C7.3201 1.71833 7.36611 1.82942 7.36611 1.94524L7.3661 4.56442C7.3661 5.84625 6.65913 6.92165 5.70631 7.21476V7.92642L6.92938 7.92642V13.2531C6.92938 13.5132 6.86993 13.9282 6.64274 14.2937C6.39965 14.6863 5.97293 15 5.32431 15C4.68099 15 4.25015 14.6975 3.99941 14.3084C3.78836 13.9821 3.71374 13.612 3.70079 13.3408H3.69865L3.69865 7.92642L4.83344 7.92642V7.25887C3.79374 7.04965 3 5.92252 3 4.56443V1.94524ZM3.87287 4.56443H6.58035C6.58035 5.60152 5.97411 6.442 5.22661 6.442C4.47911 6.442 3.87287 5.60152 3.87287 4.56443ZM6.05651 8.79987V13.2531C6.05651 13.4079 6.0159 13.648 5.90112 13.8334C5.80224 13.9923 5.6445 14.1265 5.32431 14.1265C4.99765 14.1265 4.83461 13.9923 4.73279 13.8352C4.61507 13.6527 4.57152 13.4149 4.57152 13.2531V8.79987H6.05651Z"/><path fill-rule="evenodd" clip-rule="evenodd" d="M9.19012 7.93466H12.4173V13.2554C12.4173 13.5144 12.3585 13.9294 12.1313 14.2949C11.8882 14.6863 11.462 15 10.814 15C10.1719 15 9.74046 14.6975 9.4903 14.3096C9.28022 13.9831 9.20525 13.6133 9.19226 13.3426H9.19012V7.93466ZM10.0624 13.2554C10.0624 13.4167 10.106 13.6545 10.2237 13.8364C10.3249 13.9935 10.4885 14.1277 10.814 14.1277C11.1342 14.1277 11.2919 13.9935 11.3902 13.8352C11.505 13.6498 11.545 13.4097 11.545 13.2554V8.80694H10.0624V13.2554Z"/></svg>