<svg xmlns="http://www.w3.org/2000/svg" fill="currentColor" viewBox="0 0 16 16">
  <path d="m4.586 3 2 2 .707-.707L5 2H2v3l2.293 2.293L5 6.586l-2-2V3h1.586Z"/>
  <path fill-rule="evenodd" d="m9.76 12-1 1-.707-.707 4.243-4.243.707.707L12 9.76V10l2 2v1l-1 1h-1l-2-2h-.24Zm1.413-1.413L13 12.414v.172l-.414.414h-.172l-1.827-1.827.586-.586ZM2 13v-1l2-2v-.243l-1-1 .707-.707.622.621L11 2h3v3l-6.671 6.671.62.622-.706.707-1-1H6l-2 2H3l-1-1Zm1-.586 1.829-1.828.585.585L3.586 13h-.172L3 12.586v-.172Zm10-7.828-6.379 6.378L5.036 9.38 11.414 3H13v1.586Z" clip-rule="evenodd"/>
</svg>
