<svg viewBox="0 0 16 16" fill="#111111" xmlns="http://www.w3.org/2000/svg"><path fill-rule="evenodd" clip-rule="evenodd" d="M3 13H5.55L5.55 10.25H3L3 13ZM6.55 14L6.55 9.25H2L2 13.5C2 13.7761 2.22386 14 2.5 14H6.55Z"/><path d="M10.4 13.5C10.4 13.7761 10.1761 14 9.9 14L5.6 14L5.6 10.1H10.4V13.5Z" fill="black"/><path fill-rule="evenodd" clip-rule="evenodd" d="M9.4 13V11.1H6.6L6.6 13H9.4ZM9.9 14C10.1761 14 10.4 13.7761 10.4 13.5V10.1H5.6L5.6 14L9.9 14Z"/><path fill-rule="evenodd" clip-rule="evenodd" d="M3 9.2H5.55L5.55 6.6L3 6.6L3 9.2ZM6.55 10.2L6.55 5.6L2.5 5.6C2.22386 5.6 2 5.82386 2 6.1L2 10.2L6.55 10.2Z" fill="black"/><path fill-rule="evenodd" clip-rule="evenodd" d="M9.4 6.6H6.6V9.2H9.4V6.6ZM5.6 5.6V10.2H10.4V5.6H5.6Z"/><path d="M9.55 2L13.5 2C13.7761 2 14 2.22386 14 2.5V6.25L9.55 6.25V2Z"/><path fill-rule="evenodd" clip-rule="evenodd" d="M13 3L10.55 3V5.25L13 5.25V3ZM9.55 2V6.25L14 6.25V2.5C14 2.22386 13.7761 2 13.5 2L9.55 2Z" fill="black"/><path fill-rule="evenodd" clip-rule="evenodd" d="M6.6 3L6.6 5.6L9.4 5.6V3L6.6 3ZM6.1 2C5.82386 2 5.6 2.22386 5.6 2.5L5.6 6.6L10.4 6.6L10.4 2L6.1 2Z"/><path fill-rule="evenodd" clip-rule="evenodd" d="M13 6.6L10.4 6.6V9.2L13 9.2V6.6ZM9.4 5.6L9.4 10.2L13.5 10.2C13.7761 10.2 14 9.97614 14 9.7L14 5.6L9.4 5.6Z"/><path d="M2 5.59998H7V6.59998H2V5.59998Z"/><path d="M9 9.19995H14V10.2H9V9.19995Z"/><path d="M6.5498 2L6.5498 7L5.5498 7L5.5498 2L6.5498 2Z" fill="black"/><path d="M10.3999 9L10.3999 14L9.3999 14L9.3999 9L10.3999 9Z"/><path d="M14 2L14 7L13 7L13 2L14 2Z"/><path d="M14 2.5L14 7.5L13 7.5L13 2.5L14 2.5Z"/><path d="M3 9L3 14L2 14L2 9L3 9Z"/></svg>