<svg xmlns="http://www.w3.org/2000/svg" fill="currentColor" viewBox="0 0 16 16"><path fill-rule="evenodd" d="M3 13h2.55v-2.75H3V13Zm3.55 1V9.25H2v4.25a.5.5 0 0 0 .5.5h4.05Z" clip-rule="evenodd"/><path d="M10.4 13.5a.5.5 0 0 1-.5.5H5.6v-3.9h4.8v3.4Z"/><path fill-rule="evenodd" d="M9.4 13v-1.9H6.6V13h2.8Zm.5 1a.5.5 0 0 0 .5-.5v-3.4H5.6V14h4.3Z" clip-rule="evenodd"/><path fill-rule="evenodd" d="M3 9.2h2.55V6.6H3v2.6Zm3.55 1V5.6H2.5a.5.5 0 0 0-.5.5v4.1h4.55Z" clip-rule="evenodd"/><path fill-rule="evenodd" d="M9.4 6.6H6.6v2.6h2.8V6.6Zm-3.8-1v4.6h4.8V5.6H5.6Z" clip-rule="evenodd"/><path d="M9.55 2h3.95a.5.5 0 0 1 .5.5v3.75H9.55V2Z"/><path fill-rule="evenodd" d="M13 3h-2.45v2.25H13V3ZM9.55 2v4.25H14V2.5a.5.5 0 0 0-.5-.5H9.55Z" clip-rule="evenodd"/><path fill-rule="evenodd" d="M6.6 3v2.6h2.8V3H6.6Zm-.5-1a.5.5 0 0 0-.5.5v4.1h4.8V2H6.1Z" clip-rule="evenodd"/><path fill-rule="evenodd" d="M13 6.6h-2.6v2.6H13V6.6Zm-3.6-1v4.6h4.1a.5.5 0 0 0 .5-.5V5.6H9.4Z" clip-rule="evenodd"/><path d="M2 5.6h5v1H2v-1ZM9 9.2h5v1H9v-1Z"/><path d="M6.55 2v5h-1V2h1ZM10.4 9v5h-1V9h1ZM14 2v5h-1V2h1Z"/><path d="M14 2.5v5h-1v-5h1ZM3 9v5H2V9h1Z"/></svg>