<svg viewBox="0 0 16 16" fill="currentColor" xmlns="http://www.w3.org/2000/svg"><path fill-rule="evenodd" clip-rule="evenodd" d="M9.85163 1.34413C9.94863 1.17782 10.1808 1.11207 10.3701 1.19727C10.8012 1.39123 11.1324 1.63144 11.3863 1.88815L11.3803 1.19804C11.3787 1.01118 11.5499 0.858548 11.7626 0.857127C11.9754 0.855707 12.1492 1.00604 12.1508 1.1929L12.1568 1.89144C12.4073 1.62818 12.7367 1.38038 13.1691 1.1785C13.357 1.09078 13.5902 1.15343 13.6901 1.31843C13.79 1.48343 13.7186 1.68829 13.5308 1.77601C12.7676 2.13235 12.4265 2.66183 12.2713 3.10816C12.2262 3.23802 12.197 3.3606 12.1784 3.46913C12.1874 3.52881 12.1938 3.58419 12.1983 3.63445C12.1988 3.63977 12.1993 3.64503 12.1997 3.65024C13.2949 3.82236 14.2731 4.61818 14.2855 6.04344C14.2986 7.55967 13.7773 10.842 13.2158 13.9203C12.9481 15.3873 10.699 15.4023 10.4061 13.9391C9.79127 10.8685 9.21325 7.59347 9.20013 6.07738C9.18728 4.59195 10.2356 3.77607 11.3836 3.63627C11.3871 3.58758 11.3924 3.53413 11.4 3.47665V3.47251C11.3795 3.36472 11.3483 3.24321 11.3012 3.11472C11.1383 2.67051 10.7881 2.14565 10.0188 1.79954C9.82949 1.71434 9.75462 1.51045 9.85163 1.34413ZM10.5205 4.71909C10.2101 4.98851 9.96495 5.42027 9.97059 6.07224C9.97068 6.08254 9.9708 6.09293 9.97095 6.1034L12.5452 6.08622C12.758 6.0848 12.9318 6.23513 12.9334 6.42199C12.935 6.60885 12.7638 6.76149 12.5511 6.76291L10.007 6.77989C10.0241 6.98817 10.0471 7.21438 10.0751 7.45607L11.0164 7.44978C11.2292 7.44836 11.403 7.59869 11.4046 7.78555C11.4062 7.97242 11.235 8.12505 11.0223 8.12647L10.1611 8.13222C10.1891 8.3365 10.2197 8.54856 10.2527 8.76729L11.9719 8.75581C12.1847 8.75439 12.3585 8.90472 12.3601 9.09158C12.3617 9.27845 12.1906 9.43108 11.9778 9.4325L10.3585 9.44331C10.5762 10.787 10.864 12.3189 11.1649 13.8219C11.2425 14.2096 11.5367 14.3537 11.8146 14.3519C12.0924 14.35 12.3841 14.2019 12.455 13.8133C13.0201 10.7154 13.5275 7.49595 13.515 6.04858C13.5094 5.3965 13.2567 4.96806 12.9418 4.70284C12.6179 4.43014 12.179 4.28831 11.7275 4.29134C11.2761 4.29437 10.8396 4.44207 10.5205 4.71909Z"/><path fill-rule="evenodd" clip-rule="evenodd" d="M3.34945 12.3353L3.34683 10.2119C3.09177 10.0074 2.88248 9.74119 2.74122 9.42739L2.38388 8.6336L1.48177 6.20092C0.91558 4.6741 1.47502 2.9213 2.82781 1.98358C3.96928 1.19234 5.44188 1.14888 6.58522 1.8727C7.94024 2.73052 8.50397 4.45018 7.94159 6.0103L7.04556 8.49604L6.69021 9.31086C6.5604 9.60851 6.37242 9.86889 6.14378 10.08L6.14646 12.2529C6.56777 12.5204 6.84657 12.9964 6.84725 13.5476C6.84832 14.4143 6.16045 15.1372 5.31083 15.1623C5.11375 15.1681 4.92491 15.1356 4.75132 15.0716C4.57791 15.1459 4.38918 15.1895 4.19211 15.1953C3.3425 15.2204 2.65288 14.5381 2.65181 13.6713C2.65113 13.1201 2.92878 12.6276 3.34945 12.3353ZM4.71732 10.6692C4.96987 10.6618 5.21543 10.6097 5.44504 10.5194L5.44779 12.7447C5.84469 12.8009 6.14747 13.1441 6.148 13.5682C6.14858 14.0409 5.77338 14.4353 5.30995 14.449C5.09506 14.4553 4.89893 14.3787 4.75031 14.2475C4.60203 14.3874 4.40611 14.4756 4.19123 14.482C3.7278 14.4956 3.35165 14.1235 3.35106 13.6507C3.35054 13.2265 3.65251 12.8655 4.04929 12.7859L4.04656 10.5805C4.25974 10.645 4.48563 10.676 4.71732 10.6692ZM3.03046 8.34266L3.37804 9.11479C3.6162 9.64381 4.13981 9.97286 4.71644 9.95584C5.29306 9.93883 5.81583 9.57891 6.05266 9.03586L6.39831 8.24328L7.28612 5.78035C7.73442 4.53669 7.28503 3.16586 6.20488 2.48204C5.29345 1.90505 4.11957 1.93969 3.20963 2.57043C2.13125 3.31794 1.68529 4.7152 2.13663 5.93231L3.03046 8.34266Z"/></svg>