<svg viewBox="0 0 16 16" fill="none" xmlns="http://www.w3.org/2000/svg"><path d="M3.1 6.89999C3.31756 6.89999 3.53023 6.96451 3.71113 7.08538C3.89202 7.20625 4.03301 7.37804 4.11627 7.57904C4.19952 7.78004 4.22131 8.00121 4.17886 8.21459C4.13642 8.42797 4.03166 8.62397 3.87782 8.77781C3.72398 8.93165 3.52798 9.03641 3.3146 9.07886C3.10122 9.1213 2.88005 9.09952 2.67905 9.01626C2.47805 8.93301 2.30625 8.79202 2.18538 8.61112C2.06451 8.43023 2 8.21755 2 7.99999C2 7.70826 2.11589 7.42847 2.32218 7.22218C2.52847 7.01589 2.80826 6.89999 3.1 6.89999ZM8 6.89999C8.21756 6.89999 8.43023 6.96451 8.61113 7.08538C8.79202 7.20625 8.93301 7.37804 9.01627 7.57904C9.09952 7.78004 9.12131 8.00121 9.07886 8.21459C9.03642 8.42797 8.93166 8.62397 8.77782 8.77781C8.62398 8.93165 8.42798 9.03641 8.2146 9.07886C8.00122 9.1213 7.78005 9.09952 7.57905 9.01626C7.37805 8.93301 7.20625 8.79202 7.08538 8.61112C6.96451 8.43023 6.9 8.21755 6.9 7.99999C6.9 7.70826 7.01589 7.42847 7.22218 7.22218C7.42847 7.01589 7.70826 6.89999 8 6.89999ZM14 7.99999C14 7.78243 13.9355 7.56976 13.8146 7.38887C13.6937 7.20797 13.5219 7.06698 13.321 6.98373C13.12 6.90047 12.8988 6.87869 12.6854 6.92113C12.472 6.96357 12.276 7.06834 12.1222 7.22218C11.9683 7.37601 11.8636 7.57202 11.8211 7.7854C11.7787 7.99877 11.8005 8.21995 11.8837 8.42095C11.967 8.62194 12.108 8.79374 12.2889 8.91461C12.4698 9.03548 12.6824 9.09999 12.9 9.09999C13.1917 9.09999 13.4715 8.9841 13.6778 8.77781C13.8841 8.57152 14 8.29173 14 7.99999Z" fill="#111111"/></svg>