<svg viewBox="0 0 16 16" fill="none" xmlns="http://www.w3.org/2000/svg"><path d="M9.09999 3.1C9.09999 3.31756 9.03548 3.53023 8.91461 3.71113C8.79374 3.89202 8.62194 4.03301 8.42095 4.11627C8.21995 4.19952 7.99877 4.22131 7.7854 4.17886C7.57202 4.13642 7.37601 4.03166 7.22218 3.87782C7.06834 3.72398 6.96357 3.52798 6.92113 3.3146C6.87869 3.10122 6.90047 2.88005 6.98373 2.67905C7.06698 2.47805 7.20797 2.30625 7.38887 2.18538C7.56976 2.06451 7.78243 2 7.99999 2C8.29173 2 8.57152 2.11589 8.77781 2.32218C8.9841 2.52847 9.09999 2.80826 9.09999 3.1ZM9.09999 8C9.09999 8.21756 9.03548 8.43023 8.91461 8.61113C8.79374 8.79202 8.62194 8.93301 8.42095 9.01627C8.21995 9.09952 7.99877 9.12131 7.7854 9.07886C7.57202 9.03642 7.37601 8.93166 7.22218 8.77782C7.06834 8.62398 6.96357 8.42798 6.92113 8.2146C6.87869 8.00122 6.90047 7.78005 6.98373 7.57905C7.06698 7.37805 7.20797 7.20625 7.38887 7.08538C7.56976 6.96451 7.78243 6.9 7.99999 6.9C8.29173 6.9 8.57152 7.01589 8.77781 7.22218C8.9841 7.42847 9.09999 7.70826 9.09999 8ZM7.99999 14C8.21755 14 8.43023 13.9355 8.61112 13.8146C8.79202 13.6937 8.93301 13.5219 9.01626 13.321C9.09952 13.12 9.1213 12.8988 9.07886 12.6854C9.03641 12.472 8.93165 12.276 8.77781 12.1222C8.62397 11.9683 8.42797 11.8636 8.21459 11.8211C8.00121 11.7787 7.78004 11.8005 7.57904 11.8837C7.37804 11.967 7.20625 12.108 7.08538 12.2889C6.96451 12.4698 6.89999 12.6824 6.89999 12.9C6.89999 13.1917 7.01589 13.4715 7.22218 13.6778C7.42847 13.8841 7.70826 14 7.99999 14Z" fill="#111111"/></svg>