<svg viewBox="0 0 16 16" fill="#000000" xmlns="http://www.w3.org/2000/svg">
<path d="M5 4H11V5H5V4Z" />
<path d="M5 6H9V7H5V6Z" />
<path d="M11 8H8V9H11V8Z" />
<path d="M10 6H11V7H10V6Z" />
<path d="M7 8H5V9H7V8Z" />
<path d="M11 10V11H5V10H11Z" />
<path fill-rule="evenodd" clip-rule="evenodd" d="M14 13V3C14 1.89543 13.1046 1 12 1H4C2.89543 1 2 1.89543 2 3V13C2 14.1046 2.89543 15 4 15H12C13.1046 15 14 14.1046 14 13ZM12 2H4C3.44772 2 3 2.44772 3 3V12H13V3C13 2.44772 12.5523 2 12 2ZM7 14V13H9V14H7Z" />
</svg>
