<svg viewBox="0 0 150 187" fill="none" xmlns="http://www.w3.org/2000/svg"><g clip-path="url(#election_default_svg__clip0_371_755)"><path d="M150.003 27.689 40.97 89.996V76.153l109.033-62.309v13.845Zm0 27.691L40.97 117.684V103.84l109.033-62.306V55.38Zm0 27.692L40.97 145.373v-13.844l109.033-62.302v13.845Z" fill="white"/><path d="M149.997 0v13.84C113.658 34.615 77.318 55.391 40.964 76.151v-13.84c33.718-19.262 67.422-38.525 101.124-57.787 2.516-1.438 5.019-2.876 7.535-4.314.119-.06.254-.135.374-.21ZM40.97 103.84l109.033-62.306V27.689L40.97 89.996v13.844Zm0 27.689 109.033-62.302V55.381L40.97 117.685v13.844Zm0 27.688 109.033-62.299V83.073L40.97 145.374v13.843Zm0 27.685 109.033-62.296v-13.844L40.97 173.06v13.842Z" fill="#BE2C25"/><path d="M150.003 110.762 40.97 173.059v-13.843l109.033-62.299v13.845Z" fill="white"/><path d="M-.003 38.67c4.524 2.586 12.905 7.617 40.967 23.64l.006 124.592C8.303 168.239 32.698 181.67.004 163.008" fill="#1366B3"/></g><defs><clipPath id="election_default_svg__clip0_371_755"><path fill="white" d="M0 0h150v186.902H0z"/></clipPath></defs></svg>