<svg viewBox="0 0 150 187" fill="none" xmlns="http://www.w3.org/2000/svg"><title>Election Logo</title><g clip-path="url(#election_default_svg__electionicon_default_svg__clip0_371_755)"><path d="M150.003 27.689C113.659 48.458 77.3151 69.227 40.9701 89.996C40.9701 84.4586 40.9701 81.6904 40.9701 76.153C77.3141 55.383 113.658 34.614 150.003 13.844C150.003 19.3824 150.003 22.1506 150.003 27.689Z" fill="white"/><path d="M150.003 55.38C113.659 76.148 77.3151 96.916 40.9701 117.684C40.9701 112.147 40.9701 109.377 40.9701 103.84C77.3141 83.071 113.658 62.303 150.003 41.534C150.003 47.0724 150.003 49.8416 150.003 55.38Z" fill="white"/><path d="M150.003 83.072C113.659 103.839 77.3151 124.606 40.9701 145.373C40.9701 139.836 40.9701 137.066 40.9701 131.529C77.3141 110.762 113.658 89.994 150.003 69.227C150.003 74.7644 150.003 77.5336 150.003 83.072Z" fill="white"/><path d="M149.997 0V13.84C113.658 34.615 77.3181 55.391 40.9641 76.151V62.311C74.6819 43.0487 108.386 23.7863 142.088 4.52396C144.605 3.08634 147.107 1.64771 149.623 0.210091C149.742 0.150065 149.877 0.0750325 149.997 0Z" fill="#BE2C25"/><path d="M40.9701 103.84C77.3141 83.071 113.658 62.303 150.003 41.534C150.003 35.9956 150.003 33.2264 150.003 27.689C113.659 48.458 77.3151 69.227 40.9701 89.996C40.9701 95.5344 40.9701 98.3026 40.9701 103.84Z" fill="#BE2C25"/><path d="M40.9701 131.529C77.3141 110.762 113.658 89.994 150.003 69.227C150.003 63.6886 150.003 60.9194 150.003 55.381C113.659 76.149 77.3151 96.917 40.9701 117.685C40.9701 123.222 40.9701 125.991 40.9701 131.529Z" fill="#BE2C25"/><path d="M40.9701 159.217C77.3141 138.451 113.658 117.684 150.003 96.918C150.003 91.3796 150.003 88.6104 150.003 83.073C113.659 103.84 77.3151 124.607 40.9701 145.374C40.9701 150.91 40.9701 153.68 40.9701 159.217Z" fill="#BE2C25"/><path d="M40.9701 186.902C77.3141 166.137 113.658 145.371 150.003 124.606C150.003 119.069 150.003 116.299 150.003 110.762C113.659 131.528 77.3151 152.294 40.9701 173.06C40.9701 178.597 40.9701 181.366 40.9701 186.902Z" fill="#BE2C25"/><path d="M150.003 110.762C113.659 131.528 77.3151 152.294 40.9701 173.059C40.9701 167.522 40.9701 164.753 40.9701 159.216C77.3141 138.45 113.658 117.683 150.003 96.917C150.003 102.455 150.003 105.225 150.003 110.762Z" fill="white"/><path d="M-0.00299072 38.6708C4.52112 41.2559 12.902 46.2871 40.9641 62.31L40.9701 186.902C8.30288 168.239 32.6983 181.67 0.00401254 163.008" fill="#1366B3"/></g><defs><clipPath id="election_default_svg__electionicon_default_svg__clip0_371_755"><rect width="150" height="186.902" fill="white"/></clipPath></defs></svg>