<svg width="150" height="187" viewBox="0 0 150 187" fill="none" xmlns="http://www.w3.org/2000/svg">
<g clip-path="url(#clip0_371_757)">
<path d="M150 27.689L40.9717 89.997V76.153L150 13.844V27.689Z" fill="white"/>
<path d="M150 55.38L40.9717 117.684V103.845L150 41.535V55.38Z" fill="white"/>
<path d="M150 83.072L40.9717 145.373V131.529L150 69.23V83.072Z" fill="white"/>
<path d="M149.995 0V13.84C113.657 34.615 77.3142 55.3853 40.9658 76.151V62.311C74.6817 43.0467 108.388 23.7843 142.086 4.52396C144.603 3.08534 147.104 1.64771 149.62 0.210091C149.74 0.150065 149.875 0.0750325 149.995 0Z" fill="#BE2C25"/>
<path d="M40.9717 103.845L150 41.535V27.689L40.9717 89.997V103.845Z" fill="#BE2C25"/>
<path d="M40.9717 131.529L150 69.23V55.38L40.9717 117.684V131.529Z" fill="#BE2C25"/>
<path d="M40.9717 159.217L150 96.917V83.072L40.9717 145.373V159.217Z" fill="#BE2C25"/>
<path d="M40.9717 186.902L150 124.607V110.762L40.9717 173.06V186.902Z" fill="#BE2C25"/>
<path d="M150 110.762L40.9717 173.06V159.217L150 96.917V110.762Z" fill="white"/>
<path d="M0 38.6708C4.52396 41.2569 12.9056 46.2871 40.9658 62.311L40.9718 186.902C8.3036 168.24 32.7002 181.671 0.00700303 163.008" fill="#0A3257"/>
</g>
<defs>
<clipPath id="clip0_371_757">
<rect width="150" height="186.902" fill="white"/>
</clipPath>
</defs>
</svg>
