<svg xmlns="http://www.w3.org/2000/svg" viewBox="0 0 75.3 73.2"><path style="mix-blend-mode:multiply" d="M53.84 16.2A16.2 16.2 0 1 1 37.65 0a16.19 16.19 0 0 1 16.19 16.2Z" fill="#a7a9ac"/><path style="mix-blend-mode:multiply" d="M75.3 31.78a16.2 16.2 0 1 1-16.21-16.2 16.2 16.2 0 0 1 16.21 16.2Z" fill="#009fdf"/><path style="mix-blend-mode:multiply" d="M32.4 31.78a16.2 16.2 0 1 1-16.2-16.2 16.2 16.2 0 0 1 16.2 16.2Z" fill="#ed1c24"/><path style="mix-blend-mode:multiply" d="M40.59 57a16.2 16.2 0 1 1-16.2-16.2A16.2 16.2 0 0 1 40.59 57Z" fill="#4978bc"/><path style="mix-blend-mode:multiply" d="M67.1 57a16.2 16.2 0 1 1-16.19-16.2A16.2 16.2 0 0 1 67.1 57Z" fill="#da202c"/><path d="M37.65 50.13 21.76 61.05l5.73-18.3-15.55-11.92 19.43-.02 6.28-18.66 6.27 18.66 19.44.02-15.55 11.92 5.72 18.3z" fill="#fff"/></svg>