<svg viewBox="0 0 150 187" fill="none" xmlns="http://www.w3.org/2000/svg"><g clip-path="url(#election_bluebackground_svg__clip0_371_757)"><path d="M150 27.689 40.972 89.997V76.153L150 13.844v13.845Zm0 27.691L40.972 117.684v-13.839L150 41.535V55.38Zm0 27.692L40.972 145.373v-13.844L150 69.23v13.842Z" fill="white"/><path d="M149.995 0v13.84c-36.338 20.775-72.68 41.545-109.03 62.311v-13.84c33.717-19.264 67.423-38.527 101.121-57.787 2.517-1.439 5.018-2.876 7.534-4.314.12-.06.255-.135.375-.21ZM40.972 103.845 150 41.535V27.689L40.972 89.997v13.848Zm0 27.684L150 69.23V55.38L40.972 117.684v13.845Zm0 27.688L150 96.917V83.072L40.972 145.373v13.844Zm0 27.685L150 124.607v-13.845L40.972 173.06v13.842Z" fill="#BE2C25"/><path d="M150 110.762 40.972 173.06v-13.843L150 96.917v13.845Z" fill="white"/><path d="M0 38.67c4.524 2.587 12.906 7.617 40.966 23.641l.006 124.591C8.304 168.24 32.7 181.671.007 163.008" fill="#0A3257"/></g><defs><clipPath id="election_bluebackground_svg__clip0_371_757"><path fill="white" d="M0 0h150v186.902H0z"/></clipPath></defs></svg>