<svg viewBox="0 0 49 48" fill="none" xmlns="http://www.w3.org/2000/svg"><path d="M35.026 10.542a10.542 10.542 0 1 1-21.083 0 10.542 10.542 0 0 1 21.083 0Z" fill="#A7A9AC"/><path d="M49 20.682a10.542 10.542 0 1 1-21.084 0 10.542 10.542 0 0 1 21.084 0Z" fill="#009FDF"/><path d="M21.084 20.682a10.542 10.542 0 1 1-21.084 0 10.542 10.542 0 0 1 21.084 0Z" fill="#ED1C24"/><path d="M26.432 37.098a10.557 10.557 0 1 1-21.115 0 10.557 10.557 0 0 1 21.115 0Z" fill="#4978BC"/><path d="M43.682 37.098a10.542 10.542 0 1 1-21.083 0 10.542 10.542 0 0 1 21.083 0Z" fill="#DA202C"/><path d="M33.079 26.525c3.462 0 6.523 1.638 8.44 4.204l-.742.186a10.573 10.573 0 0 1-10.759-3.926c.99-.31 2.01-.464 3.092-.464h-.031Z" fill="#001326"/><path d="M15.86 26.525c1.05 0 2.102.154 3.09.464l-.401.494a10.51 10.51 0 0 1-11.13 3.246 10.51 10.51 0 0 1 8.44-4.204Z" fill="#430D1A"/><path d="M24.113 42.57a10.543 10.543 0 0 1 .372-11.563 10.542 10.542 0 0 1 0 12.12l-.372-.557Z" fill="#3E0F20"/><path d="M27.885 20.466v-.433a10.543 10.543 0 0 1 6.585-9.15l.526-.217v.432a10.542 10.542 0 0 1-6.493 9.151l-.618.217v.154-.154Z" fill="#006996"/><path d="M20.404 20.25a10.51 10.51 0 0 1-6.492-9.584 10.542 10.542 0 0 1 7.14 9.8l-.617-.217h-.031Z" fill="#9B1218"/><path d="m24.515 32.615-10.356 7.11 3.74-11.902-10.14-7.76h12.645l4.111-12.149 4.081 12.15H41.24l-10.109 7.76 3.71 11.901-10.326-7.11Z" fill="white"/></svg>