<svg viewBox="0 0 16 16" fill="none" xmlns="http://www.w3.org/2000/svg"><path fill-rule="evenodd" clip-rule="evenodd" d="M15 8A7 7 0 1 1 1 8a7 7 0 0 1 14 0Zm-9.435-.913a.913.913 0 1 0 0-1.826.913.913 0 0 0 0 1.826Zm.438 3.956c0-.537.231-.925.586-1.19.366-.275.878-.427 1.411-.427.534 0 1.045.152 1.411.427.355.265.586.653.586 1.19h.875c0-.832-.377-1.471-.936-1.89C9.39 8.743 8.684 8.55 8 8.55c-.684 0-1.39.192-1.936.602a2.294 2.294 0 0 0-.936 1.89h.875Zm4.432-3.956a.913.913 0 1 0 0-1.826.913.913 0 0 0 0 1.826Z" fill="#111111"/></svg>