<svg viewBox="0 0 16 16" fill="none" xmlns="http://www.w3.org/2000/svg"><path fill-rule="evenodd" clip-rule="evenodd" d="M15 8C15 11.866 11.866 15 8 15C4.13401 15 1 11.866 1 8C1 4.13401 4.13401 1 8 1C11.866 1 15 4.13401 15 8ZM5.56527 10.7201V9.84513H10.4348V10.7201H5.56527ZM5.56514 7.08744C6.0694 7.08744 6.47819 6.67866 6.47819 6.1744C6.47819 5.67014 6.0694 5.26135 5.56514 5.26135C5.06088 5.26135 4.6521 5.67014 4.6521 6.1744C4.6521 6.67866 5.06088 7.08744 5.56514 7.08744ZM10.4347 7.08744C10.9389 7.08744 11.3477 6.67866 11.3477 6.1744C11.3477 5.67014 10.9389 5.26135 10.4347 5.26135C9.93042 5.26135 9.52164 5.67014 9.52164 6.1744C9.52164 6.67866 9.93042 7.08744 10.4347 7.08744Z" fill="currentColor"/></svg>