<svg viewBox="0 0 16 16" fill="none" xmlns="http://www.w3.org/2000/svg"><path fill-rule="evenodd" clip-rule="evenodd" d="M8 14.125C11.3827 14.125 14.125 11.3827 14.125 8C14.125 4.61726 11.3827 1.875 8 1.875C4.61726 1.875 1.875 4.61726 1.875 8C1.875 11.3827 4.61726 14.125 8 14.125ZM8 15C11.866 15 15 11.866 15 8C15 4.13401 11.866 1 8 1C4.13401 1 1 4.13401 1 8C1 11.866 4.13401 15 8 15Z" fill="currentColor"/><path fill-rule="evenodd" clip-rule="evenodd" d="M5.56527 10.7201V9.84513H10.4348V10.7201H5.56527Z" fill="currentColor"/><path d="M6.47819 6.1744C6.47819 6.67866 6.0694 7.08744 5.56514 7.08744C5.06088 7.08744 4.6521 6.67866 4.6521 6.1744C4.6521 5.67014 5.06088 5.26135 5.56514 5.26135C6.0694 5.26135 6.47819 5.67014 6.47819 6.1744Z" fill="currentColor"/><path d="M11.3477 6.1744C11.3477 6.67866 10.9389 7.08744 10.4347 7.08744C9.93042 7.08744 9.52164 6.67866 9.52164 6.1744C9.52164 5.67014 9.93042 5.26135 10.4347 5.26135C10.9389 5.26135 11.3477 5.67014 11.3477 6.1744Z" fill="currentColor"/></svg>