<svg viewBox="0 0 16 16" fill="none" xmlns="http://www.w3.org/2000/svg"><path fill-rule="evenodd" clip-rule="evenodd" d="M8 14A6 6 0 1 0 8 2a6 6 0 0 0 0 12Zm0 1A7 7 0 1 0 8 1a7 7 0 0 0 0 14Z" fill="#111111"/><path fill-rule="evenodd" clip-rule="evenodd" d="M9.374 10.13c.34-.255.56-.625.56-1.141h1c0 .853-.387 1.51-.96 1.94-.56.42-1.28.614-1.974.614-.695 0-1.415-.194-1.974-.613a2.356 2.356 0 0 1-.96-1.941h1c0 .516.22.886.56 1.14.354.266.851.414 1.374.414.523 0 1.02-.148 1.374-.413Z" fill="#111111"/><path d="M6.478 6.174a.913.913 0 1 1-1.826 0 .913.913 0 0 1 1.826 0Zm4.87 0a.913.913 0 1 1-1.826 0 .913.913 0 0 1 1.826 0Z" fill="#111111"/></svg>