<svg id="Layer_1" data-name="Layer 1" xmlns="http://www.w3.org/2000/svg" xmlns:xlink="http://www.w3.org/1999/xlink" viewBox="0 0 16 16"><defs><style>.cls-1{fill:none;}.cls-2{clip-path:url(#clip-path);}</style><clipPath id="clip-path"><rect class="cls-1" x="2" y="2" width="12" height="12.5"/></clipPath></defs><g class="cls-2"><g id="flag"><path id="Path_9" data-name="Path 9" d="M12.55,2.65a4.61,4.61,0,0,1-2,.45,4.71,4.71,0,0,1-1.4-.22L7.44,2.32a6.62,6.62,0,0,0-4.89.33L2,3V14H3V10.36l.45-.23a4.54,4.54,0,0,1,3.36-.22l1.75.56a6.58,6.58,0,0,0,4.89-.34L14,9.87V2ZM13,9.28a5.56,5.56,0,0,1-2.41.55,5.51,5.51,0,0,1-1.71-.27L7.12,9A5.55,5.55,0,0,0,3,9.28V3.51a5.55,5.55,0,0,1,4.12-.28l1.76.56a5.51,5.51,0,0,0,1.71.27A5.56,5.56,0,0,0,13,3.51Z"/></g></g></svg>