<svg viewBox="0 0 16 16" fill="none" xmlns="http://www.w3.org/2000/svg"><path d="M12.488 11.8C12.148 12.535 10.868 13.082 10.699 13.082C10.762 12.872 10.824 12.699 10.871 12.523C11.184 11.332 11.305 10.621 10.734 9.547C10.383 8.891 9.391 8.067 9.457 8.223C9.91 9.27 10.059 9.41 10.187 10.262C10.285 10.879 10.277 12.664 9.527 13.262C9.262 13.469 9.063 13.52 8.727 13.566C8.551 13.594 8.191 13.586 8.035 13.492C7.762 13.328 7.883 13.07 8.012 12.859C8.547 11.989 8.461 10.973 8.222 9.973C8.098 9.461 7.559 8.816 7.582 8.984C7.914 11.211 7.422 13.054 6.465 12.648C5.859 12.391 5.707 12.047 5.449 11.371C5.31598 11.0053 5.26811 10.614 5.309 10.227C5.367 9.648 5.445 9.039 5.457 9.023C5.527 8.914 4.801 9.539 4.668 10.605C4.547 11.559 4.805 12.328 5.656 13.031C5.676 13.047 5.691 13.066 5.711 13.086C4.934 13.226 4.305 13.074 3.758 12.383C3.137 11.598 3.168 10.809 3.324 10.008C3.477 9.218 4.16 8.438 4.941 7.93C5.523 7.55 6.137 7.266 6.605 6.746C6.781 6.551 6.867 6.546 6.855 6.476C6.895 6.691 6.883 6.871 6.875 7.016C6.84 7.555 6.602 7.645 6.735 7.613C7.344 7.473 7.488 6.422 7.551 6.121C7.633 5.734 7.734 4.617 7.727 4.383C7.723 4.348 7.723 4.313 7.719 4.273C7.859 4.914 8.156 5.785 8.418 6.191C8.52 6.383 9.218 7.027 9.375 7.148C9.699 7.398 10.047 7.301 10.43 7.449C11.152 7.73 11.64 8.113 12.164 8.691C12.988 9.601 12.984 10.727 12.488 11.801V11.8ZM13.094 7.949C12.516 7.344 11.813 6.816 11.031 6.516C10.781 6.418 10.828 6.43 10.117 5.796C9.407 5.16 9.157 3.5 10.473 2.441C10.473 2.441 8.699 2.711 8.758 4.594C8.246 3.312 8.586 1.469 8.766 0.5C8.766 0.5 7.648 1.328 7.625 3.438C7.625 3.52 7.715 4.191 7.719 4.273C7.367 2.395 6.211 1.433 6.211 1.433C6.516 2.277 6.812 3.855 6.586 4.949C6.348 3.004 4.664 2.441 4.664 2.441C5.184 3.234 6.105 4.527 5.554 6.27C5.27657 6.4982 4.97709 6.69819 4.66 6.867C4.273 7.074 3.883 7.371 3.527 7.633C2.859 8.129 2.477 8.933 2.219 9.703C1.75 11.102 2.047 12.34 3.031 13.418C3.543 13.98 4.199 14.262 4.973 14.184C5.172 14.164 5.129 14.137 5.258 14.129C5.043 14.301 4.812 14.649 4.457 14.899C4.652 14.829 5.492 14.457 5.687 14.387L6.301 15.305C6.289 15.008 6.277 14.711 6.261 14.418C6.27 14.418 6.273 14.418 6.277 14.422C6.676 14.77 7.113 15.082 7.578 15.352C7.543 15.132 7.508 14.914 7.468 14.695C7.723 14.988 8 15.254 8.305 15.5L8.422 14.7C8.437 14.7 8.453 14.695 8.469 14.695C8.899 14.915 9.336 15.125 9.777 15.325C9.60956 15.0388 9.3699 14.8015 9.082 14.637C9.758 14.73 10.43 14.988 11.113 14.98C10.719 14.871 10.336 14.547 9.941 14.434C10.715 14.293 11.511 14.527 12.297 14.473C11.82 14.355 11.301 14.012 10.805 14.023H10.727C10.898 13.988 11.074 14.012 11.266 13.993C11.786 13.941 12.266 13.723 12.676 13.406C13.586 12.707 13.969 11.754 14 10.703C13.992 9.59 13.816 8.703 13.094 7.949Z" fill="#111111"/></svg>