<svg width="16" height="16" viewBox="0 0 16 16" fill="none" xmlns="http://www.w3.org/2000/svg">
<path d="M11.92 2.51001C10.946 1.53323 9.64372 0.953379 8.2661 0.883109C6.88849 0.81284 5.53394 1.25717 4.46562 2.12978C3.3973 3.00239 2.69149 4.24096 2.48532 5.60487C2.27915 6.96878 2.58734 8.36063 3.35001 9.51001L7.17001 14.17L7.94001 15.12L8.71001 14.17L12.6 9.62001C13.3378 8.54307 13.6739 7.24119 13.5496 5.94167C13.4254 4.64216 12.8486 3.42759 11.92 2.51001ZM11.83 9.00001L8.00001 13.62L4.19001 9.00001C3.74146 8.31193 3.48708 7.51547 3.45376 6.69478C3.42044 5.87408 3.60941 5.05962 4.00071 4.33745C4.392 3.61527 4.9711 3.01219 5.67681 2.59192C6.38251 2.17165 7.18864 1.94979 8.01001 1.94979C8.83138 1.94979 9.63751 2.17165 10.3432 2.59192C11.0489 3.01219 11.628 3.61527 12.0193 4.33745C12.4106 5.05962 12.5996 5.87408 12.5663 6.69478C12.5329 7.51547 12.2786 8.31193 11.83 9.00001ZM8.00001 4.12001C7.42435 4.122 6.86716 4.32339 6.42326 4.6899C5.97935 5.05642 5.67615 5.56542 5.56525 6.1303C5.45435 6.69518 5.5426 7.28103 5.81498 7.78818C6.08736 8.29532 6.52705 8.69242 7.05923 8.91191C7.59141 9.1314 8.1832 9.15971 8.7339 8.99203C9.2846 8.82435 9.76018 8.47103 10.0797 7.99221C10.3993 7.51338 10.5431 6.93863 10.4866 6.36574C10.4301 5.79286 10.1769 5.25723 9.77001 4.85001C9.29723 4.38601 8.66243 4.12421 8.00001 4.12001ZM8.00001 8.12001C7.70334 8.12001 7.41333 8.03204 7.16666 7.86722C6.91998 7.7024 6.72772 7.46813 6.61419 7.19404C6.50066 6.91995 6.47095 6.61835 6.52883 6.32738C6.58671 6.03641 6.72957 5.76913 6.93935 5.55935C7.14913 5.34958 7.4164 5.20671 7.70738 5.14884C7.99835 5.09096 8.29995 5.12066 8.57404 5.23419C8.84812 5.34773 9.08239 5.53998 9.24722 5.78666C9.41204 6.03333 9.50001 6.32334 9.50001 6.62001C9.50001 7.01784 9.34198 7.39937 9.06067 7.68067C8.77937 7.96198 8.39784 8.12001 8.00001 8.12001Z" fill="#111111"/>
</svg>
