<svg width="16" height="16" viewBox="0 0 16 16" fill="none" xmlns="http://www.w3.org/2000/svg">
<path d="M10.73 4.99999H10.87C11.2995 4.83229 11.6454 4.5019 11.8326 4.0806C12.0199 3.6593 12.0333 3.18113 11.87 2.74999C11.7656 2.46115 11.5902 2.20323 11.36 1.99999C11.1566 1.8321 10.9174 1.71322 10.6608 1.65253C10.4042 1.59184 10.137 1.59097 9.88 1.64999C9.62231 1.7067 9.38067 1.82062 9.17295 1.98333C8.96524 2.14604 8.79677 2.35338 8.68 2.58999L8 3.92999L7.32 2.52999C7.13561 2.14823 6.81961 1.84586 6.4301 1.67846C6.04059 1.51107 5.60375 1.4899 5.19988 1.61884C4.796 1.74779 4.45225 2.01819 4.23181 2.38033C4.01137 2.74247 3.92905 3.17201 4 3.58999C4.0412 3.90595 4.16836 4.20453 4.36762 4.45317C4.56689 4.70181 4.8306 4.89096 5.13 4.99999H2V8.99999H3V14H13V8.99999H14V4.99999H10.73ZM9.58 2.99999C9.63082 2.90025 9.70278 2.8128 9.79086 2.74371C9.87894 2.67463 9.98103 2.62558 10.09 2.59999H10.26C10.4318 2.59959 10.5982 2.65978 10.73 2.76999C10.8367 2.8514 10.9185 2.96103 10.9662 3.08649C11.014 3.21194 11.0256 3.34824 11 3.47999C10.9813 3.61154 10.9266 3.73536 10.8418 3.83772C10.7571 3.94009 10.6457 4.01702 10.52 4.05999L8.75 4.71999L9.58 2.99999ZM5 3.42999C4.97435 3.29824 4.98604 3.16194 5.03375 3.03649C5.08146 2.91103 5.16329 2.8014 5.27 2.71999C5.40178 2.60978 5.56821 2.54959 5.74 2.54999H5.91C6.01897 2.57558 6.12106 2.62463 6.20914 2.69371C6.29722 2.7628 6.36918 2.85025 6.42 2.94999L7.25 4.64999L5.48 3.99999C5.35672 3.95593 5.24734 3.87995 5.16302 3.77982C5.07869 3.67968 5.02244 3.55896 5 3.42999ZM3 5.99999H7.5V7.99999H3V5.99999ZM4 8.99999H7.5V13H4V8.99999ZM8.5 13V8.99999H12V13H8.5ZM13 7.99999H8.5V5.99999H13V7.99999Z" fill="#111111"/>
</svg>
