<svg id="Layer_1" data-name="Layer 1" xmlns="http://www.w3.org/2000/svg" xmlns:xlink="http://www.w3.org/1999/xlink" viewBox="0 0 16 16"><defs><style>.cls-1{fill:none;}.cls-2{clip-path:url(#clip-path);}.cls-3{fill:#121212;}</style><clipPath id="clip-path"><rect class="cls-1" x="2" y="1.5" width="12" height="13"/></clipPath></defs><g class="cls-2"><g id="gift"><path id="Path_10" data-name="Path 10" class="cls-3" d="M10.73,5.5h.14a1.75,1.75,0,0,0,1-2.25,1.83,1.83,0,0,0-.54-.75,1.72,1.72,0,0,0-1.48-.35,1.76,1.76,0,0,0-1.2.94L8,4.43,7.32,3A1.76,1.76,0,0,0,4,4.09,1.74,1.74,0,0,0,5.13,5.5H2v4H3v5H13v-5h1v-4Zm-1.15-2a.77.77,0,0,1,.51-.4h.17a.73.73,0,0,1,.47.17.75.75,0,0,1-.21,1.29l-1.77.66ZM5,3.93a.72.72,0,0,1,.27-.71.73.73,0,0,1,.47-.17h.17a.77.77,0,0,1,.51.4l.83,1.7L5.48,4.5A.74.74,0,0,1,5,3.93ZM3,6.5H7.5v2H3Zm1,3H7.5v4H4Zm4.5,4v-4H12v4Zm4.5-5H8.5v-2H13Z"/></g></g></svg>