<svg xmlns="http://www.w3.org/2000/svg" viewbox="0 0 16 16" fill="#000000">
    <title>Gift box</title>
    <g id="gift">
        <path id="Path_10" data-name="Path 10" d="M10.73,5h.14a1.75,1.75,0,0,0,1-2.25A1.83,1.83,0,0,0,11.36,2a1.72,1.72,0,0,0-1.48-.35,1.76,1.76,0,0,0-1.2.94L8,3.93l-.68-1.4A1.76,1.76,0,0,0,4,3.59,1.74,1.74,0,0,0,5.13,5H2V9H3v5H13V9h1V5ZM9.58,3a.77.77,0,0,1,.51-.4h.17a.73.73,0,0,1,.47.17.72.72,0,0,1,.27.71.72.72,0,0,1-.48.58l-1.77.66ZM5,3.43a.72.72,0,0,1,.27-.71.73.73,0,0,1,.47-.17h.17a.77.77,0,0,1,.51.4l.83,1.7L5.48,4A.74.74,0,0,1,5,3.43ZM3,6H7.5V8H3ZM4,9H7.5v4H4Zm4.5,4V9H12v4ZM13,8H8.5V6H13Z" />
    </g>
</svg>