<svg viewBox="0 0 16 16" fill="none" xmlns="http://www.w3.org/2000/svg"><path d="M10.73 5h.14a1.75 1.75 0 0 0 1-2.25 1.83 1.83 0 0 0-.51-.75 1.72 1.72 0 0 0-1.48-.35 1.76 1.76 0 0 0-1.2.94L8 3.93l-.68-1.4A1.76 1.76 0 0 0 4 3.59 1.74 1.74 0 0 0 5.13 5H2v4h1v5h10V9h1V5h-3.27ZM9.58 3a.77.77 0 0 1 .51-.4h.17a.73.73 0 0 1 .47.17.72.72 0 0 1 .27.71.72.72 0 0 1-.48.58l-1.77.66L9.58 3ZM5 3.43a.72.72 0 0 1 .27-.71.73.73 0 0 1 .47-.17h.17a.77.77 0 0 1 .51.4l.83 1.7L5.48 4A.74.74 0 0 1 5 3.43ZM3 6h4.5v2H3V6Zm1 3h3.5v4H4V9Zm4.5 4V9H12v4H8.5ZM13 8H8.5V6H13v2Z" fill="#111111"/></svg>