<svg xmlns="http://www.w3.org/2000/svg" viewBox="0 0 16 16" fill="#000000"><title>Globe</title><path id="globe_svg__globe" d="M8,2a6,6,0,1,0,4.24,1.76A6,6,0,0,0,8,2Zm5.14,6.45c-.48-.15-1.37-.49-1.55-1.24a4.43,4.43,0,0,1,0-1.36l.86-.43A5.16,5.16,0,0,1,13.14,8,3.38,3.38,0,0,1,13.14,8.45ZM4.81,4a1.51,1.51,0,0,0,.67.53,3,3,0,0,0,2.17-.23,2.27,2.27,0,0,1-.16,1.54L7.4,6l.22.76-1-.44-1.11.42-.05.16a1.62,1.62,0,0,0,.41,1.78A3.42,3.42,0,0,1,3.3,5.9,5.18,5.18,0,0,1,4.81,4Zm3.55,7.78a2.2,2.2,0,0,0-1-1.31V9.59l2-.42a.83.83,0,0,1,.41.49,1.38,1.38,0,0,1-.33,1.07l-1,2.41H8.13A1.94,1.94,0,0,0,8.36,11.75ZM2.86,8a5.36,5.36,0,0,1,.05-.7A4.09,4.09,0,0,0,6.54,9.62V11l.24.12a1.49,1.49,0,0,1,.75.86,1.47,1.47,0,0,1-.39,1.14A5.14,5.14,0,0,1,2.86,8Zm6.57,4.94.74-1.8a2.12,2.12,0,0,0,.4-1.77,1.86,1.86,0,0,0-1-1.1l-.12,0-2.39.51a2.85,2.85,0,0,1-1-1.33l.46-.17,1.47.61L8.58,7l-.26-.92a2.94,2.94,0,0,0-.08-2.57L8,3.09l-.38.22a2.62,2.62,0,0,1-1.83.4.69.69,0,0,1-.28-.2A5.14,5.14,0,0,1,12,4.72l-1.14.56v.21a5.74,5.74,0,0,0,0,1.94A3,3,0,0,0,13,9.29,5.15,5.15,0,0,1,9.43,12.94Z"/></svg>