<svg id="Layer_1" data-name="Layer 1" xmlns="http://www.w3.org/2000/svg" viewBox="0 0 16 16"><path id="globe" d="M8,1A7,7,0,1,0,13,3.05,7,7,0,0,0,8,1Zm6,7.52c-.56-.17-1.6-.57-1.81-1.44a4.72,4.72,0,0,1,0-1.59l1-.5A6,6,0,0,1,14,8,4.51,4.51,0,0,1,14,8.52ZM4.28,3.3a1.82,1.82,0,0,0,.78.62,3.52,3.52,0,0,0,2.53-.27,2.61,2.61,0,0,1-.19,1.8l-.1.18.26.89L6.36,6l-1.3.49L5,6.68a1.9,1.9,0,0,0,.48,2.08,4,4,0,0,1-3-3.21A6,6,0,0,1,4.28,3.3Zm4.14,9.07A2.61,2.61,0,0,0,7.3,10.85v-1l2.29-.49a1,1,0,0,1,.47.58,1.58,1.58,0,0,1-.38,1.25L8.51,14H8.15A2.27,2.27,0,0,0,8.42,12.37ZM2,8a5.66,5.66,0,0,1,.06-.82A4.76,4.76,0,0,0,6.3,9.89v1.55l.28.14a1.75,1.75,0,0,1,.87,1A1.68,1.68,0,0,1,7,13.91,6,6,0,0,1,2,8Zm7.67,5.76.86-2.1A2.46,2.46,0,0,0,11,9.6,2.15,2.15,0,0,0,9.86,8.32l-.15-.06-2.78.59A3.23,3.23,0,0,1,5.81,7.3l.53-.2,1.72.71.62-1L8.37,5.74a3.43,3.43,0,0,0-.09-3L8,2.27l-.44.26A3.1,3.1,0,0,1,5.42,3a.93.93,0,0,1-.32-.24,6,6,0,0,1,7.51,1.41l-1.33.66v.24a6.6,6.6,0,0,0,0,2.26A3.46,3.46,0,0,0,13.8,9.51,6,6,0,0,1,9.67,13.76Z"/></svg>