<svg viewBox="0 0 16 16" fill="none" xmlns="http://www.w3.org/2000/svg"><path d="M8 2a6 6 0 1 0-.01 12A6 6 0 0 0 8 2Zm5.14 6.45c-.48-.15-1.37-.49-1.55-1.24a4.43 4.43 0 0 1 0-1.36l.86-.43A5.16 5.16 0 0 1 13.14 8c.01.15.01.3 0 .45ZM4.81 4c.168.237.4.422.67.53a3 3 0 0 0 2.17-.23 2.27 2.27 0 0 1-.16 1.54L7.4 6l.22.76-1-.44-1.11.42-.05.16a1.62 1.62 0 0 0 .41 1.78A3.42 3.42 0 0 1 3.3 5.9 5.18 5.18 0 0 1 4.81 4Zm3.55 7.78a2.2 2.2 0 0 0-1-1.31v-.88l2-.42a.83.83 0 0 1 .41.49 1.38 1.38 0 0 1-.33 1.07l-1 2.41h-.31a1.94 1.94 0 0 0 .23-1.39v.03ZM2.86 8a5.36 5.36 0 0 1 .05-.7 4.09 4.09 0 0 0 3.63 2.32V11l.24.12a1.489 1.489 0 0 1 .75.86 1.47 1.47 0 0 1-.39 1.14A5.14 5.14 0 0 1 2.86 8Zm6.57 4.94.74-1.8a2.12 2.12 0 0 0 .4-1.77 1.861 1.861 0 0 0-1-1.1h-.12l-2.39.51a2.85 2.85 0 0 1-1-1.33l.46-.17 1.47.61.59-.89-.26-.92a2.94 2.94 0 0 0-.08-2.57L8 3.09l-.38.22a2.62 2.62 0 0 1-1.83.4.69.69 0 0 1-.28-.2A5.14 5.14 0 0 1 12 4.72l-1.14.56v.21a5.739 5.739 0 0 0 0 1.94A3 3 0 0 0 13 9.29a5.15 5.15 0 0 1-3.57 3.65Z" fill="#111111"/></svg>