<svg viewBox="0 0 24 24" fill="none" xmlns="http://www.w3.org/2000/svg"><path d="M24 12.2667C24 11.28 23.9183 10.56 23.7415 9.81335H12.2449V14.2666H18.9931C18.8571 15.3733 18.1224 17.04 16.4897 18.16L16.4669 18.309L20.1019 21.0687L20.3537 21.0934C22.6666 19 24 15.92 24 12.2667Z" fill="#4285F4"/><path d="M12.2449 24C15.551 24 18.3265 22.9333 20.3537 21.0934L16.4898 18.1599C15.4558 18.8666 14.068 19.3599 12.2449 19.3599C9.00682 19.3599 6.25854 17.2667 5.27886 14.3734L5.13526 14.3853L1.35552 17.252L1.30609 17.3866C3.31968 21.3066 7.45574 24 12.2449 24Z" fill="#34A853"/><path d="M5.27886 14.3734C5.02036 13.6267 4.87076 12.8266 4.87076 12C4.87076 11.1733 5.02036 10.3733 5.26526 9.62668L5.25841 9.46766L1.43131 6.55493L1.30609 6.6133C0.476196 8.23999 0 10.0667 0 12C0 13.9333 0.476196 15.76 1.30609 17.3866L5.27886 14.3734Z" fill="#FBBC05"/><path d="M12.2449 4.63997C14.5442 4.63997 16.0952 5.6133 16.9796 6.42669L20.4353 3.12C18.3129 1.18667 15.551 0 12.2449 0C7.45574 0 3.31968 2.69331 1.30609 6.61328L5.26526 9.62666C6.25854 6.73333 9.00682 4.63997 12.2449 4.63997Z" fill="#EB4335"/></svg>