<svg viewBox="0 0 24 24" fill="none" xmlns="http://www.w3.org/2000/svg"><path d="M12 23.6062C18.4099 23.6062 23.6062 18.4099 23.6062 12C23.6062 5.59003 18.4099 0.393738 12 0.393738C5.59003 0.393738 0.393738 5.59003 0.393738 12C0.393738 18.4099 5.59003 23.6062 12 23.6062Z" fill="white"/><path d="M12 0.517488C15.0678 0.517447 18.0108 1.732 20.1857 3.89564C22.3606 6.05927 23.5904 8.99598 23.6062 12.0637V12C23.6062 8.92182 22.3834 5.96972 20.2068 3.79313C18.0303 1.61654 15.0782 0.393738 12 0.393738C8.92182 0.393738 5.96972 1.61654 3.79313 3.79313C1.61654 5.96972 0.393738 8.92182 0.393738 12V12.0562C0.411572 8.98978 1.64224 6.055 3.8169 3.89298C5.99157 1.73096 8.93348 0.517436 12 0.517488Z" fill="white" fill-opacity="0.2"/><path d="M12 23.4825C15.0678 23.4826 18.0108 22.268 20.1857 20.1044C22.3606 17.9407 23.5904 15.004 23.6062 11.9363V12C23.6067 15.0782 22.3844 18.0305 20.2082 20.2074C18.0319 22.3844 15.08 23.6077 12.0019 23.6082C8.9237 23.6087 5.9714 22.3863 3.79446 20.2101C1.61751 18.0338 0.394235 15.0819 0.393738 12.0038V11.9475C0.412559 15.0133 1.64366 17.9472 3.81822 20.1084C5.99278 22.2696 8.93412 23.4826 12 23.4825Z" fill="#263238" fill-opacity="0.15"/><path d="M11.01 9.12377V14.88H12.99V9.11627L11.01 9.12377Z" fill="#FAB908"/><path d="M5.07752 12.45C5.62429 12.45 6.06752 12.0068 6.06752 11.46C6.06752 10.9133 5.62429 10.47 5.07752 10.47C4.53076 10.47 4.08752 10.9133 4.08752 11.46C4.08752 12.0068 4.53076 12.45 5.07752 12.45Z" fill="#0066D9"/><path d="M5.07752 13.53C5.62429 13.53 6.06752 13.0868 6.06752 12.54C6.06752 11.9933 5.62429 11.55 5.07752 11.55C4.53076 11.55 4.08752 11.9933 4.08752 12.54C4.08752 13.0868 4.53076 13.53 5.07752 13.53Z" fill="#0066D9"/><path d="M4.08752 11.46H6.06377V12.54H4.08752V11.46Z" fill="#0066D9"/><path d="M18.9225 13.53C19.4693 13.53 19.9125 13.0868 19.9125 12.54C19.9125 11.9933 19.4693 11.55 18.9225 11.55C18.3757 11.55 17.9325 11.9933 17.9325 12.54C17.9325 13.0868 18.3757 13.53 18.9225 13.53Z" fill="#4285F4"/><path d="M18.9225 12.45C19.4693 12.45 19.9125 12.0068 19.9125 11.46C19.9125 10.9133 19.4693 10.47 18.9225 10.47C18.3757 10.47 17.9325 10.9133 17.9325 11.46C17.9325 12.0068 18.3757 12.45 18.9225 12.45Z" fill="#4285F4"/><path d="M19.9125 12.54H17.9363V11.46H19.9125V12.54Z" fill="#4285F4"/><path d="M8.49378 15.6863C9.04055 15.6863 9.48378 15.2431 9.48378 14.6963C9.48378 14.1495 9.04055 13.7063 8.49378 13.7063C7.94702 13.7063 7.50378 14.1495 7.50378 14.6963C7.50378 15.2431 7.94702 15.6863 8.49378 15.6863Z" fill="#EA4335"/><path d="M8.49378 16.7663C9.04055 16.7663 9.48378 16.323 9.48378 15.7763C9.48378 15.2295 9.04055 14.7863 8.49378 14.7863C7.94702 14.7863 7.50378 15.2295 7.50378 15.7763C7.50378 16.323 7.94702 16.7663 8.49378 16.7663Z" fill="#EA4335"/><path d="M7.50378 14.6963H9.48003V15.7763H7.50378V14.6963Z" fill="#EA4335"/><path d="M8.49378 9.21377C9.04055 9.21377 9.48378 8.77053 9.48378 8.22376C9.48378 7.677 9.04055 7.23376 8.49378 7.23376C7.94702 7.23376 7.50378 7.677 7.50378 8.22376C7.50378 8.77053 7.94702 9.21377 8.49378 9.21377Z" fill="#EA4335"/><path d="M8.49378 12.7201C9.04055 12.7201 9.48378 12.2768 9.48378 11.7301C9.48378 11.1833 9.04055 10.7401 8.49378 10.7401C7.94702 10.7401 7.50378 11.1833 7.50378 11.7301C7.50378 12.2768 7.94702 12.7201 8.49378 12.7201Z" fill="#EA4335"/><path d="M7.50378 8.22375H9.48003V11.7525H7.50378V8.22375Z" fill="#EA4335"/><path d="M15.5063 10.2938C16.0531 10.2938 16.4963 9.85054 16.4963 9.30378C16.4963 8.75702 16.0531 8.31378 15.5063 8.31378C14.9595 8.31378 14.5163 8.75702 14.5163 9.30378C14.5163 9.85054 14.9595 10.2938 15.5063 10.2938Z" fill="#34A853"/><path d="M15.5063 9.21377C16.0531 9.21377 16.4963 8.77053 16.4963 8.22376C16.4963 7.677 16.0531 7.23376 15.5063 7.23376C14.9595 7.23376 14.5163 7.677 14.5163 8.22376C14.5163 8.77053 14.9595 9.21377 15.5063 9.21377Z" fill="#34A853"/><path d="M16.4963 9.3H14.52V8.22375H16.4963V9.3Z" fill="#34A853"/><path d="M12 7.14376C12.5468 7.14376 12.99 6.70052 12.99 6.15376C12.99 5.607 12.5468 5.16376 12 5.16376C11.4532 5.16376 11.01 5.607 11.01 6.15376C11.01 6.70052 11.4532 7.14376 12 7.14376Z" fill="#FAB908"/><path d="M12 6.06752C12.5468 6.06752 12.99 5.62429 12.99 5.07752C12.99 4.53076 12.5468 4.08752 12 4.08752C11.4532 4.08752 11.01 4.53076 11.01 5.07752C11.01 5.62429 11.4532 6.06752 12 6.06752Z" fill="#FAB908"/><path d="M12.99 6.15379H11.0138V5.07379H12.99V6.15379Z" fill="#FAB908"/><path d="M12 19.9125C12.5468 19.9125 12.99 19.4693 12.99 18.9225C12.99 18.3757 12.5468 17.9325 12 17.9325C11.4532 17.9325 11.01 18.3757 11.01 18.9225C11.01 19.4693 11.4532 19.9125 12 19.9125Z" fill="#FAB908"/><path d="M12 18.8325C12.5468 18.8325 12.99 18.3893 12.99 17.8425C12.99 17.2958 12.5468 16.8525 12 16.8525C11.4532 16.8525 11.01 17.2958 11.01 17.8425C11.01 18.3893 11.4532 18.8325 12 18.8325Z" fill="#FAB908"/><path d="M12.99 18.9225H11.0138V17.8425H12.99V18.9225Z" fill="#FAB908"/><path d="M15.5063 16.7663C16.0531 16.7663 16.4963 16.323 16.4963 15.7763C16.4963 15.2295 16.0531 14.7863 15.5063 14.7863C14.9595 14.7863 14.5163 15.2295 14.5163 15.7763C14.5163 16.323 14.9595 16.7663 15.5063 16.7663Z" fill="#34A853"/><path d="M15.5063 13.26C16.0531 13.26 16.4963 12.8168 16.4963 12.27C16.4963 11.7233 16.0531 11.28 15.5063 11.28C14.9595 11.28 14.5163 11.7233 14.5163 12.27C14.5163 12.8168 14.9595 13.26 15.5063 13.26Z" fill="#34A853"/><path d="M16.4963 15.7763H14.52V12.27H16.4963V15.7763Z" fill="#34A853"/><path d="M12 10.1138C12.5468 10.1138 12.99 9.67055 12.99 9.12379C12.99 8.57703 12.5468 8.13379 12 8.13379C11.4532 8.13379 11.01 8.57703 11.01 9.12379C11.01 9.67055 11.4532 10.1138 12 10.1138Z" fill="#FAB908"/><path d="M12 15.8663C12.5468 15.8663 12.99 15.4231 12.99 14.8763C12.99 14.3295 12.5468 13.8863 12 13.8863C11.4532 13.8863 11.01 14.3295 11.01 14.8763C11.01 15.4231 11.4532 15.8663 12 15.8663Z" fill="#FAB908"/></svg>