<svg xmlns="http://www.w3.org/2000/svg" viewBox="0 0 64 64">
  <title>Google Podcasts</title>
  <g fill="none" fill-rule="evenodd">
    <path d="M0 0h64v64H0z"/>
    <circle cx="32" cy="32" r="30.95" fill="#FFF" fill-rule="nonzero"/>
    <path fill="#FFF" fill-opacity=".2" fill-rule="nonzero" d="M32 1.38a30.95 30.95 0 0130.95 30.79V32A30.95 30.95 0 001.05 32v.15A30.95 30.95 0 0132 1.38z"/>
    <path fill="#263238" fill-opacity=".15" fill-rule="nonzero" d="M32 62.62a30.95 30.95 0 0030.95-30.79V32a30.95 30.95 0 01-61.9.01v-.15A30.95 30.95 0 0032 62.62z"/>
    <g fill-rule="nonzero" transform="translate(10.9 10.9)">
      <path fill="#FAB908" d="M18.46 13.43v15.35h5.28V13.41z"/>
      <circle cx="2.64" cy="19.66" r="2.64" fill="#0066D9"/>
      <circle cx="2.64" cy="22.54" r="2.64" fill="#0066D9"/>
      <path fill="#0066D9" d="M0 19.66h5.27v2.88H0z"/>
      <circle cx="39.56" cy="22.54" r="2.64" fill="#4285F4"/>
      <circle cx="39.56" cy="19.66" r="2.64" fill="#4285F4"/>
      <path fill="#4285F4" d="M42.2 22.54h-5.27v-2.88h5.27z"/>
      <circle cx="11.75" cy="28.29" r="2.64" fill="#EA4335"/>
      <circle cx="11.75" cy="31.17" r="2.64" fill="#EA4335"/>
      <path fill="#EA4335" d="M9.11 28.29h5.27v2.88H9.11z"/>
      <circle cx="11.75" cy="11.03" r="2.64" fill="#EA4335"/>
      <circle cx="11.75" cy="20.38" r="2.64" fill="#EA4335"/>
      <path fill="#EA4335" d="M9.11 11.03h5.27v9.41H9.11z"/>
      <circle cx="30.45" cy="13.91" r="2.64" fill="#34A853"/>
      <circle cx="30.45" cy="11.03" r="2.64" fill="#34A853"/>
      <path fill="#34A853" d="M33.09 13.9h-5.27v-2.87h5.27z"/>
      <circle cx="21.1" cy="5.51" r="2.64" fill="#FAB908"/>
      <circle cx="21.1" cy="2.64" r="2.64" fill="#FAB908"/>
      <path fill="#FAB908" d="M23.74 5.51h-5.27V2.63h5.27z"/>
      <circle cx="21.1" cy="39.56" r="2.64" fill="#FAB908"/>
      <circle cx="21.1" cy="36.68" r="2.64" fill="#FAB908"/>
      <path fill="#FAB908" d="M23.74 39.56h-5.27v-2.88h5.27z"/>
      <circle cx="30.45" cy="31.17" r="2.64" fill="#34A853"/>
      <circle cx="30.45" cy="21.82" r="2.64" fill="#34A853"/>
      <path fill="#34A853" d="M33.09 31.17h-5.27v-9.35h5.27z"/>
      <circle cx="21.1" cy="13.43" r="2.64" fill="#FAB908"/>
      <circle cx="21.1" cy="28.77" r="2.64" fill="#FAB908"/>
    </g>
  </g>
</svg>