<svg xmlns="http://www.w3.org/2000/svg" viewBox="0 0 24 24">
<path fill-rule="evenodd" clip-rule="evenodd" fill="white" d="M23.6063 12C23.6063 18.41 18.41 23.6062 12 23.6062C5.59005 23.6062 0.393753 18.41 0.393753 12C0.393753 5.59004 5.59005 0.393745 12 0.393745C18.41 0.393745 23.6063 5.59004 23.6063 12ZM12.99 6.15375C12.99 6.70051 12.5468 7.14375 12 7.14375C11.4532 7.14375 11.01 6.70051 11.01 6.15375C11.01 6.12451 11.0113 6.09557 11.0138 6.06698V5.16427C11.0113 5.13567 11.01 5.10673 11.01 5.0775C11.01 4.53074 11.4532 4.0875 12 4.0875C12.5455 4.0875 12.988 4.52871 12.99 5.07375L12.99 5.0775V6.15375ZM9.48 8.31052C9.48249 8.28193 9.48375 8.25299 9.48375 8.22375C9.48375 7.67699 9.04052 7.23375 8.49375 7.23375C7.94699 7.23375 7.50376 7.67699 7.50375 8.22375V11.7525C7.51572 12.2889 7.95451 12.72 8.49375 12.72C9.04052 12.72 9.48375 12.2768 9.48375 11.73C9.48375 11.7008 9.48249 11.6718 9.48 11.6432V8.31052ZM4.0875 12.54C4.08751 13.0868 4.53074 13.53 5.0775 13.53C5.62427 13.53 6.0675 13.0868 6.0675 12.54C6.0675 12.5108 6.06624 12.4818 6.06375 12.4532V11.5468C6.06624 11.5182 6.0675 11.4892 6.0675 11.46C6.0675 10.9132 5.62427 10.47 5.0775 10.47C4.53074 10.47 4.0875 10.9132 4.0875 11.46V12.54ZM19.9125 12.54C19.9125 13.0868 19.4693 13.53 18.9225 13.53C18.3757 13.53 17.9325 13.0868 17.9325 12.54C17.9325 12.5108 17.9338 12.4818 17.9363 12.4532V11.5468C17.9338 11.5182 17.9325 11.4892 17.9325 11.46C17.9325 10.9132 18.3757 10.47 18.9225 10.47C19.4693 10.47 19.9125 10.9132 19.9125 11.46V12.54ZM8.49375 16.7662C7.94699 16.7662 7.50376 16.323 7.50375 15.7763V14.6962C7.50375 14.1495 7.94699 13.7062 8.49375 13.7062C9.04052 13.7062 9.48375 14.1495 9.48375 14.6962C9.48375 14.7255 9.48249 14.7544 9.48 14.783V15.6895C9.48249 15.7181 9.48375 15.747 9.48375 15.7762C9.48375 16.323 9.04052 16.7662 8.49375 16.7662ZM14.5163 9.30374C14.5163 9.27451 14.5175 9.24557 14.52 9.21697V8.31052C14.5175 8.28193 14.5163 8.25299 14.5163 8.22375C14.5163 7.67699 14.9595 7.23375 15.5063 7.23375C16.053 7.23375 16.4963 7.67699 16.4963 8.22375L16.4962 9.3L16.4963 9.30374C16.4963 9.8505 16.053 10.2937 15.5063 10.2937C14.9595 10.2937 14.5163 9.8505 14.5163 9.30374ZM11.01 18.9225C11.01 18.8933 11.0113 18.8643 11.0138 18.8357V17.9293C11.0113 17.9007 11.01 17.8717 11.01 17.8425C11.01 17.2957 11.4532 16.8525 12 16.8525C12.5468 16.8525 12.99 17.2957 12.99 17.8425V18.9225C12.99 19.4693 12.5468 19.9125 12 19.9125C11.4532 19.9125 11.01 19.4693 11.01 18.9225ZM16.4963 12.27C16.4963 11.7232 16.053 11.28 15.5063 11.28C14.9595 11.28 14.5163 11.7232 14.5163 12.27C14.5163 12.2992 14.5175 12.3282 14.52 12.3568V15.6895C14.5175 15.7181 14.5163 15.747 14.5163 15.7762C14.5163 16.323 14.9595 16.7662 15.5063 16.7662C16.053 16.7662 16.4963 16.323 16.4963 15.7763V12.27ZM11.01 14.88V9.12375C11.01 8.57699 11.4532 8.13375 12 8.13375C12.5443 8.13375 12.986 8.57294 12.99 9.11625V14.8763L12.99 14.88C12.988 15.425 12.5455 15.8663 12 15.8663C11.4545 15.8663 11.012 15.425 11.01 14.88Z" />
</svg>
