<svg viewBox="0 0 24 24" fill="none" xmlns="http://www.w3.org/2000/svg"><path d="M24 12.267c0-.987-.082-1.707-.259-2.454H12.245v4.454h6.748c-.136 1.106-.87 2.773-2.503 3.893l-.023.149 3.635 2.76.252.024C22.667 19 24 15.92 24 12.267Z" fill="#4285F4"/><path d="M12.245 24c3.306 0 6.082-1.067 8.109-2.907L16.49 18.16c-1.034.707-2.422 1.2-4.245 1.2a7.358 7.358 0 0 1-6.966-4.987l-.144.012-3.78 2.867-.049.135C3.32 21.307 7.456 24 12.245 24Z" fill="#34A853"/><path d="M5.279 14.373A7.255 7.255 0 0 1 4.87 12c0-.827.15-1.627.394-2.373l-.007-.16-3.827-2.912-.125.058A11.816 11.816 0 0 0 0 12c0 1.933.476 3.76 1.306 5.387l3.973-3.014Z" fill="#FBBC05"/><path d="M12.245 4.64c2.3 0 3.85.973 4.735 1.787l3.455-3.307C18.313 1.187 15.551 0 12.245 0 7.455 0 3.32 2.693 1.306 6.613l3.96 3.014c.993-2.894 3.74-4.987 6.979-4.987Z" fill="#EB4335"/></svg>