<svg viewBox="0 0 24 24" fill="none" xmlns="http://www.w3.org/2000/svg"><path d="M12 23.606c6.41 0 11.606-5.196 11.606-11.606S18.41.394 12 .394.394 5.59.394 12 5.59 23.606 12 23.606Z" fill="white"/><path d="M12 .517a11.606 11.606 0 0 1 11.606 11.547V12A11.606 11.606 0 1 0 .394 12v.056A11.606 11.606 0 0 1 12 .517Z" fill="white" fill-opacity="0.2"/><path d="M12 23.483a11.606 11.606 0 0 0 11.606-11.547V12a11.606 11.606 0 1 1-23.212.004v-.056A11.606 11.606 0 0 0 12 23.483Z" fill="#263238" fill-opacity="0.15"/><path d="M11.01 9.124v5.756h1.98V9.116l-1.98.008Z" fill="#FAB908"/><path d="M5.078 12.45a.99.99 0 1 0 0-1.98.99.99 0 0 0 0 1.98Z" fill="#0066D9"/><path d="M5.078 13.53a.99.99 0 1 0 0-1.98.99.99 0 0 0 0 1.98Z" fill="#0066D9"/><path d="M4.088 11.46h1.976v1.08H4.088v-1.08Z" fill="#0066D9"/><path d="M18.922 13.53a.99.99 0 1 0 0-1.98.99.99 0 0 0 0 1.98Z" fill="#4285F4"/><path d="M18.922 12.45a.99.99 0 1 0 0-1.98.99.99 0 0 0 0 1.98Z" fill="#4285F4"/><path d="M19.913 12.54h-1.977v-1.08h1.977v1.08Z" fill="#4285F4"/><path d="M8.494 15.686a.99.99 0 1 0 0-1.98.99.99 0 0 0 0 1.98Z" fill="#EA4335"/><path d="M8.494 16.766a.99.99 0 1 0 0-1.98.99.99 0 0 0 0 1.98Z" fill="#EA4335"/><path d="M7.504 14.696H9.48v1.08H7.504v-1.08Zm.99-5.482a.99.99 0 1 0 0-1.98.99.99 0 0 0 0 1.98Zm0 3.506a.99.99 0 1 0 0-1.98.99.99 0 0 0 0 1.98Z" fill="#EA4335"/><path d="M7.504 8.224H9.48v3.528H7.504V8.224Z" fill="#EA4335"/><path d="M15.506 10.294a.99.99 0 1 0 0-1.98.99.99 0 0 0 0 1.98Z" fill="#34A853"/><path d="M15.506 9.214a.99.99 0 1 0 0-1.98.99.99 0 0 0 0 1.98Z" fill="#34A853"/><path d="M16.496 9.3H14.52V8.224h1.976V9.3Z" fill="#34A853"/><path d="M12 7.144a.99.99 0 1 0 0-1.98.99.99 0 0 0 0 1.98Z" fill="#FAB908"/><path d="M12 6.068a.99.99 0 1 0 0-1.98.99.99 0 0 0 0 1.98Z" fill="#FAB908"/><path d="M12.99 6.154h-1.976v-1.08h1.976v1.08ZM12 19.913a.99.99 0 1 0 0-1.98.99.99 0 0 0 0 1.98Z" fill="#FAB908"/><path d="M12 18.832a.99.99 0 1 0 0-1.98.99.99 0 0 0 0 1.98Z" fill="#FAB908"/><path d="M12.99 18.922h-1.976v-1.08h1.976v1.08Z" fill="#FAB908"/><path d="M15.506 16.766a.99.99 0 1 0 0-1.98.99.99 0 0 0 0 1.98Zm0-3.506a.99.99 0 1 0 0-1.98.99.99 0 0 0 0 1.98Z" fill="#34A853"/><path d="M16.496 15.776H14.52V12.27h1.976v3.506Z" fill="#34A853"/><path d="M12 10.114a.99.99 0 1 0 0-1.98.99.99 0 0 0 0 1.98Zm0 5.752a.99.99 0 1 0 0-1.98.99.99 0 0 0 0 1.98Z" fill="#FAB908"/></svg>