<svg id="Layer_1" data-name="Layer 1" xmlns="http://www.w3.org/2000/svg" xmlns:xlink="http://www.w3.org/1999/xlink" viewBox="0 0 16 16"><defs><style>.cls-1{fill:none;}.cls-2{clip-path:url(#clip-path);}</style><clipPath id="clip-path"><rect class="cls-1" x="2" y="2" width="12" height="12"/></clipPath></defs><g class="cls-2"><g id="headphones"><path id="Path_12" data-name="Path 12" d="M14,8.24A6.13,6.13,0,0,0,8,2,6.13,6.13,0,0,0,2,8.24V10.5A2.09,2.09,0,0,0,2,11a3,3,0,0,0,3,3H6V8H5a3,3,0,0,0-2,.78V8.24A5.12,5.12,0,0,1,8,3a5.12,5.12,0,0,1,5,5.24v.54A3,3,0,0,0,11,8H10v6h1a3,3,0,0,0,3-3,2.73,2.73,0,0,0-.05-.5H14ZM5,9v4A2,2,0,0,1,5,9Zm6,4V9a2,2,0,0,1,0,4Z"/></g></g></svg>