<svg xmlns="http://www.w3.org/2000/svg" fill="currentColor" viewBox="0 0 16 16">
  <path fill-rule="evenodd" d="M12.967 7.527c.027.23.038.462.034.695v.558A3 3 0 0 0 11 8h-1v6h1a3 3 0 0 0 3-3c-.002-.102 0-.5 0-.5V8.24a6.128 6.128 0 0 0-1.695-4.343l-.016-.017A6.128 6.128 0 0 0 7.977 2a6.129 6.129 0 0 0-4.283 1.897A6.129 6.129 0 0 0 2 8.24v2.26a2.09 2.09 0 0 0 0 .5v.04A3 3 0 0 0 5 14h1V8H5a3 3 0 0 0-2 .78v-.558A5.12 5.12 0 0 1 4.428 4.57 5.12 5.12 0 0 1 7.995 3h.011a5.12 5.12 0 0 1 3.566 1.57l.014.014a5.12 5.12 0 0 1 1.381 2.943ZM3 10.131v.429l-.007.06a1.13 1.13 0 0 0 0 .26l.007.06V11a2 2 0 0 0 2 2V9a2 2 0 0 0-1.327.52L3 10.131Zm10 0-.673-.611A2 2 0 0 0 11 9v4a2 2 0 0 0 2-1.997v-.872Z" clip-rule="evenodd"/>
</svg>
