<?xml version="1.0" encoding="utf-8"?>
<!-- Generator: Adobe Illustrator 27.4.0, SVG Export Plug-In . SVG Version: 6.00 Build 0)  -->
<svg version="1.1" id="Layer_3" xmlns="http://www.w3.org/2000/svg" xmlns:xlink="http://www.w3.org/1999/xlink" x="0px" y="0px"
	 viewBox="0 0 1080 1080" style="enable-background:new 0 0 1080 1080;" xml:space="preserve">
<style type="text/css">
	.st0{display:none;fill:#FFEC44;}
	.st1{fill:#FFEC44;}
	.st2{fill:#111111;}
</style>
<circle class="st0" cx="4400.08" cy="-2594.85" r="108.15"/>
<path class="st1" d="M811.8,292.64c-21.18-1.92-41.86,2.72-59.75,13.46c-22.44,13.45-41.37,34.12-54.75,59.76
	c-6.65,12.75-11.77,26.68-15.24,41.53l-40.23-83.65l-73.3-149.56c-12.45-25.9-33.04-46.68-57.97-58.5
	c-28.16-13.36-58.42-13.62-85.21-0.72c-26.8,12.88-45.65,37.24-53.08,68.58c-6.5,27.42-3.25,57.71,8.91,83.18l48.84,106.78
	c-22.54,2.34-43.65,11.84-60.28,27.78C350,420.19,338.8,445.66,338.21,473c-0.07,3.42,0.02,6.82,0.28,10.18
	c-24.23,1.9-47.82,12.54-65.44,31.88c-17.8,19.55-26.93,44.85-25.69,71.26c0.35,7.39,1.57,14.59,3.47,21.56
	c-13.61,4.81-26.26,12.92-36.64,24.32c-33.6,36.89-30.91,94.23,5.98,127.83l31.63,28.8c5.01,4.57,10.48,8.43,16.23,11.71
	c24.56,43.34,108.72,165.91,278.68,173.85c1.48,0.07,2.96,0.1,4.47,0.1c88.94-0.01,226.8-119.1,269.16-185.61
	c54.59-85.71,60.82-183.06,59.56-234.26l9.15-182.59C894.25,300.16,836.49,294.89,811.8,292.64z"/>
<path class="st2" d="M811.8,292.64c-21.18-1.92-41.86,2.72-59.75,13.46c-22.44,13.45-41.37,34.12-54.75,59.76
	c-6.65,12.75-11.77,26.68-15.24,41.53l-40.23-83.65l-73.3-149.56c-12.45-25.9-33.04-46.68-57.97-58.5
	c-28.16-13.36-58.42-13.62-85.21-0.72c-26.8,12.88-45.65,37.24-53.08,68.58c-6.5,27.42-3.25,57.71,8.91,83.18l48.84,106.78
	c-22.54,2.34-43.65,11.84-60.28,27.78C350,420.19,338.8,445.66,338.21,473c-0.07,3.42,0.02,6.82,0.28,10.18
	c-24.23,1.9-47.82,12.54-65.44,31.88c-17.8,19.55-26.93,44.85-25.69,71.26c0.35,7.39,1.57,14.59,3.47,21.56
	c-13.61,4.81-26.26,12.92-36.64,24.32c-33.6,36.89-30.91,94.23,5.98,127.83l31.63,28.8c5.01,4.57,10.48,8.43,16.23,11.71
	c24.56,43.34,108.72,165.91,278.68,173.85c1.48,0.07,2.96,0.1,4.47,0.1c88.94-0.01,226.8-119.1,269.16-185.61
	c54.59-85.71,60.82-183.06,59.56-234.26l9.15-182.59C894.25,300.16,836.49,294.89,811.8,292.64z M412.91,446.34
	c7.5-7.18,17.28-11.11,27.63-11.11c0.29,0,0.59,0,0.88,0.01c10.67,0.23,20.62,4.6,28,12.31l34.29,35.79
	c15.25,15.91,14.7,41.26-1.21,56.51c-7.71,7.39-17.78,11.35-28.51,11.1c-9.14-0.19-17.73-3.45-24.65-9.22l-2.14-1.94
	c-0.4-0.39-0.82-0.74-1.21-1.15l-34.29-35.8c-7.39-7.71-11.32-17.83-11.1-28.51C400.83,463.67,405.21,453.72,412.91,446.34z
	 M319.19,557.08c7.21-7.91,17.11-11.93,27.05-11.93c8.79,0,17.61,3.14,24.6,9.51l36.65,33.38c0.35,0.31,0.68,0.64,1.04,0.95
	l3.99,3.63c14.91,13.58,15.99,36.75,2.42,51.66c-11.81,12.97-30.88,15.46-45.45,6.96l-27.47-25.02c-2.9-2.64-5.97-4.98-9.1-7.17
	l-11.31-10.3c-7.22-6.58-11.45-15.57-11.91-25.33C309.24,573.66,312.61,564.3,319.19,557.08z M260.33,674.22
	c5.53-6.08,13.15-9.16,20.78-9.16c4.69,0,9.37,1.25,13.6,3.6l26.55,24.18c3.02,2.75,6.2,5.2,9.45,7.5l0.91,0.83
	c5.55,5.05,8.8,11.96,9.15,19.45c0.35,7.49-2.24,14.67-7.29,20.22c-5.05,5.55-11.96,8.8-19.45,9.15
	c-7.53,0.32-14.68-2.24-20.22-7.29l-31.63-28.8C250.74,703.47,249.9,685.67,260.33,674.22z M826.79,367.77
	c-0.02,0.26-0.04,0.52-0.05,0.78l-9.23,184.14c-0.04,0.81-0.05,1.61-0.03,2.42c1.2,43.73-3.68,127.88-49.77,200.26
	c-47.26,74.2-169.64,156.73-216.35,156.73c-0.59,0-1.17-0.01-1.73-0.04c-109.85-5.13-175.79-64.29-208.1-104.37
	c14.46-4.84,27.55-13.25,38.1-24.83c16.27-17.87,24.62-41.01,23.48-65.15c-0.01-0.14-0.03-0.28-0.04-0.42
	c21.57-3.33,42.2-13.64,58.01-30.99c0,0,0,0,0.01,0c18.94-20.81,27.26-47.56,25.41-73.64c22.15-2.49,42.79-12.05,59.17-27.73
	c0,0,0,0,0,0c40.76-39.05,42.16-103.98,3.11-144.75l-34.29-35.79c-0.96-1-2.01-1.89-3.01-2.85L437.82,240.5
	c-0.08-0.18-0.17-0.36-0.25-0.54c-6.09-12.67-7.8-28.39-4.57-42.03c2.12-8.96,7.21-20.88,19.4-26.74
	c12.15-5.84,23.8-2.76,31.41,0.86c11.9,5.65,22.28,16.28,28.58,29.38l73.3,149.56l82.14,170.82c5.88,12.23,19.01,19.26,32.43,17.38
	c13.44-1.88,24.13-12.22,26.44-25.6l14.5-84.04c2.22-12.84,6.06-24.55,11.42-34.83c8.17-15.66,18.78-27.47,31.52-35.12
	c6.47-3.88,14.04-5.55,21.98-4.83c12.49,1.14,18.06,2.42,20.53,3.33C826.92,359.68,827.18,362.69,826.79,367.77z"/>
</svg>
