<svg xmlns="http://www.w3.org/2000/svg" viewBox="0 0 16 16" fill="#000000"><title>Hide</title><path d="M2.7,3.24l1,1.18A8.63,8.63,0,0,0,1.08,7.61L.91,8l.17.39C1.16,8.58,3.11,13,8,13a7.1,7.1,0,0,0,2.5-.45l1.32,1.57.76-.64L3.47,2.6ZM6.13,7.33,8.34,10A1.87,1.87,0,0,1,8,10,2,2,0,0,1,6,8,1.86,1.86,0,0,1,6.13,7.33Zm-.7-.83A3,3,0,0,0,5,8a3,3,0,0,0,3,3,3,3,0,0,0,1-.19l.77.92A6.31,6.31,0,0,1,8,12C3.71,12,2,8,2,8A7.69,7.69,0,0,1,4.33,5.19Z"/><path d="M10.56,9.55A3,3,0,0,0,6.92,5.21L7.61,6A1.72,1.72,0,0,1,8,6a2,2,0,0,1,2,2,1.92,1.92,0,0,1-.14.72Z"/><path d="M14.92,7.61C14.84,7.42,12.89,3,8,3a7.39,7.39,0,0,0-2.55.45l.69.83A6.32,6.32,0,0,1,8,4c4.29,0,6,4,6,4a7.65,7.65,0,0,1-2.37,2.84l.65.77a8.51,8.51,0,0,0,2.64-3.22L15.09,8Z"/></svg>