<svg xmlns="http://www.w3.org/2000/svg" fill="currentColor" viewBox="0 0 16 16">
  <path fill-rule="evenodd" d="M2 7.955c.005-.72.118-1.416.325-2.07l-.404-.806-.23-.116A7 7 0 0 0 8.5 14.982 7 7 0 0 1 2 8.045v-.09Zm.667-3.622-.477-.238L1 3.5l1.667-.854L3.5 1l.833 1.667L6 3.5l-1.667.833L3.5 6l-.662-1.324-.171-.343Zm11.412 6.588-.404-.807c.206-.652.32-1.345.325-2.064v-.1a7 7 0 0 0-6.5-6.932 7 7 0 0 1 6.809 10.019l-.23-.116Zm-.746.746L15 12.5l-1.667.833L12.5 15l-.833-1.667L10 12.5l1.667-.854L12.5 10l.833 1.667ZM11 8a3 3 0 1 1-5.95-.551 2 2 0 1 0 2.4-2.399A3 3 0 0 1 11 8Z" clip-rule="evenodd"/>
</svg>
