<svg width="16" height="16" viewBox="0 0 16 16" fill="none" xmlns="http://www.w3.org/2000/svg">
<path d="M10.54 2H5.46C4.54235 2 3.66229 2.36453 3.01341 3.01341C2.36453 3.66229 2 4.54235 2 5.46V10.54C2 10.9944 2.0895 11.4443 2.26338 11.8641C2.43726 12.2839 2.69212 12.6653 3.01341 12.9866C3.66229 13.6355 4.54235 14 5.46 14H10.54C10.9944 14 11.4443 13.9105 11.8641 13.7366C12.2839 13.5627 12.6653 13.3079 12.9866 12.9866C13.3079 12.6653 13.5627 12.2839 13.7366 11.8641C13.9105 11.4443 14 10.9944 14 10.54V5.46C14 5.00563 13.9105 4.5557 13.7366 4.13592C13.5627 3.71613 13.3079 3.3347 12.9866 3.01341C12.6653 2.69212 12.2839 2.43726 11.8641 2.26338C11.4443 2.0895 10.9944 2 10.54 2ZM12.89 10.63C12.8913 10.9311 12.833 11.2295 12.7184 11.5079C12.6038 11.7863 12.4351 12.0393 12.2222 12.2522C12.0093 12.4651 11.7563 12.6338 11.4779 12.7484C11.1995 12.863 10.9011 12.9213 10.6 12.92H5.4C5.0989 12.9213 4.80052 12.863 4.52209 12.7484C4.24366 12.6338 3.99068 12.4651 3.77777 12.2522C3.56486 12.0393 3.39623 11.7863 3.28162 11.5079C3.16701 11.2295 3.10868 10.9311 3.11 10.63V5.43C3.10868 5.12843 3.16694 4.82957 3.28144 4.55058C3.39593 4.27159 3.5644 4.01796 3.77718 3.80426C3.98996 3.59055 4.24285 3.42098 4.52134 3.30527C4.79983 3.18956 5.09843 3.13 5.4 3.13H10.6C10.9016 3.13 11.2002 3.18956 11.4787 3.30527C11.7571 3.42098 12.01 3.59055 12.2228 3.80426C12.4356 4.01796 12.6041 4.27159 12.7186 4.55058C12.8331 4.82957 12.8913 5.12843 12.89 5.43V10.63Z" fill="#111111"/>
<path d="M8 4.92C7.38363 4.92003 6.78117 5.10321 6.2691 5.44629C5.75703 5.78936 5.35846 6.27686 5.12398 6.84689C4.8895 7.41692 4.82968 8.04376 4.95214 8.64785C5.07459 9.25193 5.37378 9.80601 5.81173 10.2397C6.24967 10.6735 6.80662 10.9673 7.41187 11.0839C8.01711 11.2004 8.64335 11.1346 9.21108 10.8946C9.77881 10.6546 10.2624 10.2513 10.6005 9.73592C10.9386 9.22055 11.1159 8.61634 11.11 8C11.1021 7.18039 10.7709 6.39703 10.1886 5.82027C9.60618 5.2435 8.81965 4.91996 8 4.92ZM8 10.05C7.60444 10.05 7.21776 9.9327 6.88886 9.71294C6.55996 9.49318 6.30362 9.18082 6.15224 8.81537C6.00087 8.44991 5.96126 8.04778 6.03843 7.65982C6.1156 7.27186 6.30608 6.91549 6.58579 6.63579C6.86549 6.35608 7.22186 6.1656 7.60982 6.08843C7.99778 6.01126 8.39991 6.05087 8.76537 6.20224C9.13082 6.35362 9.44318 6.60996 9.66294 6.93886C9.8827 7.26776 10 7.65444 10 8.05C10 8.58043 9.78929 9.08914 9.41421 9.46421C9.03914 9.83929 8.53043 10.05 8 10.05Z" fill="#111111"/>
<path d="M11.22 4.07C11.0264 4.07 10.8407 4.14691 10.7038 4.28381C10.5669 4.42071 10.49 4.60639 10.49 4.8C10.4926 4.99187 10.5707 5.17499 10.7073 5.30974C10.8439 5.44448 11.0281 5.52002 11.22 5.52C11.3146 5.52 11.4082 5.50138 11.4955 5.46519C11.5829 5.42901 11.6623 5.37598 11.7291 5.30912C11.796 5.24226 11.849 5.16289 11.8852 5.07553C11.9214 4.98818 11.94 4.89455 11.94 4.8C11.94 4.60811 11.8645 4.42393 11.7297 4.28732C11.595 4.1507 11.4119 4.07263 11.22 4.07Z" fill="#111111"/>
</svg>
