<svg viewBox="0 0 16 16" fill="none" xmlns="http://www.w3.org/2000/svg"><path d="M10.54 2H5.46A3.46 3.46 0 0 0 2 5.46v5.08A3.46 3.46 0 0 0 5.46 14h5.08A3.46 3.46 0 0 0 14 10.54V5.46A3.46 3.46 0 0 0 10.54 2Zm2.35 8.63a2.28 2.28 0 0 1-2.29 2.29H5.4a2.28 2.28 0 0 1-2.29-2.29v-5.2a2.29 2.29 0 0 1 2.29-2.3h5.2a2.29 2.29 0 0 1 2.29 2.3v5.2Z" fill="#111111"/><path d="M8 4.92a3.11 3.11 0 1 0 0 6.22 3.11 3.11 0 0 0 0-6.22Zm0 5.13a2 2 0 1 1 0-4 2 2 0 0 1 0 4Zm3.22-5.98a.73.73 0 0 0-.73.73.73.73 0 0 0 1.005.665.719.719 0 0 0 .445-.665.73.73 0 0 0-.72-.73Z" fill="#111111"/></svg>