<svg xmlns="http://www.w3.org/2000/svg" viewBox="0 0 16 16" fill="#000000"><title>Instagram</title><path d="M10.54,2H5.46A3.46,3.46,0,0,0,2,5.46v5.08A3.46,3.46,0,0,0,5.46,14h5.08A3.46,3.46,0,0,0,14,10.54V5.46A3.46,3.46,0,0,0,10.54,2Zm2.35,8.63a2.28,2.28,0,0,1-2.29,2.29H5.4a2.28,2.28,0,0,1-2.29-2.29V5.43A2.29,2.29,0,0,1,5.4,3.13h5.2a2.29,2.29,0,0,1,2.29,2.3Z"/><path d="M8,4.92A3.11,3.11,0,1,0,11.11,8,3.11,3.11,0,0,0,8,4.92Zm0,5.13a2,2,0,1,1,2-2A2,2,0,0,1,8,10.05Z"/><path d="M11.22,4.07a.73.73,0,0,0-.73.73.73.73,0,0,0,.73.72.72.72,0,0,0,.72-.72A.73.73,0,0,0,11.22,4.07Z"/></svg>