<svg viewBox="0 0 16 16" fill="#111111" xmlns="http://www.w3.org/2000/svg"><path fill-rule="evenodd" clip-rule="evenodd" d="M9.2595 6.65218L9.16418 5.7582C8.99891 4.20808 7.68532 3 6.09089 3C4.38383 3 2.99999 4.38385 2.99999 6.09091L2.99999 6.25692C2.99999 7.89434 4.27382 9.23507 5.88385 9.34104L6.81818 9.40253L6.81818 13L13 13L13 6.65218L9.2595 6.65218ZM5.81818 10.3389L5.81818 13.975C5.81818 13.9888 5.82938 14 5.84318 14L13.975 14C13.9888 14 14 13.9888 14 13.975L14 5.67718C14 5.66337 13.9888 5.65218 13.975 5.65218L10.1585 5.65218C9.93965 3.59914 8.20202 2 6.09089 2C3.83155 2 1.99999 3.83156 1.99999 6.09091L1.99999 6.25692C1.99999 8.42462 3.68599 10.1985 5.81818 10.3389Z"/><path fill-rule="evenodd" clip-rule="evenodd" d="M6.81836 13L13.0002 13L13.0002 6.65218L6.81836 6.65218L6.81836 13ZM5.81836 13.975C5.81836 13.9888 5.82955 14 5.84336 14L13.9752 14C13.989 14 14.0002 13.9888 14.0002 13.975L14.0002 5.67718C14.0002 5.66337 13.989 5.65218 13.9752 5.65218L5.84336 5.65218C5.82955 5.65218 5.81836 5.66337 5.81836 5.67718L5.81836 13.975Z"/><path fill-rule="evenodd" clip-rule="evenodd" d="M9.2595 6.65218L9.16418 5.7582C8.99891 4.20808 7.68532 3 6.09089 3C4.38383 3 2.99999 4.38385 2.99999 6.09091L2.99999 6.25692C2.99999 7.89434 4.27382 9.23507 5.88385 9.34104L6.81818 9.40253L6.81818 13L13 13L13 6.65218L9.2595 6.65218ZM5.81818 10.3389L5.81818 13.975C5.81818 13.9888 5.82938 14 5.84318 14L13.975 14C13.9888 14 14 13.9888 14 13.975L14 5.67718C14 5.66337 13.9888 5.65218 13.975 5.65218L10.1585 5.65218C9.93965 3.59914 8.20202 2 6.09089 2C3.83155 2 1.99999 3.83156 1.99999 6.09091L1.99999 6.25692C1.99999 8.42462 3.68599 10.1985 5.81818 10.3389Z"/><path fill-rule="evenodd" clip-rule="evenodd" d="M6.81836 13L13.0002 13L13.0002 6.65218L6.81836 6.65218L6.81836 13ZM5.81836 13.975C5.81836 13.9888 5.82955 14 5.84336 14L13.9752 14C13.989 14 14.0002 13.9888 14.0002 13.975L14.0002 5.67718C14.0002 5.66337 13.989 5.65218 13.9752 5.65218L5.84336 5.65218C5.82955 5.65218 5.81836 5.66337 5.81836 5.67718L5.81836 13.975Z"/><path d="M9.15039 11.15L9.52539 9.65002L10.2754 9.65002L10.6504 11.15L9.15039 11.15Z"/><ellipse cx="9.90039" cy="9.30005" rx="0.75" ry="0.75"/></svg>