<svg xmlns="http://www.w3.org/2000/svg" fill="currentColor" viewBox="0 0 16 16"><path fill-rule="evenodd" d="m9.26 6.652-.096-.894A3.091 3.091 0 0 0 3 6.091v.166A3.091 3.091 0 0 0 5.884 9.34l.934.062V13H13V6.652H9.26ZM5.818 10.34v3.636c0 .014.011.025.025.025h8.132a.025.025 0 0 0 .025-.025V5.677a.025.025 0 0 0-.025-.025h-3.816A4.091 4.091 0 0 0 2 6.091v.166a4.091 4.091 0 0 0 3.818 4.082Z" clip-rule="evenodd"/><path fill-rule="evenodd" d="M6.818 13H13V6.652H6.818V13Zm-1 .975c0 .014.012.025.025.025h8.132a.025.025 0 0 0 .025-.025V5.677a.025.025 0 0 0-.025-.025H5.843a.025.025 0 0 0-.025.025v8.298Z" clip-rule="evenodd"/><path fill-rule="evenodd" d="m9.26 6.652-.096-.894A3.091 3.091 0 0 0 3 6.091v.166A3.091 3.091 0 0 0 5.884 9.34l.934.062V13H13V6.652H9.26ZM5.818 10.34v3.636c0 .014.011.025.025.025h8.132a.025.025 0 0 0 .025-.025V5.677a.025.025 0 0 0-.025-.025h-3.816A4.091 4.091 0 0 0 2 6.091v.166a4.091 4.091 0 0 0 3.818 4.082Z" clip-rule="evenodd"/><path fill-rule="evenodd" d="M6.818 13H13V6.652H6.818V13Zm-1 .975c0 .014.012.025.025.025h8.132a.025.025 0 0 0 .025-.025V5.677a.025.025 0 0 0-.025-.025H5.843a.025.025 0 0 0-.025.025v8.298Z" clip-rule="evenodd"/><path d="m9.15 11.15.375-1.5h.75l.375 1.5h-1.5Z"/><path d="M9.9 10.05a.75.75 0 1 0 0-1.5.75.75 0 0 0 0 1.5Z"/></svg>