<svg xmlns="http://www.w3.org/2000/svg" fill="currentColor" viewBox="0 0 16 16">
  <path d="M10.374 10.402A.69.69 0 0 0 10 11H9v-.35c0-.457.316-.844.727-1.041a4 4 0 1 0-3.454 0c.411.197.727.584.727 1.04V11H6a.69.69 0 0 0-.374-.598 5 5 0 1 1 4.748 0ZM10 12v1H6v-1h4Zm-1 2a1 1 0 1 1-2 0h2Z"/>
  <path d="M7.408 3.853a.493.493 0 1 0 .166.971l1.014-.172a.493.493 0 0 0-.165-.972l-1.015.173ZM6.5 6.418c0-.241.174-.447.412-.487l2.014-.335a.493.493 0 1 1 .162.973l-2.014.335a.493.493 0 0 1-.574-.486ZM7 8.416c0-.24.173-.445.41-.486l1.014-.172a.493.493 0 0 1 .166.972l-1.014.172A.493.493 0 0 1 7 8.416Z"/>
</svg>
