<svg viewBox="0 0 16 16" fill="currentColor" xmlns="http://www.w3.org/2000/svg"><title>Heart filled</title><path d="M3.38 2.37C3.88553 2.12707 4.43912 2.00063 5 2c.94512.00282 1.85491.35959 2.55 1l.46.45c.16-.15.31-.31.48-.45.67906-.64039 1.5766-.99798 2.51-1h.08c.7827.01789 1.5413.2746 2.174.73573.6327.46112 1.1093 1.10463 1.366 1.84427.2025.52969.262 1.10337.1725 1.66334-.0896.55997-.3249 1.0865-.6825 1.52666-.2732.35349-.5706.68763-.89 1L8 14 2.37 8.33c-.58791-.58581-.99418-1.3289-1.17-2.14-.06347-.3626-.0464-.73473.05-1.09.10708-.59364.35693-1.15234.728-1.62794.37106-.47559.85222-.85381 1.402-1.10206Z"/></svg>