<svg id="Layer_1" data-name="Layer 1" xmlns="http://www.w3.org/2000/svg" xmlns:xlink="http://www.w3.org/1999/xlink" viewBox="0 0 16 16"><defs><style>.cls-1{fill:none;}.cls-2{clip-path:url(#clip-path);}</style><clipPath id="clip-path"><rect class="cls-1" x="1" y="1" width="14" height="14"/></clipPath></defs><g class="cls-2"><g id="like"><path id="Path_11" data-name="Path 11" d="M10.84,2.59A3,3,0,0,1,13,7.71l-5,5-5-5A3,3,0,0,1,7.28,3.46L8,4.18l.72-.72A3,3,0,0,1,10.84,2.59Zm0-1A4,4,0,0,0,8,2.76,4,4,0,0,0,2.34,8.41l5,5,.71.71.71-.71,5-5a4,4,0,0,0-2.83-6.82Z"/></g></g></svg>