<svg xmlns="http://www.w3.org/2000/svg" viewBox="0 0 16 16" fill="#000000">
    <title>Link</title>
    <g id="link">
        <path id="Path_12" data-name="Path 12" d="M13,3A3,3,0,0,0,8.77,3l-.06,0L7.57,4.18l.7.71L9.37,3.8a2,2,0,0,1,3,2.61,2.18,2.18,0,0,1-.22.21l-2,2a2,2,0,0,1-2.89.06L7,8.32,6.24,9l.36.35a2.9,2.9,0,0,0,2.09.86,3.05,3.05,0,0,0,2.21-.91l2-2a3,3,0,0,0,.17-4.24Z" />
        <path id="Path_13" data-name="Path 13" d="M6.65,12.16a2,2,0,1,1-3-2.6,2.18,2.18,0,0,1,.21-.22l2-2a2.06,2.06,0,0,1,2.89-.06l.35.36.71-.71-.36-.35a3,3,0,0,0-4.24,0l-.06,0-2,2a3,3,0,0,0-.22,4.24l.16.16a3,3,0,0,0,2.1.86,3.08,3.08,0,0,0,2.2-.92l1.09-1.14-.7-.71Z" />
    </g>
</svg>