<svg viewBox="0 0 16 16" fill="none" xmlns="http://www.w3.org/2000/svg"><path d="M9.444 6.557c.132.132.248.273.35.42l-.726.726a1.97 1.97 0 0 0-3.009-.539l-.108.1L3.777 9.44a1.97 1.97 0 0 0 2.678 2.886l.107-.1 1.173-1.173.707.707-1.172 1.173a2.97 2.97 0 1 1-4.2-4.2l2.174-2.175a2.97 2.97 0 0 1 4.2 0ZM13 3.002a2.97 2.97 0 0 1 0 4.2l-2.174 2.175a2.97 2.97 0 0 1-4.495-.343l.72-.72a1.97 1.97 0 0 0 2.96.455l.107-.1 2.175-2.174a1.97 1.97 0 0 0-2.678-2.886l-.108.1L8.325 4.89l-.707-.707 1.181-1.18a2.97 2.97 0 0 1 4.2 0Z" fill="#111111"/></svg>