<svg width="16" height="16" viewBox="0 0 16 16" fill="none" xmlns="http://www.w3.org/2000/svg">
<path d="M15 8C15 9.85652 14.2625 11.637 12.9497 12.9497C11.637 14.2625 9.85652 15 8 15C6.14348 15 4.36301 14.2625 3.05025 12.9497C1.7375 11.637 1 9.85652 1 8H2.08C2.08 9.17087 2.4272 10.3154 3.0777 11.289C3.7282 12.2625 4.65278 13.0213 5.73451 13.4694C6.81625 13.9174 8.00657 14.0347 9.15493 13.8062C10.3033 13.5778 11.3581 13.014 12.1861 12.1861C13.014 11.3581 13.5778 10.3033 13.8062 9.15493C14.0347 8.00657 13.9174 6.81625 13.4694 5.73451C13.0213 4.65278 12.2625 3.7282 11.289 3.0777C10.3154 2.4272 9.17087 2.08 8 2.08V1C9.85652 1 11.637 1.7375 12.9497 3.05025C14.2625 4.36301 15 6.14348 15 8Z" fill="#111111"/>
</svg>
