<svg xmlns="http://www.w3.org/2000/svg" viewBox="0 0 16 16" fill="#000000">
    <title>Mixer</title>
    <path d="M3.09,10.15A1.64,1.64,0,1,0,4.73,8.54,1.62,1.62,0,0,0,3.09,10.15Zm2.18,2.7v-.06a2.69,2.69,0,0,0,0-5.28v-6A.54.54,0,0,0,4.73,1a.55.55,0,0,0-.55.54v6a2.69,2.69,0,0,0,0,5.28v1.67a.55.55,0,0,0,.55.54.54.54,0,0,0,.54-.54Zm6.55-9.64a2.69,2.69,0,0,1,0,5.28v6a.55.55,0,0,1-.55.54.54.54,0,0,1-.54-.54v-6a2.69,2.69,0,0,1,0-5.28V1.54A.54.54,0,0,1,11.27,1a.55.55,0,0,1,.55.54V3.21Zm-.55,4.25a1.62,1.62,0,1,1,1.64-1.61A1.62,1.62,0,0,1,11.27,7.46Z" />
</svg>