<svg xmlns="http://www.w3.org/2000/svg" viewBox="0 0 16 16" fill="#000000">
    <title>Mixer</title>
    <path d="M5.85,3.09A1.64,1.64,0,1,0,7.46,4.73,1.62,1.62,0,0,0,5.85,3.09ZM3.15,5.27h.06a2.69,2.69,0,0,0,5.28,0h6A.54.54,0,0,0,15,4.73a.55.55,0,0,0-.54-.55h-6a2.69,2.69,0,0,0-5.28,0H1.54A.55.55,0,0,0,1,4.73a.54.54,0,0,0,.54.54Zm9.64,6.55a2.69,2.69,0,0,1-5.28,0h-6A.55.55,0,0,1,1,11.27a.54.54,0,0,1,.54-.54h6a2.69,2.69,0,0,1,5.28,0h1.67a.54.54,0,0,1,.54.54.55.55,0,0,1-.54.55H12.79Zm-4.25-.55a1.62,1.62,0,1,1,1.61,1.64A1.62,1.62,0,0,1,8.54,11.27Z" />
</svg>