<svg xmlns="http://www.w3.org/2000/svg" fill="currentColor" viewBox="0 0 16 16">
  <path d="M7.5 3.5h1v1.174c.514.072.9.234 1.197.466.328.256.531.585.684.929l.09.201-1.044.348-.074-.163c-.127-.277-.293-.468-.512-.593-.221-.127-.516-.196-.917-.196-.402 0-.674.108-.844.26a.786.786 0 0 0-.254.607.54.54 0 0 0 .122.367.93.93 0 0 0 .36.24c.163.07.357.124.572.178l.191.046c.157.038.322.078.482.123.492.14.987.292 1.354.586.385.309.612.757.612 1.438 0 1.085-.869 1.794-2.019 1.934V12.5h-1v-1.07c-.975-.144-1.767-.707-2.09-1.642l-.07-.207 1.104-.276.066.16c.108.268.28.506.526.678.246.171.577.285 1.02.285.048 0 .097-.001.144-.004.332-.02.616-.108.819-.247a.773.773 0 0 0 .356-.666.71.71 0 0 0-.096-.39.732.732 0 0 0-.282-.246 2.805 2.805 0 0 0-.585-.216 19.32 19.32 0 0 0-.47-.122l-.284-.071c-.43-.108-.904-.226-1.274-.471a1.504 1.504 0 0 1-.518-.567c-.127-.246-.194-.543-.194-.905 0-.901.662-1.681 1.828-1.858V3.5Z"/>
  <path fill-rule="evenodd" d="M3.576 2.617a7 7 0 1 1 8.949 10.766 7 7 0 0 1-8.95-10.766Zm.616 10.024a6 6 0 1 0 7.605-9.283 6 6 0 0 0-7.605 9.283Z" clip-rule="evenodd"/>
</svg>
