<svg viewBox="0 0 16 16" fill="#000000" xmlns="http://www.w3.org/2000/svg"><path fill-rule="evenodd" clip-rule="evenodd" d="M13 3.5H3V6.5H13V3.5ZM12.0001 4.49991H4.00012V5.49991H12.0001V4.49991Z"/><path fill-rule="evenodd" clip-rule="evenodd" d="M9 7.5H3V12.5H9V7.5ZM8.00012 8.5H4.00012V11.5H8.00012V8.5Z"/><path d="M13 9.5H10V10.5H13V9.5Z"/><path d="M13 7.5H10V8.5H13V7.5Z"/><path d="M13 11.5H10V12.5H13V11.5Z"/><path d="M2 2.5H1V14.5H2V2.5Z"/><path d="M15 2.5H14V14.5H15V2.5Z"/><path d="M14 14.5L13.9995 13.5H1.1664V14.5H14Z"/><path d="M15 2.5V1.5H1V2.5H15Z"/></svg>