<svg xmlns="http://www.w3.org/2000/svg" fill="currentColor" viewBox="0 0 16 16">
  <mask id="a">
    <path fill-rule="evenodd" d="M1 1.5h14v13H1v-13Zm11 3H4v1h8v-1Zm-8-1H3v3h10v-3H4Zm0 5h4v3H4v-3Zm-1-1h6v5H3v-5Zm7 0v1h3v-1h-3Zm3 2h-3v1h3v-1Zm-3 3v-1h3v1h-3Z" clip-rule="evenodd"/>
  </mask>
  <path fill-rule="evenodd" d="M1 1.5h14v13H1v-13Zm11 3H4v1h8v-1Zm-8-1H3v3h10v-3H4Zm0 5h4v3H4v-3Zm-1-1h6v5H3v-5Zm7 0v1h3v-1h-3Zm3 2h-3v1h3v-1Zm-3 3v-1h3v1h-3Z" clip-rule="evenodd"/>
  <path d="M15 1.5h1v-1h-1v1Zm-14 0v-1H0v1h1Zm14 13v1h1v-1h-1Zm-14 0H0v1h1v-1Zm3-10v-1H3v1h1Zm8 0h1v-1h-1v1Zm-8 1H3v1h1v-1Zm8 0v1h1v-1h-1Zm-9-2v-1H2v1h1Zm0 3H2v1h1v-1Zm10 0v1h1v-1h-1Zm0-3h1v-1h-1v1Zm-5 5h1v-1H8v1Zm-4 0v-1H3v1h1Zm4 3v1h1v-1H8Zm-4 0H3v1h1v-1Zm-1-4v-1H2v1h1Zm6 0h1v-1H9v1Zm0 5v1h1v-1H9Zm-6 0H2v1h1v-1Zm7-4H9v1h1v-1Zm0-1v-1H9v1h1Zm3 1v1h1v-1h-1Zm0-1h1v-1h-1v1Zm-3 2v-1H9v1h1Zm3 0h1v-1h-1v1Zm-3 1H9v1h1v-1Zm3 0v1h1v-1h-1Zm-3 1v-1H9v1h1Zm0 1H9v1h1v-1Zm3-1h1v-1h-1v1Zm0 1v1h1v-1h-1Zm2-12H1v2h14v-2Zm1 14v-13h-2v13h2Zm-15 1h14v-2H1v2Zm-1-14v13h2v-13H0Zm4 4h8v-2H4v2Zm1 0v-1H3v1h2Zm7-1H4v2h8v-2Zm-1 0v1h2v-1h-2Zm-8 0h1v-2H3v2Zm1 0v-1H2v1h2Zm0 1v-1H2v1h2Zm0 1v-1H2v1h2Zm0-1H3v2h1v-2Zm8 0H4v2h8v-2Zm1 0h-1v2h1v-2Zm-1 0v1h2v-1h-2Zm0-1v1h2v-1h-2Zm0-1v1h2v-1h-2Zm0 1h1v-2h-1v2Zm-8 0h8v-2H4v2Zm4 3H4v2h4v-2Zm1 4v-3H7v3h2Zm-5 1h4v-2H4v2Zm-1-4v3h2v-3H3Zm1-2H3v2h1v-2Zm4 0H4v2h4v-2Zm1 0H8v2h1v-2Zm1 2v-1H8v1h2Zm0 3v-3H8v3h2Zm0 1v-1H8v1h2Zm-2 1h1v-2H8v2Zm-4 0h4v-2H4v2Zm-1 0h1v-2H3v2Zm-1-2v1h2v-1H2Zm0-3v3h2v-3H2Zm0-1v1h2v-1H2Zm9 1v-1H9v1h2Zm2-1h-3v2h3v-2Zm-1 0v1h2v-1h-2Zm-2 1h3v-2h-3v2Zm0 2h3v-2h-3v2Zm1 0v-1H9v1h2Zm2-1h-3v2h3v-2Zm-1 0v1h2v-1h-2Zm-3 2v1h2v-1H9Zm4-1h-3v2h3v-2Zm1 2v-1h-2v1h2Zm-4 1h3v-2h-3v2Z" mask="url(#a)"/>
</svg>
