<svg xmlns="http://www.w3.org/2000/svg" fill="currentColor" viewBox="0 0 16 16">
  <path d="M3 3h9V2H2v10h1V3Z"/>
  <path d="M7.67 6.408a1.5 1.5 0 0 0-1.34 0l-.053.027a.5.5 0 1 0 .447.894l.053-.026a.5.5 0 0 1 .447 0l.105.053a1.5 1.5 0 0 0 1.342 0l.106-.053a.5.5 0 0 1 .447 0l.105.053a1.5 1.5 0 0 0 1.342 0l.106-.053a.5.5 0 0 1 .447 0l.053.026a.5.5 0 1 0 .447-.894l-.053-.027a1.5 1.5 0 0 0-1.342 0l-.105.053a.5.5 0 0 1-.447 0l-.106-.053a1.5 1.5 0 0 0-1.342 0l-.105.053a.5.5 0 0 1-.447 0l-.106-.053Zm0 2.264a1.5 1.5 0 0 0-1.34 0l-.053.027a.5.5 0 1 0 .447.894l.053-.026a.5.5 0 0 1 .447 0l.105.053a1.5 1.5 0 0 0 1.342 0l.106-.053a.5.5 0 0 1 .447 0l.105.053a1.5 1.5 0 0 0 1.342 0l.106-.053a.5.5 0 0 1 .447 0l.053.026a.5.5 0 1 0 .447-.894l-.053-.027a1.5 1.5 0 0 0-1.342 0l-.105.053a.5.5 0 0 1-.447 0l-.106-.053a1.5 1.5 0 0 0-1.342 0l-.105.053a.5.5 0 0 1-.447 0l-.106-.053Zm0 2.264a1.5 1.5 0 0 0-1.34 0l-.053.027a.5.5 0 1 0 .447.894l.053-.026a.5.5 0 0 1 .447 0l.105.052a1.5 1.5 0 0 0 1.342 0l.106-.052a.5.5 0 0 1 .447 0l.053.026a.5.5 0 1 0 .447-.894l-.053-.027a1.5 1.5 0 0 0-1.342 0l-.105.053a.5.5 0 0 1-.447 0l-.106-.053Z"/>
  <path fill-rule="evenodd" d="M4 4v10h10V4H4Zm9 1H5v8h8V5Z" clip-rule="evenodd"/>
</svg>
