<svg xmlns="http://www.w3.org/2000/svg" viewBox="0 0 100 100" >
	<title>Olympics</title>
	<path fill="#007DB9" d="M24.074,65.195c-11.583,0-21.006-9.422-21.006-21.004c0-5.319,1.991-10.395,5.608-14.29l7.328,6.804
		c-1.894,2.04-2.937,4.699-2.937,7.486c0,6.068,4.938,11.004,11.006,11.004c4.575,0,8.721-2.878,10.317-7.162l9.371,3.492
		C40.714,59.702,32.802,65.195,24.074,65.195z"/>
	<path d="M50.003,46.351c-11.583,0-21.007-9.424-21.007-21.007c0-11.584,9.424-21.008,21.007-21.008c2.762,0,5,2.239,5,5
		s-2.238,5-5,5c-6.069,0-11.007,4.938-11.007,11.008c0,6.069,4.938,11.007,11.007,11.007c2.762,0,5,2.239,5,5
		S52.765,46.351,50.003,46.351z"/>
	<path fill="#ED1B2F" d="M56.483,52.176c-1.037-2.529-1.562-5.207-1.562-7.96c0-11.583,9.423-21.005,21.006-21.005
		c5.19,0,10.174,1.908,14.032,5.373l-6.682,7.44c-2.021-1.814-4.631-2.813-7.351-2.813c-6.068,0-11.006,4.937-11.006,11.005
		c0,1.446,0.274,2.848,0.814,4.167L56.483,52.176z"/>
	<path fill="#00AC4E" d="M81.203,89.189l-7.221-6.918c1.971-2.057,3.056-4.76,3.056-7.612c0-6.069-4.937-11.007-11.005-11.007
		c-1.944,0-3.854,0.512-5.521,1.482l-5.025-8.646c3.192-1.855,6.84-2.836,10.547-2.836c11.582,0,21.005,9.424,21.005,21.007
		C87.038,80.101,84.965,85.262,81.203,89.189z"/>
	<path fill="#FFCB08" d="M20.936,91.092c-5.052-4.011-7.949-10.01-7.949-16.457c0-11.583,9.424-21.007,21.007-21.007
		c4.771,0,9.444,1.645,13.158,4.632l-6.268,7.792c-1.972-1.586-4.354-2.424-6.891-2.424c-6.069,0-11.007,4.938-11.007,11.007
		c0,3.378,1.52,6.522,4.168,8.626L20.936,91.092z"/>
	<path fill="#FFCB08" d="M33.994,95.64c-4.727,0-9.364-1.615-13.058-4.548l6.219-7.831c1.96,1.557,4.325,2.379,6.839,2.379
		C40.062,85.64,45,80.703,45,74.635c0-3.35-1.5-6.479-4.116-8.583l6.27-7.791C52.139,62.273,55,68.241,55,74.635
		C55,86.217,45.577,95.64,33.994,95.64z"/>
	<path fill="#007DB9" d="M43.762,51.526l-9.371-3.492c0.457-1.225,0.688-2.518,0.688-3.843c0-6.068-4.938-11.005-11.006-11.005
		c-3.097,0-5.962,1.25-8.069,3.519L8.676,29.9c3.963-4.267,9.575-6.714,15.397-6.714c11.583,0,21.006,9.423,21.006,21.005
		C45.08,46.712,44.636,49.18,43.762,51.526z"/>
	<path d="M50.003,46.351c-2.762,0-5-2.239-5-5s2.238-5,5-5c6.068,0,11.006-4.938,11.006-11.007c0-6.07-4.938-11.008-11.006-11.008
		c-2.762,0-5-2.239-5-5s2.238-5,5-5c11.583,0,21.006,9.424,21.006,21.008C71.009,36.927,61.586,46.351,50.003,46.351z"/>
	<path fill="#ED1B2F" d="M75.926,65.221c-8.567,0-16.199-5.122-19.444-13.047l9.254-3.789c1.7,4.153,5.7,6.836,10.19,6.836
		c6.068,0,11.006-4.937,11.006-11.005c0-3.12-1.332-6.106-3.655-8.192l6.682-7.44c4.432,3.979,6.974,9.677,6.974,15.632
		C96.932,55.799,87.509,65.221,75.926,65.221z"/>
	<path fill="#00AC4E" d="M66.033,95.664c-11.582,0-21.005-9.423-21.005-21.005c0-7.457,4.007-14.419,10.457-18.17l5.027,8.645
		c-3.383,1.967-5.484,5.617-5.484,9.525c0,6.068,4.937,11.005,11.005,11.005c3.03,0,5.853-1.205,7.949-3.393l7.221,6.918
		C77.203,93.365,71.815,95.664,66.033,95.664z"/>
</svg>
