<svg viewBox="0 0 66 66" fill="none" xmlns="http://www.w3.org/2000/svg"><path d="M15.889 43.029c-7.645 0-13.864-6.219-13.864-13.863a13.818 13.818 0 0 1 3.701-9.431l4.837 4.49a7.24 7.24 0 0 0-1.939 4.941c0 4.005 3.26 7.263 7.264 7.263 3.02 0 5.756-1.9 6.81-4.727l6.184 2.305c-2.01 5.396-7.233 9.022-12.993 9.022Z" fill="#007DB9"/><path d="M33.002 30.592c-7.645 0-13.865-6.22-13.865-13.865 0-7.645 6.22-13.865 13.865-13.865a3.3 3.3 0 1 1 0 6.6c-4.006 0-7.265 3.259-7.265 7.265s3.26 7.265 7.265 7.265a3.3 3.3 0 1 1 0 6.6Z" fill="black"/><path d="M37.279 34.436a13.779 13.779 0 0 1-1.031-5.253c0-7.645 6.22-13.864 13.864-13.864a13.84 13.84 0 0 1 9.261 3.546l-4.41 4.91a7.251 7.251 0 0 0-4.852-1.856c-4.005 0-7.264 3.259-7.264 7.264 0 .954.181 1.88.538 2.75l-6.106 2.503Z" fill="#ED1B2F"/><path d="m53.594 58.865-4.766-4.566a7.228 7.228 0 0 0 2.017-5.024c0-4.006-3.258-7.265-7.263-7.265a7.252 7.252 0 0 0-3.644.978l-3.317-5.706a13.87 13.87 0 0 1 6.961-1.872c7.645 0 13.864 6.22 13.864 13.865a13.804 13.804 0 0 1-3.852 9.59Z" fill="#00AC4E"/><path d="M13.818 60.12A13.796 13.796 0 0 1 8.57 49.26c0-7.646 6.22-13.865 13.865-13.865 3.149 0 6.233 1.085 8.684 3.057l-4.137 5.142a7.18 7.18 0 0 0-4.548-1.6c-4.005 0-7.264 3.26-7.264 7.265a7.235 7.235 0 0 0 2.75 5.693l-4.103 5.169Z" fill="#FFCB08"/><path d="M22.436 63.122a13.912 13.912 0 0 1-8.618-3.001l4.104-5.169a7.185 7.185 0 0 0 4.514 1.57c4.005 0 7.264-3.258 7.264-7.263 0-2.21-.99-4.276-2.717-5.665l4.139-5.142A13.81 13.81 0 0 1 36.3 49.26c0 7.644-6.22 13.863-13.864 13.863Z" fill="#FFCB08"/><path d="m28.883 34.007-6.185-2.305a7.229 7.229 0 0 0 .454-2.536c0-4.005-3.259-7.263-7.264-7.263a7.193 7.193 0 0 0-5.325 2.322l-4.837-4.491a13.912 13.912 0 0 1 10.162-4.431c7.645 0 13.864 6.219 13.864 13.863a13.805 13.805 0 0 1-.87 4.841Z" fill="#007DB9"/><path d="M33.002 30.592a3.3 3.3 0 0 1 0-6.6c4.005 0 7.264-3.26 7.264-7.265 0-4.006-3.26-7.265-7.264-7.265a3.3 3.3 0 0 1 0-6.6c7.645 0 13.864 6.22 13.864 13.865 0 7.645-6.22 13.865-13.864 13.865Z" fill="black"/><path d="M50.111 43.046a13.817 13.817 0 0 1-12.833-8.611l6.108-2.5a7.24 7.24 0 0 0 6.725 4.51c4.005 0 7.264-3.258 7.264-7.262 0-2.06-.879-4.03-2.412-5.407l4.41-4.91a13.884 13.884 0 0 1 4.603 10.317c0 7.644-6.22 13.863-13.865 13.863Z" fill="#ED1B2F"/><path d="M43.582 63.138c-7.644 0-13.864-6.219-13.864-13.863 0-4.922 2.645-9.517 6.902-11.992l3.318 5.705a7.296 7.296 0 0 0-3.62 6.287c0 4.005 3.259 7.263 7.264 7.263 2 0 3.863-.795 5.246-2.24l4.766 4.567a13.744 13.744 0 0 1-10.012 4.273Z" fill="#00AC4E"/></svg>