<svg viewBox="0 0 100 100" fill="none" xmlns="http://www.w3.org/2000/svg">
    <title>Olympics</title>
    <path fill-rule="evenodd" 
    clip-rule="evenodd" 
    d="M21 61c11.598 0 21-9.402 21-21s-9.402-21-21-21S0 28.402 0 40s9.402 21 21 21zm0-10c6.075 0 11-4.925 11-11s-4.925-11-11-11-11 4.925-11 11 4.925 11 11 11z" fill="#007DB9"/>
    <path fill-rule="evenodd" 
    clip-rule="evenodd" 
    d="M21 61c11.598 0 21-9.402 21-21s-9.402-21-21-21S0 28.402 0 40s9.402 21 21 21zm0-10c6.075 0 11-4.925 11-11s-4.925-11-11-11-11 4.925-11 11 4.925 11 11 11z" fill="#007DB9"/>
    <path fill-rule="evenodd" 
    clip-rule="evenodd" 
    d="M21 61c11.598 0 21-9.402 21-21s-9.402-21-21-21S0 28.402 0 40s9.402 21 21 21zm0-10c6.075 0 11-4.925 11-11s-4.925-11-11-11-11 4.925-11 11 4.925 11 11 11z" fill="#007DB9"/>
    <path fill-rule="evenodd" 
    clip-rule="evenodd" 
    d="M31 92c11.598 0 21-9.402 21-21s-9.402-21-21-21-21 9.402-21 21 9.402 21 21 21zm0-10c6.075 0 11-4.925 11-11s-4.925-11-11-11-11 4.925-11 11 4.925 11 11 11z" fill="#FFCB08"/>
    <path fill-rule="evenodd" 
    clip-rule="evenodd" 
    d="M63 92c11.598 0 21-9.402 21-21s-9.402-21-21-21-21 9.402-21 21 9.402 21 21 21zm0-10c6.075 0 11-4.925 11-11s-4.925-11-11-11-11 4.925-11 11 4.925 11 11 11z" fill="#00AC4E"/>
    <path fill-rule="evenodd" 
    clip-rule="evenodd" 
    d="M73 61c11.598 0 21-9.402 21-21s-9.402-21-21-21-21 9.402-21 21 9.402 21 21 21zm0-10c6.075 0 11-4.925 11-11s-4.925-11-11-11-11 4.925-11 11 4.925 11 11 11z" fill="#ED1B2F"/>
    <path fill-rule="evenodd" 
    clip-rule="evenodd" 
    d="M47 42c11.598 0 21-9.402 21-21S58.598 0 47 0 26 9.402 26 21s9.402 21 21 21zm0-10c6.075 0 11-4.925 11-11s-4.925-11-11-11-11 4.925-11 11 4.925 11 11 11z" fill="#666"/>
    <path fill-rule="evenodd" 
    clip-rule="evenodd" 
    d="M31.5 21.814c10.044 5.799 13.486 18.642 7.687 28.686l-8.66-5c3.037-5.261 1.234-11.989-4.027-15.026-5.261-3.038-11.989-1.235-15.026 4.026l-8.66-5C8.611 19.456 21.455 16.015 31.5 21.814z" fill="#007DB9"/>
</svg>