<svg viewBox="0 0 65 66" fill="none" xmlns="http://www.w3.org/2000/svg" xmlns:xlink="http://www.w3.org/1999/xlink"><defs><path fill-rule="evenodd" clip-rule="evenodd" d="M13.65 40.26c7.539 0 13.65-6.205 13.65-13.86 0-7.655-6.111-13.86-13.65-13.86C6.111 12.54 0 18.745 0 26.4c0 7.655 6.111 13.86 13.65 13.86Zm0-6.6c3.949 0 7.15-3.25 7.15-7.26s-3.201-7.26-7.15-7.26c-3.949 0-7.15 3.25-7.15 7.26s3.201 7.26 7.15 7.26Z" fill="#007DB9" id="reuse-0"/></defs><use fill-rule="evenodd" clip-rule="evenodd" xlink:href="#reuse-0"/><use fill-rule="evenodd" clip-rule="evenodd" xlink:href="#reuse-0"/><use fill-rule="evenodd" clip-rule="evenodd" xlink:href="#reuse-0"/><path fill-rule="evenodd" clip-rule="evenodd" d="M20.15 60.72c7.539 0 13.65-6.205 13.65-13.86C33.8 39.205 27.689 33 20.15 33 12.611 33 6.5 39.205 6.5 46.86c0 7.655 6.111 13.86 13.65 13.86Zm0-6.6c3.949 0 7.15-3.25 7.15-7.26s-3.201-7.26-7.15-7.26c-3.949 0-7.15 3.25-7.15 7.26s3.201 7.26 7.15 7.26Z" fill="#FFCB08"/><path fill-rule="evenodd" clip-rule="evenodd" d="M40.95 60.72c7.539 0 13.65-6.205 13.65-13.86C54.6 39.205 48.489 33 40.95 33c-7.539 0-13.65 6.205-13.65 13.86 0 7.655 6.111 13.86 13.65 13.86Zm0-6.6c3.949 0 7.15-3.25 7.15-7.26s-3.201-7.26-7.15-7.26c-3.949 0-7.15 3.25-7.15 7.26s3.201 7.26 7.15 7.26Z" fill="#00AC4E"/><path fill-rule="evenodd" clip-rule="evenodd" d="M47.45 40.26c7.539 0 13.65-6.205 13.65-13.86 0-7.655-6.111-13.86-13.65-13.86-7.539 0-13.65 6.205-13.65 13.86 0 7.655 6.111 13.86 13.65 13.86Zm0-6.6c3.949 0 7.15-3.25 7.15-7.26s-3.201-7.26-7.15-7.26c-3.949 0-7.15 3.25-7.15 7.26s3.201 7.26 7.15 7.26Z" fill="#ED1B2F"/><path fill-rule="evenodd" clip-rule="evenodd" d="M30.55 27.72c7.539 0 13.65-6.205 13.65-13.86C44.2 6.205 38.089 0 30.55 0 23.011 0 16.9 6.205 16.9 13.86c0 7.655 6.111 13.86 13.65 13.86Zm0-6.6c3.949 0 7.15-3.25 7.15-7.26S34.499 6.6 30.55 6.6c-3.949 0-7.15 3.25-7.15 7.26s3.201 7.26 7.15 7.26Z" fill="#666666"/><path fill-rule="evenodd" clip-rule="evenodd" d="M20.475 14.397c6.529 3.828 8.766 12.304 4.996 18.933l-5.628-3.3c1.974-3.472.802-7.913-2.618-9.917-3.42-2.005-7.793-.815-9.767 2.657l-5.629-3.3c3.768-6.629 12.117-8.9 18.646-5.073Z" fill="#007DB9"/></svg>