<svg viewBox="0 0 16 16" fill="#000000" xmlns="http://www.w3.org/2000/svg">
<path d="M7.12937 5.93231C8.03905 8.5507 6.60217 11.4396 2.65333 12.145L2.57063 11.7681L2.51894 11.5169L2.46726 11.2754C2.46726 11.2754 4.84483 11.2174 5.95092 9.10144C5.69249 9.36231 4.99989 9.61352 4.74146 9.66183C4.54505 9.70048 4.3383 9.7198 4.1419 9.7198C2.674 9.7198 1.35083 8.74394 1.06139 7.35262C0.720256 5.75839 1.83668 4.22214 3.52166 3.91295C3.7284 3.8743 3.93515 3.85498 4.1419 3.85498C4.35898 3.85498 4.56572 3.8743 4.77247 3.91295C4.90685 3.93228 5.04124 3.97092 5.17562 4.01923C5.18415 4.02189 5.19346 4.02528 5.20311 4.02879C5.22859 4.03806 5.25651 4.04822 5.279 4.04822C5.6408 4.19315 5.9716 4.38639 6.24036 4.62794C6.37475 4.72456 6.48846 4.8405 6.60217 4.96611C6.76757 5.16901 6.92262 5.4009 7.026 5.65211C7.06735 5.73907 7.09836 5.83569 7.12937 5.93231Z" />
<path d="M14.7193 5.87984C14.7255 5.8976 14.7316 5.91514 14.7377 5.93231C15.6474 8.5507 14.2002 11.4396 10.2513 12.145L10.1686 11.7681L10.117 11.5169L10.0653 11.2754C10.0653 11.2754 12.4428 11.2174 13.5489 9.10144C13.2905 9.36231 12.5979 9.61352 12.3395 9.66183C10.6442 9.97101 8.99019 8.93718 8.65939 7.35262C8.3286 5.76805 9.44503 4.22214 11.1403 3.91295C11.5745 3.83566 11.9983 3.83566 12.3912 3.91295C12.4115 3.9177 12.4323 3.92244 12.4535 3.92727C12.562 3.95195 12.6802 3.97883 12.784 4.01923C12.7925 4.02189 12.8018 4.02528 12.8115 4.02879C12.8369 4.03806 12.8649 4.04822 12.8873 4.04822C13.2388 4.19315 13.5799 4.38639 13.8487 4.62794C13.9831 4.73422 14.0968 4.85016 14.2105 4.97577C14.3759 5.17867 14.531 5.41056 14.6343 5.66177C14.6675 5.73156 14.6941 5.80758 14.7193 5.87984Z" />
</svg>
