<svg xmlns="http://www.w3.org/2000/svg" fill="currentColor" viewBox="0 0 16 16">
  <path fill-rule="evenodd" d="M10.154 5.77a2.499 2.499 0 0 1-4.352-.078A2.489 2.489 0 0 1 5.6 3.799a2.501 2.501 0 0 1 4.8 0l.005.017a2.505 2.505 0 0 1-.251 1.954ZM9.5 4.5a1.5 1.5 0 1 1-3 0 1.5 1.5 0 0 1 3 0Z" clip-rule="evenodd"/>
  <path d="M4 3c.272 0 .532.054.769.153-.13.31-.216.643-.251.991a1 1 0 1 0 .194 1.558c.119.325.284.627.488.898A2 2 0 1 1 4 3Zm6.8 3.6a2 2 0 1 0 .431-3.447c.13.31.216.643.251.991a1 1 0 1 1-.194 1.558 3.493 3.493 0 0 1-.488.898Z"/>
  <path fill-rule="evenodd" d="M5.05 9.298A3.985 3.985 0 0 0 4 12v2h8v-2a3.986 3.986 0 0 0-1.842-3.368A3.981 3.981 0 0 0 8 8a3.981 3.981 0 0 0-2.95 1.298Zm4.421.087c.297.167.562.383.784.637.464.528.745 1.22.745 1.978v1H5v-1c0-.758.281-1.45.745-1.978A2.986 2.986 0 0 1 8 9c.535 0 1.037.14 1.471.385Z" clip-rule="evenodd"/>
  <path d="M4.845 8.12A5.03 5.03 0 0 0 4 9a2 2 0 0 0-2 2v1h1v1H1v-2a3 3 0 0 1 3.845-2.88ZM15 11a3 3 0 0 0-3.845-2.88c.316.258.6.554.845.88a2 2 0 0 1 2 2v1h-1v1h2v-2Z"/>
</svg>
