<svg xmlns="http://www.w3.org/2000/svg" fill="currentColor" viewBox="0 0 16 16">
  <path fill-rule="evenodd" d="M10.567 2.017a.5.5 0 0 1 .683-.182A2.5 2.5 0 0 1 12.5 4v.006c0 .046-.002.092-.004.138C13.944 4.573 15 6.028 15 7.875c0 2.12-.79 3.821-2.065 5.09a6.977 6.977 0 0 1-4.94 2.04 7 7 0 0 1-6.224-3.793 1 1 0 0 1 1.473-1.27 2.982 2.982 0 0 0 1.751.563H5V10.5a2.992 2.992 0 0 0 2.952-2.487C7.985 7.819 8 7.5 8 7.5a3.501 3.501 0 0 1 3.5-3.499v-.005a1.5 1.5 0 0 0-.75-1.296.5.5 0 0 1-.183-.683ZM8 14a5.998 5.998 0 0 0 5.943-5.2 1.805 1.805 0 0 1-1.178-.71 1.805 1.805 0 0 1-1.371.398 1.805 1.805 0 0 1-1.235-.718 1.809 1.809 0 0 1-1.217.41 3.99 3.99 0 0 1-1.103 2.138 3.988 3.988 0 0 1-3.46 1.14 3.979 3.979 0 0 1-1.719-.705A6.021 6.021 0 0 0 5 13.205v-.008c.883.51 1.907.803 3 .803Zm5.996-6.216C14 7.734 14 7.5 14 7.5a2.5 2.5 0 0 0-4.98-.323.813.813 0 0 0 .8-.714.5.5 0 1 1 .993.122.813.813 0 0 0 1.613.198.5.5 0 0 1 .992.122c-.049.4.203.77.578.879Z" clip-rule="evenodd"/>
</svg>
