<svg id="Layer_1" data-name="Layer 1" xmlns="http://www.w3.org/2000/svg" viewBox="0 0 16 16"><defs><style>.cls-1{fill:#121212;}</style></defs><path id="pinterest" class="cls-1" d="M8,1A7,7,0,0,0,5.45,14.51a6.45,6.45,0,0,1,0-2L6.29,9a2.6,2.6,0,0,1-.21-1c0-1,.57-1.7,1.27-1.7a.88.88,0,0,1,.89.86v.12a13.37,13.37,0,0,1-.59,2.34,1,1,0,0,0,.74,1.23.77.77,0,0,0,.3,0c1.25,0,2.2-1.31,2.2-3.2A2.76,2.76,0,0,0,8.22,4.82H8A3,3,0,0,0,4.8,7.72v.14a2.73,2.73,0,0,0,.52,1.6.2.2,0,0,1,0,.2c-.06.21-.18.7-.2.79s-.1.16-.24.09A3.12,3.12,0,0,1,3.5,7.83c0-2.2,1.6-4.23,4.63-4.23a4.11,4.11,0,0,1,4.32,3.89v.15c0,2.41-1.52,4.35-3.63,4.35a1.87,1.87,0,0,1-1.6-.8l-.44,1.66a7.38,7.38,0,0,1-.87,1.84A7,7,0,1,0,8,1"/></svg>