<svg viewBox="0 0 16 16" fill="none" xmlns="http://www.w3.org/2000/svg"><path fill-rule="evenodd" clip-rule="evenodd" d="M9.66671 7.49441C9.17336 7.82405 8.59334 8 8 8C7.20435 8 6.44129 7.68393 5.87868 7.12132C5.31607 6.55871 5 5.79565 5 5C5 4.40666 5.17595 3.82664 5.50559 3.33329C5.83524 2.83994 6.30377 2.45543 6.85195 2.22836C7.40013 2.0013 8.00333 1.94189 8.58527 2.05765C9.16721 2.1734 9.70176 2.45912 10.1213 2.87868C10.5409 3.29824 10.8266 3.83279 10.9424 4.41473C11.0581 4.99667 10.9987 5.59987 10.7716 6.14805C10.5446 6.69623 10.1601 7.16477 9.66671 7.49441ZM9.11114 3.33706C8.78224 3.1173 8.39556 3 8 3C7.46957 3 6.96086 3.21071 6.58579 3.58579C6.21071 3.96086 6 4.46957 6 5C6 5.39556 6.1173 5.78224 6.33706 6.11114C6.55682 6.44004 6.86918 6.69639 7.23463 6.84776C7.60009 6.99914 8.00222 7.03874 8.39018 6.96157C8.77814 6.8844 9.13451 6.69392 9.41421 6.41422C9.69392 6.13451 9.8844 5.77814 9.96157 5.39018C10.0387 5.00222 9.99913 4.60009 9.84776 4.23463C9.69638 3.86918 9.44004 3.55682 9.11114 3.33706ZM5.28099 9.33795C5.82624 9.11352 6.41036 8.99868 7 9H9C10.19 8.99998 11.3316 9.47134 12.1749 10.3109C13.0183 11.1505 13.4947 12.29 13.5 13.48V14H2.5V13.48C2.50131 12.8904 2.61875 12.3068 2.8456 11.7625C3.07246 11.2183 3.40429 10.724 3.82216 10.308C4.24002 9.892 4.73573 9.56238 5.28099 9.33795ZM11.2786 10.8556C10.6478 10.3039 9.83809 9.99982 9 10H7C6.16019 9.9974 5.3481 10.3003 4.71516 10.8523C4.08222 11.4043 3.67165 12.1676 3.56 13H12.43C12.3186 12.1693 11.9094 11.4074 11.2786 10.8556Z" fill="#111111"/></svg>