<svg xmlns="http://www.w3.org/2000/svg" viewBox="0 0 16 16" fill="#000000">
    <title>Reddit</title>
    <circle cx="6.6" cy="8.6" r="0.6" />
    <path d="M9.25,10A1.92,1.92,0,0,1,8,10.4,1.93,1.93,0,0,1,6.75,10a.15.15,0,0,0-.2,0,.17.17,0,0,0,0,.23A2.34,2.34,0,0,0,8,10.71a2.33,2.33,0,0,0,1.48-.46v0a.16.16,0,0,0,0-.23A.17.17,0,0,0,9.25,10Z" />
    <path d="M8,2a6,6,0,1,0,6,6A6,6,0,0,0,8,2Zm3.52,6.8v.26c0,1.35-1.57,2.44-3.5,2.44s-3.5-1.09-3.5-2.44a1.13,1.13,0,0,1,0-.26.79.79,0,0,1-.23-.16.88.88,0,1,1,1.2-1.28,4.31,4.31,0,0,1,2.34-.73l.44-2.09h0a.18.18,0,0,1,.22-.14L10,4.69a.62.62,0,0,1,.46-.29.6.6,0,0,1,.66.53.6.6,0,0,1-1.2.13L8.6,4.79,8.21,6.66a4.31,4.31,0,0,1,2.31.74.84.84,0,0,1,.57-.24.87.87,0,0,1,.43,1.64Z" />
    <path d="M9.38,8a.6.6,0,0,0-.6.6.6.6,0,0,0,.6.6v0h0A.62.62,0,0,0,9.38,8Z" />
</svg>