<svg xmlns="http://www.w3.org/2000/svg" viewBox="0 0 16 16" fill="#000000"><title>Reddit</title><path d="M9,9a.71.71,0,0,1,.16-.76.68.68,0,0,1,.76-.16.71.71,0,0,1,.43.65.66.66,0,0,1-.2.49.87.87,0,0,1-.23.16.86.86,0,0,1-.27.05A.71.71,0,0,1,9,9Z"/><path d="M6.4,10.32a.24.24,0,0,1,.14,0,1.81,1.81,0,0,0,.33.2,1.78,1.78,0,0,0,.36.14,2.57,2.57,0,0,0,.38.08,2.54,2.54,0,0,0,.39,0,1.7,1.7,0,0,0,.39,0,1.72,1.72,0,0,0,.38-.08,1.78,1.78,0,0,0,.36-.14,2.9,2.9,0,0,0,.33-.2.15.15,0,0,1,.13,0,.18.18,0,0,1,.12,0,.19.19,0,0,1,0,.13.14.14,0,0,1,0,.12,2,2,0,0,1-.39.25A2.26,2.26,0,0,1,8.9,11a2.11,2.11,0,0,1-.45.1,2.33,2.33,0,0,1-.46,0,2.4,2.4,0,0,1-.46,0,2.8,2.8,0,0,1-.88-.27,2.84,2.84,0,0,1-.39-.25v0a.18.18,0,0,1-.06-.13.21.21,0,0,1,.19-.2Z"/><path d="M6.12,8.08A.71.71,0,0,1,7,9a.71.71,0,0,1-.65.43v0a.67.67,0,0,1-.28-.06.53.53,0,0,1-.23-.16A.57.57,0,0,1,5.74,9a.69.69,0,0,1,0-.28A.7.7,0,0,1,6.12,8.08Z"/><path d="M1,8A7,7,0,1,0,8,1,7,7,0,0,0,1,8ZM3.33,8A1,1,0,0,1,4,7.09,1.14,1.14,0,0,1,4.55,7a1,1,0,0,1,.51.27,6.27,6.27,0,0,1,.62-.36A4.69,4.69,0,0,1,7,6.51a4.38,4.38,0,0,1,.71-.07L7.3,4.25l-1.5.32a.68.68,0,0,1-.66.62.69.69,0,0,1-.72-.55.7.7,0,0,1,.43-.8.72.72,0,0,1,.86.3L7.43,3.8h.08a.11.11,0,0,1,.08,0l.06.06a.11.11,0,0,1,0,.08L8.2,6.4a4.4,4.4,0,0,1,.73.06,5.94,5.94,0,0,1,.7.17,3.91,3.91,0,0,1,.67.27,3.94,3.94,0,0,1,.63.36,1,1,0,0,1,1.55.17,1,1,0,0,1,.14.85,1,1,0,0,1-.56.65V9a.38.38,0,0,1,0,.15v.08c0,1.57-1.83,2.84-4.08,2.84S3.9,10.81,3.9,9.24c0,0,0-.05,0-.08V9s0,0,0-.08a1,1,0,0,1-.24-.16,1.24,1.24,0,0,1-.18-.22.81.81,0,0,1-.11-.27A.86.86,0,0,1,3.33,8Z"/></svg>