<svg width="16" height="16" viewBox="0 0 16 16" fill="none" xmlns="http://www.w3.org/2000/svg">
<path fill-rule="evenodd" clip-rule="evenodd" d="M13.5 3.72087V1.5H14.5V4.5V5.5H13.5H10.5V4.5H12.8678C12.8424 4.46629 12.8165 4.43296 12.79 4.40001C12.1761 3.58148 11.3631 2.93354 10.4282 2.51776C9.49336 2.10198 8.46769 1.93218 7.4487 2.02449C6.42971 2.1168 5.45125 2.46816 4.60632 3.04517C3.76138 3.62219 3.07804 4.40569 2.62123 5.32121C2.16442 6.23674 1.94932 7.25387 1.99638 8.27595C2.04343 9.29803 2.35107 10.2911 2.89007 11.1608C3.42907 12.0305 4.18151 12.7479 5.07588 13.2448C5.97026 13.7417 6.97686 14.0017 8.00002 14C8.79305 14.0158 9.58121 13.8727 10.318 13.579C11.0548 13.2853 11.7253 12.847 12.29 12.29L13 13C12.3399 13.647 11.5582 14.1568 10.7 14.5001C9.84187 14.8433 8.92421 15.0133 8.00002 15C6.80306 15.0068 5.62435 14.7065 4.57651 14.1279C3.52868 13.5493 2.64672 12.7116 2.01491 11.695C1.3831 10.6783 1.02254 9.51664 0.967683 8.32092C0.912828 7.12519 1.16551 5.93537 1.70158 4.86514C2.23766 3.79491 3.03921 2.88003 4.02967 2.20789C5.02013 1.53576 6.1664 1.12884 7.35895 1.026C8.55151 0.923171 9.75052 1.12786 10.8414 1.62052C11.8869 2.09268 12.7996 2.81422 13.5 3.72087Z" fill="#111111"/>
</svg>
