<svg viewBox="0 0 627 119" xmlns="http://www.w3.org/2000/svg" fill="var(--wpds-colors-primary, #000000)"><path d="M105.087 19.6785V0H129.872V19.6785H105.087ZM105.087 93.5079V29.1927H129.872V93.5079H105.087Z"></path><path d="M143.771 118.598V29.2014H168.169V40.3936C175.364 31.2659 187.946 26.7592 202.073 26.7592C226.48 26.7592 242.532 40.5253 242.532 60.8451C242.532 81.1649 225.452 95.9589 201.3 95.9589C186.786 95.9589 175.224 90.9427 168.547 83.3524V118.598H143.753H143.771ZM192.707 80.0053C207.731 80.0053 216.728 72.6698 216.728 60.8363C216.728 49.6442 207.863 42.5723 193.094 42.5723C178.325 42.5723 168.046 49.6442 168.046 60.195V61.3547C168.046 72.6786 177.939 80.0053 192.707 80.0053Z"></path><path d="M253.145 118.501V29.1048H277.543V40.2969C284.738 31.1693 297.32 26.6626 311.447 26.6626C335.854 26.6626 351.906 40.4287 351.906 60.7485C351.906 81.0683 334.826 95.8623 310.674 95.8623C296.16 95.8623 284.598 90.8461 277.921 83.2558V118.501H253.136H253.145ZM302.082 79.9175C317.105 79.9175 326.102 72.582 326.102 60.7485C326.102 49.5564 317.237 42.4844 302.468 42.4844C287.699 42.4844 277.42 49.5564 277.42 60.1072V61.2668C277.42 72.5907 287.313 79.9175 302.082 79.9175Z"></path><path d="M387.506 0.289886V93.543H362.712V0.289886H387.506Z"></path><path d="M493.761 63.0678V66.6696H422.218C424.142 75.2877 433.139 80.304 447.653 80.304C458.319 80.304 467.562 76.7021 472.315 70.7898L491.327 79.0214C482.339 89.827 467.307 95.8711 446.625 95.8711C416.446 95.8711 398.33 83.1416 398.33 61.5304C398.33 39.9192 417.079 26.6714 445.984 26.6714C476.295 26.6714 493.77 40.3057 493.77 63.0765L493.761 63.0678ZM422.086 53.8083H469.099C468.844 45.6997 459.338 40.0422 445.852 40.0422C432.366 40.0422 423.633 45.445 422.086 53.8083Z"></path><path d="M0 0H53.8217C75.9004 0 90.6253 10.463 90.6253 26.0301C90.6253 37.0201 84.3874 45.3835 69.6625 48.6603V49.0556C80.223 51.5418 85.6614 56.5141 87.1022 67.8908C88.7012 81.1034 88.0599 91.1711 92.0662 92.6118V93.5255H69.8294C66.9477 92.4801 66.6314 82.0171 65.665 71.9494C64.7073 61.75 57.6611 55.3457 43.2612 55.3457H24.5387V93.5255H0V0ZM24.5387 42.379H49.1828C61.8256 42.379 68.0635 37.6966 68.0635 31.2045C68.0635 24.7123 62.1419 19.6873 49.8242 19.6873H24.5387V42.3878V42.379Z"></path><path d="M521.05 31.4576L534.089 31.3744C540.432 31.3328 543.509 34.8575 543.541 39.0891C543.561 43.0712 541.815 45.5457 537.978 46.8037C541.419 47.3756 544.83 49.7149 544.872 54.7783C544.903 60.0393 541.783 64.1461 533.319 64.1981L521.268 64.2813L521.06 31.468L521.05 31.4576ZM525.219 45.5457L532.997 45.4937C537.031 45.4729 539.527 43.5806 539.506 39.9936C539.485 36.7497 537.354 34.8367 533.278 34.8679L525.157 34.9198L525.23 45.5457H525.219ZM525.323 60.9438L534.078 60.8918C538.903 60.8606 540.754 58.6876 540.733 54.7991C540.712 51.1601 538.238 48.7168 533.361 48.748L525.24 48.8L525.323 60.9542V60.9438Z"></path><path d="M550.923 64.0734L550.715 31.2601L571.48 31.125L571.501 34.6704L554.822 34.7744L554.895 45.3067L567.341 45.2235L567.362 48.5713L554.916 48.6545L554.999 60.6632L572.125 60.5488L572.145 63.9383L550.944 64.0734H550.923Z"></path><path d="M585.954 63.855L585.767 34.5352L576.367 34.5976L576.346 31.1041L599.222 30.9586L599.242 34.452L589.843 34.5144L590.03 63.8342L585.943 63.8654L585.954 63.855Z"></path><path d="M600.854 63.7614L611.273 30.8753L615.994 30.8441L626.881 63.5846L622.503 63.6158L619.342 53.9985L607.582 54.0713L604.546 63.7302L600.854 63.751V63.7614ZM608.549 50.817L618.344 50.7546L613.269 35.4397L608.549 50.817Z"></path></svg>
