<svg viewBox="0 0 8 8" fill="none" xmlns="http://www.w3.org/2000/svg"><path d="M6.5 0H1.5C0.671573 0 0 0.671573 0 1.5V6.5C0 7.32843 0.671573 8 1.5 8H6.5C7.32843 8 8 7.32843 8 6.5V1.5C8 0.671573 7.32843 0 6.5 0Z" fill="#FFA500"/><path d="M2 7C2.55228 7 3 6.55228 3 6C3 5.44772 2.55228 5 2 5C1.44772 5 1 5.44772 1 6C1 6.55228 1.44772 7 2 7Z" fill="white"/><path d="M1 4C1.79565 4 2.55871 4.31607 3.12132 4.87868C3.68393 5.44129 4 6.20435 4 7H5C5 5.93913 4.57857 4.92172 3.82843 4.17157C3.07828 3.42143 2.06087 3 1 3V4Z" fill="white"/><path d="M1 2C1.65661 2 2.30679 2.12933 2.91342 2.3806C3.52005 2.63188 4.07124 3.00017 4.53553 3.46447C4.99983 3.92876 5.36812 4.47995 5.6194 5.08658C5.87067 5.69321 6 6.34339 6 7H7C7 5.4087 6.36786 3.88258 5.24264 2.75736C4.11742 1.63214 2.5913 1 1 1V2Z" fill="white"/></svg>