<svg viewBox="0 0 16 16" fill="none" xmlns="http://www.w3.org/2000/svg"><path fill-rule="evenodd" clip-rule="evenodd" d="M4.50747 10.7533C5.24442 11.2493 6.11168 11.5161 6.99998 11.52C7.59392 11.5213 8.18228 11.4053 8.73126 11.1786C9.12567 11.0158 9.49417 10.7981 9.82616 10.5327L13.6481 14.3547L14.3552 13.6475L10.5332 9.82553C10.7984 9.49371 11.0159 9.12544 11.1786 8.7313C11.4053 8.18231 11.5213 7.59395 11.52 7.00001C11.516 6.11171 11.2492 5.24445 10.7533 4.5075C10.2573 3.77055 9.55428 3.19688 8.73283 2.85877C7.91139 2.52066 7.00825 2.43323 6.1372 2.6075C5.26615 2.78177 4.46617 3.20994 3.83804 3.83807C3.20991 4.4662 2.78174 5.26618 2.60747 6.13723C2.4332 7.00828 2.52063 7.91142 2.85874 8.73286C3.19685 9.55431 3.77052 10.2573 4.50747 10.7533ZM5.0589 4.12099C5.63226 3.73312 6.30776 3.52397 6.99998 3.52001C7.45961 3.51737 7.91525 3.6053 8.3409 3.77876C8.76655 3.95222 9.15386 4.20783 9.48072 4.53097C9.80759 4.85412 10.0676 5.23849 10.2459 5.66213C10.4242 6.08577 10.5174 6.54038 10.52 7.00001C10.5239 7.69223 10.3225 8.37007 9.94122 8.94782C9.55992 9.52557 9.01587 9.97728 8.37785 10.2458C7.73984 10.5144 7.03652 10.5877 6.35683 10.4565C5.67714 10.3254 5.05161 9.9956 4.55934 9.50892C4.06707 9.02225 3.73017 8.40053 3.59125 7.72238C3.45232 7.04424 3.5176 6.34013 3.77884 5.69908C4.04008 5.05804 4.48555 4.50886 5.0589 4.12099Z" fill="#111111"/></svg>