<svg viewBox="0 0 16 16" fill="none" xmlns="http://www.w3.org/2000/svg"><path fill-rule="evenodd" clip-rule="evenodd" d="m14.19 6.47-.87.62c.12.6.12 1.22 0 1.82l.87.63.77.54-.5.8-1.06 1.7-.5.8-.83-.46-.94-.51c-.336.232-.695.43-1.07.59L10 14.06l-.06.94H6.06L6 14.06 5.94 13a5.996 5.996 0 0 1-1.11-.6l-.94.51-.83.46-.5-.8-1.06-1.7-.5-.8.81-.54.87-.62a4.65 4.65 0 0 1 0-1.82l-.87-.62-.77-.54.5-.8 1.06-1.7.5-.8.83.45.94.51A6.19 6.19 0 0 1 5.94 3L6 1.94 6.06 1h3.88l.06.94.06 1.06c.378.158.738.36 1.07.6l.94-.51.83-.46.5.8 1.1 1.7.5.8-.81.54ZM11 11.2l1.55.8 1.06-1.68-1.43-1A4.21 4.21 0 0 0 12.41 8a4.442 4.442 0 0 0-.23-1.3l1.43-1L12.55 4 11 4.75a4.51 4.51 0 0 0-1.9-1L9 2H7l-.08 1.8A4.43 4.43 0 0 0 5 4.8L3.45 4 2.39 5.68l1.43 1A3.94 3.94 0 0 0 3.59 8c.007.443.084.882.23 1.3l-1.43 1L3.45 12 5 11.2c.538.5 1.19.86 1.9 1.05L7 14h2l.1-1.75A4.51 4.51 0 0 0 11 11.2ZM6.423 6.07a2.49 2.49 0 1 1 3.171 3.84 2.49 2.49 0 0 1-3.17-3.84Zm.744 3.177a1.5 1.5 0 1 0 1.666-2.494 1.5 1.5 0 0 0-1.666 2.494Z" fill="#111111"/></svg>