<svg viewBox="0 0 1024 1024" fill="none" xmlns="http://www.w3.org/2000/svg"><rect x="19" y="20" width="985" height="985" rx="436" fill="white"/><rect x="396.999" y="186.125" width="296.321" height="133.587" rx="66.7937" transform="rotate(45 396.999 186.125)" fill="#38C4F2"/><path d="M675.228 326.956C649.618 352.567 608.095 352.567 582.485 326.956C556.875 301.346 556.875 259.824 582.485 234.213C608.095 208.603 649.618 208.603 675.228 234.213C700.838 259.824 700.838 301.346 675.228 326.956Z" fill="#38C4F2"/><rect x="625.423" y="840.478" width="296.321" height="133.587" rx="66.7937" transform="rotate(-135 625.423 840.478)" fill="#E11F59"/><path d="M347.194 699.646C372.804 674.035 414.327 674.035 439.937 699.646C465.547 725.256 465.547 766.779 439.937 792.389C414.327 817.999 372.804 817.999 347.194 792.389C321.584 766.779 321.584 725.256 347.194 699.646Z" fill="#E11F59"/><rect x="184.032" y="629.229" width="296.321" height="133.587" rx="66.7937" transform="rotate(-45 184.032 629.229)" fill="#2FB67D"/><path d="M324.866 351C350.476 376.611 350.476 418.133 324.866 443.743C299.255 469.354 257.733 469.354 232.123 443.743C206.512 418.133 206.512 376.611 232.123 351C257.733 325.39 299.255 325.39 324.866 351Z" fill="#2FB67D"/><rect x="838.39" y="397.373" width="296.321" height="133.587" rx="66.7937" transform="rotate(135 838.39 397.373)" fill="#EEB32E"/><path d="M697.556 675.602C671.946 649.992 671.946 608.469 697.556 582.859C723.167 557.249 764.689 557.249 790.299 582.859C815.91 608.469 815.91 649.992 790.299 675.602C764.689 701.212 723.167 701.212 697.556 675.602Z" fill="#EEB32E"/></svg>