<svg xmlns="http://www.w3.org/2000/svg" fill="currentColor" viewBox="0 0 17 16">
  <path d="M14.45 13.6a.4.4 0 0 1-.4.4h-1.6v-.95h2v.55Zm0-11.65v11.1h-.95V1.95zm-8.05 0V3h-.95V1.95zm8.05 0h-9V1.4c0-.22.18-.4.4-.4h8.2c.22 0 .4.18.4.4v.55ZM2.5 4.35c0-.22.18-.4.4-.4h8.2c.22 0 .4.18.4.4v.55h-9v-.55Zm0 9.65V4.9h.95V14zm8.05 0V4.9h.95V14zM2.5 14h9v.55a.4.4 0 0 1-.4.4H2.9a.4.4 0 0 1-.4-.4V14Zm5.99-4.503C8.411 8.92 7.267 7.4 7 7.4c-.269 0-1.412 1.521-1.489 2.097-.083.618.312 1.103.825 1.103.2 0 .368-.139.498-.278l-.43.908c-.037.076.01.17.084.17h1.024c.074 0 .12-.094.085-.17l-.43-.908c.13.14.297.278.497.278.513 0 .908-.485.825-1.103Z"/>
</svg>
