<svg viewBox="0 0 24 24" fill="none" xmlns="http://www.w3.org/2000/svg"><g clip-path="url(#spotify_svg__clip0_2_3003)"><path fill-rule="evenodd" clip-rule="evenodd" d="M19.04 10.606c-3.857-2.29-10.217-2.5-13.899-1.383a1.12 1.12 0 0 1-.65-2.143c4.226-1.281 11.252-1.034 15.692 1.6a1.12 1.12 0 0 1-1.143 1.926Zm-.126 3.391a.933.933 0 0 1-1.283.307c-3.217-1.975-8.118-2.547-11.921-1.393a.934.934 0 0 1-.543-1.785c4.346-1.319 9.747-.68 13.44 1.59a.933.933 0 0 1 .307 1.281Zm-1.464 3.257a.746.746 0 0 1-1.026.249c-2.808-1.717-6.344-2.104-10.508-1.153a.747.747 0 1 1-.333-1.453c4.557-1.043 8.466-.594 11.62 1.333a.747.747 0 0 1 .247 1.026v-.002ZM11.964 0a11.964 11.964 0 1 0 .003 23.927A11.964 11.964 0 0 0 11.963 0h.001Z" fill="#1ED760"/></g><defs><clipPath id="spotify_svg__clip0_2_3003"><path fill="white" d="M0 0h24v24H0z"/></clipPath></defs></svg>