<svg xmlns="http://www.w3.org/2000/svg" viewBox="0 0 168 168">
  <title>Spotify</title>
  <path fill="#1ED760" fill-rule="evenodd" d="M133.28 74.24c-27-16.03-71.52-17.5-97.29-9.68a7.83 7.83 0 11-4.55-15c29.58-8.97 78.76-7.24 109.84 11.2a7.83 7.83 0 01-8 13.48zm-.88 23.74a6.53 6.53 0 01-8.98 2.15C100.9 86.3 66.59 82.3 39.97 90.38a6.54 6.54 0 01-3.8-12.5c30.42-9.23 68.23-4.76 94.08 11.13a6.53 6.53 0 012.15 8.97zm-10.25 22.8a5.22 5.22 0 01-7.18 1.74c-19.66-12.02-44.41-14.73-73.56-8.07a5.22 5.22 0 11-2.33-10.17c31.9-7.3 59.26-4.16 81.34 9.33a5.22 5.22 0 011.73 7.18zM83.75 0a83.74 83.74 0 100 167.49A83.74 83.74 0 0083.74 0z"/>
</svg>