<svg xmlns="http://www.w3.org/2000/svg" viewBox="0 0 24 24">
<path fill-rule="evenodd" clip-rule="evenodd" fill="white" d="M18.0393 10.6057C14.1821 8.31571 7.82214 8.10571 4.14071 9.22286C3.85655 9.30905 3.54979 9.27883 3.28791 9.13885C3.02603 8.99887 2.83048 8.76059 2.74429 8.47643C2.65809 8.19227 2.68831 7.8855 2.82829 7.62362C2.96827 7.36174 3.20655 7.1662 3.49071 7.08C7.71643 5.79857 14.7421 6.04571 19.1821 8.68C19.3086 8.75504 19.419 8.85425 19.5071 8.97197C19.5952 9.08969 19.6593 9.2236 19.6956 9.36608C19.732 9.50855 19.7399 9.65678 19.719 9.80232C19.698 9.94785 19.6486 10.0878 19.5736 10.2143C19.4985 10.3407 19.3993 10.4512 19.2816 10.5393C19.1639 10.6274 19.03 10.6914 18.8875 10.7278C18.5998 10.8012 18.2946 10.7573 18.0393 10.6057ZM17.9136 13.9971C17.7842 14.208 17.5763 14.3588 17.3357 14.4164C17.0952 14.474 16.8416 14.4336 16.6307 14.3043C13.4136 12.3286 8.51214 11.7571 4.70929 12.9114C4.47657 12.9701 4.23019 12.937 4.02124 12.8189C3.81229 12.7008 3.6568 12.5069 3.58699 12.2772C3.51718 12.0476 3.53842 11.7999 3.6463 11.5855C3.75418 11.3711 3.94043 11.2065 4.16643 11.1257C8.51214 9.80714 13.9136 10.4457 17.6064 12.7157C17.8169 12.8451 17.9674 13.0527 18.025 13.2929C18.0825 13.5331 18.0425 13.7864 17.9136 13.9971ZM16.4493 17.2543C16.3983 17.338 16.3313 17.4109 16.2522 17.4687C16.173 17.5265 16.0832 17.5681 15.988 17.5912C15.8927 17.6143 15.7938 17.6184 15.697 17.6032C15.6001 17.5881 15.5072 17.554 15.4236 17.5029C12.615 15.7857 9.07928 15.3986 4.915 16.35C4.81823 16.3758 4.71727 16.3818 4.61811 16.3678C4.51896 16.3537 4.42366 16.3198 4.3379 16.2681C4.25214 16.2164 4.17766 16.1479 4.11893 16.0668C4.06019 15.9857 4.0184 15.8936 3.99603 15.796C3.97367 15.6984 3.97119 15.5972 3.98876 15.4987C4.00632 15.4001 4.04357 15.306 4.09827 15.2221C4.15297 15.1382 4.224 15.0662 4.30714 15.0104C4.39027 14.9546 4.4838 14.916 4.58214 14.8971C9.13929 13.8543 13.0479 14.3029 16.2021 16.23C16.2858 16.2811 16.3585 16.3482 16.4162 16.4274C16.4738 16.5066 16.5153 16.5964 16.5383 16.6916C16.5612 16.7869 16.5652 16.8857 16.5499 16.9825C16.5346 17.0793 16.5005 17.1721 16.4493 17.2557V17.2543ZM10.9636 0C7.79063 0 4.74765 1.26044 2.50405 3.50405C0.260444 5.74765 -1 8.79063 -1 11.9636C-1 15.1365 0.260444 18.1795 2.50405 20.4231C4.74765 22.6667 7.79063 23.9271 10.9636 23.9271C14.1365 23.927 17.1794 22.6663 19.4229 20.4226C21.6664 18.1788 22.9266 15.1358 22.9264 11.9629C22.9262 8.78992 21.6656 5.74701 19.4219 3.50354C17.1781 1.26007 14.1351 -0.00018944 10.9621 0H10.9636Z" />
</svg>
