<svg viewBox="0 0 16 16" fill="none" xmlns="http://www.w3.org/2000/svg"><path d="M8.5 1v2.53a4.5 4.5 0 0 1 3.97 3.97H15v1h-2.53a4.5 4.5 0 0 1-3.97 3.97V15h-1v-2.53A4.5 4.5 0 0 1 3.53 8.5H1v-1h2.53A4.5 4.5 0 0 1 7.5 3.53V1h1Zm2.433 11.08 1 1.732-.866.5-1-1.732.866-.5Zm-5.866 0 .866.5-1 1.732-.866-.5 1-1.732ZM3.42 10.067l.5.866-1.732 1-.5-.866 1.732-1Zm9.16 0 1.732 1-.5.866-1.732-1 .5-.866ZM8 4.502a3.498 3.498 0 1 0 0 6.996 3.498 3.498 0 0 0 0-6.996Zm5.812-.435.5.866-1.732 1-.5-.866 1.732-1Zm-11.624 0 1.732 1-.5.866-1.732-1 .5-.866Zm2.745-2.38 1 1.733-.866.5-1-1.732.866-.5Zm6.134 0 .866.5-1 1.733-.866-.5 1-1.732Z" fill="#111111"/></svg>