<svg xmlns="http://www.w3.org/2000/svg" viewBox="0 0 16 16" fill="#000000"><title>Switch</title><path class="switch_svg__cls-1" d="M14,3.5H4.5A2.5,2.5,0,0,0,2,6V7H3V6A1.5,1.5,0,0,1,4.5,4.5H14Z"/><path class="switch_svg__cls-1" d="M13,10a1.5,1.5,0,0,1-1.5,1.5H2v1h9.5A2.5,2.5,0,0,0,14,10V9H13Z"/><polygon class="switch_svg__cls-1" points="11.46 1.88 13.59 4 11.46 6.12 12.17 6.83 14.29 4.71 15 4 14.29 3.29 12.17 1.17 11.46 1.88"/><polygon class="switch_svg__cls-1" points="4.54 14.13 2.41 12.01 4.54 9.88 3.83 9.18 1.71 11.3 1 12.01 1.71 12.71 3.83 14.83 4.54 14.13"/></svg>