<svg xmlns="http://www.w3.org/2000/svg" viewbox="0 0 16 16" fill="#000000">
    <title>Switch</title>
    <g id="Option1">
        <path d="M14,8A6,6,0,0,1,2.81,11H1.68A7,7,0,0,0,15,8ZM8,2a6,6,0,0,1,5.19,3h1.13A7,7,0,0,0,1,8H2A6,6,0,0,1,8,2Z" />
        <rect x="1.25" y="10.25" width="3" height="3" />
        <polygon points="5.5 10.5 2.5 10.5 1.5 10.5 1.5 11.5 1.5 14.5 2.5 14.5 2.5 11.5 5.5 11.5 5.5 10.5 5.5 10.5" />
        <polygon points="14.5 1.5 13.5 1.5 13.5 4.5 10.5 4.5 10.5 5.5 13.5 5.5 14.5 5.5 14.5 4.5 14.5 1.5 14.5 1.5" />
    </g>
</svg>