<svg id="Layer_1" data-name="Layer 1" xmlns="http://www.w3.org/2000/svg" viewBox="0 0 16 16"><path id="Sync" d="M14.17,4l-.73,1.84a5.91,5.91,0,0,0-2-2.69A5.72,5.72,0,0,0,5.08,2.8,5.87,5.87,0,0,0,2.8,5.25l.8.41a4.89,4.89,0,0,1,7.3-1.72,5.05,5.05,0,0,1,1.68,2.28l-1.87-.77-.34.86,3.28,1.33L15,4.33ZM8,13.05a4.88,4.88,0,0,1-2.82-.91,5,5,0,0,1-1.8-2.39l1.92.77.33-.86L2.31,8.32,1,11.67l.84.34.72-1.83a6,6,0,0,0,2.05,2.7,5.74,5.74,0,0,0,6.41.27,6,6,0,0,0,2.25-2.53l-.81-.4a5.1,5.1,0,0,1-1.83,2.07A4.93,4.93,0,0,1,8,13.05Z"/></svg>