<svg xmlns="http://www.w3.org/2000/svg" viewBox="0 0 16 16" fill="#000000"><title>Sync</title><path d="M1.52,7.5A6.51,6.51,0,0,1,8,1.5H8A6.51,6.51,0,0,0,1.52,7.5ZM14,2V2Zm-.17,3-.57-.79.62.79ZM12,2.92A6.42,6.42,0,0,0,8,1.5,6.34,6.34,0,0,1,12,2.92Z"/><path d="M8,1A7,7,0,0,0,1,8H2A6,6,0,0,1,12.86,4.5H10.5v1h4v-4h-1V3.7A6.94,6.94,0,0,0,8,1Z"/><path d="M8,14.5a6.51,6.51,0,0,0,6.48-6A6.51,6.51,0,0,1,8,14.5Zm0,0Zm0,0a6.34,6.34,0,0,1-4-1.42A6.42,6.42,0,0,0,8,14.5ZM2.12,11h0l.57.79Z"/><path d="M15,8H14A6,6,0,0,1,3.14,11.5H5.5v-1h-4v4h1V12.3A7,7,0,0,0,15,8Z"/></svg>