<svg xmlns="http://www.w3.org/2000/svg" fill="currentColor" viewBox="0 0 16 16">
  <path d="M5.307 13.646a1.288 1.288 0 0 0 2.027-.334l.015-.029.315-.63a3.5 3.5 0 0 1 .397-.621l1.736-2.17a.5.5 0 0 0-.781-.624l-1.736 2.17a4.412 4.412 0 0 0-.51.798l-.309.616-.012.024a.288.288 0 0 1-.543-.134v-.376c0-.439.102-.872.299-1.265l.648-1.297a.5.5 0 0 0-.447-.724h-3a.425.425 0 0 1-.207-.122L3.16 8.89a.547.547 0 0 1-.154-.464l.759-5.315a.071.071 0 0 1 .041-.055V3.05h4.282a.25.25 0 0 1 .177.073l.78.78a.5.5 0 1 0 .708-.706l-.99-.99a.498.498 0 0 0-.357-.147v-.01h-4.5v.002a1.071 1.071 0 0 0-1.13.917l-.76 5.315c-.07.482.093.968.437 1.313l.039.039c.245.245.57.39.914.411l2.191.003-.287.574a3.828 3.828 0 0 0-.404 1.712v.376c0 .353.145.69.4.934Z"/>
  <path fill-rule="evenodd" d="M13.906 10.05h-3v-7h3v7Zm-1-1h-1v-5h1v5Z" clip-rule="evenodd"/>
</svg>
