<svg xmlns="http://www.w3.org/2000/svg" fill="currentColor" viewBox="0 0 16 16">
  <path d="M10.6 2.404a1.288 1.288 0 0 0-2.027.334l-.016.029-.315.63a3.5 3.5 0 0 1-.397.621L6.11 6.188a.5.5 0 0 0 .78.624l1.736-2.17a4.5 4.5 0 0 0 .51-.798l.309-.616.013-.024a.288.288 0 0 1 .542.134v.376c0 .439-.102.872-.299 1.265l-.648 1.297A.5.5 0 0 0 9.5 7h3c.079.016.15.064.207.122l.039.039a.547.547 0 0 1 .155.464l-.76 5.314a.07.07 0 0 1-.041.055V13H7.818a.25.25 0 0 1-.177-.073l-.78-.78a.5.5 0 0 0-.707.707l.99.99a.498.498 0 0 0 .356.146V14H12l.001-.002c.023.002.046.002.07.002a1.07 1.07 0 0 0 1.06-.92l.76-5.314a1.547 1.547 0 0 0-.438-1.313l-.039-.038a1.414 1.414 0 0 0-.914-.412L10.309 6l.287-.574A3.83 3.83 0 0 0 11 3.714v-.376c0-.353-.145-.69-.4-.934Z"/>
  <path fill-rule="evenodd" d="M2 6h3v7H2V6Zm1 1h1v5H3V7Z" clip-rule="evenodd"/>
</svg>
