<svg width="16" height="16" viewBox="0 0 16 16" fill="none" xmlns="http://www.w3.org/2000/svg">
<path fill-rule="evenodd" clip-rule="evenodd" d="M3.57559 2.61679C4.81932 1.58292 6.38269 1.01163 7.99998 0.999998C8.92766 0.993328 9.84742 1.17113 10.7058 1.52305C11.5641 1.87498 12.344 2.39402 13 3.05C14.1436 4.19361 14.856 5.69795 15.016 7.30735C15.176 8.91675 14.7737 10.5319 13.8776 11.8783C12.9815 13.2247 11.6468 14.2192 10.1004 14.6929C8.554 15.1665 6.89127 15.0901 5.39483 14.4766C3.89839 13.863 2.66058 12.7502 1.89176 11.3273C1.12295 9.90442 0.870577 8.25918 1.17754 6.67125C1.4845 5.08331 2.33186 3.65066 3.57559 2.61679ZM4.19227 12.6413C5.26611 13.521 6.61178 14.0012 7.99998 14C9.59074 13.9986 11.1158 13.3655 12.24 12.24C13.221 11.2578 13.831 9.96579 13.9662 8.58419C14.1014 7.20259 13.7533 5.81687 12.9812 4.66315C12.2092 3.50944 11.061 2.65912 9.73228 2.25711C8.40356 1.85509 6.97656 1.92625 5.69443 2.45845C4.4123 2.99065 3.35439 3.95097 2.70096 5.17577C2.04752 6.40056 1.83901 7.81404 2.11094 9.17534C2.38288 10.5366 3.11844 11.7615 4.19227 12.6413ZM7.5 8.23V4.23H8.52V7.72L11.52 9.52L11 10.37L7.5 8.23Z" fill="#111111"/>
</svg>
