<svg width="403" height="62" viewBox="0 0 403 62" fill="none" xmlns="http://www.w3.org/2000/svg">
<path d="M23.097 19.081V40.912C26.042 39.319 28.104 36.546 29.105 33.418L29.341 33.538C28.692 41.326 23.391 49.113 15.145 49.113C6.83999 49.113 0.713989 42.918 0.713989 33.005C0.713989 25.572 5.54399 20.91 11.729 16.72C10.8252 16.4825 9.89443 16.3635 8.95999 16.366C4.71799 16.366 2.24499 19.257 2.24499 22.208H1.88999C1.83099 21.795 1.83099 21.382 1.83099 20.969C1.83099 15.718 4.59999 9.345 11.315 9.345C15.615 9.345 18.914 13.298 23.92 13.298C25.923 13.298 28.397 12.354 29.398 10.171H29.575C29.516 14.007 28.339 17.961 23.096 19.081H23.097ZM26.277 41.443C23.332 44.57 20.152 47.225 16.029 47.225C8.37199 47.225 2.48199 41.207 2.48199 32.475C2.48199 27.342 4.60199 24.569 6.95799 21.323H6.72199C5.24899 22.798 1.36199 26.515 1.36199 32.828C1.36199 42.505 7.42899 48.464 15.381 48.464C20.918 48.464 24.687 44.63 26.396 41.503L26.278 41.443H26.277ZM28.633 12.827C27.632 14.715 25.512 17.134 21.212 17.134C16.912 17.134 12.966 14.184 9.48999 14.184C6.30899 14.184 4.12999 16.308 3.30499 17.901L3.36499 18.019C4.48299 16.899 6.19099 15.777 8.95999 15.777C13.554 15.777 16.5 18.61 21.153 18.61C26.101 18.61 28.339 15.364 28.751 12.887L28.633 12.827ZM12.258 16.898C9.25399 20.026 6.48499 23.448 6.48499 30.115C6.48499 33.772 7.72199 37.549 10.491 39.909L12.199 39.023V23.21L10.609 24.036L10.314 23.446L18.561 18.961C16.323 18.491 14.32 17.487 12.258 16.897V16.898ZM22.448 19.199C22.036 19.257 21.624 19.257 21.153 19.257C20.328 19.257 19.563 19.199 18.797 19.021V36.25L11.08 40.442C12.67 41.622 14.614 42.329 17.088 42.329C19.091 42.329 20.858 41.916 22.448 41.208V19.199ZM13.967 22.209L12.847 22.857V38.671L13.967 38.081V22.208V22.209ZM47.836 24.45V44.865C47.836 50.529 42.829 54.365 37.234 55.485L37.116 55.249C39.885 53.892 41.476 51.119 41.476 48.169V27.046L38.295 24.156L37.058 25.512V41.974L38.825 43.567V43.686L34.054 48.878L28.576 43.863V43.626L30.696 41.384V15.305L36.94 8.64L37.058 8.698V24.51L42.183 18.964L47.543 23.803L48.543 22.74L49.015 23.154L47.836 24.45ZM31.343 43.744V43.626L32.58 42.386V14.303L31.343 15.6V41.796L29.458 43.685V43.802L34.052 47.932L34.876 46.988L31.343 43.743V43.744ZM43.36 26.102L39.532 22.798L38.707 23.683L42.124 26.753V47.993C42.124 49.409 41.829 50.883 41.299 51.71L41.359 51.769C42.831 50.706 43.361 49.113 43.361 47.049V26.102H43.36ZM57.202 36.31V39.318L62.915 43.803L66.214 40.263L66.686 40.734L59.029 48.935L51.253 42.681L50.076 43.921L49.604 43.449L50.959 42.033V27.105L62.092 18.963L67.923 28.403L57.202 36.31ZM52.842 41.503V26.515L51.606 27.401V42.093L58.91 48.052L59.853 47.049L52.843 41.503H52.842ZM57.32 23.329L57.202 23.389V35.484L62.444 31.649L57.32 23.329ZM58.851 22.149L57.791 22.916L62.975 31.236L64.035 30.468L58.851 22.149ZM106.318 48.877L98.13 41.797L91.887 48.877L83.404 41.56V29.996H81.755C80.282 29.996 79.517 30.941 79.163 32.061H78.986C78.798 31.3282 78.6993 30.5754 78.692 29.819C78.692 28.285 79.105 24.273 83.404 24.273V14.125C83.404 12.178 81.107 11.411 81.107 8.815C81.107 5.452 84.287 2.148 90.12 0.0810013L90.356 0.258001C88.236 1.498 87.116 2.678 87.116 5.215C87.116 9.11 90.886 8.106 90.886 14.242V16.602L97.778 9.345L105.023 16.485L111.856 9.345L118.452 15.835V37.666L106.318 48.876V48.877ZM85.29 40.617V28.168H81.99C80.282 28.168 79.517 29.288 79.399 30.292L79.457 30.352C80.047 29.702 80.636 29.349 81.99 29.349H84.051V41.267L91.827 47.994L92.71 46.931L85.29 40.617ZM85.29 13.534C85.29 11.116 83.17 10.289 83.17 8.756C83.17 6.631 83.994 4.862 85.29 3.21L85.172 3.151C83.405 4.509 81.756 6.692 81.756 8.815C81.756 10.94 84.053 11.942 84.053 13.831V24.274H85.29V13.534ZM97.718 19.435L93.242 15.069L90.886 17.488V38.374L96.246 42.918L97.718 41.265V19.435ZM99.603 40.5V18.61L94.596 13.654L93.654 14.598L98.366 19.141V41.149L106.318 48.052L107.261 47.166L99.603 40.5ZM111.03 18.67L107.32 15.128L105.2 17.312V38.317L110.972 43.39L111.03 43.332V18.668V18.67ZM112.915 17.843L108.615 13.654L107.732 14.598L111.678 18.374V43.037L112.915 41.857V17.842V17.843ZM137.944 48.877L132.348 43.803L127.341 48.877L121.215 43.449L120.39 44.333L119.919 43.862L120.979 42.741V26.929L132.053 18.904L138.415 23.861L139.535 22.681L140.006 23.153L138.71 24.51V40.854L141.832 43.744L142.833 42.682L143.304 43.095L137.944 48.877ZM122.864 42.328V26.398L121.628 27.282V42.918L127.283 47.993L128.225 47.049L122.865 42.329L122.864 42.328ZM132.348 26.811L127.518 23.034L127.341 23.153V40.322L131.347 43.802L132.347 42.8V26.81L132.348 26.811ZM134.233 42.859V25.926L129.226 21.854L128.049 22.68L132.996 26.574V43.45L137.944 47.934L138.828 46.989L134.233 42.86V42.859ZM155.084 29.642H161.151V42.27L151.786 48.878C150.549 47.462 148.781 46.459 146.602 46.459C144.835 46.459 143.421 47.049 141.537 48.642L141.242 48.524L149.254 36.842H144.305V25.866L154.143 19.022C155.32 19.966 156.203 20.496 157.736 20.496C158.914 20.496 160.622 20.26 161.918 19.199L162.154 19.317L155.084 29.642ZM148.488 44.747C146.779 44.747 145.425 45.337 144.246 46.163V46.281C145.189 45.868 146.131 45.751 147.015 45.751C148.369 45.751 150.49 46.4 151.904 48.052L153.259 47.049C152.139 45.75 150.785 44.747 148.488 44.747ZM154.789 34.834H151.491L144.599 44.807L144.658 44.925C146.366 43.685 148.015 42.86 150.018 42.86C151.785 42.86 153.611 43.686 154.73 45.102L154.79 45.043V34.834H154.789ZM146.189 34.834V25.336L144.953 26.221V36.133H149.723L150.666 34.835H146.19L146.189 34.834ZM158.501 23.27C157.264 24.156 156.557 24.627 154.495 24.627C153.317 24.627 151.903 24.097 150.785 22.916L150.667 22.976V31.589H152.905L158.56 23.329L158.5 23.269L158.501 23.27ZM155.674 22.739C154.614 22.739 153.259 22.209 152.374 21.029L150.902 22.031C152.022 23.388 153.082 23.978 154.73 23.978C155.79 23.978 157.322 23.682 158.913 22.325L158.971 22.149C157.971 22.563 156.734 22.739 155.674 22.739ZM156.674 32.889H152.846L151.962 34.127H155.438V45.573L156.675 44.688V32.888L156.674 32.889ZM181.473 24.45V44.865C181.473 50.529 176.466 54.365 170.87 55.485L170.753 55.249C173.522 53.892 175.112 51.119 175.112 48.169V27.046L171.932 24.156L170.694 25.512V41.974L172.461 43.567V43.686L167.691 48.878L162.213 43.863V43.626L164.333 41.384V15.305L170.577 8.639L170.694 8.697V24.51L175.819 18.964L181.179 23.803L182.18 22.74L182.652 23.154L181.472 24.45H181.473ZM164.98 43.744V43.626L166.217 42.386V14.303L164.98 15.6V41.796L163.095 43.685V43.803L167.689 47.933L168.513 46.988L164.98 43.744ZM176.996 26.102L173.167 22.798L172.343 23.683L175.759 26.753V47.993C175.759 49.409 175.465 50.883 174.935 51.71L174.995 51.769C176.467 50.706 176.997 49.113 176.997 47.049V26.102H176.996ZM192.194 48.877L187.128 44.216L185.949 45.455L185.477 44.982L186.833 43.508V26.457L184.359 24.097L183.416 25.159L182.945 24.687L188.245 18.904L192.958 23.153L194.136 21.855L194.666 22.268L193.194 23.861V41.091L196.022 43.745L197.318 42.387L197.788 42.86L192.194 48.877ZM188.718 43.095V25.512L185.655 22.68L184.831 23.625L187.481 26.162V43.686L192.194 47.933L193.077 46.989L188.718 43.095ZM190.485 18.433L185.655 14.008L190.073 9.288L194.903 13.712L190.485 18.432V18.433ZM187.481 13.063L186.598 13.948L190.426 17.547L191.309 16.544L187.481 13.063ZM217.1 48.877L211.975 44.216V26.988L208.853 24.156L207.203 25.926V41.856L209.03 43.566V43.803L204.2 48.877L198.722 43.862V43.685L200.842 41.443V26.574L198.074 24.037L196.954 25.276L196.484 24.804L201.844 18.963L207.204 23.743V24.923L212.8 18.963L218.041 23.683L219.22 22.444L219.75 22.916L218.336 24.391V41.265L220.986 43.743L222.283 42.327L222.753 42.799L217.1 48.877ZM201.55 43.744V43.626C201.55 43.744 202.728 42.446 202.728 42.446V25.688L199.37 22.62L198.545 23.505L201.49 26.219V41.795L199.664 43.684V43.802L204.2 47.932L205.142 46.929L201.55 43.744ZM213.86 43.272V25.985L210.208 22.68L209.266 23.683L212.623 26.692V43.862L217.04 47.992L217.983 46.988L213.86 43.272ZM233.71 59.497C231.768 57.373 230.412 56.488 228.586 56.488C226.643 56.488 224.404 57.256 222.107 58.494L221.93 58.318L230.059 48.878L224.286 44.276L223.167 45.456L222.697 45.043L223.991 43.627V26.93L235.183 18.905L241.427 23.862L242.487 22.682L242.959 23.154L241.722 24.511V44.691C241.722 47.758 243.429 47.641 243.429 49.941C243.429 52.595 239.6 55.073 233.71 59.498V59.497ZM225.877 43.154V26.457L224.64 27.342V43.686L230.47 48.406L231.355 47.343L225.877 43.153V43.154ZM230 54.954C228.056 54.954 226.288 55.544 224.64 56.665V56.784C225.7 56.371 226.878 55.84 228.88 55.84C230.707 55.84 232.238 56.842 233.77 58.613L234.948 57.669C233.475 55.959 231.708 54.955 230 54.955V54.954ZM237.186 49.29C235.714 48.346 235.36 47.343 235.36 44.806V43.743L225.582 55.071L225.641 55.13C227.525 54.01 229.234 53.184 232.003 53.184C234.359 53.184 235.949 54.127 237.775 55.662C238.895 54.718 239.66 53.774 239.66 52.299C239.66 51.119 238.658 50.234 237.186 49.29ZM235.36 26.81L230.47 22.976L230.352 23.094V41.207L234.123 44.157L235.36 42.741V26.811V26.81ZM238.953 48.464C237.421 47.284 237.244 46.281 237.244 43.744V25.808L232.296 21.796L231.178 22.563L236.008 26.397V44.57C236.008 47.107 236.126 47.816 237.716 48.877C239.13 49.821 240.248 50.824 240.248 52.181C240.248 52.534 240.19 53.125 240.19 53.125L240.248 53.184C240.543 52.888 240.897 52.417 240.897 51.649C240.897 50.352 240.249 49.467 238.953 48.464ZM253.09 48.877L247.67 44.629L246.552 45.868L246.081 45.395L247.376 43.98V23.33H243.959L243.841 23.211L245.903 20.142H247.375V16.19L253.619 9.523L253.737 9.642V20.143H258.449L258.568 20.262L256.506 23.33H253.736V41.208L256.977 43.687L258.214 42.329L258.685 42.801L253.09 48.877ZM249.261 15.187L248.024 16.544V20.144H249.261V15.187ZM249.261 43.39V23.33H248.024V44.098L253.031 47.993L253.914 47.049L249.261 43.39ZM277.946 25.04V41.56L267.992 48.936L260.51 43.272L259.627 44.275L259.156 43.803L260.216 42.623V26.457L270.643 18.963L277.593 24.392L278.711 23.212L279.183 23.683L277.946 25.041V25.04ZM262.102 42.033V25.926L260.865 26.811V42.682L267.933 48.11L269.053 47.285L262.103 42.033H262.102ZM271.585 26.988L266.637 23.093L266.579 23.153V40.734L271.585 44.51V26.988ZM273.471 25.926L267.992 21.676L266.874 22.503L272.234 26.633V44.983L273.471 44.04V25.926ZM300.448 48.876L295.323 44.216V26.988L292.201 24.156L290.551 25.926V41.856L292.378 43.566V43.803L287.548 48.877L282.07 43.862V43.685L284.19 41.443V26.574L281.422 24.037L280.302 25.276L279.832 24.804L285.192 18.963L290.552 23.743V24.923L296.148 18.963L301.39 23.683L302.568 22.444L303.098 22.916L301.684 24.391V41.265L304.334 43.743L305.631 42.327L306.101 42.799L300.448 48.877V48.876ZM284.897 43.744V43.626C284.897 43.744 286.075 42.446 286.075 42.446V25.688L282.718 22.62L281.894 23.505L284.839 26.219V41.795L283.013 43.684V43.802L287.549 47.932L288.491 46.929L284.897 43.744ZM297.207 43.272V25.985L293.557 22.68L292.614 23.683L295.971 26.692V43.862L300.388 47.992L301.331 46.988L297.208 43.272H297.207ZM336.837 48.877C335.187 47.107 334.599 46.517 332.654 45.986V57.55L332.536 57.609L330.18 55.484L323.347 61.797L323.229 61.739V45.868C321.167 46.34 318.988 47.402 316.867 49.525L316.749 49.467C317.162 44.924 319.399 41.561 323.228 40.263V28.757H321.991C320.283 28.757 319.341 29.642 318.516 31.235H318.34C318.163 30.705 318.044 29.878 318.044 28.522C318.044 26.043 319.871 23.448 322.875 23.448H323.228V17.075L320.813 14.892L319.635 16.072L319.222 15.659L325.172 9.346L330.708 14.42V19.79L332.004 18.373V11.588H332.652V17.783L340.485 9.345L347.141 15.423V41.089L336.837 48.877ZM323.23 43.685C320.816 44.156 319.108 45.632 317.989 47.579L318.047 47.697C319.697 46.281 321.227 45.633 323.23 45.16V43.685ZM325.116 26.752H321.876C319.637 26.752 318.754 28.168 318.696 29.82L318.754 29.879C319.461 28.699 320.167 28.286 321.581 28.109H323.879V60.265L325.116 59.085V26.752ZM325.116 16.131L322.17 13.418L321.228 14.42L323.878 16.78V23.447H325.116V16.13V16.131ZM332.008 19.494L330.712 20.851V55.014L332.008 56.194V19.494ZM339.724 18.137L336.248 14.951L332.655 18.846V39.614C335.718 39.91 337.838 40.794 339.665 42.8L339.724 42.741V18.137ZM332.655 43.685V45.219C334.658 45.691 335.482 46.281 336.895 47.933L338.251 46.871C336.837 45.101 335.423 44.04 332.655 43.685ZM341.608 17.194L337.603 13.476L336.66 14.479L340.371 17.901V45.337L341.608 44.393V17.193V17.194ZM367.702 25.041V41.561L357.746 48.936L350.266 43.272L349.382 44.275L348.911 43.803L349.971 42.623V26.457L360.398 18.963L367.348 24.392L368.466 23.212L368.938 23.683L367.702 25.041ZM351.857 42.033V25.926L350.62 26.811V42.682L357.688 48.11L358.808 47.285L351.858 42.033H351.857ZM361.34 26.988L356.393 23.093L356.333 23.153V40.734L361.34 44.51V26.988ZM363.226 25.926L357.747 21.676L356.629 22.503L361.989 26.633V44.983L363.226 44.04V25.926ZM381.366 29.642H387.434V42.27L378.069 48.878C376.832 47.462 375.065 46.459 372.886 46.459C371.119 46.459 369.706 47.049 367.82 48.642L367.526 48.524L375.536 36.842H370.588V25.866L380.425 19.022C381.604 19.966 382.486 20.496 384.018 20.496C385.197 20.496 386.904 20.26 388.2 19.199L388.436 19.317L381.366 29.642ZM374.77 44.747C373.062 44.747 371.707 45.337 370.53 46.163V46.281C371.472 45.868 372.414 45.751 373.298 45.751C374.653 45.751 376.773 46.4 378.186 48.052L379.542 47.049C378.423 45.75 377.068 44.747 374.77 44.747ZM381.073 34.834H377.775L370.884 44.807L370.942 44.925C372.65 43.685 374.299 42.86 376.302 42.86C378.069 42.86 379.895 43.686 381.014 45.102L381.073 45.043V34.834ZM372.473 34.834V25.336L371.236 26.221V36.133H376.006L376.949 34.835H372.474L372.473 34.834ZM384.784 23.27C383.546 24.156 382.84 24.627 380.778 24.627C379.599 24.627 378.185 24.097 377.067 22.916L376.949 22.976V31.589H379.186L384.841 23.329L384.784 23.269V23.27ZM381.956 22.739C380.896 22.739 379.542 22.209 378.658 21.029L377.185 22.031C378.305 23.388 379.365 23.978 381.015 23.978C382.075 23.978 383.606 23.682 385.197 22.325L385.255 22.149C384.254 22.563 383.017 22.739 381.956 22.739ZM382.958 32.889H379.13L378.246 34.127H381.721V45.573L382.958 44.688V32.888V32.889ZM397.213 48.877L391.793 44.629L390.674 45.868L390.204 45.395L391.498 43.98V23.33H388.082L387.965 23.211L390.025 20.142H391.498V16.19L397.742 9.523L397.86 9.642V20.143H402.572L402.69 20.262L400.628 23.33H397.86V41.208L401.1 43.687L402.337 42.329L402.807 42.801L397.213 48.877ZM393.383 15.187L392.147 16.544V20.144H393.384V15.187H393.383ZM393.383 43.39V23.33H392.147V44.098L397.153 47.993L398.037 47.049L393.384 43.39H393.383Z" fill="#111111"/>
</svg>
