<svg xmlns="http://www.w3.org/2000/svg" viewBox="0 0 16 16" fill="#000000"><title>Twitter</title><path id="twitter_svg__twitter" d="M5.4,13.74a8.17,8.17,0,0,0,8.18-8.13.37.37,0,0,0,0-.11V5.12A5.83,5.83,0,0,0,15,3.62a5.55,5.55,0,0,1-1.65.46,2.9,2.9,0,0,0,1.26-1.6,5.92,5.92,0,0,1-1.82.7,2.85,2.85,0,0,0-4-.15l0,0A2.89,2.89,0,0,0,7.9,5.82a8.18,8.18,0,0,1-3.29-.88A7.94,7.94,0,0,1,2,2.79a2.92,2.92,0,0,0,.88,3.88,2.86,2.86,0,0,1-1.3-.37v0a2.9,2.9,0,0,0,2.3,2.84,2.85,2.85,0,0,1-1.3.05,2.91,2.91,0,0,0,2.69,2A5.76,5.76,0,0,1,1,12.44a8.17,8.17,0,0,0,4.4,1.3"/></svg>