<svg xmlns="http://www.w3.org/2000/svg" viewBox="0 0 144 144"><g fill="none" fill-rule="evenodd"><path fill="#1884EC" fill-rule="nonzero" d="M74.38695,83 C73.61895,83 72.85085,83.2929 72.26495,83.8789 L63.43875,92.705 C62.85375,93.291 62.85375,94.2392 63.43875,94.8261 C63.73175,95.1191 64.11595,95.2656 64.49975,95.2656 C64.88355,95.2656 65.26785,95.1191 65.56085,94.8261 L72.88795,87.499 L72.88795,124.5742 C72.88795,125.4023 73.55985,126.0742 74.38795,126.0742 C75.21655,126.0742 75.88795,125.4023 75.88795,124.5742 L75.88795,87.5019 L83.21655,94.8291 C83.50955,95.122 83.89285,95.2685 84.27665,95.2685 C84.66085,95.2685 85.04465,95.122 85.33765,94.8291 C85.92355,94.2431 85.92355,93.2939 85.33765,92.708 L76.50855,83.8789 C75.92265,83.2929 75.15455,83 74.38695,83 Z"/><path fill="#B3B3B3" fill-rule="nonzero" d="M92.7813,91 C96.7695,91 100.0137,87.751 100.0137,83.7568 L100,44.2324 C100,42.1494 99.1924,40.1904 97.7246,38.7158 L89.3535,30.2969 C87.875,28.8154 85.9121,28 83.8242,28 L56.2324,28 C52.2451,28 49,31.248 49,35.2402 L49,83.7568 C49,87.751 52.2451,91 56.2324,91 L60.5,91 C61.3285,91 62,90.3285 62,89.5 C62,88.6715 61.3285,88 60.5,88 L56.2324,88 C53.8994,88 52,86.0967 52,83.7568 L52,35.2402 C52,32.9014 53.8994,31 56.2324,31 L83.8242,31 C85.1084,31 86.3184,31.5029 87.2285,32.4141 L95.5977,40.8311 C96.502,41.7402 97,42.9482 97,44.2324 L97.0137,83.7568 C97.0137,86.0967 95.1152,88 92.7813,88 L88.5,88 C87.6715,88 87,88.6715 87,89.5 C87,90.3285 87.6715,91 88.5,91 L92.7813,91 Z"/><path fill="#B3B3B3" fill-rule="nonzero" d="M70.5210807,59.5957 L75.8374807,69.5186 C75.8852807,69.5938 75.8921807,69.668 75.8686807,69.7236 C75.8462807,69.7783 75.7924807,69.8164 75.7163807,69.8164 L72.4174807,69.8164 C72.3120807,69.8164 72.2339807,69.8027 72.1733807,69.7647 C72.1128807,69.7275 72.0659807,69.668 72.0219807,69.5791 C71.4096807,68.3613 68.9380807,63.3975 68.2944807,62.0918 L68.2807807,62.0918 L68.2661807,62.0918 C67.7007807,63.3223 65.2719807,68.3887 64.6635807,69.6084 C64.6167807,69.6826 64.5698807,69.7344 64.5171807,69.7686 C64.4624807,69.8027 64.4028807,69.8164 64.3257807,69.8164 L61.1733807,69.8164 C61.0815807,69.8164 61.0278807,69.7783 61.0073807,69.7275 C60.9897807,69.6748 61.0034807,69.6084 61.0503807,69.5498 L66.2456807,59.9229 L61.2339807,50.2676 C61.1733807,50.1914 61.1733807,50.125 61.2046807,50.0772 C61.2339807,50.0293 61.2964807,50 61.3549807,50 L64.6245807,50 C64.7143807,50 64.7846807,50.0068 64.8374807,50.0361 C64.8911807,50.0654 64.9282807,50.1182 64.9585807,50.207 C65.5551807,51.4248 67.9370807,56.2852 68.5034807,57.5186 L68.5190807,57.5186 L68.5346807,57.5186 C69.0854807,56.3008 71.4370807,51.4404 72.0171807,50.2363 C72.0630807,50.1631 72.1010807,50.1025 72.1499807,50.0615 C72.2007807,50.0215 72.2602807,50 72.3530807,50 L75.4077807,50 C75.4819807,50 75.5366807,50.0293 75.5600807,50.0772 C75.5835807,50.125 75.5757807,50.1914 75.5288807,50.2676 L70.5210807,59.5957 Z M76.3784807,62.5957 C76.3784807,60.4424 77.1128807,58.5244 78.4311807,57.1484 C79.7495807,55.7695 81.6518807,54.9317 83.9878807,54.9317 C84.1870807,54.9317 84.3393807,54.9317 84.4858807,54.9356 C84.6362807,54.9385 84.7827807,54.9463 84.9643807,54.9609 L84.9643807,50.1777 C84.9643807,50.1172 84.9878807,50.0742 85.0229807,50.0449 C85.0561807,50.0137 85.1030807,50 85.1479807,50 L88.1460807,50 C88.2212807,50 88.2651807,50.0137 88.2924807,50.041 C88.3217807,50.0645 88.3276807,50.1025 88.3276807,50.1484 L88.3276807,66.9971 C88.3276807,67.2471 88.3276807,67.5293 88.3393807,67.834 C88.3510807,68.1397 88.3725807,68.4649 88.4194807,68.8096 C88.4194807,68.8672 88.4116807,68.9053 88.3882807,68.9356 C88.3647807,68.9658 88.3276807,68.9863 88.2671807,69.0186 C87.4721807,69.3877 86.6557807,69.6553 85.8393807,69.8311 C85.0229807,70.0078 84.2046807,70.0879 83.4116807,70.0879 C81.3647807,70.0879 79.6089807,69.4717 78.3628807,68.2266 C77.1167807,66.9785 76.3784807,65.1074 76.3784807,62.5957 Z M84.9643807,57.8721 C84.8276807,57.8106 84.6674807,57.7686 84.4839807,57.7373 C84.3003807,57.709 84.0942807,57.6934 83.8647807,57.6934 C82.6733807,57.6934 81.6577807,58.1387 80.9409807,58.9551 C80.2221807,59.7715 79.8022807,60.96 79.8022807,62.4473 C79.8022807,64.1426 80.2299807,65.3311 80.9253807,66.0947 C81.6186807,66.8584 82.5815807,67.2002 83.6518807,67.2002 C83.8784807,67.2002 84.1167807,67.1856 84.3413807,67.1533 C84.5659807,67.1201 84.7788807,67.0674 84.9624807,66.9932 L84.9624807,57.8721 L84.9643807,57.8721 Z"/><path fill="#B3B3B3" fill-rule="nonzero" d="M110.166,44.0459 C108.1523,29.1904 95.3418,18 80.2871,18 L80.25,18 C74.3965,18.0126 68.7266,19.708 63.8496,22.9033 C63.1582,23.3574 62.9648,24.2871 63.418,24.9804 C63.8711,25.6728 64.8027,25.8671 65.4951,25.4121 C69.8828,22.5371 74.9883,21.0126 80.3223,20.997 L80.3535,20.997 C93.8438,20.997 105.3982,31.1621 107.2117,44.5361 C107.4125,46.0731 107.5205,47.2626 107.5254,48.7451 C107.5254,49.873 107.4238,51.0234 107.3193,52.1044 C107.2754,52.5546 107.4375,53 107.7617,53.3183 C108.084,53.6347 108.5361,53.7939 108.9824,53.7382 C109.7324,53.6533 110.4893,53.6181 111.2754,53.6386 C115.54,53.6748 119.4121,54.3925 122.5547,55.8212 C130.6914,60.0078 135.7383,68.2617 135.7383,77.4375 C135.7383,90.9023 124.4395,101.9902 111,101.998 L83.5,101.998 C82.6716,101.998 82,102.6695 82,103.498 C82,104.3265 82.6716,104.998 83.5,104.998 L111,104.998 C126.0938,104.9882 138.7383,92.5556 138.7383,77.4375 C138.7383,67.3945 133.3496,58.3408 124.6191,53.5312 C124.5234,53.4482 123.4629,52.9238 123.3613,52.8974 C119.9336,51.4218 115.7725,50.6386 111.3525,50.6386 C111.0693,50.6318 110.7412,50.6318 110.4551,50.6367 C110.4971,50.0175 110.2104,44.3728 110.166,44.0459 Z M67,103.498 C67,102.6695 66.3284,101.998 65.5,101.998 L22.7695,101.998 L22.751,101.998 C18.8184,101.998 15.1191,100.4648 12.333,97.6816 C9.543,94.8925 8.0039,91.1806 8,87.1953 C8,79.5918 13.9121,73.1152 21.459,72.4511 L23.3418,72.2851 L22.7529,70.4892 C22.04,68.3134 21.6758,66.039 21.6699,63.6757 C21.6641,57.8662 23.915,52.4013 28.0098,48.289 C32.1055,44.1777 37.5527,41.9091 43.4004,41.9023 C43.8926,41.9023 44.3799,41.9189 44.8643,41.9511 C45.6875,42.0029 46.4063,41.3808 46.4609,40.5546 C46.5176,39.7285 45.8926,39.0126 45.0645,38.958 C44.5156,38.9209 43.96,38.9023 43.3477,38.9023 C36.7471,38.9101 30.5449,41.4912 25.8848,46.1718 C21.2246,50.8515 18.6631,57.0693 18.6699,63.7343 C18.6758,65.7617 18.9238,67.7666 19.4092,69.7138 C11.1982,71.3056 5,78.6621 5,87.2353 C5.0049,91.9843 6.8555,96.4482 10.2129,99.8027 C13.5645,103.1533 18.0176,104.998 22.79,104.998 L22.8125,104.998 L65.5,104.998 C66.3284,104.998 67,104.3265 67,103.498 Z"/></g></svg>