<svg xmlns="http://www.w3.org/2000/svg" viewBox="0 0 16 16" fill="#000000">
    <title>Volume</title>
    <g id="Volume">
        <path id="Path_22" data-name="Path 22" d="M11.94,8A4,4,0,0,0,9.83,4.47l-.48.88a3,3,0,0,1,0,5.3l.48.88A4,4,0,0,0,11.94,8Z" />
        <path id="Path_23" data-name="Path 23" d="M3.47,5H.94v6H3.47l2.84,2.28,1.63,1.31V1.41L6.31,2.72Zm3.47,7.5L3.83,10H1.94V6H3.83L6.94,3.5Z" />
        <path id="Path_24" data-name="Path 24" d="M11.06,1.76l-.42.91a5.87,5.87,0,0,1,0,10.68l.41.91a6.88,6.88,0,0,0,0-12.5Z" />
    </g>
</svg>