<svg viewBox="0 0 14 12" fill="none" xmlns="http://www.w3.org/2000/svg">
<path fill-rule="evenodd" clip-rule="evenodd" d="M12 0C13.1046 0 14 0.895431 14 2V10C14 11.1046 13.1046 12 12 12H2L1.7959 11.9893C0.854347 11.8938 0.1062 11.1457 0.0107422 10.2041L0 10V2C1.28853e-07 0.895431 0.89543 1.61064e-08 2 0H12ZM9.82617 5C9.41406 6.16468 8.30585 7 7 7C5.69415 7 4.58594 6.16468 4.17383 5H1V10L1.00488 10.1025C1.04649 10.5112 1.33457 10.8463 1.71777 10.959C1.80734 10.9853 1.90194 11 2 11H12L12.1025 10.9951C12.573 10.9472 12.9472 10.573 12.9951 10.1025L13 10V5H9.82617ZM2 3C1.48232 3 1.05621 3.39333 1.00488 3.89746L1 4H5C5 5.10457 5.89543 6 7 6C8.10457 6 9 5.10457 9 4H13L12.9951 3.89746C12.9472 3.42703 12.573 3.05278 12.1025 3.00488L12 3H2ZM1.89746 1.00488C1.39333 1.05621 1 1.48232 1 2V2.26953C1.29437 2.09906 1.63536 2 2 2H12C12.3646 2 12.7056 2.09906 13 2.26953V2C13 1.48232 12.6067 1.05621 12.1025 1.00488L12 1H2L1.89746 1.00488Z" fill="black"/>
</svg>
