<svg width="16" height="16" viewBox="0 0 16 16" fill="none" xmlns="http://www.w3.org/2000/svg">
<path fill-rule="evenodd" clip-rule="evenodd" d="M13 2C14.1046 2 15 2.89543 15 4V12C15 13.1046 14.1046 14 13 14H3L2.7959 13.9893C1.85435 13.8938 1.1062 13.1457 1.01074 12.2041L1 12V4C1 2.89543 1.89543 2 3 2H13ZM10.8262 7C10.4141 8.16468 9.30585 9 8 9C6.69415 9 5.58594 8.16468 5.17383 7H2V12L2.00488 12.1025C2.04649 12.5112 2.33457 12.8463 2.71777 12.959C2.80734 12.9853 2.90194 13 3 13H13L13.1025 12.9951C13.573 12.9472 13.9472 12.573 13.9951 12.1025L14 12V7H10.8262ZM3 5C2.48232 5 2.05621 5.39333 2.00488 5.89746L2 6H6C6 7.10457 6.89543 8 8 8C9.10457 8 10 7.10457 10 6H14L13.9951 5.89746C13.9472 5.42703 13.573 5.05278 13.1025 5.00488L13 5H3ZM2.89746 3.00488C2.39333 3.05621 2 3.48232 2 4V4.26953C2.29437 4.09906 2.63536 4 3 4H13C13.3646 4 13.7056 4.09906 14 4.26953V4C14 3.48232 13.6067 3.05621 13.1025 3.00488L13 3H3L2.89746 3.00488Z" fill="black"/>
</svg>
