<svg viewBox="0 0 475 48" fill="none" xmlns="http://www.w3.org/2000/svg"><path d="M248.35 33.9069C247.1 35.3056 245.69 36.8634 244.272 38.4875C242.186 37.8511 240.007 36.8236 240.007 33.9666V21.9417C238.884 21.2125 237.694 20.2845 237.119 19.8072C236.537 20.3508 235.869 20.954 235.869 20.954V34.1588C236.417 34.5433 236.577 34.6692 237.152 34.9874C236.156 36.0083 234.939 37.4666 234.037 38.5206C233.108 37.8511 231.436 36.6778 229.992 35.7497C230.44 35.3056 230.728 34.5764 230.728 33.4893V22.3527C230.728 20.9209 230.179 20.3773 229.571 19.9994L228.575 21.1131L228.127 20.669C228.127 20.669 230.982 17.3943 231.978 16.2143C233.743 16.6916 235.414 18.0306 235.762 20.1254C236.979 18.9786 238.456 17.5136 239.613 16.2143C241.284 17.4539 243.657 18.9852 245.743 19.9994C245.389 20.4104 245.195 21.239 245.195 22.83V32.9192C245.195 33.8406 245.93 34.477 246.672 34.6361C246.96 34.2516 247.729 33.4296 247.729 33.4296L248.35 33.9069ZM211.32 33.2109C211.32 33.2109 207.95 37.0954 206.921 38.4941C205.831 37.6058 202.749 35.9155 200.857 34.8681C201.171 34.245 201.305 33.9268 201.305 32.548V20.5496H198.383C198.865 19.5023 199.246 18.8924 199.734 18.0704H201.305V13.1385C203.11 12.0381 205.41 10.7852 206.533 9.86382V18.0969H211.22C210.765 18.9322 209.969 20.5496 209.969 20.5496H206.473V32.4485C207.436 33.0518 208.592 33.5622 209.648 34.0395C209.782 33.9003 210.705 32.7336 210.705 32.7336L211.32 33.2109ZM161.406 11.3487L158.144 14.7228L154.587 11.5078L157.983 8.07401L161.406 11.3487ZM181.924 34.0991C180.674 35.4978 179.39 36.87 177.98 38.4875C175.894 37.8511 173.841 36.8236 173.841 33.9666V21.9417C172.718 21.2125 171.528 20.2845 170.953 19.8072C170.372 20.3508 169.703 20.954 169.703 20.954V34.1588C170.251 34.5433 170.412 34.6692 170.987 34.9874C169.99 36.0083 168.774 37.4666 167.871 38.5206C166.942 37.8511 165.271 36.6778 163.827 35.7497C164.274 35.3056 164.562 34.5764 164.562 33.4893V22.3527C164.562 20.9209 164.014 20.3773 163.405 19.9994L162.282 21.239L161.801 20.7618C161.801 20.7618 164.816 17.3876 165.812 16.2143C167.577 16.6916 169.242 18.0306 169.596 20.1254C170.813 18.9786 172.29 17.5136 173.447 16.2143C175.118 17.4539 177.492 18.9852 179.577 19.9994C179.223 20.4104 179.029 21.239 179.029 22.83V32.9192C179.029 33.8406 179.638 34.477 180.38 34.6361C180.667 34.2516 181.309 33.6152 181.309 33.6152L181.924 34.0991ZM161.995 34.9874C160.638 36.3994 159.521 37.692 158.853 38.4875C158.11 37.9771 156.352 36.6712 154.875 35.7497C155.289 35.2062 155.583 34.7024 155.583 33.1114V22.8698C155.583 20.8943 155.169 20.4171 154.393 20.0392C154.072 20.3574 153.625 20.7419 153.304 21.1529L152.856 20.7087C154.046 19.5023 155.871 17.3015 156.834 16.1878C159.367 16.9501 160.718 18.7996 160.718 21.186V34.1654C161.132 34.5101 161.58 34.7024 161.995 34.9874ZM152.207 20.0061C151.967 20.4635 151.726 21.0866 151.726 21.7561V34.1986C151.726 39.2498 146.912 44.3806 141.778 44.8579L141.618 44.606C144.92 43.0813 146.558 40.0718 146.558 37.4467V21.9417C146.11 21.6567 144.278 20.4171 143.67 19.9066C143.255 20.3176 142.834 20.669 142.386 21.1794V34.0063C143.062 34.5499 143.603 34.8681 144.058 35.12C142.694 36.532 141.557 37.6655 140.789 38.5538C139.411 37.5661 137.867 36.6115 136.583 35.7232C136.971 35.3122 137.259 34.7156 137.259 33.4296V8.41871C139.184 7.78234 140.661 7.02001 142.393 5.68097V19.9663C142.393 19.9663 144.639 17.8649 146.177 16.1812C148.169 17.7125 150.83 19.3034 152.207 20.0061ZM47.246 20.0061C47.0053 20.4635 46.7646 21.0866 46.7646 21.7561V34.1986C46.7646 39.2498 41.9511 44.3806 36.8167 44.8579L36.6562 44.606C39.9655 43.0813 41.5968 40.0718 41.5968 37.4467V21.9417C41.1488 21.6567 39.317 20.4171 38.7087 19.9066C38.2942 20.3176 37.873 20.669 37.4251 21.1794V34.0063C38.1003 34.5499 38.6418 34.8681 39.0964 35.12C37.7326 36.532 36.5961 37.6655 35.8206 38.5538C34.4469 37.5699 33.0446 36.6259 31.6154 35.7232C32.0032 35.3122 32.2906 34.7156 32.2906 33.4296V8.41871C34.216 7.78234 35.6935 7.02001 37.4251 5.68097V19.9663C37.4251 19.9663 39.6714 17.8649 41.209 16.1812C43.2013 17.7125 45.8621 19.3034 47.246 20.0061ZM227.398 20.6093C227.171 21.0534 226.85 21.5639 226.85 23.758V33.1114C224.316 34.2251 220.72 36.7375 218.861 38.4875C217.771 37.4998 213.66 34.7355 211.962 33.7147C212.316 33.2374 212.41 32.4088 212.41 31.8983V21.2457C215.044 20.132 218.219 18.0306 220.238 16.2209C222.164 17.6462 225.312 19.6879 227.398 20.6093ZM221.682 34.6096V22.7372C220.492 22.008 218.6 20.7352 217.577 19.9398V31.9381C218.507 32.4419 220.238 33.4628 221.682 34.6096ZM199.48 36.3596C199.48 37.4467 198.858 38.1428 197.588 39.4487C194.6 42.498 192.293 44.891 192.293 44.891C191.103 43.8702 189.178 43.0482 186.965 43.0482C185.36 43.0482 183.421 43.3929 181.543 44.8645L181.189 44.5795C182.599 42.9023 187.125 38.4079 188.121 37.4202C186.423 36.1143 184.398 35.1001 182.472 34.2383C182.793 33.887 182.954 33.0915 182.954 32.4883V21.2788C186.256 19.4625 187.353 18.7996 190.722 16.2209C192.681 17.6528 196.532 19.847 197.942 20.5828C197.621 21.186 197.394 21.9218 197.394 22.7769V31.6531C197.394 33.6152 199.48 33.9931 199.48 36.3596ZM192.226 33.2705V22.6775C190.682 21.7694 189.144 20.7684 188.088 19.9398V31.9381C189.178 32.4817 190.655 33.4628 191.424 34.0726L192.226 33.2705ZM196.304 39.3161C196.304 37.9439 192.26 36.7706 192.26 34.0991C191.544 34.9874 188.502 37.8511 186.483 40.0188L186.55 40.1447C187.921 39.3824 189.311 38.8388 191.237 38.8388C193.196 38.8388 194.64 39.6011 195.636 40.5557C195.983 40.1779 196.304 39.7205 196.304 39.3161ZM135.233 26.8471C135.032 27.1388 135.006 27.5763 135.006 28.153V33.37C132.151 34.1986 129.483 35.7232 126.983 38.4941C126.087 38.1096 124.937 37.8577 124.028 37.8577C122.297 37.8577 120.592 38.4941 120.05 39.1305L119.696 38.8123L126.662 29.2335C125.272 28.3983 122.711 26.9996 120.819 26.1444C120.98 25.7931 121.013 25.3954 121.013 24.6794V21.0534C124.222 19.7807 126.241 18.256 128.327 16.1878C129.677 17.1092 132.432 18.1897 135.193 18.256L135.226 18.3488L130.734 24.4872C131.643 25.0639 133.595 26.0781 135.233 26.8471ZM132.378 21.3716C131.817 21.4578 130.968 21.3716 130.419 21.3716C128.929 21.3716 127.612 20.9606 126.181 19.6879V23.6321C126.936 23.9569 128.768 24.9247 129.517 25.3821L132.378 21.3716ZM129.811 34.6427V29.3263C129.136 29.0081 128.3 28.5971 127.946 28.4049C127.558 28.975 125.452 31.7658 123.868 34.066C124.496 33.7544 125.827 33.5887 126.502 33.5887C127.411 33.5887 128.781 33.94 129.811 34.6427Z" fill="white"/><path d="M121.561 33.9069L117.517 38.4875C114.956 37.8445 113.532 36.3729 113.311 34.5433C112.061 35.8823 110.417 37.5793 109.588 38.4875C107.729 36.9297 105.483 35.531 103.584 34.6361C103.872 33.9069 103.905 32.9192 103.905 32.5347V21.3053C107.308 19.9066 108.625 19.078 111.767 16.2143C113.051 17.202 117.416 19.4294 118.954 19.9663C118.7 20.4436 118.406 21.1131 118.406 22.5781V32.4419C118.406 33.9666 119.141 34.4173 119.943 34.7024L121.033 33.4628L121.561 33.9069ZM113.251 33.6219V22.3593C112.001 21.7561 110.296 20.7684 109.08 19.721V32.5745C109.975 32.9855 111.326 33.7213 112.416 34.4836L113.251 33.6219ZM102.087 11.2228C101.799 11.6072 101.512 12.4292 101.512 13.6755V24.8452C101.512 29.2335 100.676 30.8576 97.019 33.9135C94.9532 35.6437 93.2952 37.3805 92.1119 38.4941C90.7012 37.1551 88.4215 35.5376 85.9479 34.1323C84.5707 35.4382 83.1534 36.87 81.7093 38.4941C78.7544 36.1409 76.7354 34.7687 74.0746 33.1512C74.5827 32.4088 74.7164 31.6862 74.7164 30.6389V23.3139C72.5035 23.3139 71.2734 23.937 70.772 25.0308L70.5781 24.8386C70.5781 21.0733 71.5074 18.7267 74.6829 18.7267V12.2701C74.6829 9.75776 72.5637 9.43957 72.5637 6.82778C72.5637 3.61938 76.6552 2.30686 79.2357 1.32578L79.5566 1.73677C76.9226 3.10233 76.9226 4.40159 76.9226 4.98494C76.9226 5.94613 77.2903 6.00579 78.848 7.27854C80.272 8.44523 80.5193 9.25396 80.5461 10.4273C81.3149 9.6981 83.0798 7.88178 84.5239 6.41678C86.0616 7.65639 88.7892 9.40643 90.7815 10.6792C92.1319 9.31362 94.9532 6.41678 94.9532 6.41678C96.9187 7.88178 99.9338 9.91685 102.087 11.2228ZM95.6351 33.9401V13.3506C94.5454 12.7474 92.7804 11.5078 91.7174 10.646L91.0422 11.3487V31.2023C92.6467 32.0641 94.3782 33.2374 95.468 34.066L95.6351 33.9401ZM85.1724 33.9732V13.3241C84.0492 12.754 82.4447 11.5409 81.2882 10.6858L80.5795 11.3553V31.2089C81.7695 31.8785 83.9824 33.244 85.0387 34.1058L85.1724 33.9732ZM63.672 24.2022C60.8174 25.9854 54.62 29.5186 54.62 29.5186V31.7127C55.9704 32.4419 57.5415 33.37 59.2062 34.5101C59.5939 34.066 60.5165 33.1446 61.0981 32.5082L61.7065 33.0518C59.0457 35.6636 58.6446 36.1873 56.3782 38.4941C54.1988 36.9695 51.177 34.9941 48.9975 33.6882C49.285 33.0849 49.4454 32.8595 49.4454 31.5868V21.2125C51.2438 20.4171 54.5464 18.667 58.0162 16.2143C59.6942 18.8924 61.8469 21.597 63.672 24.2022ZM58.444 26.3367C57.2273 24.1094 56.3983 22.5251 54.7202 20.0061H54.6267V28.6303L58.444 26.3367ZM31.6822 6.00579C31.1808 10.3411 29.0415 13.2313 25.2977 13.3904V32.7336C27.31 31.8586 29.0348 30.2411 30.7195 27.868L31.1675 28.4115C29.2086 35.2194 24.8832 38.5008 19.6485 38.5008C10.8571 38.5008 6.52496 32.6408 6.52496 25.3291C6.52496 17.149 14.133 13.3639 19.4546 12.2502C17.0144 11.2957 15.9715 10.9443 13.9658 10.9443C11.2917 10.9443 8.28323 12.6281 8.12278 16.3867L7.38738 16.0022C7.67486 10.5267 10.1485 5.5948 15.6038 5.5948C20.7181 5.5948 23.272 9.16116 26.8019 9.16116C29.71 9.16116 30.4588 7.72931 31.1675 5.5948L31.6822 6.00579ZM24.6559 32.9855V13.3838C24.1478 13.3771 23.994 13.3506 23.3388 13.3506V27.3509C21.3198 28.4646 20.1632 29.1672 17.6295 30.4996C17.7231 29.671 17.9169 28.4977 17.9169 27.1587V13.5097C14.7414 14.6897 12.1742 17.9312 12.1742 23.9171C12.1742 29.7373 15.4166 33.4959 21.4469 33.4959C22.6034 33.4959 23.6664 33.3236 24.6559 32.9855ZM433.163 11.3487L430.067 14.7228L426.504 11.5078L429.646 8.07401L433.163 11.3487ZM453.841 33.9069C452.59 35.3056 451.18 36.8634 449.762 38.4875C447.677 37.8511 445.751 36.8502 445.751 33.9666V21.9417C444.628 21.2125 443.438 20.2845 442.863 19.8072C442.288 20.3508 441.613 20.954 441.613 20.954V34.1588C442.161 34.5433 442.322 34.6692 442.897 34.9874C441.9 36.0083 440.684 37.4666 439.781 38.5206C438.852 37.8511 437.18 36.6778 435.736 35.7497C436.184 35.3056 436.479 34.5764 436.479 33.4893V22.3527C436.479 20.9209 435.93 20.3773 435.322 19.9994L434.266 21.1131L433.784 20.7021C433.784 20.7021 436.739 17.3943 437.729 16.2143C439.494 16.6916 441.165 18.0307 441.513 20.1254C442.729 18.9786 444.207 17.5136 445.363 16.2143C447.035 17.4539 449.408 18.9852 451.494 19.9994C451.14 20.4104 450.946 21.239 450.946 22.83V32.9192C450.946 33.8406 451.3 34.4439 452.163 34.6361C452.45 34.2516 453.219 33.4296 453.219 33.4296L453.841 33.9069ZM433.918 34.9874C432.561 36.3994 431.444 37.692 430.776 38.4875C430.04 37.9771 428.276 36.6712 426.798 35.7497C427.213 35.2062 427.5 34.7024 427.5 33.1114V22.8698C427.5 20.8943 427.085 20.4171 426.31 20.0392C425.989 20.3574 425.601 20.6756 425.28 21.0866L424.832 20.5762C426.023 19.3697 427.787 17.3015 428.75 16.1878C431.284 16.9501 432.634 18.7996 432.634 21.186V34.1654C433.049 34.5101 433.497 34.7024 433.918 34.9874ZM425.026 30.2146C425.026 33.3965 422.653 35.0206 419.504 37.2147C416.67 39.1968 414.978 40.5491 414.978 41.6362C414.978 41.961 415.319 42.2527 415.714 42.2726C416.335 42.3058 416.389 41.7622 417.158 41.7622C417.806 41.7622 418.535 42.266 418.535 43.0349C418.535 44.1884 417.418 44.8513 416.322 44.8513C415.353 44.8513 414.142 44.069 414.142 42.5311C414.142 41.0595 414.918 39.7602 415.874 38.4875C417.572 36.227 419.564 33.6815 419.564 31.5536C419.564 30.0887 418.668 29.0081 416.904 29.0081C416.068 29.0081 414.911 29.3926 414.243 29.7108L413.922 29.2998C414.818 28.5242 418.822 24.5005 419.765 23.6984C417.806 22.651 416.268 20.6093 414.183 20.2911C414.183 20.2911 413.668 20.8943 413.026 21.5307L412.511 21.1462C414.403 19.1112 415.914 17.4539 416.937 16.2475C419.056 16.6319 421.717 19.6813 424.124 20.5762C422.305 22.1008 420.273 24.1094 418.923 25.4153C422.232 25.6672 425.026 27.0327 425.026 30.2146ZM321.823 33.2109C321.823 33.2109 318.454 37.0954 317.424 38.4941C316.335 37.6058 313.253 35.9155 311.361 34.8681C311.675 34.245 311.809 33.9268 311.809 32.548V20.2248H309.081C309.529 19.3365 309.756 18.8858 310.237 18.0638H311.809V13.1319C313.54 12.1773 315.913 10.7786 317.037 9.85719V18.0969H321.569C321.121 18.9852 320.48 20.2315 320.48 20.2315H316.983V32.4485C317.946 33.0518 319.102 33.5622 320.159 34.0395C320.292 33.9003 321.215 32.7336 321.215 32.7336L321.823 33.2109ZM468.475 24.2022C465.62 25.9854 459.811 29.5186 459.811 29.5186V31.7127C461.161 32.4419 462.732 33.37 464.397 34.5101C464.785 34.066 465.707 33.1446 466.289 32.5082L466.897 33.0518C464.236 35.6636 463.835 36.1873 461.569 38.4941C459.389 36.9695 456.368 34.9941 454.188 33.6882C454.476 33.0849 454.636 32.8595 454.636 31.5868V21.2125C456.435 20.4171 459.737 18.667 463.207 16.2143C464.885 18.8924 466.65 21.597 468.475 24.2022ZM463.628 26.3367C462.411 24.1094 461.582 22.5251 459.904 20.0061H459.811V28.6303L463.628 26.3367Z" fill="white"/><path d="M414.276 33.9069L410.232 38.4875C407.671 37.8445 406.247 36.3729 406.026 34.5433C404.776 35.8823 403.132 37.5793 402.303 38.4875C400.444 36.9297 398.198 35.531 396.299 34.6361C396.587 33.9069 396.62 32.9192 396.62 32.5347V21.3053C400.023 19.9066 401.34 19.078 404.482 16.2143C405.766 17.202 410.131 19.4294 411.669 19.9663C411.415 20.4436 411.121 21.1131 411.121 22.5781V32.4419C411.121 33.9666 411.856 34.4173 412.658 34.7024L413.748 33.4628L414.276 33.9069ZM405.966 33.6219V22.3593C404.716 21.7561 403.011 20.7684 401.794 19.721V32.5745C402.69 32.9855 404.041 33.7213 405.131 34.4836L405.966 33.6219ZM395.376 36.3596C395.376 37.4468 394.755 38.1428 393.484 39.4487C390.503 42.498 388.19 44.891 388.19 44.891C387 43.8702 385.074 43.0482 382.861 43.0482C381.257 43.0482 379.318 43.3929 377.439 44.8645L377.085 44.5795C378.496 42.9024 383.022 38.4079 384.018 37.4202C382.32 36.1143 380.294 35.1001 378.369 34.2384C378.69 33.887 378.85 33.0916 378.85 32.4883V21.2788C382.153 19.4625 383.249 18.7996 386.619 16.221C388.577 17.6528 392.428 19.847 393.839 20.5828C393.518 21.186 393.291 21.9218 393.291 22.777V31.6531C393.291 33.6152 395.376 33.9931 395.376 36.3596ZM388.123 33.2705V22.6775C386.578 21.7694 385.041 20.7684 383.984 19.9398V31.9381C385.074 32.4817 386.585 33.4959 387.354 34.0991L388.123 33.2705ZM392.201 39.3161C392.201 37.9439 388.156 36.7706 388.156 34.0991C387.441 34.9874 384.372 37.9174 382.347 40.0784L382.44 40.1447C383.811 39.3824 385.201 38.8388 387.127 38.8388C389.085 38.8388 390.53 39.6012 391.526 40.5557C391.88 40.1779 392.201 39.7205 392.201 39.3161Z" fill="white"/><path d="M377.981 34.0329L374.037 38.4875C371.476 37.8445 370.279 36.3729 370.059 34.5433C368.809 35.8823 367.164 37.5793 366.335 38.4875C364.497 36.9496 362.277 35.5641 360.398 34.6692C359.315 35.9221 357.804 37.639 357.029 38.4875C353.111 37.8843 351.32 35.4978 351.32 33.1711V13.4169C350.711 12.9065 348.572 11.5144 347.402 10.6792L346.727 11.2824V33.5224C347.275 33.9069 347.656 34.192 348.204 34.477C347.489 35.2393 345.797 37.0888 344.581 38.4875C342.876 37.2413 341.679 36.4458 340.021 35.3388C340.89 34.5433 340.857 32.8993 340.857 31.1095V13.3241C339.319 12.3696 338.323 11.7 336.973 10.6858L336.264 11.415V33.5622C336.264 33.5622 337.293 34.2649 337.741 34.4836C336.812 35.4382 335.268 37.0291 334.118 38.5273C332.547 37.3473 330.301 35.7564 329.558 35.3454C330.267 34.7687 330.394 33.2838 330.394 32.3889V23.3139C328.181 23.3139 327.172 23.937 326.67 25.0308L326.443 24.8717C326.443 21.1065 327.212 18.793 330.387 18.793V12.9993C328.977 12.0447 328.108 11.6337 327.051 10.9311C326.604 11.2824 326.249 11.9188 325.895 12.2701L325.32 11.7597C327.118 9.72461 328.495 8.00772 329.906 6.35049C331.156 7.39786 334.466 9.43957 336.197 10.4538C337.554 9.10812 339.246 7.42438 340.208 6.4433C342.267 7.98121 344.48 9.29373 346.533 10.6129C347.756 9.45283 349.133 7.98121 350.638 6.4433C352.697 8.18671 355.739 9.97651 357.858 11.2161C357.31 11.8525 357.216 13.0921 357.216 14.524V30.8775C357.216 33.0385 358.406 33.834 359.85 34.1853L360.238 33.834C360.492 33.4827 360.652 32.6806 360.652 32.5281V21.3053C364.055 19.9066 365.372 19.078 368.514 16.2143C369.798 17.202 374.164 19.4294 375.701 19.9663C375.447 20.4436 375.153 21.1131 375.153 22.5781V32.4419C375.153 33.9666 375.668 34.4173 376.47 34.7024L377.466 33.5887L377.981 34.0329ZM369.992 33.6219V22.3593C368.742 21.7561 367.037 20.7684 365.82 19.721V32.5745C366.716 32.9855 368.067 33.7213 369.156 34.4836L369.992 33.6219ZM309.248 26.8471C309.048 27.1388 309.021 27.5763 309.021 28.153V33.37C306.166 34.1986 303.499 35.7232 300.998 38.4941C300.102 38.1096 298.953 37.8577 298.043 37.8577C296.312 37.8577 294.607 38.4941 294.065 39.1305L293.711 38.8123L300.677 29.2335C299.287 28.3983 296.726 26.9996 294.834 26.1444C294.995 25.7931 295.028 25.3954 295.028 24.6795V21.0534C298.237 19.7807 300.256 18.256 302.342 16.1878C303.693 17.1092 306.447 18.1897 309.208 18.256L309.241 18.3488L304.749 24.4872C305.651 25.0639 307.61 26.0782 309.248 26.8471ZM306.393 21.3716C305.832 21.4578 304.983 21.3716 304.435 21.3716C302.944 21.3716 301.627 20.9606 300.196 19.6879V23.6321C300.951 23.9569 302.79 24.9247 303.532 25.3821L306.393 21.3716ZM303.826 34.6427V29.3263C303.151 29.0081 302.315 28.5971 301.968 28.4049C301.573 28.975 299.474 31.7658 297.89 34.066C298.518 33.7611 299.848 33.5887 300.524 33.5887C301.426 33.5887 302.797 33.9401 303.826 34.6427ZM293.297 20.6093C293.143 20.9076 292.748 21.5639 292.748 23.758V33.1114C290.088 34.477 286.33 36.9297 284.759 38.4875C283.67 37.4998 279.558 34.7355 277.86 33.7147C278.214 33.2374 278.308 32.4088 278.308 31.8983V21.2457C280.782 20.0657 284.051 17.8384 286.137 16.221C288.069 17.6462 291.498 19.5553 293.297 20.6093ZM287.587 34.6096V22.7372C286.397 22.008 284.505 20.7352 283.482 19.9398V31.9381C284.412 32.4419 286.143 33.4628 287.587 34.6096ZM276.102 11.3156C275.781 11.7597 275.46 12.6082 275.46 14.0533V32.5745C273.307 33.8141 270.259 36.2337 268.654 38.4278C267.05 37.5992 265.479 36.87 264.001 36.6447V43.9298C262.972 42.9421 262.945 42.6902 262.109 41.9544C260.571 42.9421 258.258 44.4999 256.366 45.8986V35.7829C255.136 35.9751 254.508 36.227 253.351 36.9297L253.157 36.8037C253.512 33.8141 254.374 32.3491 256.366 31.5868L256.333 23.3139C254.12 23.3139 252.883 23.937 252.388 25.0308L252.195 24.8385C252.195 21.0733 253.124 18.793 256.299 18.793V12.9728L252.963 10.8118L251.874 12.0845L251.426 11.6735C252.937 9.85719 254.635 7.8884 255.885 6.35712C256.62 6.96036 262.176 10.4604 262.176 10.4604L263.426 9.59866V6.48307H263.974V9.22082C265.291 8.31265 266.669 7.35146 267.859 6.48307C269.49 7.84863 274.27 10.4604 276.102 11.3156ZM269.583 32.8264V13.6423C268.233 12.88 265.539 11.0637 263.968 9.98314V31.0764C265.666 31.3614 268.808 32.4751 269.456 32.9192L269.583 32.8264ZM263.426 10.361L262.236 11.1896V41.1921L263.393 42.372L263.426 10.361Z" fill="white"/></svg>