<svg viewBox="0 0 698 105" fill="none" xmlns="http://www.w3.org/2000/svg"><g clip-path="url(#washington-post_svg__clip0_2_2997)"><path d="M39.256 32.045v36.652c4.706-2.803 7.01-6.81 8.712-12.117l1.202.601C48.068 70.4 38.855 83.218 24.835 83.218 10.815 83.218 0 72.703 0 55.879 0 43.061 7.71 35.15 18.727 28.24a16.13 16.13 0 0 0-4.407-.6c-7.21 0-11.416 4.906-11.416 9.913H1.502c-.083-.697-.117-1.4-.1-2.103 0-9.313 5.508-19.728 16.924-19.728 7.31 0 12.918 6.71 21.43 6.71 4.306 0 6.71-1.602 8.412-5.308h1.202c-.1 6.51-2.003 12.819-10.114 14.921Zm-19.027-3.304c-5.108 5.307-10.115 10.915-10.115 22.231 0 6.21 1.903 12.418 6.61 16.424l3.104-1.703V40.357l-3.204 1.703-1.002-1.603 15.021-8.412c-3.805-.8-6.91-2.303-10.414-3.304Zm17.124 3.705c-.765.085-1.534.119-2.303.1-1.346.02-2.69-.114-4.006-.4v29.541l-12.818 7.01a15.592 15.592 0 0 0 9.914 3.005 22.613 22.613 0 0 0 9.213-2.003V32.446Zm44.062 9.213v34.349c0 9.613-8.522 16.133-18.025 18.025l-.6-1.001c4.706-2.303 7.81-6.42 7.81-11.426V45.765l-4.907-4.507-2.603 2.604v27.139l3.004 2.804v.4l-8.112 8.623-9.313-8.523v-.4l3.605-3.806V25.837L62.89 14.52l.2.1v26.637l8.713-9.213 8.712 7.912 2.704-2.604 1.312 1.302-3.115 3.004ZM98.05 62.09v4.505l9.013 7.11 7.01-7.31 1.302 1.302-14.231 15.222-12.808-10.215-2.804 2.804-1.201-1.302 3.104-3.204V45.865l18.927-13.82 10.515 16.324-18.827 13.72Zm.2-22.633-.2.1v20.129l8.712-6.41-8.512-13.819Zm82.007 43.371-13.92-12.017-10.615 12.017L141.3 70.4V50.772h-2.804a3.895 3.895 0 0 0-4.105 3.505h-1.002a15.917 15.917 0 0 1-.501-3.805c0-2.604 1.102-9.414 8.412-9.414V25.837c0-5.909-3.905-6.21-3.905-11.316 0-5.709 5.408-11.016 15.322-14.521l.901.801c-3.305 1.602-6.009 3.605-6.009 7.911 0 6.61 6.409 4.907 6.409 15.322v4.006l11.717-12.318 12.318 12.118 11.616-12.118 11.216 11.016V63.79l-20.629 19.038Zm-14.621-49.98-7.01-6.91-4.607 4.706v34.35l8.513 7.31 3.104-3.505V32.847Zm22.632-1.302-5.608-5.608-4.306 4.306v34.649l9.814 8.612.1-.1v-41.86Zm44.864 51.282-9.414-8.622h-.2l-8.312 8.623-10.114-8.923-2.303 2.303-1.302-1.302 2.904-3.004V45.565l19.027-13.62 10.415 8.212 2.804-2.804 1.502 1.302-3.605 3.405v27.138l4.606 4.206 2.904-3.004 1.502 1.402-10.414 11.025Zm-9.414-37.463-8.311-6.509-.201.2v29.242l6.109 5.407 2.403-2.303V45.364Zm40.658 4.807h9.413v21.43l-15.922 11.227a11.536 11.536 0 0 0-8.813-4.116c-3.004 0-5.407 1.402-7.811 4.005l-1.402-.5 13.82-19.828h-8.512V43.761l16.623-11.717c2.003 1.603 3.605 2.604 6.209 2.604 2.55.085 5.055-.691 7.11-2.203l1.002.701-11.717 17.024Zm-1.402 8.813h-4.707l-11.115 15.922.1.2a12.375 12.375 0 0 1 7.61-2.503 10.409 10.409 0 0 1 8.012 3.805l.1-.09V58.984Zm6.409-19.628a9.744 9.744 0 0 1-6.91 2.303 8.934 8.934 0 0 1-6.309-2.904l-.2.1v14.62h3.805l9.714-14.019-.1-.1Zm40.057 2.303v34.349c0 9.613-8.522 16.133-18.026 18.025l-.601-1.001c4.707-2.303 7.812-6.42 7.812-11.426V45.765l-4.907-4.507-2.604 2.604v27.139l3.004 2.804v.4l-8.111 8.623-9.314-8.523v-.4l3.606-3.806V25.837l10.615-11.316.2.1v26.637l8.712-9.213 8.723 7.912 2.703-2.604 1.302 1.302-3.114 3.004Zm19.628 41.169-8.312-7.621-2.804 2.804-1.302-1.302 3.305-3.405v-28.54l-3.605-3.305-2.704 2.603-1.302-1.301 10.114-10.716 7.611 6.91 2.704-2.804 1.402 1.402-3.405 3.405v28.64l4.206 3.906 3.004-3.104 1.302 1.402-10.214 11.025Zm-2.904-51.684-8.212-7.51 7.511-8.012 8.211 7.51-7.51 8.012Zm46.165 51.684-8.712-7.922V45.665l-4.707-4.407-3.405 3.505v26.138l3.105 2.904v.4l-8.212 8.623-9.313-8.523v-.3l3.605-3.805V44.964l-4.106-3.706-3.004 3.005-1.402-1.302 10.214-10.916 9.113 8.112v2.003l9.514-10.114 8.712 7.81 2.904-2.904 1.302 1.402-3.505 3.505V69.9l3.906 3.705 3.304-3.404 1.202 1.301-10.515 11.326Zm43.061-41.059v33.938c0 5.208 2.904 5.008 2.904 8.913 0 4.516-6.509 8.722-16.523 16.233-3.305-3.605-5.608-5.107-8.713-5.107a19.88 19.88 0 0 0-10.715 3.605l-1.001-.801 13.719-16.133-9.012-7.1-2.905 2.894-1.301-1.302 3.404-3.505v-27.84l19.027-13.619 10.215 8.012 3.004-2.904 1.302 1.301-3.405 3.415Zm-7.711 41.77c-2.503-1.613-3.104-3.315-3.104-7.621v-1.513l-16.123 18.727.1.1c3.205-1.903 5.608-3.104 10.315-3.104 4.005 0 6.91 1.702 9.513 4.005 1.903-1.602 3.305-3.204 3.305-5.708 0-1.992-1.502-3.304-4.006-4.897v.01Zm-3.104-38.175-8.312-6.509-.2.2V69.8l5.908 4.606 2.604-3.004V45.364Zm31.545 37.464-8.813-6.92-2.704 2.704-1.302-1.292 3.105-3.215V39.456h-5.808l-.201-.2 3.505-5.208h2.504v-6.71l10.615-11.315.2.2v17.825h8.011l.201.2-3.505 5.208h-4.707v30.343l4.807 3.705 3.305-3.405 1.301 1.402-10.514 11.326Zm43.772-40.168V70.4l-16.924 12.518-12.328-9.314-2.804 2.804-1.302-1.302 3.205-3.304V44.763l17.735-12.718 11.416 8.913 2.904-2.904 1.302 1.402-3.204 3.204Zm-10.816 3.005-8.422-6.61-.09.1v29.843l8.512 6.409V45.665Zm50.472 37.052-8.712-7.91V45.564l-4.707-4.407-3.415 3.505V70.8l3.104 2.904v.401l-8.211 8.622-9.313-8.522v-.3l3.605-3.806V44.864l-4.106-3.706-3.004 3.005-1.402-1.302L493.6 31.945l9.113 8.112v2.003l9.514-10.115 8.712 7.811 2.904-2.904 1.302 1.402-3.505 3.505V69.8l3.905 3.705 3.305-3.405 1.202 1.302-10.505 11.316Zm61.477.11a12.927 12.927 0 0 0-6.309-4.616v20.84l-.2.1-5.508-5.108-11.616 10.716-.201-.101V77.71a18.853 18.853 0 0 0-10.214 6.62l-.801-.501c.701-7.721 4.506-13.43 11.015-15.632V48.669h-2.103a5.258 5.258 0 0 0-5.307 4.206h-1.202a12.3 12.3 0 0 1-.701-4.606c0-4.907 3.305-8.613 8.712-8.613h.601V28.841l-3.605-3.205-2.804 2.804-1.402-1.302 11.116-11.416 9.413 8.612v9.814l2.904-3.104V19.528h1.903v9.513l12.518-13.319 11.316 10.315v43.562l-17.525 13.228Zm-8.212-49.88-2.904 3.004v56.39l2.904 2.704V32.947Zm13.119-2.304-5.908-5.407-5.308 5.608v36.351c4.707.601 8.212 2.203 11.116 5.308l.1-.1v-41.76ZM634.7 42.66V70.4l-16.924 12.518-12.317-9.314-2.804 2.804-1.302-1.302 3.204-3.304V44.763l17.726-12.718 11.416 8.913 2.904-2.904 1.302 1.402-3.205 3.204Zm-10.815 3.005-8.412-6.61-.1.1v29.843l8.512 6.409V45.665Zm35.65 4.506h9.414v21.43l-15.923 11.227a11.532 11.532 0 0 0-8.812-4.116c-3.005 0-5.408 1.402-7.811 4.005l-1.402-.5 13.819-19.828h-8.512V43.761l16.624-11.717c2.003 1.603 3.605 2.604 6.209 2.604 2.553.085 5.06-.691 7.12-2.203l1.001.701-11.727 17.024Zm-1.402 8.813h-4.706l-11.116 15.922.1.2a12.378 12.378 0 0 1 7.611-2.503 10.415 10.415 0 0 1 8.011 3.805l.1-.09V58.984Zm6.42-19.628a9.796 9.796 0 0 1-6.92 2.303 8.939 8.939 0 0 1-6.309-2.904l-.2.1v14.62h3.805l9.714-14.019-.09-.1Zm22.932 43.471-8.812-6.92-2.714 2.705-1.302-1.292 3.104-3.215V39.456h-5.808l-.2-.2 3.505-5.208h2.503v-6.71l10.625-11.315.201.2v17.825h8.011l.2.2-3.505 5.208h-4.706v30.343l4.806 3.705 3.305-3.405L698 71.501l-10.515 11.326Z" fill="black"/></g><defs><clipPath id="washington-post_svg__clip0_2_2997"><path fill="white" transform="scale(1.00142)" d="M0 0h697.01v104.61H0z"/></clipPath></defs></svg>