<svg viewBox="0 0 475 48" fill="none" xmlns="http://www.w3.org/2000/svg"><path d="M248.35 33.907c-1.25 1.399-2.66 2.956-4.078 4.58-2.086-.636-4.265-1.663-4.265-4.52V21.942a34.404 34.404 0 0 1-2.888-2.135c-.582.544-1.25 1.147-1.25 1.147v13.205c.548.384.708.51 1.283.828-.996 1.021-2.213 2.48-3.115 3.534-.929-.67-2.601-1.843-4.045-2.771.448-.444.736-1.174.736-2.26V22.352c0-1.432-.549-1.976-1.157-2.354l-.996 1.114-.448-.444s2.855-3.275 3.851-4.455c1.765.478 3.436 1.817 3.784 3.911 1.217-1.146 2.694-2.611 3.851-3.91 1.671 1.239 4.044 2.77 6.13 3.784-.354.411-.548 1.24-.548 2.831v10.09c0 .92.735 1.557 1.477 1.716.288-.384 1.057-1.206 1.057-1.206l.621.477Zm-37.03-.696s-3.37 3.884-4.399 5.283c-1.09-.888-4.172-2.578-6.064-3.626.314-.623.448-.941.448-2.32V20.55h-2.922c.482-1.048.863-1.658 1.351-2.48h1.571V13.14c1.805-1.1 4.105-2.354 5.228-3.275v8.233h4.687a91.4 91.4 0 0 0-1.251 2.453h-3.496v11.899c.963.603 2.119 1.113 3.175 1.59.134-.139 1.057-1.305 1.057-1.305l.615.477Zm-49.914-21.862-3.262 3.374-3.557-3.215 3.396-3.434 3.423 3.275Zm20.518 22.75c-1.25 1.399-2.534 2.771-3.944 4.389-2.086-.637-4.139-1.664-4.139-4.521V21.942a34.404 34.404 0 0 1-2.888-2.135c-.581.544-1.25 1.147-1.25 1.147v13.205c.548.384.709.51 1.284.828-.997 1.021-2.213 2.48-3.116 3.534-.929-.67-2.6-1.843-4.044-2.771.447-.444.735-1.174.735-2.26V22.352c0-1.432-.548-1.976-1.157-2.354l-1.123 1.24-.481-.477s3.015-3.374 4.011-4.548c1.765.478 3.43 1.817 3.784 3.911 1.217-1.146 2.694-2.611 3.851-3.91 1.671 1.239 4.045 2.77 6.13 3.784-.354.411-.548 1.24-.548 2.831v10.09c0 .92.609 1.557 1.351 1.716.287-.384.929-1.02.929-1.02l.615.483Zm-19.929.888a71.544 71.544 0 0 0-3.142 3.5c-.743-.51-2.501-1.816-3.978-2.737.414-.544.708-1.048.708-2.639V22.87c0-1.976-.414-2.453-1.19-2.83-.321.317-.768.702-1.089 1.113l-.448-.444c1.19-1.207 3.015-3.407 3.978-4.521 2.533.762 3.884 2.612 3.884 4.998v12.98c.414.344.862.536 1.277.821Zm-9.788-14.98c-.24.456-.481 1.08-.481 1.75v12.442c0 5.05-4.814 10.182-9.948 10.659l-.16-.252c3.302-1.525 4.94-4.534 4.94-7.16V21.943c-.448-.285-2.28-1.525-2.888-2.035-.415.41-.836.762-1.284 1.272v12.827c.676.544 1.217.862 1.672 1.114-1.364 1.412-2.501 2.546-3.269 3.434-1.378-.988-2.922-1.943-4.206-2.83.388-.412.676-1.008.676-2.294V8.419c1.925-.637 3.402-1.399 5.134-2.738v14.285s2.246-2.101 3.784-3.785c1.992 1.531 4.653 3.122 6.03 3.825Zm-104.961 0c-.24.456-.481 1.08-.481 1.75v12.442c0 5.05-4.814 10.182-9.948 10.659l-.16-.252c3.309-1.525 4.94-4.534 4.94-7.16V21.943c-.448-.285-2.28-1.525-2.888-2.035-.415.41-.836.762-1.284 1.272v12.827c.675.544 1.217.862 1.671 1.114-1.363 1.412-2.5 2.546-3.275 3.434a87.107 87.107 0 0 0-4.206-2.83c.388-.412.676-1.008.676-2.294V8.419c1.925-.637 3.403-1.399 5.134-2.738v14.285s2.246-2.101 3.784-3.785c1.992 1.531 4.653 3.122 6.037 3.825Zm180.152.602c-.227.444-.548.955-.548 3.149v9.353c-2.534 1.114-6.13 3.627-7.989 5.377-1.09-.988-5.201-3.752-6.899-4.773.354-.478.448-1.306.448-1.817V21.246c2.634-1.114 5.809-3.215 7.828-5.025 1.926 1.425 5.074 3.467 7.16 4.388Zm-5.716 14V22.738c-1.19-.729-3.082-2.002-4.105-2.797v11.998c.93.504 2.661 1.525 4.105 2.672Zm-22.202 1.75c0 1.088-.622 1.784-1.892 3.09-2.988 3.049-5.295 5.442-5.295 5.442-1.19-1.02-3.115-1.843-5.328-1.843-1.605 0-3.544.345-5.422 1.816l-.354-.284c1.41-1.678 5.936-6.172 6.932-7.16-1.698-1.306-3.723-2.32-5.649-3.182.321-.351.482-1.146.482-1.75v-11.21c3.302-1.816 4.399-2.478 7.768-5.057 1.959 1.432 5.81 3.626 7.22 4.362a4.633 4.633 0 0 0-.548 2.194v8.876c0 1.962 2.086 2.34 2.086 4.707Zm-7.254-3.089V22.677c-1.544-.908-3.082-1.909-4.138-2.737v11.998c1.09.544 2.567 1.525 3.336 2.135l.802-.803Zm4.078 6.046c0-1.372-4.044-2.545-4.044-5.217-.716.888-3.758 3.752-5.777 5.92l.067.126c1.371-.763 2.761-1.306 4.687-1.306 1.959 0 3.403.762 4.399 1.717.347-.378.668-.835.668-1.24Zm-61.071-12.469c-.201.292-.227.73-.227 1.306v5.217c-2.855.829-5.523 2.353-8.023 5.124-.896-.384-2.046-.636-2.955-.636-1.731 0-3.436.636-3.978 1.273l-.354-.319 6.966-9.578c-1.39-.836-3.951-2.234-5.843-3.09.161-.35.194-.749.194-1.465v-3.626c3.209-1.272 5.228-2.797 7.314-4.865 1.35.921 4.105 2.002 6.866 2.068l.033.093-4.492 6.138c.909.577 2.861 1.591 4.499 2.36Zm-2.855-5.475c-.561.086-1.41 0-1.959 0-1.49 0-2.807-.411-4.238-1.684v3.944c.755.325 2.587 1.293 3.336 1.75l2.861-4.01Zm-2.567 13.27v-5.316a48.615 48.615 0 0 1-1.865-.921c-.388.57-2.494 3.36-4.078 5.661.628-.312 1.959-.477 2.634-.477.909 0 2.279.351 3.309 1.054Z" fill="white"/><path d="m121.561 33.907-4.044 4.58c-2.561-.643-3.985-2.114-4.206-3.944-1.25 1.34-2.894 3.036-3.723 3.944-1.859-1.557-4.105-2.956-6.004-3.85.288-.73.321-1.718.321-2.102v-11.23c3.403-1.398 4.72-2.227 7.862-5.09 1.284.987 5.649 3.214 7.187 3.751-.254.478-.548 1.147-.548 2.612v9.864c0 1.525.735 1.975 1.537 2.26l1.09-1.24.528.445Zm-8.31-.285V22.359c-1.25-.603-2.955-1.59-4.171-2.638v12.854a23.603 23.603 0 0 1 3.336 1.909l.835-.862Zm-11.164-22.4c-.288.385-.575 1.207-.575 2.454v11.17c0 4.387-.836 6.012-4.493 9.067-2.066 1.73-3.724 3.468-4.907 4.581-1.41-1.339-3.69-2.956-6.164-4.362a70.906 70.906 0 0 0-4.239 4.362c-2.955-2.353-4.974-3.725-7.634-5.343.508-.742.641-1.465.641-2.512v-7.325c-2.212 0-3.443.623-3.944 1.717l-.194-.192c0-3.766.93-6.112 4.105-6.112V12.27c0-2.512-2.12-2.83-2.12-5.442 0-3.209 4.092-4.521 6.673-5.502l.32.41c-2.633 1.366-2.633 2.666-2.633 3.249 0 .961.367 1.02 1.925 2.294 1.424 1.166 1.671 1.975 1.698 3.148.769-.729 2.534-2.545 3.978-4.01 1.538 1.24 4.265 2.99 6.257 4.262 1.35-1.365 4.172-4.262 4.172-4.262a104.2 104.2 0 0 0 7.134 4.806ZM95.635 33.94V13.35c-1.09-.603-2.855-1.842-3.918-2.704l-.675.703v19.853c1.605.862 3.336 2.035 4.426 2.864l.167-.126Zm-10.463.033V13.324c-1.123-.57-2.727-1.783-3.884-2.638l-.709.67v19.853c1.19.67 3.403 2.035 4.46 2.897l.133-.133Zm-21.5-9.77c-2.855 1.782-9.052 5.316-9.052 5.316v2.194a51.21 51.21 0 0 1 4.586 2.797c.388-.444 1.31-1.365 1.892-2.002l.608.544c-2.66 2.612-3.061 3.135-5.328 5.442-2.18-1.525-5.201-3.5-7.38-4.806.287-.603.447-.829.447-2.101V21.212c1.799-.795 5.101-2.545 8.571-4.998 1.678 2.678 3.83 5.383 5.656 7.988Zm-5.228 2.134c-1.217-2.228-2.046-3.812-3.724-6.33h-.093v8.623l3.817-2.293ZM31.682 6.006c-.501 4.335-2.64 7.225-6.384 7.384v19.344c2.012-.875 3.737-2.493 5.422-4.866l.448.544c-1.96 6.807-6.285 10.089-11.52 10.089-8.79 0-13.123-5.86-13.123-13.172 0-8.18 7.608-11.965 12.93-13.079-2.44-.954-3.483-1.306-5.49-1.306-2.673 0-5.682 1.684-5.842 5.443l-.736-.385c.288-5.475 2.762-10.407 8.217-10.407 5.114 0 7.668 3.566 11.198 3.566 2.908 0 3.657-1.432 4.366-3.566l.514.41Zm-7.026 26.98V13.384c-.508-.007-.662-.033-1.317-.033v14c-2.02 1.114-3.176 1.816-5.71 3.149.094-.829.288-2.002.288-3.341v-13.65c-3.176 1.18-5.743 4.422-5.743 10.408 0 5.82 3.243 9.579 9.273 9.579 1.156 0 2.22-.172 3.209-.51Zm408.507-21.637-3.096 3.374-3.563-3.215 3.142-3.434 3.517 3.275Zm20.678 22.558c-1.251 1.399-2.661 2.956-4.079 4.58-2.085-.636-4.011-1.637-4.011-4.52V21.942a34.404 34.404 0 0 1-2.888-2.135c-.575.544-1.25 1.147-1.25 1.147v13.205c.548.384.709.51 1.284.828-.997 1.021-2.213 2.48-3.116 3.534-.929-.67-2.601-1.843-4.045-2.771.448-.444.743-1.174.743-2.26V22.352c0-1.432-.549-1.976-1.157-2.354l-1.056 1.114-.482-.41s2.955-3.309 3.945-4.489c1.765.478 3.436 1.817 3.784 3.911 1.216-1.146 2.694-2.611 3.85-3.91 1.672 1.239 4.045 2.77 6.131 3.784-.354.411-.548 1.24-.548 2.831v10.09c0 .92.354 1.524 1.217 1.716.287-.384 1.056-1.206 1.056-1.206l.622.477Zm-19.923 1.08a71.544 71.544 0 0 0-3.142 3.5c-.736-.51-2.5-1.816-3.978-2.737.415-.544.702-1.048.702-2.639V22.87c0-1.976-.415-2.453-1.19-2.83-.321.317-.709.636-1.03 1.047l-.448-.51c1.191-1.207 2.955-3.276 3.918-4.39 2.534.763 3.884 2.613 3.884 4.999v12.98c.415.344.863.536 1.284.821Zm-8.892-4.772c0 3.182-2.373 4.806-5.522 7-2.834 1.982-4.526 3.334-4.526 4.421 0 .325.341.617.736.637.621.033.675-.51 1.444-.51.648 0 1.377.503 1.377 1.272 0 1.153-1.117 1.816-2.213 1.816-.969 0-2.18-.782-2.18-2.32 0-1.471.776-2.77 1.732-4.044 1.698-2.26 3.69-4.806 3.69-6.933 0-1.465-.896-2.546-2.66-2.546-.836 0-1.993.385-2.661.703l-.321-.411c.896-.776 4.9-4.8 5.843-5.602-1.959-1.047-3.497-3.089-5.582-3.407 0 0-.515.603-1.157 1.24l-.515-.385c1.892-2.035 3.403-3.692 4.426-4.899 2.119.385 4.78 3.434 7.187 4.33-1.819 1.524-3.851 3.532-5.201 4.838 3.309.252 6.103 1.618 6.103 4.8ZM321.823 33.21s-3.369 3.884-4.399 5.283c-1.089-.888-4.171-2.578-6.063-3.626.314-.623.448-.941.448-2.32V20.225h-2.728c.448-.889.675-1.34 1.156-2.161h1.572v-4.932c1.731-.955 4.104-2.353 5.228-3.275v8.24h4.532c-.448.888-1.089 2.134-1.089 2.134h-3.497V32.45c.963.603 2.119 1.113 3.176 1.59.133-.139 1.056-1.305 1.056-1.305l.608.477Zm146.652-9.009c-2.855 1.783-8.664 5.317-8.664 5.317v2.194c1.35.729 2.921 1.657 4.586 2.797.388-.444 1.31-1.365 1.892-2.002l.608.544c-2.661 2.612-3.062 3.135-5.328 5.442-2.18-1.525-5.201-3.5-7.381-4.806.288-.603.448-.829.448-2.101V21.212c1.799-.795 5.101-2.545 8.571-4.998a187.437 187.437 0 0 0 5.268 7.988Zm-4.847 2.135c-1.217-2.228-2.046-3.812-3.724-6.33h-.093v8.623l3.817-2.293Z" fill="white"/><path d="m414.276 33.907-4.044 4.58c-2.561-.643-3.985-2.114-4.206-3.944-1.25 1.34-2.894 3.036-3.723 3.944-1.859-1.557-4.105-2.956-6.004-3.85.288-.73.321-1.718.321-2.102v-11.23c3.403-1.398 4.72-2.227 7.862-5.09 1.284.987 5.649 3.214 7.187 3.751-.254.478-.548 1.147-.548 2.612v9.864c0 1.525.735 1.975 1.537 2.26l1.09-1.24.528.445Zm-8.31-.285V22.359c-1.25-.603-2.955-1.59-4.172-2.638v12.854a23.553 23.553 0 0 1 3.337 1.909l.835-.862Zm-10.59 2.738c0 1.087-.621 1.783-1.892 3.089-2.981 3.049-5.294 5.442-5.294 5.442-1.19-1.02-3.116-1.843-5.329-1.843-1.604 0-3.543.345-5.422 1.816l-.354-.284c1.411-1.678 5.937-6.172 6.933-7.16-1.698-1.306-3.724-2.32-5.649-3.182.321-.351.481-1.146.481-1.75v-11.21c3.303-1.816 4.399-2.478 7.769-5.057 1.958 1.432 5.809 3.626 7.22 4.362a4.633 4.633 0 0 0-.548 2.194v8.876c0 1.962 2.085 2.34 2.085 4.707Zm-7.253-3.09V22.677c-1.545-.908-3.082-1.909-4.139-2.737v11.998c1.09.544 2.601 1.558 3.37 2.161l.769-.828Zm4.078 6.046c0-1.372-4.045-2.545-4.045-5.217-.715.888-3.784 3.818-5.809 5.98l.093.066c1.371-.763 2.761-1.306 4.687-1.306 1.958 0 3.403.762 4.399 1.717.354-.378.675-.835.675-1.24Z" fill="white"/><path d="m377.981 34.033-3.944 4.454c-2.561-.643-3.758-2.114-3.978-3.944-1.25 1.34-2.895 3.036-3.724 3.944a29.575 29.575 0 0 0-5.937-3.818 234.823 234.823 0 0 1-3.369 3.819c-3.918-.604-5.709-2.99-5.709-5.317V13.417c-.609-.51-2.748-1.903-3.918-2.738l-.675.603v22.24c.548.385.929.67 1.477.955-.715.762-2.407 2.612-3.623 4.01-1.705-1.246-2.902-2.041-4.56-3.148.869-.796.836-2.44.836-4.23V13.325c-1.538-.954-2.534-1.624-3.884-2.638l-.709.729v22.147s1.029.703 1.477.922c-.929.954-2.473 2.545-3.623 4.043-1.571-1.18-3.817-2.77-4.56-3.182.709-.576.836-2.061.836-2.956v-9.075c-2.213 0-3.222.623-3.724 1.717l-.227-.16c0-3.764.769-6.078 3.944-6.078v-5.794c-1.41-.954-2.279-1.365-3.336-2.068-.447.351-.802.988-1.156 1.34l-.575-.511c1.798-2.035 3.175-3.752 4.586-5.41 1.25 1.048 4.56 3.09 6.291 4.104a497.148 497.148 0 0 0 4.011-4.01c2.059 1.537 4.272 2.85 6.325 4.169 1.223-1.16 2.6-2.632 4.105-4.17 2.059 1.744 5.101 3.534 7.22 4.773-.548.636-.642 1.876-.642 3.308v16.354c0 2.16 1.19 2.956 2.634 3.307l.388-.351c.254-.351.414-1.153.414-1.306V21.305c3.403-1.398 4.72-2.227 7.862-5.09 1.284.987 5.65 3.214 7.187 3.751-.254.478-.548 1.147-.548 2.612v9.864c0 1.525.515 1.975 1.317 2.26l.996-1.113.515.444Zm-7.989-.411V22.359c-1.25-.603-2.955-1.59-4.172-2.638v12.854a23.492 23.492 0 0 1 3.336 1.909l.836-.862Zm-60.744-6.775c-.2.292-.227.73-.227 1.306v5.217c-2.855.829-5.522 2.353-8.023 5.124-.896-.384-2.045-.636-2.955-.636-1.731 0-3.436.636-3.978 1.273l-.354-.319 6.966-9.578c-1.39-.836-3.951-2.234-5.843-3.09.161-.35.194-.749.194-1.464v-3.627c3.209-1.272 5.228-2.797 7.314-4.865 1.351.921 4.105 2.002 6.866 2.068l.033.093-4.492 6.138c.902.577 2.861 1.591 4.499 2.36Zm-2.855-5.475c-.561.086-1.41 0-1.958 0-1.491 0-2.808-.411-4.239-1.684v3.944c.755.325 2.594 1.293 3.336 1.75l2.861-4.01Zm-2.567 13.27v-5.316a42.963 42.963 0 0 1-1.858-.921c-.395.57-2.494 3.36-4.078 5.661.628-.305 1.958-.477 2.634-.477.902 0 2.273.351 3.302 1.054ZM293.297 20.61c-.154.299-.549.955-.549 3.149v9.353c-2.66 1.366-6.418 3.819-7.989 5.377-1.089-.988-5.201-3.752-6.899-4.773.354-.478.448-1.306.448-1.817V21.246c2.474-1.18 5.743-3.408 7.829-5.025 1.932 1.425 5.361 3.334 7.16 4.388Zm-5.71 14V22.738c-1.19-.729-3.082-2.002-4.105-2.797v11.998c.93.504 2.661 1.525 4.105 2.672Zm-11.485-23.293c-.321.444-.642 1.292-.642 2.737v18.521c-2.153 1.24-5.201 3.66-6.806 5.854-1.604-.829-3.175-1.558-4.653-1.783v7.285c-1.029-.988-1.056-1.24-1.892-1.976a116.57 116.57 0 0 0-5.743 3.945V35.783c-1.23.192-1.858.444-3.015 1.147l-.194-.126c.355-2.99 1.217-4.455 3.209-5.217l-.033-8.273c-2.213 0-3.45.623-3.945 1.717l-.193-.192c0-3.766.929-6.046 4.104-6.046v-5.82l-3.336-2.161-1.089 1.273-.448-.412c1.511-1.816 3.209-3.785 4.459-5.316.735.603 6.291 4.103 6.291 4.103l1.25-.861V6.483h.548v2.738c1.317-.908 2.695-1.87 3.885-2.738 1.631 1.366 6.411 3.977 8.243 4.833Zm-6.519 21.51V13.642c-1.35-.762-4.044-2.578-5.615-3.659v21.093c1.698.285 4.84 1.4 5.488 1.843l.127-.093Zm-6.157-22.465-1.19.829v30.002l1.157 1.18.033-32.011Z" fill="white"/></svg>