<svg viewBox="0 0 16 16" fill="currentColor" xmlns="http://www.w3.org/2000/svg"><path d="M4.82974 10.3069L6.42358 11.6828L8.78572 9.5041V5.26144L7.50158 3.99999L6.17141 5.38737L4.76103 3.99999L3.41936 5.41038V4.95176C3.41936 4.28807 3.19204 4.05418 2.99044 3.84675C2.82984 3.68151 2.68556 3.53306 2.68556 3.19748C2.68556 2.70465 2.99525 2.47519 3.37365 2.29174L3.27042 2.20001C2.13521 2.60142 1.51584 3.20898 1.51615 3.86287C1.51615 4.14466 1.61994 4.29862 1.7275 4.45819C1.8432 4.62981 1.96327 4.80792 1.96327 5.15853V6.90161C1.12624 6.90161 1 7.68111 1 7.9793C1 8.16274 1.0342 8.32319 1.05721 8.41491H1.17226C1.21796 8.18544 1.35571 8.0135 1.64238 8.0135H1.96327V10.2609L3.61431 11.6828L4.82974 10.3069ZM3.94701 5.16972L4.74952 5.96104L4.74983 5.96073V10.0771L4.39444 10.4786L3.41967 9.64154V5.70856L3.94701 5.16972ZM6.69906 5.17003L7.34114 5.8121V10.6051L7.32963 10.6166L6.20593 9.63065V5.66317L6.69906 5.17003ZM12.2713 11.1555C12.5579 11.2357 12.7986 11.4418 12.9936 11.6828L12.9932 11.6831L15 10.1695V5.18153L13.7043 4.00061L12.271 5.52573V4.43654H12.053V5.7552L11.7206 6.1106V4.98689L10.6426 4.00061L9.36996 5.30777L9.53071 5.45671L9.8516 5.13551L10.2642 5.50241V6.74085H10.1955C9.57642 6.74085 9.19802 7.16496 9.19802 7.72682C9.19802 8.0135 9.24373 8.16243 9.27824 8.25416H9.41567C9.46169 8.00199 9.69116 7.77252 10.0235 7.77252H10.2642V10.0084C9.51921 10.2609 9.08329 10.9145 9.00307 11.7975L9.09479 11.8547C9.42718 11.4418 9.8631 11.1897 10.2642 11.0979V14.1824L10.2872 14.1939L11.6174 12.9669L12.2483 13.5518L12.2713 13.5403V11.1555ZM11.7209 6.31643L12.0533 5.97254V13.0817L11.7209 12.772V6.31643ZM12.8791 5.08981L13.5554 5.70887V10.4904L13.5439 10.5019C13.2115 10.1462 12.8101 9.96272 12.2713 9.89401V5.73188L12.8791 5.08981Z"/></svg>