<svg width="192" height="189" viewBox="0 0 192 189" fill="none" xmlns="http://www.w3.org/2000/svg">
<path d="M113.451 153.739C115.449 153.739 116.104 154.999 116.104 156.17C116.104 157.34 115.236 158.385 113.799 158.385C112.452 158.385 111.67 157.386 111.625 156.297C111.625 155.904 111.711 155.601 111.928 155.298L111.797 155.212C111.146 155.56 110.622 156.514 110.622 157.688C110.622 158.168 110.667 158.647 110.794 159.167C113.356 160.514 114.27 162.905 114.27 164.686C114.269 169.336 109.619 171.031 106.319 171.379C104.67 171.51 102.234 171.596 101.497 171.727C100.76 171.858 99.8877 171.899 99.8877 173.119C99.8879 173.946 100.539 174.421 101.537 174.421H111.575C114.662 174.421 116.095 177.2 116.095 179.591C116.095 184.806 111.055 188.585 105.84 188.585L105.849 188.59C101.46 188.59 97.9854 186.415 97.9854 183.202C97.9854 181.553 98.8981 180.247 100.679 179.293C99.115 178.466 97.8536 176.816 97.8535 175.121C97.8535 172.296 99.9827 171.212 102.197 170.516C100.286 169.517 98.6769 167.298 98.6768 164.649C98.6768 161.694 101.416 157.955 106.455 157.955C107.802 157.955 109.28 158.258 109.931 158.737C109.885 158.389 109.845 158.041 109.845 157.738C109.845 155.045 111.933 153.739 113.451 153.739ZM101.329 179.464C100.154 180.463 100.027 181.204 100.027 182.42C100.027 184.897 102.59 186.985 106.459 186.985C111.458 186.985 114.282 185.028 114.282 181.381C114.282 180.034 113.283 179.469 112.108 179.469L112.104 179.464H101.329ZM56.5762 157.956C61.3126 157.956 64.6171 161.042 64.6172 166.646V167.429H53.1455V168.125C53.1455 170.515 53.2775 172.079 53.4492 173.426C53.7972 175.817 54.8412 177.295 57.2275 177.295C60.8339 177.295 62.5289 174.99 63.9209 171.862L64.7861 172.255C63.263 175.945 60.8773 178.42 56.8789 178.42C51.5324 178.42 47.4512 175.116 47.4512 168.079C47.4513 161.648 51.8398 157.956 56.5762 157.956ZM125.6 157.956C130.336 157.956 133.64 161.042 133.64 166.646V167.429H122.169V168.125C122.169 170.515 122.3 172.079 122.472 173.426C122.82 175.817 123.864 177.295 126.255 177.295C129.862 177.295 131.556 174.99 132.948 171.862L133.811 172.253C132.292 175.944 129.901 178.42 125.902 178.42C120.556 178.42 116.475 175.116 116.475 168.079C116.475 161.648 120.863 157.956 125.6 157.956ZM165.707 157.956C169.53 157.956 172.31 159.782 172.31 162.909C172.309 164.69 170.877 165.779 169.269 165.779C167.574 165.779 166.402 164.694 166.402 163.126C166.402 161.386 167.618 160.216 169.575 160.347V160.175C169.227 159.782 168.097 158.697 166.141 158.697C164.184 158.697 163.013 159.958 162.62 162.521C162.403 163.781 162.317 165.996 162.317 168.211C162.317 170.602 162.489 172.468 162.62 173.381C163.099 176.16 164.098 177.25 166.141 177.25C169.096 177.25 170.832 175.076 171.831 171.776L172.744 172.079L172.748 172.075C171.704 175.551 169.53 178.42 165.449 178.42C160.884 178.42 156.627 175.334 156.627 168.428C156.627 162.042 160.885 157.956 165.707 157.956ZM183.008 157.956C187.744 157.956 191.048 161.042 191.048 166.646V167.429H179.577V168.125C179.577 170.515 179.708 172.079 179.88 173.426C180.228 175.817 181.272 177.295 183.663 177.295C187.27 177.295 188.964 174.99 190.356 171.862L191.219 172.253C189.7 175.944 187.31 178.42 183.311 178.42C177.964 178.42 173.883 175.116 173.883 168.079C173.883 161.648 178.271 157.956 183.008 157.956ZM42.3662 158.521H46.3662V159.434H42.3662V173.774C42.3662 174.642 42.5837 176.206 44.1064 176.206C45.5392 176.206 46.4528 174.99 46.8008 174.339L47.3184 174.73C46.4048 176.596 44.4488 178.38 41.3682 178.38C38.8462 178.38 37.0654 176.467 37.0654 174.556V159.434H34.8506V158.521H37.0654V152.523H38.457C39.8037 152.523 41.0195 152.306 42.3662 152.175V158.521ZM27.4609 157.956C30.2405 157.956 32.2432 159.868 32.2432 162.521V176.21C32.2432 176.603 32.3287 177.078 32.9795 177.078L34.2402 177.123V177.905C32.5003 177.905 31.2439 177.86 29.5039 177.86C27.6373 177.86 26.5928 177.905 24.7217 177.905V177.123L26.2002 177.078C26.8509 177.078 26.9365 176.599 26.9365 176.21V163.131C26.9365 160.609 26.1098 160.089 24.9395 160.089C23.0731 160.089 21.5948 161.828 20.8535 162.913V176.21C20.8535 176.603 20.9392 177.078 21.5898 177.078L23.1133 177.123V177.905C21.3732 177.905 19.8543 177.86 18.1143 177.86C16.2885 177.86 15.2897 177.905 13.4639 177.905V177.123L14.8105 177.078C15.4614 177.078 15.5469 176.599 15.5469 176.21V160.22C15.5469 159.827 15.4613 159.353 14.8105 159.353L13.3779 159.307V158.525H16.8535L16.8584 158.521C18.205 158.52 19.7683 158.349 20.8574 158.173V161.693C22.9003 159.131 24.8125 157.956 27.4609 157.956ZM148.935 157.956C151.714 157.956 153.716 159.868 153.716 162.521V176.21C153.716 176.603 153.802 177.078 154.453 177.078L155.714 177.123V177.905C153.974 177.905 152.717 177.86 150.978 177.86C149.111 177.86 148.066 177.905 146.195 177.905V177.123L147.674 177.078C148.324 177.078 148.41 176.599 148.41 176.21V163.131C148.41 160.609 147.583 160.089 146.412 160.089C144.546 160.089 143.068 161.828 142.327 162.913V176.21C142.327 176.603 142.413 177.078 143.063 177.078L144.587 177.123V177.905C142.847 177.905 141.328 177.86 139.588 177.86C137.762 177.86 136.763 177.905 134.938 177.905V177.123L136.284 177.078C136.935 177.078 137.021 176.599 137.021 176.21V160.22C137.02 159.827 136.935 159.353 136.284 159.353L134.852 159.307V158.525H138.327L138.331 158.521C139.678 158.521 141.242 158.349 142.331 158.173V161.693C144.374 159.131 146.286 157.956 148.935 157.956ZM12.2529 148.609L9.69043 148.654C9.03961 148.654 8.95312 149.134 8.95312 149.522V176.16C8.95312 176.553 9.03961 177.028 9.69043 177.028L12.2529 177.073V177.9C10.5129 177.9 7.77813 177.855 6.03809 177.855C4.17151 177.855 1.86656 177.9 0 177.9V177.073L2.47656 177.028C3.12739 177.028 3.21387 176.549 3.21387 176.16V149.522C3.21387 149.129 3.12739 148.654 2.47656 148.654L0 148.609V147.782C1.86656 147.782 4.17151 147.827 6.03809 147.827C7.77813 147.827 10.5129 147.782 12.2529 147.782V148.609ZM72.9551 176.206C72.9551 176.599 73.0417 177.073 73.6924 177.073L74.9531 177.119V177.9C73.2132 177.9 71.9567 177.855 70.2168 177.855C68.3503 177.855 67.3919 177.9 65.5254 177.9V177.119L66.917 177.073C67.5676 177.073 67.6543 176.595 67.6543 176.206V149.481C67.6543 149.088 67.5678 148.613 66.917 148.613L65.2227 148.568V147.786H68.96C70.3067 147.786 71.8704 147.615 72.9551 147.438V176.206ZM83.8164 176.206C83.8165 176.599 83.9021 177.073 84.5527 177.073L85.8135 177.119V177.9C84.0736 177.9 82.8171 177.855 81.0771 177.855C79.2106 177.855 78.2523 177.9 76.3857 177.9V177.119L77.7783 177.073C78.4285 177.073 78.5146 176.595 78.5146 176.206V149.481C78.5146 149.088 78.4287 148.614 77.7783 148.613L76.083 148.568V147.786H79.8203C81.1672 147.786 82.7317 147.615 83.8164 147.438V176.206ZM94.7627 176.206H94.7666C94.7667 176.599 94.8533 177.073 95.5039 177.073L96.8057 177.118V177.9C95.0656 177.9 93.7635 177.855 92.0234 177.855C90.1569 177.855 89.1986 177.9 87.332 177.9V177.118L88.7246 177.073C89.3748 177.073 89.4609 176.595 89.4609 176.206V160.215C89.4609 159.822 89.3749 159.348 88.7246 159.348L87.2461 159.303V158.521H90.7676C92.1143 158.52 93.6781 158.349 94.7627 158.173V176.206ZM47.3203 174.732L47.3184 174.73C47.3188 174.73 47.3199 174.728 47.3203 174.728V174.732ZM64.7881 172.256L64.7861 172.255C64.7867 172.254 64.7875 172.252 64.7881 172.251V172.256ZM133.816 172.256L133.811 172.253L133.812 172.251L133.816 172.256ZM191.225 172.256L191.219 172.253L191.22 172.251L191.225 172.256ZM106.5 158.602C104.891 158.602 104.412 160.08 104.24 161.688C104.109 162.556 104.068 163.469 104.068 164.645C104.068 165.82 104.114 166.688 104.24 167.556C104.412 169.25 104.936 170.683 106.545 170.683C108.154 170.683 108.542 169.336 108.85 167.556C108.981 166.688 109.021 165.729 109.021 164.645C109.021 163.384 108.976 162.556 108.85 161.688H108.846C108.674 160.08 108.109 158.602 106.5 158.602ZM56.1836 158.647C54.4435 158.647 53.5349 160.297 53.3135 162.209C53.1418 163.641 53.1416 165.164 53.1416 166.511H59.0078V166.516C59.0078 165.3 59.0529 163.429 58.9219 162.168C58.7501 160.302 58.1402 158.648 56.1836 158.647ZM125.211 158.647C123.471 158.648 122.558 160.297 122.341 162.209C122.169 163.641 122.169 165.164 122.169 166.511H128.036V166.516C128.036 165.3 128.081 163.429 127.95 162.168C127.778 160.301 127.168 158.647 125.211 158.647ZM182.619 158.647C180.879 158.647 179.966 160.297 179.749 162.209C179.577 163.641 179.577 165.164 179.577 166.511H185.443V166.516C185.443 165.3 185.488 163.429 185.357 162.168C185.186 160.301 184.576 158.648 182.619 158.647ZM91.9873 147.868C93.7272 147.868 95.074 149.214 95.0742 150.954C95.0742 152.694 93.7274 154.041 91.9873 154.041C90.2473 154.041 88.9004 152.694 88.9004 150.954C88.9006 149.214 90.2475 147.868 91.9873 147.868Z" fill="black"/>
<path d="M137.021 31.9043V44.7852L140.885 40.7129V25.5996H143.416V38.082L160.066 20.6094L175.112 34.1455V91.3096L151.81 108.656V108.66C149.55 105.899 146.747 103.535 143.416 102.613V129.943L143.149 130.074L135.823 123.372L120.375 137.433L120.108 137.301V101.953C115.449 103.002 110.387 105.894 106.522 110.626L105.461 109.967C106.392 99.852 111.454 92.3584 120.108 89.4658V63.8438H117.311C113.447 63.8439 110.789 66.4699 110.256 69.3623H108.66C108.262 68.3092 107.73 66.6008 107.729 63.3154C107.729 56.875 112.123 52.0166 119.313 52.0166H120.113V37.8291L115.317 33.6211L111.594 37.3008L109.728 35.5879L124.506 20.6055L137.021 31.9043ZM137.025 47.1709V121.148L140.89 124.696V43.2305L137.025 47.1709ZM74.8945 108.669H74.8896L74.8916 108.666L74.8945 108.669ZM39.4697 1.05273C35.0767 3.15434 31.4795 5.78059 31.4795 11.4346C31.4795 20.1076 40.0028 17.8751 40.0029 31.542V36.7939L55.582 20.6318L71.9609 36.5322L87.4092 20.6318L102.324 35.0859V83.7031L74.8916 108.666L74.8857 108.66L56.373 92.8916L42.2588 108.66L23.082 92.3672V66.6143H19.3535C16.0226 66.6143 14.4269 68.5899 13.8936 71.2158H12.5645C12.2978 70.1674 11.9004 68.3231 11.9004 66.2217C11.9004 62.8094 13.3647 53.8743 23.0859 53.874V33.9014C23.0859 26.1459 17.8936 25.7526 17.8936 19.0547C17.8936 11.5657 25.0885 4.60096 38.2676 0L39.4697 1.05273ZM72.3457 39.6641V85.1309L85.3984 96.4307L85.5293 96.2988V41.377L85.5342 41.3721L78.0723 34.0146L72.3457 39.6641ZM143.421 40.4736V88.1689C149.676 88.9554 154.341 91.0607 158.2 95.1328L158.331 95.0068V40.207L150.476 33.1152L143.421 40.4736ZM39.9941 40.1924V85.2627L51.3115 94.8574L55.4424 90.2568V43.085L46.1182 34.0195L39.9941 40.1924Z" fill="black"/>
</svg>
