<svg xmlns="http://www.w3.org/2000/svg" viewBox="0 0 733.4 108" fill="var(--wpds-colors-primary, #111)"><path d="M150.4 81.5V19.4h15.3v62h-15.3ZM177 81.5V19.4h15.3l19.8 31.8c1.7 2.6 3.2 5.6 3.2 5.6 0-1.1-.3-3.4-.3-8.4v-29h12.7v62h-12.9L192.5 46c-1.6-2.4-3-5.9-3-5.9 0 1.1.2 3.5.2 6.2v35.1h-12.6ZM249 81.5V31.1h-16.1V19.4h46.7v11.7h-15.9v50.3H249ZM284.9 81.5V19.4h43.9v11.8H300v12.9h20.8v11.1H300v14.5h29.1v11.7h-44.2ZM336.9 81.5V19.4h15.3v50.3H378v11.7h-41.1ZM384.3 81.5V19.4h15.3v50.3h25.8v11.7h-41.1ZM431.8 81.5V19.4h15.3v62h-15.3ZM455.3 51.5c0-20.8 10.3-33.3 28.7-33.3s22 7.9 25 19.9l-14.6 3.2c-1.1-6.1-4.3-11.4-10.8-11.4s-12.2 7.2-12.2 20.5 4.1 20.5 12.5 20.5 9.9-3 10.7-7.9c.2-.9.3-1.8.4-2.2h-12V49.9h26.4v31.7h-7.8l-2.4-6.7c-3.8 4.9-9.4 7.5-17.4 7.5-15.8 0-26.5-11.4-26.5-30.8ZM519.5 81.5V19.4h43.9v11.8h-28.8v12.9h20.8v11.1h-20.8v14.5h29.1v11.7h-44.2ZM571.5 81.5V19.4h15.3l19.8 31.8c1.7 2.6 3.2 5.6 3.2 5.6 0-1.1-.3-3.4-.3-8.4v-29h12.7v62h-12.9L587 46c-1.6-2.4-3-5.9-3-5.9 0 1.1.2 3.5.2 6.2v35.1h-12.6ZM630.2 51.5c0-21.2 10.7-33.1 27.2-33.1s22.2 8.1 24.6 21.7l-14.6 2.3c-1.1-7.7-3.4-12.3-10-12.3s-10.9 6.4-10.9 20.6 3.5 20.1 11.3 20.1 9.7-4.1 10.9-12.4l14 2.3c-3 14.3-11.6 21.6-25.7 21.6s-26.9-12.1-26.9-30.9ZM689.1 81.5V19.4H733v11.8h-28.8v12.9H725v11.1h-20.8v14.5h29.1v11.7h-44.2ZM48.7 84.2 34.5 72.1 23.7 84.2 9 71.7V52H6.1c-2.6 0-3.8 1.5-4.2 3.5h-1c-.2-.8-.5-2.2-.5-3.8 0-2.6 1.1-9.5 8.6-9.5V26.9c0-5.9-4-6.2-4-11.4S10.6 4.5 20.7 1l.9.8c-3.4 1.6-6.1 3.6-6.1 8 0 6.6 6.5 4.9 6.5 15.4v4l11.9-12.4L46.4 29l11.8-12.2 11.4 11.1v37.2l-21 19.1ZM33.9 34l-7.1-6.9-4.7 4.7v34.5l8.7 7.3 3.2-3.5V34Zm23-1.3-5.7-5.6-4.4 4.3v34.8l10 8.7h.1V32.7ZM107.7 84.2c-1.7-2.1-3.9-3.9-6.4-4.6v20.9h-.2c0 .1-5.6-5-5.6-5l-11.8 10.8h-.2V79.1c-3.6.8-7.4 3-10.4 6.6l-.8-.5c.7-7.7 4.6-13.5 11.2-15.7V49.9h-2.1c-3 0-5 2-5.4 4.2h-1.2c-.3-.8-.7-2.1-.7-4.6 0-4.9 3.4-8.7 8.9-8.7h.6V29.9l-3.7-3.2-2.9 2.8-1.4-1.3 11.3-11.5 9.6 8.7v9.9l3-3.1V20.6h1.9v9.6l12.8-13.4 11.5 10.4V71l-17.8 13.3Zm-8.4-50.1-3 3v56.7l3 2.7V34.1Zm13.4-2.3-6-5.4-5.4 5.6v36.5c4.8.6 8.4 2.2 11.3 5.3h.1v-42Z"/></svg>