<svg width="16" height="16" viewBox="0 0 16 16" fill="none" xmlns="http://www.w3.org/2000/svg">
<g id="article-outline">
<path id="Vector" d="M13 2C13.2652 2 13.5196 2.10536 13.7071 2.29289C13.8946 2.48043 14 2.73478 14 3V9.05C13.9962 9.31377 13.8884 9.56537 13.7 9.75L9.76 13.71C9.66656 13.8027 9.55574 13.876 9.43391 13.9258C9.31207 13.9755 9.18161 14.0008 9.05 14H3C2.73478 14 2.48043 13.8946 2.29289 13.7071C2.10536 13.5196 2 13.2652 2 13V3C2 2.73478 2.10536 2.48043 2.29289 2.29289C2.48043 2.10536 2.73478 2 3 2H13ZM13 3H3V13H9V10C9 9.73478 9.10536 9.48043 9.29289 9.29289C9.48043 9.10536 9.73478 9 10 9H13V3ZM8 9V10H5V9H8ZM11 7V8H5V7H11ZM11 5V6H5V5H11Z" fill="#111111"/>
</g>
</svg>
