<svg width="16" height="16" viewBox="0 0 16 16" fill="none" xmlns="http://www.w3.org/2000/svg">
<g id="back-15">
<path id="Vector" d="M11.42 7.42999L11.29 8.66999H8.34L8.21 10.22C8.5 9.86999 9.11 9.65999 9.65 9.65999C10.9 9.65999 11.84 10.48 11.84 11.89C11.84 13.31 10.79 14.31 9.34 14.31C7.98 14.31 7.11 13.8 6.7 12.64L7.95 12.2C8.15 12.9 8.67 13.15 9.2 13.15C9.82 13.15 10.35 12.76 10.35 11.96C10.35 11.31 9.95 10.79 9.25 10.79C8.72 10.79 8.36 11.01 8.09 11.4L6.99 11.14L7.22 7.42999H11.42ZM4.78 7.29999V12.94H6.15V14.18H1.84V12.94H3.27V9.16999C2.99 9.37999 2.53 9.66999 1.98 9.90999V8.60999C2.6396 8.33752 3.21075 7.88752 3.63 7.30999H4.78V7.29999ZM4.81 1.23999L5.36 2.00999L3.68 3.13999H10.98C13.85 3.13999 15.5 4.90999 15.5 7.10999C15.5 8.66999 14.54 9.73999 13.1 10.19L12.93 10.24L12.61 9.15999C13.69 8.85999 14.34 8.17999 14.34 7.10999C14.34 5.54999 13.24 4.33999 11.17 4.26999H3.63L5.36 5.43999L4.81 6.19999L1.71 4.09999C1.65304 4.06226 1.6052 4.01232 1.56996 3.95379C1.53472 3.89526 1.51295 3.82962 1.50625 3.76163C1.49954 3.69364 1.50807 3.62501 1.53121 3.56072C1.55434 3.49644 1.59151 3.43812 1.64 3.38999L1.71 3.33999L4.81 1.23999Z" fill="#111111"/>
</g>
</svg>
