<svg width="16" height="16" viewBox="0 0 16 16" fill="none" xmlns="http://www.w3.org/2000/svg">
<g id="bullet">
<path id="Vector" d="M8 13.9999C7.64381 14.0038 7.3014 13.8623 7.05179 13.6081L2.39322 8.94903C2.14147 8.69766 2 8.35649 2 8.00071C2 7.64493 2.14147 7.30376 2.39322 7.05239L7.05179 2.39327C7.30313 2.14148 7.64426 2 8 2C8.35574 2 8.69687 2.14148 8.9482 2.39327L13.6068 7.05239C13.8585 7.30376 14 7.64493 14 8.00071C14 8.35649 13.8585 8.69766 13.6068 8.94903L8.9482 13.6081C8.6986 13.8623 8.35619 14.0038 8 13.9999Z" fill="#111111"/>
</g>
</svg>
