<svg width="16" height="16" viewBox="0 0 16 16" fill="none" xmlns="http://www.w3.org/2000/svg">
<g id="code">
<path id="Vector" d="M10.33 10.67L12.87 8.20002L10.33 5.73002L11.42 4.67002L14.505 7.67002C14.5763 7.73867 14.6329 7.821 14.6717 7.91206C14.7104 8.00313 14.7303 8.10106 14.7303 8.20002C14.7303 8.29897 14.7104 8.3969 14.6717 8.48797C14.6329 8.57903 14.5763 8.66136 14.505 8.73001L11.421 11.73L10.331 10.67H10.33ZM8.70701 2.27802L10.161 2.64802L7.35401 13.698L5.90001 13.328L8.70701 2.27802ZM5.73001 5.73002L3.19201 8.20002L5.73001 10.67L4.64001 11.73L1.55601 8.73001C1.48475 8.66136 1.42807 8.57903 1.38936 8.48797C1.35064 8.3969 1.33069 8.29897 1.33069 8.20002C1.33069 8.10106 1.35064 8.00313 1.38936 7.91206C1.42807 7.821 1.48475 7.73867 1.55601 7.67002L4.64001 4.67002L5.73001 5.73002Z" fill="#111111"/>
</g>
</svg>
