<svg width="16" height="16" viewBox="0 0 16 16" fill="none" xmlns="http://www.w3.org/2000/svg">
<g id="comments">
<path id="Vector" d="M11 5H14C14.2652 5 14.5196 5.10536 14.7071 5.29289C14.8946 5.48043 15 5.73478 15 6V11C15 11.2652 14.8946 11.5196 14.7071 11.7071C14.5196 11.8946 14.2652 12 14 12V15L11 12H6C5.73478 12 5.48043 11.8946 5.29289 11.7071C5.10536 11.5196 5 11.2652 5 11V9L2 12V9C1.73478 9 1.48043 8.89464 1.29289 8.70711C1.10536 8.51957 1 8.26522 1 8V3C1 2.73478 1.10536 2.48043 1.29289 2.29289C1.48043 2.10536 1.73478 2 2 2H10C10.2652 2 10.5196 2.10536 10.7071 2.29289C10.8946 2.48043 11 2.73478 11 3V5ZM11 6V8C11 8.26522 10.8946 8.51957 10.7071 8.70711C10.5196 8.89464 10.2652 9 10 9H6V11H14V6H11ZM10 5V3H2V8H10V5H6H10Z" fill="#111111"/>
</g>
</svg>
