<svg width="16" height="16" viewBox="0 0 16 16" fill="none" xmlns="http://www.w3.org/2000/svg">
<g id="crossword">
<path id="Vector" d="M3 14C2.73478 14 2.48043 13.8947 2.29289 13.7071C2.10536 13.5196 2 13.2652 2 13V6.00001C2 5.73479 2.10536 5.48044 2.29289 5.2929C2.48043 5.10536 2.73478 5.00001 3 5.00001H6V2.00001C6 1.73479 6.10536 1.48044 6.29289 1.2929C6.48043 1.10536 6.73478 1.00001 7 1.00001H10C10.183 1.00001 10.354 1.04901 10.501 1.13401C10.6524 1.0456 10.8247 0.999331 11 1.00001H14C14.2652 1.00001 14.5196 1.10536 14.7071 1.2929C14.8946 1.48044 15 1.73479 15 2.00001V5.00001C15.0004 5.17592 14.9542 5.34879 14.866 5.50101C14.9544 5.6524 15.0007 5.82469 15 6.00001V9.00001C15 9.26522 14.8946 9.51958 14.7071 9.70711C14.5196 9.89465 14.2652 10 14 10H11V13C11 13.2652 10.8946 13.5196 10.7071 13.7071C10.5196 13.8947 10.2652 14 10 14H3ZM6 10H3V13H6V10ZM6 6.00001H3V9.00001H6V6.00001ZM10 6.00001H7V9.00001H10V6.00001ZM14 6.00001H11V9.00001H14V6.00001ZM10 2.00001H7V5.00001H10V2.00001Z" fill="#111111"/>
</g>
</svg>
