<svg width="16" height="16" viewBox="0 0 16 16" fill="none" xmlns="http://www.w3.org/2000/svg">
<g id="facebook">
<path id="Vector" d="M8.00001 1C6.23735 0.998375 4.53897 1.66179 3.2441 2.85774C1.94924 4.05369 1.15323 5.69412 1.01508 7.45135C0.876923 9.20859 1.4068 10.9533 2.49885 12.3369C3.59091 13.7205 5.16475 14.6412 6.90601 14.915V10.023H5.13001V8H6.90701V6.458C6.90701 4.703 7.95201 3.734 9.55101 3.734C10.317 3.734 11.118 3.871 11.118 3.871V5.594H10.235C9.36501 5.594 9.09501 6.134 9.09501 6.687V8H11.036L10.726 10.023H9.09401V14.915C10.8305 14.6355 12.3982 13.7127 13.4854 12.3302C14.5726 10.9476 15.0996 9.20658 14.9618 7.45317C14.8239 5.69977 14.0312 4.06246 12.7413 2.86679C11.4514 1.67113 9.75882 1.0047 8.00001 1Z" fill="#111111"/>
</g>
</svg>
