<svg width="16" height="16" viewBox="0 0 16 16" fill="none" xmlns="http://www.w3.org/2000/svg">
<g id="forward-15">
<path id="Vector" d="M13.74 7.42999L13.61 8.66999H10.66L10.54 10.22C10.82 9.86999 11.44 9.65999 11.97 9.65999C13.22 9.65999 14.16 10.48 14.16 11.89C14.16 13.31 13.12 14.31 11.66 14.31C10.3 14.31 9.43 13.8 9.02 12.64L10.27 12.2C10.47 12.9 11 13.15 11.52 13.15C12.14 13.15 12.68 12.76 12.68 11.96C12.68 11.31 12.28 10.79 11.58 10.79C11.04 10.79 10.68 11.01 10.41 11.4L9.31 11.14L9.54 7.42999H13.74ZM7.1 7.29999V12.94H8.48V14.18H4.16V12.94H5.6V9.16999C5.31 9.37999 4.85 9.66999 4.3 9.90999V8.60999C4.96325 8.33911 5.53803 7.88898 5.96 7.30999H7.1V7.29999ZM11.2 1.23999L14.3 3.33999L14.36 3.38999C14.56 3.58999 14.55 3.92999 14.29 4.10999L11.19 6.20999L10.64 5.43999L12.36 4.26999H4.83C2.75 4.33999 1.66 5.54999 1.66 7.10999C1.66 8.17999 2.31 8.86999 3.39 9.15999L3.07 10.24L2.91 10.19C1.46 9.74999 0.5 8.67999 0.5 7.11999C0.5 4.91999 2.15 3.14999 5.03 3.14999H12.31L10.64 2.01999L11.19 1.24999L11.2 1.23999Z" fill="#111111"/>
</g>
</svg>
