<svg width="16" height="16" viewBox="0 0 16 16" fill="none" xmlns="http://www.w3.org/2000/svg">
<g id="geopin">
<path id="Vector" d="M8.03 15.5C8.28 15.5 8.47 15.4 8.61 15.2L10.57 12.4C11.55 10.99 12.19 10.04 12.51 9.55C12.96 8.85 13.26 8.25 13.41 7.78C13.57 7.3 13.65 6.75 13.65 6.12C13.6217 4.6366 13.0192 3.222 11.9692 2.17382C10.9191 1.12565 9.50344 0.525624 8.02 0.5C6.53661 0.528261 5.122 1.1308 4.07382 2.18084C3.02565 3.23088 2.42562 4.64656 2.4 6.13C2.37174 7.37244 2.77851 8.5857 3.55 9.56C3.87 10.06 4.51 11 5.49 12.4L7.45 15.22C7.59 15.42 7.78 15.51 8.03 15.51V15.5ZM8.03 8.47C7.38 8.47 6.83 8.24 6.37 7.78C6.14755 7.56523 5.97153 7.30709 5.85285 7.02156C5.73416 6.73603 5.67533 6.42918 5.68 6.12C5.68 5.48 5.91 4.92 6.37 4.47C6.58477 4.24755 6.84291 4.07153 7.12844 3.95285C7.41397 3.83416 7.72082 3.77533 8.03 3.78C8.67 3.78 9.23 4.01 9.68 4.47C10.14 4.93 10.37 5.48 10.37 6.13C10.37 6.77 10.14 7.33 9.68 7.78C9.22 8.24 8.67 8.47 8.03 8.47Z" fill="#111111"/>
</g>
</svg>
