<svg width="16" height="16" viewBox="0 0 16 16" fill="none" xmlns="http://www.w3.org/2000/svg">
<g id="gift-solid">
<path id="Vector" d="M13.143 6.00001H14C14.2652 6.00001 14.5196 6.10536 14.7071 6.2929C14.8946 6.48043 15 6.73479 15 7.00001V8.00001C15 8.26522 14.8946 8.51958 14.7071 8.70711C14.5196 8.89465 14.2652 9.00001 14 9.00001H2C1.73478 9.00001 1.48043 8.89465 1.29289 8.70711C1.10536 8.51958 1 8.26522 1 8.00001V7.00001C1 6.73479 1.10536 6.48043 1.29289 6.2929C1.48043 6.10536 1.73478 6.00001 2 6.00001H2.876C2.36646 5.56196 2.04143 4.94743 1.96613 4.27972C1.89083 3.61201 2.07082 2.94053 2.47 2.40001C3.367 1.18001 5.111 0.886005 6.382 1.73401C6.579 1.86601 6.762 2.04701 6.942 2.27401C7.256 2.67001 7.569 3.21601 7.887 3.88401C7.929 3.971 7.969 4.058 8.01 4.146C8.05 4.058 8.09 3.971 8.132 3.885C8.45 3.216 8.763 2.67001 9.077 2.27501C9.257 2.04701 9.44 1.86501 9.637 1.73401C10.908 0.886005 12.652 1.18001 13.549 2.39901C13.9485 2.9396 14.1286 3.61131 14.0533 4.27925C13.978 4.9472 13.6528 5.56193 13.143 6.00001ZM14 10V13C14 13.2652 13.8946 13.5196 13.7071 13.7071C13.5196 13.8946 13.2652 14 13 14H9V10H14ZM7 14H3C2.73478 14 2.48043 13.8946 2.29289 13.7071C2.10536 13.5196 2 13.2652 2 13V10H7V14ZM6.533 4.53001C6.259 3.95501 5.996 3.49501 5.767 3.20601C5.70488 3.12146 5.63154 3.04577 5.549 2.98101C4.942 2.57601 4.097 2.718 3.679 3.287C3.276 3.837 3.414 4.584 4.001 4.976C4.213 5.117 4.871 5.25601 5.753 5.33401C6.141 5.36801 6.538 5.39001 6.92 5.40201C6.796 5.10301 6.666 4.809 6.533 4.529V4.53001ZM9.486 4.53001C9.353 4.80901 9.223 5.10301 9.099 5.40201C9.481 5.39001 9.879 5.36801 10.266 5.33401C11.148 5.25601 11.806 5.117 12.018 4.976C12.605 4.584 12.743 3.836 12.34 3.287C11.922 2.718 11.078 2.57701 10.47 2.98101C10.42 3.01401 10.344 3.09101 10.252 3.20601C10.023 3.49601 9.76 3.955 9.486 4.529V4.53001Z" fill="#111111"/>
</g>
</svg>
