<svg width="16" height="16" viewBox="0 0 16 16" fill="none" xmlns="http://www.w3.org/2000/svg">
<g id="globe">
<path id="Vector" d="M8 15.5C9.98267 15.4792 11.8783 14.6823 13.2803 13.2803C14.6823 11.8783 15.4792 9.98267 15.5 8C15.4792 6.01733 14.6823 4.12175 13.2803 2.71971C11.8783 1.31768 9.98267 0.520817 8 0.5C6.01733 0.520817 4.12175 1.31768 2.71971 2.71971C1.31768 4.12175 0.520817 6.01733 0.5 8C0.520817 9.98267 1.31768 11.8783 2.71971 13.2803C4.12175 14.6823 6.01733 15.4792 8 15.5ZM8 14.05V13.23C8.02 13.03 7.96 12.77 7.83 12.46C7.7 12.15 7.53 11.89 7.33 11.69C7.23489 11.6 7.15921 11.4914 7.10762 11.371C7.05602 11.2506 7.02961 11.121 7.03 10.99V10.03C7.03369 9.85452 6.98869 9.68146 6.9 9.53C6.81593 9.38474 6.69525 9.26407 6.55 9.18L5.08 8.39C4.73 8.21 4.4 7.99 4.1 7.73L4.07 7.7C3.87 7.52 3.69 7.3 3.52 7.06L2.5 5.52C3.10778 4.13902 4.21511 3.03882 5.6 2.44L6.33 2.8C6.49 2.88 6.64 2.87 6.8 2.78C6.95 2.69 7.02 2.56 7.02 2.38V2.04C7.26 2 7.51 1.97 7.75 1.95L8.63 2.83C8.71 2.91 8.75 3.02 8.75 3.16C8.75 3.3 8.71 3.41 8.63 3.49L8.17 3.95C8.11 4.01 8.08 4.07 8.08 4.13C8.08 4.19 8.11 4.25 8.18 4.31L8.29 4.43C8.35 4.49 8.39 4.55 8.39 4.61C8.39 4.67 8.35 4.73 8.29 4.79L8.05 5.04C8.03055 5.05988 8.00716 5.07549 7.98133 5.08582C7.9555 5.09615 7.9278 5.10098 7.9 5.1H7.63C7.55 5.1 7.49 5.12 7.45 5.16L7.15 5.46C7.06 5.54 7.05 5.63 7.11 5.73L7.57 6.67C7.61 6.75 7.61 6.83 7.57 6.91C7.53 6.99 7.46 7.03 7.35 7.03H7.17C7.1422 7.03098 7.1145 7.02615 7.08867 7.01582C7.06284 7.00549 7.03945 6.98988 7.02 6.97L6.75 6.73C6.68694 6.67077 6.60877 6.63009 6.52407 6.61245C6.43938 6.5948 6.35146 6.60088 6.27 6.63L5.33 6.94C5.17 7 5.09 7.11 5.09 7.27C5.09 7.44 5.16 7.55 5.29 7.61L5.63 7.79C5.90949 7.9293 6.21772 8.00122 6.53 8C6.62 8 6.71 8.05 6.81 8.15L7.11 8.51C7.29 8.78 7.43 8.93 7.51 8.97H9.53C9.79 8.97 10.02 9.06 10.2 9.24L10.62 9.66C10.8 9.84 10.89 10.06 10.89 10.33C10.89 10.71 10.75 11.04 10.47 11.33L10.11 11.66C10.0254 11.7507 9.97276 11.8666 9.96 11.99L9.93 12.11C9.89 12.27 9.84 12.4 9.8 12.48L9.3 13.9C8.86 14 8.42 14.05 8 14.05ZM13.99 8.79L13.11 8.54C13.0232 8.52132 12.9412 8.48507 12.8689 8.43347C12.7967 8.38188 12.7358 8.31603 12.69 8.24L12.14 7.43C12.0583 7.31262 12.0145 7.17303 12.0145 7.03C12.0145 6.88697 12.0583 6.74738 12.14 6.63L12.72 5.73C12.8016 5.62934 12.9039 5.54747 13.02 5.49L13.42 5.31C13.9579 6.38556 14.1566 7.59904 13.99 8.79Z" fill="#111111"/>
</g>
</svg>
