<svg width="16" height="16" viewBox="0 0 16 16" fill="none" xmlns="http://www.w3.org/2000/svg">
<g id="home">
<path id="Vector" d="M10 13H13V6.14199L8 1.99999L3 6.14199V13H6V8.99999C6 8.73478 6.10536 8.48042 6.29289 8.29289C6.48043 8.10535 6.73478 7.99999 7 7.99999H9C9.26522 7.99999 9.51957 8.10535 9.70711 8.29289C9.89464 8.48042 10 8.73478 10 8.99999V13ZM2 6.14199C2.00001 5.99493 2.03245 5.84967 2.09502 5.71657C2.15759 5.58348 2.24875 5.46582 2.362 5.37199L7.362 1.22999C7.54139 1.08137 7.76704 1.00003 8 1.00003C8.23296 1.00003 8.45861 1.08137 8.638 1.22999L13.638 5.37199C13.7512 5.46582 13.8424 5.58348 13.905 5.71657C13.9676 5.84967 14 5.99493 14 6.14199V13C14 13.2652 13.8946 13.5196 13.7071 13.7071C13.5196 13.8946 13.2652 14 13 14H3C2.73478 14 2.48043 13.8946 2.29289 13.7071C2.10536 13.5196 2 13.2652 2 13V6.14199ZM7 8.99999V13H9V8.99999H7Z" fill="#111111"/>
</g>
</svg>
