<svg width="16" height="16" viewBox="0 0 16 16" fill="none" xmlns="http://www.w3.org/2000/svg">
<g id="horoscopes">
<path id="Vector" d="M8 1C6.14348 1 4.36301 1.7375 3.05025 3.05025C1.7375 4.36301 1 6.14348 1 8C1 9.85652 1.7375 11.637 3.05025 12.9497C4.36301 14.2625 6.14348 15 8 15C9.85652 15 11.637 14.2625 12.9497 12.9497C14.2625 11.637 15 9.85652 15 8C15 6.14348 14.2625 4.36301 12.9497 3.05025C11.637 1.7375 9.85652 1 8 1ZM11.51 8.788C11.3999 8.90297 11.2487 8.96951 11.0896 8.97298C10.9305 8.97645 10.7765 8.91657 10.6615 8.8065C10.5465 8.69644 10.48 8.54521 10.4765 8.38608C10.4731 8.22696 10.5329 8.07297 10.643 7.958C10.989 7.597 11.176 7.299 11.176 6.763C11.176 6.409 10.862 5.678 9.887 5.678C9.058 5.678 8.6 6.934 8.6 7.801V11.386C8.6 11.5451 8.53679 11.6977 8.42426 11.8103C8.31174 11.9228 8.15913 11.986 8 11.986C7.84087 11.986 7.68826 11.9228 7.57574 11.8103C7.46321 11.6977 7.4 11.5451 7.4 11.386V7.8C7.4 6.933 6.941 5.677 6.112 5.677C5.138 5.677 4.822 6.407 4.822 6.762C4.822 7.298 5.01 7.595 5.356 7.957C5.4105 8.01393 5.45325 8.08103 5.48182 8.15448C5.51038 8.22793 5.5242 8.30629 5.52248 8.38508C5.52076 8.46387 5.50354 8.54155 5.4718 8.61369C5.44006 8.68582 5.39443 8.751 5.3375 8.8055C5.28057 8.86 5.21347 8.90275 5.14002 8.93132C5.06657 8.95988 4.98821 8.9737 4.90942 8.97198C4.83063 8.97026 4.75295 8.95304 4.68081 8.9213C4.60868 8.88956 4.5435 8.84393 4.489 8.787C4.06 8.338 3.622 7.747 3.622 6.762C3.622 5.663 4.574 4.477 6.112 4.477C6.932 4.477 7.572 4.951 8 5.633C8.428 4.951 9.068 4.477 9.887 4.477C11.425 4.477 12.377 5.663 12.377 6.762C12.377 7.748 11.938 8.339 11.51 8.787V8.788Z" fill="#111111"/>
</g>
</svg>
