<svg width="16" height="16" viewBox="0 0 16 16" fill="none" xmlns="http://www.w3.org/2000/svg">
<g id="info">
<path id="Vector" d="M9.024 5.27999C9.179 5.27999 9.283 5.38299 9.283 5.53899V11.829H11.39C11.545 11.829 11.649 11.934 11.649 12.089V13.239C11.649 13.396 11.545 13.499 11.39 13.499H5.259C5.103 13.499 5 13.396 5 13.239V12.089C5 11.934 5.103 11.829 5.259 11.829H7.443V6.82899H5.517C5.362 6.82899 5.259 6.72599 5.259 6.56899V5.53899C5.259 5.38399 5.362 5.28099 5.517 5.28099L9.024 5.27999ZM8.156 1.64999C8.796 1.64999 9.302 2.15699 9.302 2.79599C9.302 3.43499 8.795 3.94199 8.156 3.94199C8.00521 3.94306 7.85571 3.91414 7.71619 3.85693C7.57667 3.79971 7.44991 3.71534 7.34328 3.60871C7.23666 3.50208 7.15228 3.37532 7.09507 3.2358C7.03785 3.09629 7.00894 2.94679 7.01 2.79599C7.01 2.15699 7.517 1.64999 8.156 1.64999Z" fill="#111111"/>
</g>
</svg>
