<svg width="16" height="16" viewBox="0 0 16 16" fill="none" xmlns="http://www.w3.org/2000/svg">
<g id="instagram">
<path id="Vector" d="M4.20008 2H11.7999C13.013 2 14 2.98704 14 4.20008V11.7999C14 13.0039 13.0277 13.9852 11.8272 13.9998H4.17279C2.97227 13.9852 2 13.0039 2 11.7999V4.20008C2 2.98704 2.98704 2 4.20008 2ZM7.99975 12C10.2055 12 12 10.2055 12 7.99975C12 5.79448 10.2055 4 7.99975 4C5.79448 4 4 5.79448 4 7.99975C4 10.2055 5.79448 12 7.99975 12ZM8 6C9.10282 6 10 6.89718 10 7.99956C10 9.10238 9.10282 10 8 10C6.89762 10 6 9.10238 6 7.99956C6 6.89718 6.89762 6 8 6ZM12.0277 4.86938C12.5431 4.86938 12.9624 4.45011 12.9624 3.93469C12.9624 3.41928 12.5431 3 12.0277 3C11.5123 3 11.093 3.41928 11.093 3.93469C11.093 4.45011 11.5123 4.86938 12.0277 4.86938Z" fill="#111111"/>
</g>
</svg>
