<svg width="16" height="16" viewBox="0 0 16 16" fill="none" xmlns="http://www.w3.org/2000/svg">
<g id="link">
<path id="Vector" d="M9.146 6.484C9.27732 6.61796 9.3522 6.79723 9.35518 6.98481C9.35816 7.17238 9.28901 7.35394 9.162 7.492C9.0387 7.63023 8.86821 7.71742 8.68396 7.73648C8.4997 7.75553 8.31498 7.70508 8.166 7.595C8.14337 7.57933 8.12197 7.56195 8.102 7.543C7.779 7.221 7.409 7.208 7.013 7.38C6.701 7.515 6.434 7.72 6.194 7.956C5.412 8.726 4.632 9.498 3.857 10.275C3.67265 10.4633 3.55 10.7033 3.50534 10.963C3.46068 11.2228 3.49614 11.4899 3.607 11.729C3.829 12.219 4.337 12.531 4.875 12.51C5.239 12.496 5.548 12.359 5.805 12.104C5.997 11.914 6.186 11.723 6.379 11.534C6.602 11.314 6.867 11.244 7.163 11.347C7.466 11.452 7.629 11.679 7.663 11.993C7.67589 12.0866 7.66758 12.182 7.63867 12.272C7.60977 12.362 7.56101 12.4444 7.496 12.513C7.192 12.823 6.89 13.135 6.559 13.413C6.166 13.743 5.694 13.918 5.183 13.979C5.16 13.981 5.139 13.993 5.117 14H4.555C4.529 13.993 4.503 13.982 4.477 13.978C3.285 13.788 2.494 13.125 2.115 11.978C2.061 11.814 2.038 11.638 2 11.468V10.883C2.026 10.758 2.047 10.633 2.079 10.509C2.198 10.039 2.412 9.615 2.755 9.271C3.594 8.431 4.433 7.591 5.289 6.769C5.774 6.303 6.347 5.969 7.016 5.834C7.841 5.668 8.553 5.889 9.146 6.484ZM11.375 2C11.401 2.008 11.425 2.02 11.452 2.022C12.566 2.158 13.622 3.082 13.905 4.172C13.942 4.314 13.969 4.458 14 4.602V5.188C13.97 5.331 13.943 5.476 13.907 5.618C13.7911 6.08685 13.549 6.51501 13.207 6.856C12.3742 7.69086 11.5365 8.52088 10.694 9.346C10.227 9.802 9.694 10.159 9.046 10.303C8.162 10.499 7.431 10.205 6.826 9.568C6.552 9.28 6.593 8.818 6.884 8.545C7.02247 8.41589 7.20496 8.34442 7.39429 8.34517C7.58362 8.34591 7.76554 8.4188 7.903 8.549C8.037 8.676 8.173 8.796 8.358 8.845C8.54941 8.89081 8.75071 8.87037 8.929 8.787C9.204 8.673 9.436 8.494 9.645 8.288C10.477 7.468 11.309 6.649 12.132 5.822C12.702 5.25 12.622 4.343 11.966 3.828C11.712 3.628 11.431 3.495 11.099 3.496C10.9639 3.4965 10.8304 3.5241 10.7062 3.57718C10.582 3.63026 10.4697 3.70773 10.376 3.805C10.119 4.055 9.869 4.313 9.609 4.562C9.51813 4.65412 9.40477 4.72091 9.28015 4.75576C9.15553 4.7906 9.02397 4.7923 8.89849 4.76068C8.77301 4.72906 8.65797 4.66521 8.56475 4.57547C8.47153 4.48572 8.40336 4.37319 8.367 4.249C8.291 3.994 8.332 3.751 8.514 3.561C8.838 3.223 9.168 2.89 9.518 2.579C9.87277 2.26753 10.3148 2.07272 10.784 2.021C10.802 2.02 10.818 2.007 10.836 2H11.375Z" fill="#111111"/>
</g>
</svg>
