<svg width="16" height="16" viewBox="0 0 16 16" fill="none" xmlns="http://www.w3.org/2000/svg">
<g id="linkedin">
<path id="Vector" d="M2.886 2H13.114C13.604 2 14 2.397 14 2.886V13.114C14 13.604 13.603 14 13.114 14H2.886C2.65102 14 2.42566 13.9067 2.2595 13.7405C2.09335 13.5743 2 13.349 2 13.114V2.886C2 2.396 2.396 2 2.886 2ZM12.234 11.934V8.39C12.234 6.64 11.146 6.042 10.139 6.042C9.209 6.042 8.599 6.644 8.425 6.997H8.402V6.203H6.667V11.934H8.47V8.827C8.47 7.999 8.995 7.596 9.53 7.596C10.036 7.596 10.429 7.881 10.429 8.804V11.934H12.233H12.234ZM5.04 5.404C5.614 5.404 6.08 4.968 6.08 4.369C6.08 3.771 5.614 3.333 5.04 3.333C4.466 3.333 4 3.771 4 4.369C4 4.968 4.466 5.405 5.04 5.405V5.404ZM4.138 11.93H5.942V6.199H4.138V11.929V11.93Z" fill="#111111"/>
</g>
</svg>
