<svg width="16" height="16" viewBox="0 0 16 16" fill="none" xmlns="http://www.w3.org/2000/svg">
<g id="listen-solid">
<path id="Vector" d="M8 2C9.5913 2 11.1174 2.63214 12.2426 3.75736C13.3679 4.88258 14 6.4087 14 8V12C14 13.55 12.63 14.75 11 14.75C10.7348 14.75 10.4804 14.6446 10.2929 14.4571C10.1054 14.2696 10 14.0152 10 13.75V10.25C9.99992 10.1158 10.0269 9.98289 10.0792 9.8593C10.1316 9.7357 10.2083 9.62391 10.3048 9.5306C10.4013 9.43728 10.5156 9.36434 10.6409 9.31614C10.7661 9.26793 10.8998 9.24544 11.034 9.25L11.224 9.258C11.8733 9.29879 12.4939 9.54025 13 9.949V8C13 6.67392 12.4732 5.40215 11.5355 4.46447C10.5979 3.52678 9.32608 3 8 3C6.67392 3 5.40215 3.52678 4.46447 4.46447C3.52678 5.40215 3 6.67392 3 8V9.948C3.56663 9.49238 4.27292 9.24588 5 9.25C5.26522 9.25 5.51957 9.35536 5.70711 9.54289C5.89464 9.73043 6 9.98478 6 10.25V13.75C6.00008 13.8842 5.97313 14.0171 5.92076 14.1407C5.86839 14.2643 5.79168 14.3761 5.69519 14.4694C5.5987 14.5627 5.48441 14.6357 5.35913 14.6839C5.23386 14.7321 5.10015 14.7546 4.966 14.75L4.776 14.742C3.24 14.64 2 13.472 2 12V8C2 6.4087 2.63214 4.88258 3.75736 3.75736C4.88258 2.63214 6.4087 2 8 2Z" fill="#111111"/>
</g>
</svg>
