<svg width="16" height="16" viewBox="0 0 16 16" fill="none" xmlns="http://www.w3.org/2000/svg">
<g id="mail-solid">
<path id="Vector" d="M2.01 4.854L7.506 10.099C7.60234 10.1876 7.72904 10.2357 7.8599 10.2335C7.99075 10.2313 8.11574 10.1788 8.209 10.087L13.934 4.641C13.9779 4.75559 14.0003 4.87729 14 5V12C14 12.2652 13.8946 12.5196 13.7071 12.7071C13.5196 12.8946 13.2652 13 13 13H3C2.73478 13 2.48043 12.8946 2.29289 12.7071C2.10536 12.5196 2 12.2652 2 12V5C2 4.95 2.004 4.901 2.01 4.854ZM2.676 4.054C2.78028 4.01825 2.88976 4 3 4H13C13.05 4 13.098 4.004 13.146 4.01L7.88 9.02L2.676 4.054Z" fill="#111111"/>
</g>
</svg>
