<svg width="16" height="16" viewBox="0 0 16 16" fill="none" xmlns="http://www.w3.org/2000/svg">
<g id="measuring-cup">
<path id="Vector" d="M14.07 3C14.094 3 14.113 3 14.137 3.004L14.121 3.008C14.2131 2.99705 14.3064 3.00464 14.3954 3.0303C14.4845 3.05596 14.5676 3.09918 14.6397 3.15742C14.7118 3.21566 14.7716 3.28773 14.8154 3.36941C14.8592 3.45109 14.8863 3.54071 14.895 3.633L15.496 8.555C15.543 8.949 15.273 9.313 14.895 9.363C14.8029 9.37268 14.7098 9.36407 14.621 9.33767C14.5323 9.31127 14.4496 9.26759 14.3778 9.20914C14.306 9.15069 14.2464 9.07863 14.2025 8.99709C14.1586 8.91555 14.1312 8.82614 14.122 8.734L13.562 4.156H12.945L11.906 12.008C11.719 13.121 10.723 13.945 9.531 13.996L9.418 14H6.063C4.824 14 3.77 13.156 3.57 12.008L2.855 6.473L0.5 3H14.07ZM10.656 10.887H4.824L4.938 11.777C5.023 12.195 5.457 12.516 5.977 12.551H9.418C9.973 12.551 10.453 12.219 10.539 11.773L10.656 10.887ZM11.512 4.449H3.176L3.984 5.637L4.18 5.926L4.227 6.277L4.691 9.875H10.793L10.926 8.863H8.809C8.74373 8.8617 8.67937 8.84751 8.61961 8.82124C8.55985 8.79497 8.50588 8.75713 8.4608 8.70992C8.41572 8.6627 8.38043 8.60703 8.35695 8.54612C8.33347 8.48521 8.32227 8.42026 8.324 8.355C8.324 8.075 8.539 7.848 8.809 7.848H11.059L11.215 6.691H9.085C9.01999 6.68944 8.95592 6.67509 8.89646 6.64877C8.837 6.62244 8.78331 6.58466 8.73845 6.53757C8.6936 6.49049 8.65846 6.43503 8.63505 6.37436C8.61163 6.3137 8.6004 6.24901 8.602 6.184C8.602 5.906 8.816 5.676 9.086 5.676H11.348L11.512 4.449Z" fill="#111111"/>
</g>
</svg>
