<svg width="16" height="16" viewBox="0 0 16 16" fill="none" xmlns="http://www.w3.org/2000/svg">
<g id="phone">
<path id="Vector" d="M6.92999 9.07001C6.59999 8.74001 6.30999 8.37001 6.06999 7.97001L7.68999 6.45001C7.83784 6.31116 7.93998 6.13063 7.98284 5.93238C8.02571 5.73413 8.00727 5.52754 7.92999 5.34001L6.78999 2.61001C6.69427 2.38236 6.51771 2.19818 6.29431 2.09294C6.07091 1.9877 5.81646 1.96885 5.57999 2.04001L3.23999 2.74001C2.8412 2.86216 2.49915 3.12272 2.27547 3.47474C2.05178 3.82676 1.96118 4.2471 2.01999 4.66001C2.33999 6.96001 3.25999 9.19001 5.02999 10.96C6.74395 12.6332 8.96177 13.6947 11.34 13.98C12.2 14.1 13.01 13.58 13.26 12.76L13.96 10.42C14.0284 10.1849 14.0081 9.93286 13.9031 9.71168C13.798 9.4905 13.6154 9.31556 13.39 9.22001L10.66 8.07001C10.4725 7.99272 10.2659 7.97429 10.0676 8.01715C9.86936 8.06002 9.68884 8.16215 9.54999 8.31001L8.01999 9.93001C7.61999 9.69001 7.25999 9.40001 6.91999 9.07001H6.92999Z" fill="#111111"/>
</g>
</svg>
