<svg width="16" height="16" viewBox="0 0 16 16" fill="none" xmlns="http://www.w3.org/2000/svg">
<g id="photo-solid">
<path id="Vector" d="M4.38 5L4.62 3.804C4.66529 3.57739 4.78768 3.37346 4.96634 3.22689C5.145 3.08031 5.36891 3.00014 5.6 3H10.4C10.6311 3.00014 10.855 3.08031 11.0337 3.22689C11.2123 3.37346 11.3347 3.57739 11.38 3.804L11.62 5H13C13.2652 5 13.5196 5.10536 13.7071 5.29289C13.8946 5.48043 14 5.73478 14 6V12C14 12.2652 13.8946 12.5196 13.7071 12.7071C13.5196 12.8946 13.2652 13 13 13H3C2.73478 13 2.48043 12.8946 2.29289 12.7071C2.10536 12.5196 2 12.2652 2 12V6C2 5.73478 2.10536 5.48043 2.29289 5.29289C2.48043 5.10536 2.73478 5 3 5H4.38ZM8 11C8.53043 11 9.03914 10.7893 9.41421 10.4142C9.78929 10.0391 10 9.53043 10 9C10 8.46957 9.78929 7.96086 9.41421 7.58579C9.03914 7.21071 8.53043 7 8 7C7.46957 7 6.96086 7.21071 6.58579 7.58579C6.21071 7.96086 6 8.46957 6 9C6 9.53043 6.21071 10.0391 6.58579 10.4142C6.96086 10.7893 7.46957 11 8 11Z" fill="#111111"/>
</g>
</svg>
