<svg width="16" height="16" viewBox="0 0 16 16" fill="none" xmlns="http://www.w3.org/2000/svg">
<g id="pinterest">
<path id="Vector" d="M8.006 1C4.136 1 1 4.132 1 7.994C1.00007 9.402 1.42492 10.7772 2.21902 11.9399C3.01312 13.1026 4.13952 13.9987 5.451 14.511C5.388 13.958 5.336 13.106 5.474 12.501C5.601 11.955 6.294 9.025 6.294 9.025C6.294 9.025 6.086 8.605 6.086 7.988C6.086 7.016 6.651 6.29 7.354 6.29C7.954 6.29 8.242 6.74001 8.242 7.275C8.242 7.873 7.862 8.771 7.66 9.606C7.493 10.303 8.012 10.873 8.698 10.873C9.943 10.873 10.9 9.56001 10.9 7.672C10.9 5.997 9.695 4.828 7.971 4.828C5.976 4.828 4.806 6.31901 4.806 7.862C4.806 8.461 5.036 9.10501 5.325 9.45601C5.382 9.526 5.388 9.589 5.371 9.658C5.319 9.877 5.198 10.354 5.175 10.452C5.145 10.579 5.071 10.608 4.938 10.544C4.062 10.136 3.514 8.86401 3.514 7.834C3.514 5.62801 5.117 3.602 8.144 3.602C10.572 3.602 12.463 5.32901 12.463 7.643C12.463 10.055 10.941 11.995 8.83 11.995C8.121 11.995 7.452 11.627 7.227 11.189L6.789 12.853C6.633 13.463 6.207 14.223 5.919 14.689C6.576 14.891 7.268 15 7.994 15C11.864 15 15 11.868 15 8.006C15.0026 7.08623 14.8236 6.175 14.4732 5.32459C14.1228 4.47417 13.6079 3.70132 12.9581 3.05039C12.3083 2.39945 11.5363 1.88325 10.6865 1.53139C9.8367 1.17953 8.92577 0.998948 8.006 1Z" fill="#111111"/>
</g>
</svg>
