<svg width="16" height="16" viewBox="0 0 16 16" fill="none" xmlns="http://www.w3.org/2000/svg">
<g id="refresh">
<path id="Vector" d="M7.872 2C8.83607 2.00021 9.78589 2.23273 10.641 2.67786C11.4962 3.123 12.2315 3.76764 12.7847 4.5572C13.3378 5.34677 13.6926 6.25801 13.8189 7.21376C13.9453 8.16951 13.8394 9.14164 13.5104 10.0478C13.1814 10.954 12.6388 11.7675 11.9287 12.4196C11.2186 13.0716 10.3618 13.5429 9.43088 13.7936C8.49998 14.0443 7.52237 14.067 6.58085 13.8597C5.63932 13.6525 4.7616 13.2214 4.022 12.603L5.306 11.069C5.89846 11.5641 6.62154 11.8771 7.38797 11.9703C8.1544 12.0635 8.93142 11.9329 9.62527 11.5943C10.3191 11.2556 10.9001 10.7234 11.2982 10.0619C11.6963 9.40035 11.8944 8.63774 11.8686 7.8661C11.8429 7.09445 11.5943 6.34675 11.153 5.71323C10.7117 5.0797 10.0965 4.58744 9.38162 4.29583C8.66673 4.00422 7.88273 3.92574 7.12422 4.06986C6.36571 4.21397 5.66512 4.57453 5.107 5.108L7 7H2V2L3.693 3.693C4.81233 2.60591 6.31166 1.9985 7.872 2Z" fill="#111111"/>
</g>
</svg>
