<svg width="16" height="16" viewBox="0 0 16 16" fill="none" xmlns="http://www.w3.org/2000/svg">
<g id="reload">
<path id="Vector" d="M8.00002 1.00001C7.74002 1.00001 7.50002 1.10001 7.32002 1.28001C7.23004 1.36872 7.15887 1.47465 7.11076 1.59149C7.06265 1.70833 7.03859 1.83366 7.04002 1.96001C7.04002 2.22001 7.14002 2.46001 7.32002 2.63001C7.51002 2.82001 7.74002 2.91001 8.00002 2.91001C8.66993 2.90468 9.33421 3.0327 9.95416 3.28661C10.5741 3.54052 11.1374 3.91524 11.6111 4.38896C12.0848 4.86267 12.4595 5.42591 12.7134 6.04586C12.9673 6.66582 13.0953 7.33009 13.09 8.00001C13.0953 8.66992 12.9673 9.3342 12.7134 9.95415C12.4595 10.5741 12.0848 11.1373 11.6111 11.6111C11.1374 12.0848 10.5741 12.4595 9.95416 12.7134C9.33421 12.9673 8.66993 13.0953 8.00002 13.09C7.33011 13.0953 6.66583 12.9673 6.04587 12.7134C5.42592 12.4595 4.86269 12.0848 4.38897 11.6111C3.91526 11.1373 3.54053 10.5741 3.28662 9.95415C3.03271 9.3342 2.90469 8.66992 2.91002 8.00001C2.91002 7.74001 2.81002 7.50001 2.63002 7.32001C2.54249 7.23124 2.43817 7.16077 2.32315 7.1127C2.20812 7.06463 2.08468 7.03992 1.96002 7.04001C1.70002 7.04001 1.46002 7.14001 1.28002 7.32001C1.19004 7.40872 1.11887 7.51465 1.07076 7.63149C1.02265 7.74833 0.998592 7.87366 1.00002 8.00001C0.993414 9.37835 1.39681 10.7275 2.15892 11.876C2.92102 13.0245 4.00743 13.9205 5.28002 14.45C6.14018 14.8158 7.0653 15.0044 8.00002 15.0044C8.93474 15.0044 9.85986 14.8158 10.72 14.45C11.9903 13.9172 13.0744 13.0204 13.8361 11.8727C14.5977 10.7249 15.0027 9.37747 15 8.00001C15.0066 6.62167 14.6032 5.27249 13.8411 4.12398C13.079 2.97548 11.9926 2.07952 10.72 1.55001C9.85955 1.18569 8.93444 0.998626 8.00002 1.00001Z" fill="#111111"/>
</g>
</svg>
