<svg width="16" height="16" viewBox="0 0 16 16" fill="none" xmlns="http://www.w3.org/2000/svg">
<g id="search">
<path id="Vector" d="M10.974 9.56L14.559 13.145L13.145 14.559L9.56 10.974C8.43637 11.7451 7.06523 12.0686 5.71542 11.8812C4.36561 11.6938 3.13449 11.0089 2.26346 9.96087C1.39242 8.91282 0.944293 7.57719 1.00694 6.21588C1.06959 4.85456 1.6385 3.56574 2.60212 2.60212C3.56574 1.6385 4.85456 1.06959 6.21588 1.00694C7.57719 0.944293 8.91282 1.39242 9.96087 2.26346C11.0089 3.13449 11.6938 4.36561 11.8812 5.71542C12.0686 7.06523 11.7451 8.43637 10.974 9.56ZM9.934 6.466C9.934 5.54649 9.56872 4.66465 8.91854 4.01446C8.26835 3.36427 7.3865 2.999 6.467 2.999C5.54749 2.999 4.66565 3.36427 4.01546 4.01446C3.36527 4.66465 3 5.54649 3 6.466C3 7.38537 3.36522 8.26709 4.01531 8.91718C4.66541 9.56728 5.54712 9.9325 6.4665 9.9325C7.38587 9.9325 8.26759 9.56728 8.91768 8.91718C9.56778 8.26709 9.933 7.38537 9.933 6.466H9.934Z" fill="#111111"/>
</g>
</svg>
