<svg width="16" height="16" viewBox="0 0 16 16" fill="none" xmlns="http://www.w3.org/2000/svg">
<g id="solitaire">
<path id="Vector" d="M12.269 5.466C11.433 4.642 8.672 2.568 7.96 1H7.72C7.032 2.565 4.38 4.62 3.57 5.453C2.76 6.286 2.078 6.857 2.078 8.46C2.078 10.417 3.244 11.586 5.193 11.586C6.398 11.586 7.011 10.702 7.375 9.888C7.135 12.023 6.72 14.576 5.478 14.576V15H10.444V14.644C9.202 14.644 8.744 12.023 8.503 9.888C8.867 10.703 9.428 11.586 10.633 11.586C12.583 11.586 13.751 10.416 13.751 8.46C13.751 6.857 13.105 6.29 12.269 5.466Z" fill="#111111"/>
</g>
</svg>
