<svg width="16" height="16" viewBox="0 0 16 16" fill="none" xmlns="http://www.w3.org/2000/svg">
<g id="star-half">
<path id="Vector" d="M8.48003 0.840011L9.94003 5.34001H14.67C14.775 5.34001 14.8772 5.37303 14.9624 5.43439C15.0475 5.49575 15.1112 5.58234 15.1444 5.6819C15.1776 5.78145 15.1786 5.88893 15.1473 5.98909C15.116 6.08926 15.054 6.17705 14.97 6.24001L11.13 9.02001L12.6 13.52C12.6331 13.6206 12.6335 13.7291 12.601 13.8298C12.5685 13.9306 12.5048 14.0185 12.4192 14.0807C12.3336 14.143 12.2304 14.1765 12.1245 14.1764C12.0186 14.1762 11.9155 14.1425 11.83 14.08L8.00003 11.3L4.17003 14.08C4.08455 14.1425 3.98144 14.1762 3.87556 14.1764C3.76968 14.1765 3.6665 14.143 3.58087 14.0807C3.49524 14.0185 3.43159 13.9306 3.39909 13.8298C3.36659 13.7291 3.36692 13.6206 3.40003 13.52L4.87003 9.02001L1.04003 6.24001C0.956074 6.17705 0.89406 6.08926 0.86277 5.98909C0.83148 5.88893 0.8325 5.78145 0.865685 5.6819C0.898871 5.58234 0.962539 5.49575 1.04767 5.43439C1.1328 5.37303 1.23509 5.34001 1.34003 5.34001H6.06003L7.52003 0.840011C7.55032 0.736153 7.61348 0.644922 7.70003 0.580011C7.78657 0.5151 7.89184 0.480011 8.00003 0.480011C8.10821 0.480011 8.21348 0.5151 8.30003 0.580011C8.38657 0.644922 8.44973 0.736153 8.48003 0.840011ZM8.00003 3.13001V9.90001L10.88 12L9.78003 8.60001L12.67 6.50001H9.10003L8.00003 3.14001V3.13001Z" fill="#111111"/>
</g>
</svg>
