<svg width="16" height="16" viewBox="0 0 16 16" fill="none" xmlns="http://www.w3.org/2000/svg">
<g id="sudoku">
<path id="Vector" d="M14 1C14.2652 1 14.5196 1.10536 14.7071 1.29289C14.8946 1.48043 15 1.73478 15 2V13C15 13.2652 14.8946 13.5196 14.7071 13.7071C14.5196 13.8946 14.2652 14 14 14H3C2.73478 14 2.48043 13.8946 2.29289 13.7071C2.10536 13.5196 2 13.2652 2 13V2C2 1.73478 2.10536 1.48043 2.29289 1.29289C2.48043 1.10536 2.73478 1 3 1H14ZM3 10V13H6V10H3ZM10 10H7V13H10V10ZM14 10H11V13H14V10ZM7 5.999V9H10V6L7 5.999ZM14 6H11V9H14V6ZM14 2H11V5H14V2ZM10 2H7V4.999L10 5V2ZM6 2H3V5L6 4.999V2ZM3 9H6V5.999L3 6V9Z" fill="#111111"/>
</g>
</svg>
