<svg width="16" height="16" viewBox="0 0 16 16" fill="none" xmlns="http://www.w3.org/2000/svg">
<g id="trash">
<path id="Vector" d="M9.5 1C10.0304 1 10.5391 1.21071 10.9142 1.58579C11.2893 1.96086 11.5 2.46957 11.5 3H14C14.1326 3 14.2598 3.05268 14.3536 3.14645C14.4473 3.24021 14.5 3.36739 14.5 3.5V5.5C14.5 5.63261 14.4473 5.75979 14.3536 5.85355C14.2598 5.94732 14.1326 6 14 6H13.338L12.845 13.597C12.8204 13.9769 12.6522 14.3333 12.3746 14.5938C12.097 14.8543 11.7307 14.9995 11.35 15H4.65C4.26912 14.9998 3.90258 14.8547 3.62475 14.5941C3.34693 14.3336 3.17863 13.9771 3.154 13.597L2.66 6H2C1.86739 6 1.74021 5.94732 1.64645 5.85355C1.55268 5.75979 1.5 5.63261 1.5 5.5V3.5C1.5 3.36739 1.55268 3.24021 1.64645 3.14645C1.74021 3.05268 1.86739 3 2 3H4.5C4.5 2.46957 4.71071 1.96086 5.08579 1.58579C5.46086 1.21071 5.96957 1 6.5 1H9.5ZM12.336 6H3.663L4.153 13.532C4.16111 13.6585 4.21694 13.7771 4.3092 13.864C4.40146 13.9509 4.52327 13.9995 4.65 14H11.348C11.4749 13.9998 11.597 13.9513 11.6894 13.8644C11.7819 13.7775 11.8379 13.6586 11.846 13.532L12.336 6ZM7 7V13H6V7H7ZM10 7V13H9V7H10ZM13.5 4H2.5V5H13.5V4ZM9.5 2H6.5C6.23478 2 5.98043 2.10536 5.79289 2.29289C5.60536 2.48043 5.5 2.73478 5.5 3H10.5C10.5 2.73478 10.3946 2.48043 10.2071 2.29289C10.0196 2.10536 9.76522 2 9.5 2Z" fill="#111111"/>
</g>
</svg>
