<svg width="16" height="16" viewBox="0 0 16 16" fill="none" xmlns="http://www.w3.org/2000/svg">
<g id="twitter">
<path id="Vector" d="M5.403 13.671C10.686 13.671 13.575 9.25801 13.575 5.43001C13.575 5.30501 13.575 5.18001 13.567 5.05601C14.1299 4.64501 14.6151 4.13709 15 3.55601C14.4761 3.79027 13.9198 3.94401 13.35 4.01201C13.951 3.64845 14.3997 3.07926 14.613 2.41001C14.0498 2.74714 13.4328 2.98493 12.789 3.11301C12.5316 2.83587 12.2218 2.61258 11.8776 2.45606C11.5333 2.29954 11.1613 2.21291 10.7833 2.20119C10.4053 2.18947 10.0287 2.25289 9.67539 2.38778C9.32207 2.52267 8.99903 2.72635 8.725 2.98701C8.35799 3.33644 8.08841 3.77551 7.94286 4.26092C7.79731 4.74632 7.78081 5.26128 7.895 5.75501C6.75067 5.69602 5.63172 5.39586 4.61149 4.8742C3.59127 4.35254 2.69281 3.62116 1.975 2.72801C1.60717 3.36563 1.49438 4.11887 1.6593 4.83627C1.82423 5.55367 2.25464 6.18203 2.864 6.59501C2.40639 6.58115 1.95895 6.45659 1.56 6.23201V6.26901C1.56 7.64801 2.524 8.83501 3.864 9.10901C3.4413 9.22542 2.99741 9.24254 2.567 9.15901C2.74839 9.7324 3.10479 10.2346 3.58617 10.5951C4.06755 10.9556 4.64973 11.1563 5.251 11.169C4.65706 11.6404 3.97551 11.9892 3.24582 12.1954C2.51613 12.4015 1.75279 12.4609 1 12.37C2.31115 13.2198 3.84053 13.6714 5.403 13.67" fill="#111111"/>
</g>
</svg>
