<svg width="16" height="16" viewBox="0 0 16 16" fill="none" xmlns="http://www.w3.org/2000/svg">
<g id="video-solid">
<path id="Vector" d="M9 4.35001H3C2.73478 4.35001 2.48043 4.45536 2.29289 4.6429C2.10536 4.83044 2 5.08479 2 5.35001V11.35C2 11.6152 2.10536 11.8696 2.29289 12.0571C2.48043 12.2446 2.73478 12.35 3 12.35H9C9.26522 12.35 9.51957 12.2446 9.70711 12.0571C9.89464 11.8696 10 11.6152 10 11.35V5.35001C10 5.08479 9.89464 4.83044 9.70711 4.6429C9.51957 4.45536 9.26522 4.35001 9 4.35001ZM12.95 5.14001L10.67 6.70001V10L12.95 11.58C13.39 11.88 14 11.57 14 11.04V5.68001C14 5.15001 13.4 4.83001 12.95 5.14001Z" fill="#111111"/>
</g>
</svg>
