<svg width="16" height="16" viewBox="0 0 16 16" fill="none" xmlns="http://www.w3.org/2000/svg">
<g id="wordwipe">
<path id="Vector" d="M12 1C12.7956 1 13.5587 1.31607 14.1213 1.87868C14.6839 2.44129 15 3.20435 15 4V12C15 12.7956 14.6839 13.5587 14.1213 14.1213C13.5587 14.6839 12.7956 15 12 15H4C3.20435 15 2.44129 14.6839 1.87868 14.1213C1.31607 13.5587 1 12.7956 1 12V4C1 3.20435 1.31607 2.44129 1.87868 1.87868C2.44129 1.31607 3.20435 1 4 1H12ZM4.845 4H3L5.056 12H6.784L7.9 7.526L8.018 7.022L8.147 7.526L9.31 12H10.979L13 4H11.472L10.392 8.69L10.25 9.205L10.133 8.69L8.899 4H7.37L6.243 8.678L6.103 9.205L5.973 8.654L4.845 4Z" fill="#111111"/>
</g>
</svg>
