<svg width="16" height="16" viewBox="0 0 16 16" fill="none" xmlns="http://www.w3.org/2000/svg">
<g id="wp">
<path id="Vector" d="M13.542 10.316V5.491L12.902 4.895L11.691 6.107V9.64C11.995 9.648 12.316 9.689 12.625 9.787C12.986 9.885 13.278 10.057 13.53 10.327L13.542 10.315V10.316ZM13.692 3.761L15 4.959V9.992L12.975 11.52C12.9119 11.442 12.8434 11.3685 12.77 11.3C12.4634 11.0352 12.0815 10.8733 11.678 10.837V12.729L10.244 14.054L10.221 14.042V11.072C9.8067 11.2364 9.41113 11.4446 9.041 11.693L8.948 11.635C9.029 10.745 9.468 10.085 10.221 9.83V7.574H9.978C9.83497 7.56992 9.69508 7.61642 9.58296 7.70532C9.47083 7.79421 9.39365 7.91981 9.365 8.06H9.225C9.16468 7.88938 9.13752 7.70881 9.145 7.528C9.145 6.961 9.527 6.533 10.152 6.533H10.221V5.283L9.804 4.913L9.481 5.237L9.319 5.087L10.603 3.767L11.691 4.762V5.762L13.692 3.761ZM7.399 5.69L6.738 5.03L6.253 5.514V9.544L7.387 10.539L7.399 10.527V5.692V5.69ZM4.784 9.997V5.842L3.968 5.035L3.442 5.562V9.556L4.425 10.401L4.784 9.996V9.997ZM7.564 3.86L8.857 5.137V9.419L6.473 11.617L4.865 10.229L3.638 11.617L1.972 10.182V7.913H1.648C1.358 7.913 1.22 8.087 1.174 8.318H1.058C1.02098 8.17421 1.00151 8.02647 1 7.878C1 7.578 1.127 6.791 1.972 6.791V5.032C1.972 4.349 1.521 4.315 1.521 3.725C1.521 3.065 2.146 2.452 3.291 2.047L3.395 2.139C3.013 2.324 2.701 2.556 2.701 3.053C2.701 3.817 3.441 3.62 3.441 4.823V5.218L4.795 3.863L4.8 3.859L6.194 5.23L7.564 3.86Z" fill="#111111"/>
</g>
</svg>
